#define chat_width 13
#define chat_height 13
static char chat_bits[] = {
  0xFC, 0x07, 0x06, 0x0C, 0x03, 0x18, 0x01, 0x10, 0x01, 0x10, 0x01, 0x10, 
  0x01, 0x10, 0x03, 0x18, 0x06, 0x0C, 0xC4, 0x07, 0x24, 0x00, 0x1A, 0x00, 
  0x06, 0x00, };
