#define globe_width 13
#define globe_height 13
static char globe_bits[] = {
  0xF8, 0x03, 0xCC, 0x06, 0xF6, 0x0C, 0xE3, 0x18, 0x81, 0x11, 0x01, 0x13, 
  0x81, 0x17, 0x8F, 0x17, 0x07, 0x13, 0x07, 0x19, 0x46, 0x0C, 0xFC, 0x07, 
  0xF8, 0x03, };
