#define home_width 13
#define home_height 13
static char home_bits[] = {
  0xE0, 0x00, 0xB0, 0x01, 0x18, 0x03, 0x0C, 0x06, 0x06, 0x0C, 0x03, 0x18, 
  0x03, 0x18, 0xBA, 0x0B, 0xAA, 0x0B, 0x2A, 0x08, 0x2A, 0x08, 0x2A, 0x08, 
  0xFE, 0x0F, };
