#define mail3_width 13
#define mail3_height 13
static char mail3_bits[] = {
  0x00, 0x00, 0x00, 0x00, 0xFE, 0x0F, 0x03, 0x18, 0x05, 0x14, 0x09, 0x12, 
  0x11, 0x11, 0xE1, 0x10, 0x01, 0x10, 0x01, 0x10, 0x01, 0x10, 0xFE, 0x0F, 
  0x00, 0x00, };
