#define mail2_width 13
#define mail2_height 13
static char mail2_bits[] = {
  0x00, 0x00, 0x00, 0x00, 0x00, 0x00, 0x00, 0x00, 0xFF, 0x1F, 0x03, 0x18, 
  0x05, 0x14, 0x09, 0x12, 0x11, 0x11, 0xA9, 0x12, 0x45, 0x14, 0x03, 0x18, 
  0xFF, 0x1F, };
