#define music_width 13
#define music_height 13
static char music_bits[] = {
  0x00, 0x00, 0xFC, 0x07, 0x06, 0x0C, 0x02, 0x08, 0x02, 0x08, 0x02, 0x08, 
  0x02, 0x08, 0x1A, 0x0B, 0x1A, 0x0B, 0x1C, 0x07, 0x18, 0x03, 0x18, 0x03, 
  0x00, 0x00, };
