#define robot_width 13
#define robot_height 13
static char robot_bits[] = {
  0xE8, 0x02, 0x10, 0x01, 0x10, 0x01, 0xFC, 0x07, 0x14, 0x05, 0x1C, 0x07, 
  0x14, 0x05, 0xFE, 0x0F, 0x56, 0x0D, 0x50, 0x01, 0xF0, 0x01, 0x48, 0x02, 
  0xF8, 0x03, };
