#define world_width 13
#define world_height 13
static char world_bits[] = {
  0x00, 0x00, 0xF0, 0x01, 0x08, 0x02, 0x3C, 0x07, 0x7E, 0x09, 0x3A, 0x0E, 
  0x12, 0x0E, 0x7A, 0x0E, 0x3A, 0x0C, 0x3C, 0x04, 0x18, 0x02, 0xF0, 0x01, 
  0x00, 0x00, };
