#define tall_reversed_width 12
#define tall_reversed_height 12
static unsigned char tall_reversed_bits[] = {
   0x00, 0x00, 0x00, 0x00, 0xee, 0x07, 0xee, 0x07, 0xe0, 0x07, 0xee, 0x07,
   0xee, 0x07, 0xe0, 0x07, 0xee, 0x07, 0xee, 0x07, 0x00, 0x00, 0x00, 0x00 };
