/* XPM */
static char *01-scaled[] = {
/* columns rows colors chars-per-pixel */
"18 11 88 1",
"  c black",
". c #05B9055203DD",
"X c #071906A804E4",
"o c #072A06FA05B2",
"O c #0B230A60075C",
"+ c #0F5F0DDE07B8",
"@ c #0B330AEC0889",
"# c #219921992199",
"$ c #30D330B02FB8",
"% c #32DF35283656",
"& c #35B9366330A0",
"* c #3E833D3E36E3",
"= c #3C3A3D7F40CD",
"- c #42693F183316",
"; c #464442D33402",
": c #700967343DCA",
"> c #461F45D94431",
", c #505D52725359",
"< c #74346CED5212",
"1 c #83DC7D194E48",
"2 c #9AAC8E2E5AC1",
"3 c #86BE849363CB",
"4 c #92BB8F35614C",
"5 c #A1B38F9545E6",
"6 c #A8C594E5420C",
"7 c #AF3A9F475413",
"8 c #A97699125B9B",
"9 c #A7C49CBD6E96",
"0 c #B5CEA57248EE",
"q c #B340A9204AD9",
"w c #C0AAA9DE47D0",
"e c #B9B6A7435E14",
"r c #AA4AA0AD703D",
"t c #B7B9A5EE62D1",
"y c #B205A7947461",
"u c #B9ECAC0071B0",
"i c #CC91B6095800",
"p c #C7F5BA52803D",
"a c #D71DBFFA60EA",
"s c #D7BCC0BC634A",
"d c #F4EEC9521A4C",
"f c #FDE2D00211F4",
"g c #FE96D2951A26",
"h c #EF5BC9392AF8",
"j c #EA1BC8FF3E50",
"k c #F58DCBF322EB",
"l c #F2E8CC122ED7",
"z c #F36ECCE72E05",
"x c #F191CBFE311B",
"c c #FF43D4B923BC",
"v c #FD78D4032609",
"b c #FFEFDAAA3F37",
"n c #DFC9CDEF6298",
"m c #DE6ECB8369F0",
"M c #D30DC888748E",
"N c #E1F2C54349E6",
"B c #E9C2C93F4253",
"V c #ED04CF975139",
"C c #E346D40E5646",
"Z c #F28FD1D943FB",
"A c #F8C0D6D64E76",
"S c #FF7DDC1546EB",
"D c #FE1DDC1B4CE1",
"F c #FDC4DBF94FE8",
"G c #F5CED51F52BA",
"H c #F676D8175D1D",
"J c #EF6CD85B6B6A",
"K c #EB54D6E47270",
"L c #F90FDDDF6411",
"P c #FFFFE0AE64C0",
"I c #FFFFE11B65D5",
"U c #FBFAE12D74F4",
"Y c #FFC7E43375C5",
"T c #FC3AE2FF78BF",
"R c #930795388468",
"E c #94E99559872B",
"W c #CB7BCFE49AE9",
"Q c #CD61C7A5A456",
"! c #FF9FE7878707",
"~ c #FFFFEA3490A2",
"^ c #FE3BEC21A039",
"/ c #FFFFED85A42C",
"( c #FFFFEE25A787",
") c #FE05EF3FB105",
"_ c #FF2BF139B373",
"` c #FF67F679D23B",
"' c #FEF0F95AE26A",
"] c None",
/* pixels */
"]]]]]]]]]]]]]]]]]]",
"]]]]]]u3mEQ&]]]]]]",
"]]]]]e5KLKw7;]]]]]",
"]]]Oy6U__TZi4,]]]]",
"]]]o8G/``~Dlp%]]]]",
"]]]+HA!(/UbkV<]]]]",
"]]]o:jFIISdhWo]]]]",
"]]]@9nzvcfdn2>]]]]",
"]]]]]0MBlNnt*]]]]]",
"]]]]]]q1CE9$#]]]]]",
"]]]]]]]]=*]]]]]]]]"
};
