/* XPM */
static char *01[] = {
/* columns rows colors chars-per-pixel */
"32 20 206 2",
"   c #E2BF36",
".  c #D3BB5E",
"X  c #D6BD5F",
"o  c #DBBF52",
"O  c #CEBA77",
"+  c #D2BD6C",
"@  c #EFC311",
"#  c #EBC21D",
"$  c #F6C70C",
"%  c #F9C803",
"&  c #FCCA02",
"*  c #FCCA03",
"=  c #FECB01",
"-  c #FECC00",
";  c #FFCF00",
":  c #FDCD06",
">  c #F8C80C",
",  c #FECE08",
"<  c #FECE0A",
"1  c #F3C714",
"2  c #F5C813",
"3  c #F9CD16",
"4  c #FFD000",
"5  c #FED00C",
"6  c #FFD316",
"7  c #FDD21C",
"8  c #FFD51C",
"9  c #EBC32A",
"0  c #E2C03D",
"q  c #E9C73D",
"w  c #EEC830",
"e  c #EDC837",
"r  c #F0C722",
"t  c #F2CA20",
"y  c #F0C925",
"u  c #F1C926",
"i  c #F0CB30",
"p  c #F1CB37",
"a  c #F3CD33",
"s  c #F0CC36",
"d  c #F3CF3D",
"f  c #FFD523",
"g  c #FBD32D",
"h  c #FCD32C",
"j  c #FED52A",
"k  c #FED628",
"l  c #FFD629",
"z  c #FFD62B",
"x  c #FFD72A",
"c  c #FCD42C",
"v  c #FFDA29",
"b  c #FFDB2F",
"n  c #F8D53A",
"m  c #FCD638",
"M  c #FDD73A",
"N  c #FFD93D",
"B  c yellow",
"V  c #FFEE39",
"C  c #DFC251",
"Z  c #DAC261",
"A  c #DEC668",
"S  c #DEC76B",
"D  c #DECB7D",
"F  c #E0C040",
"G  c #EAC942",
"H  c #EECE48",
"J  c #EECE4B",
"K  c #EDCD4E",
"L  c #E6C756",
"P  c #ECCD51",
"I  c #EFD35B",
"U  c #EFD35F",
"Y  c #F1CE46",
"T  c #F3D044",
"R  c #F3D34A",
"E  c #F4D449",
"W  c #FAD544",
"Q  c #FAD647",
"!  c #FFD940",
"~  c #FCD947",
"^  c #FFDA45",
"/  c #FFDB46",
"(  c #FFDB4C",
")  c #FFDB4D",
"_  c #FFDC4D",
"`  c #F6D653",
"'  c #F7D754",
"]  c #F6D659",
"[  c #F5D85F",
"{  c #FFDC51",
"}  c #FFDD50",
"|  c #FFDD57",
" . c #F8DB5E",
".. c #FCD95A",
"X. c #FFDD5A",
"o. c #FEDF5A",
"O. c #E4CB65",
"+. c #E3CC6D",
"@. c #E4CE76",
"#. c #ECD264",
"$. c #E8D071",
"%. c #F2D767",
"&. c #F3D867",
"*. c #F5D966",
"=. c #F5D96B",
"-. c #FDDD63",
";. c #FBDF6C",
":. c #FBDF6D",
">. c #F6DE7D",
",. c #FFE147",
"<. c #FFE051",
"1. c #FFE35B",
"2. c #FFE05D",
"3. c #FFFF46",
"4. c #FCE16F",
"5. c #FAE075",
"6. c #FFE270",
"7. c #FEE273",
"8. c #FFE272",
"9. c #FFE373",
"0. c #FEE374",
"q. c #FFE374",
"w. c #FFE776",
"e. c #FDE37C",
"r. c #FFE57B",
"t. c #FFE57C",
"y. c #FFE67E",
"u. c #9DA8D1",
"i. c #B2C1A2",
"p. c #A1C3FF",
"a. c #B2C9FF",
"s. c #B5D9FF",
"d. c #C5BE9E",
"f. c #D4C78E",
"g. c #DDCB82",
"h. c #C6C0A1",
"j. c #CCC3A4",
"k. c #D1CEBB",
"l. c #D0CDBC",
"z. c #E2D08B",
"x. c #E2D497",
"c. c #E5D598",
"v. c #E4D49A",
"b. c #EBDEAD",
"n. c #E4DBB4",
"m. c #E0D8B8",
"M. c #F7E080",
"N. c #F4E085",
"B. c #F7E28F",
"V. c #FBE380",
"C. c #FDE480",
"Z. c #F8E48A",
"A. c #FCE68E",
"S. c #FCE78E",
"D. c #FDEA8A",
"F. c #FEE88C",
"G. c #FFEA8D",
"H. c #F3E19A",
"J. c #F1E09C",
"K. c #F3E19E",
"L. c #FFE890",
"P. c #FFE992",
"I. c #FFEB98",
"U. c #FFEB99",
"Y. c #FFED9D",
"T. c #FFEC9F",
"R. c #F0E5A1",
"E. c #FFEDA1",
"W. c #FEECA5",
"Q. c #FFEFAD",
"!. c #FCEDB1",
"~. c #FFEFB0",
"^. c #FFF0A9",
"/. c #FFFFA5",
"(. c #FFF1B9",
"). c #FFF1BA",
"_. c #FFF1BB",
"`. c #FFF8B8",
"'. c #FFF8BD",
"]. c #D4D2C8",
"[. c #D4D7CD",
"{. c #D8DDEE",
"}. c #C1FAFF",
"|. c #E8E6DB",
" X c #F6F0CC",
".X c #FFF3C2",
"XX c #FFF3C4",
"oX c #FFF5CB",
"OX c #F6F1D8",
"+X c #FFF7D4",
"@X c #FFF8D7",
"#X c #FFFBD6",
"$X c #E6EAEA",
"%X c #E8E7E0",
"&X c #E0EDF9",
"*X c #E1F2E9",
"=X c #EDF2FF",
"-X c #FFF9E1",
";X c #FEF8E3",
":X c #FEF9E4",
">X c #FDFAED",
",X c #F5F3F2",
"<X c #FDFBF4",
"1X c #FEFDF7",
"2X c gray100",
"3X c None",
/* pixels */
"3X3X3X3X3X3X3X3X3X3X3X3X3X3X3X3X3X3X3X3X3X3X3X3X3X3X3X3X3X3X3X3X",
"3X3X3X3X3X3X3X3X3X3X3X3X3X3X3X3X3X3X3X3X3X3X3X3X3X3X3X3X3X3X3X3X",
"3X3X3X3X3X3X3X3X3X3X3XG.2X3XD.H.|.3X2X X3X3X3X3X3X3X3X3X3X3X3X3X",
"3X3X3X3X3X3X3X3X3X3X3XC.=.i.V P s.1.%.*X3X3X3X3X3X3X3X3X3X3X3X3X",
"3X3X3X3X3X3X3X3X3Xe.c.3X~ U N.Q x.g 0 3Xw.K.3X3X3X3X3X3X3X3X3X3X",
"3X3X3X3X3X3X3X3X3Xe./ *.:.V.:.F.' E + b w [.3X3X3X3X3X3X3X3X3X3X",
"3X3X3X3X3X3X3XW.`.3X[ 6.A.+X#X(.Y.:.n t j.3X/.$X3X3X3X3X3X3X3X3X",
"3X3X3X3X3X3X3X!.] M [ A.:X<X>XXXE.t.<.i J c @.&X3X3X3X3X3X3X3X3X",
"3X3X3X3X3X3X3X3XO K -.^.oX:X:X.XE.t.| x 1 . u.3X3X3X3X3X3X3X3X3X",
"3X3X3X3X3X3X3XB./ ` ..I.~._._.Q.L.6.} f r U ,.b.3X3X3X3X3X3X3X3X",
"3X3X3X3X3X3X3X&.e d o.t.L.U.U.L.q.o.! 8 >   C v.3X3X3X3X3X3X3X3X",
"3X3X3X3X3X3X3X3X3X#.g 2.6.9.q.6.o./ l 4 # k.}.3X3X3X3X3X3X3X3X3X",
"3X3X3X3X3X3X3X#XR y s m } ) ( ( N k < $ y a $.3X3X3X3X3X3X3X3X3X",
"3X3X3X3X3X3X3X'.z.h.+.: 7 l x l 6 < * @ l.f.g.1X3X3X3X3X3X3X3X3X",
"3X3X3X3X3X3X3X3X3X3.3 o q ; * : % % C d Y 3X3X3X3X3X3X3X3X3X3X3X",
"3X3X3X3X3X3X3X3X3X>.S a.c F S * + 1 O.{.L v.3X3X3X3X3X3X3X3X3X3X",
"3X3X3X3X3X3X3X3X3X3X3XB J d.R.9 p.T G 3X3X2X3X3X3X3X3X3X3X3X3X3X",
"3X3X3X3X3X3X3X3X3X3X3XZ.m.3XB D ].3Xn.%X3X3X3X3X3X3X3X3X3X3X3X3X",
"3X3X3X3X3X3X3X3X3X3X3X3X3X3X3X=XOX3X3X3X3X3X3X3X3X3X3X3X3X3X3X3X",
"3X3X3X3X3X3X3X3X3X3X3X3X3X3X3X3X3X3X3X3X3X3X3X3X3X3X3X3X3X3X3X3X"
};
