/* XPM */
static char *02-scaled[] = {
/* columns rows colors chars-per-pixel */
"18 11 100 2",
"   c black",
".  c #071906A804E4",
"X  c #072A06FA05B2",
"o  c #0B230A60075C",
"O  c #0F5F0DDE07B8",
"+  c #0B330AEC0889",
"@  c #0BEA0C7B0CFD",
"#  c #0E7E0EF40F5A",
"$  c #1C091E18229C",
"%  c #24161C1F17E3",
"&  c #240024002400",
"*  c #29172ADC2C57",
"=  c #32DF35283656",
"-  c #35B9366330A0",
";  c #3BF93D3E40CD",
":  c #464442D33402",
">  c #40CD40CD3A72",
",  c #700967343DCA",
"<  c #505D52725359",
"1  c #5B7B5F1861B5",
"2  c #663D613E5E1B",
"3  c #74746D2D50D1",
"4  c #83DC7D194E32",
"5  c #86BE849363CB",
"6  c #92BB8F35614C",
"7  c #A18F8F7D45A2",
"8  c #A89A94D7423F",
"9  c #AF3A9F175423",
"0  c #A97699125B9B",
"q  c #B5CEA57248EE",
"w  c #B340A9204AD9",
"e  c #C0AAA9A247E4",
"r  c #B96EA7135D8D",
"t  c #AA4AA0AD703D",
"y  c #B205A7947461",
"u  c #B9ECAC0071B0",
"i  c #CC91B5D05814",
"p  c #C7F5BA528036",
"a  c #F575CB8B1F27",
"s  c #EA1BC8FF3E50",
"d  c #ED33CA083984",
"f  c #F36ECCE72E05",
"g  c #F191CC6430E6",
"h  c #FD88D3C524EF",
"j  c #FD81D3FB25E9",
"k  c #FFEFDA393CAC",
"l  c #DFC9CDEF6298",
"z  c #DE6ECB8369F0",
"x  c #D30DC888748E",
"c  c #E9EEC9474197",
"v  c #ED6DCF574D7D",
"b  c #E43BD4335487",
"n  c #F28FD1914413",
"m  c #F8C0D6D64E76",
"M  c #FD33D9F144A4",
"N  c #FE1DDC9D4CB8",
"B  c #FDC4DBF94FE8",
"V  c #F642D59352F4",
"C  c #F676D8175D1D",
"Z  c #EF6CD85B6B6A",
"A  c #EB54D6E47270",
"S  c #EFE5DC5B7E32",
"D  c #F371DC156CA6",
"F  c #F90FDD906323",
"G  c #FFFFE0AE6527",
"H  c #FFFFE11B65E2",
"J  c #FC04E13C74BB",
"K  c #FF7FE43375C5",
"L  c #FC3AE2FF78BF",
"P  c #930795388468",
"I  c #93E697B39B35",
"U  c #99DCA11CA8F1",
"Y  c #BDB7C215C75A",
"T  c #CD61C7A5A456",
"R  c #FF9FE7878707",
"E  c #FFFFEA3490A2",
"W  c #FEC8EC949F78",
"Q  c #ED4CE42EB01F",
"!  c #FFFFED85A42C",
"~  c #FFFFEE25A787",
"^  c #FD23EEA0B26F",
"/  c #FF2BF139B412",
"(  c #CAD9CCFECB4A",
")  c #CBE1CFD9CD13",
"_  c #CBCBCF85D2E9",
"`  c #D639DBF5DA1E",
"'  c #DE97E4B0E88A",
"]  c #E44FE28DCC89",
"[  c #F6E0EF35C5C7",
"{  c #FF67F679D23B",
"}  c #E70EEF19F539",
"|  c #F8C1F602E5F3",
" . c #FA65F58CE11D",
".. c #FF10F95AE209",
"X. c #FC18FAB0F011",
"o. c #F31FF87EFBBB",
"O. c #F923F98AF47C",
"+. c #F979FB2DFD16",
"@. c #FBD4FD07FD14",
"#. c None",
/* pixels */
"#.#.#.#.#.#.#.#.#.#.#.#.#.#.#.#.#.#.",
"#.#.#.#.#.#.u 5 z P T - #.#.#.#.#.#.",
"#.#.#.#.#.r 7 Z F A e 9 : #.#.#.#.#.",
"#.#.#.o y 8 J ^ / L n i 6 < #.#.#.#.",
"#.#.#.X 0 V W ..{ E N g p = #.#.#.#.",
"#.#.#.O C m R ~ ~ K k a v 3 #.#.#.#.",
"#.#.#.X , s B H G M D Q ` 1 $ #.#.#.",
"#.#.#.+ t l f j h S [  .O.o.U @ #.#.",
"#.#.#.#.#.q x c d ] | X.@.@.} * #.#.",
"#.#.#.#.#.#.w 4 b ( ) ' _ Y I # #.#.",
"#.#.#.#.#.#.#.#.= > * 2 % #.#.#.#.#."
};
