/* XPM */
static char *02[] = {
/* columns rows colors chars-per-pixel */
"32 20 232 2",
"   c #656D80",
".  c #E4BF2F",
"X  c #D3BB5E",
"o  c #DBBF52",
"O  c #CEBA77",
"+  c #D2BD6C",
"@  c #F7C807",
"#  c #FDCB01",
"$  c #FFCF00",
"%  c #FDCD06",
"&  c #F3C714",
"*  c #F2C81C",
"=  c #F9CD16",
"-  c #FFD314",
";  c #FDD21C",
":  c #ECC524",
">  c #EDC429",
",  c #E2C03D",
"<  c #E9C73D",
"1  c #EEC830",
"2  c #EDC837",
"3  c #F0C620",
"4  c #F2CA20",
"5  c #F0C925",
"6  c #F0CB30",
"7  c #F0CC36",
"8  c #F3CF3D",
"9  c #FFD522",
"0  c #FFD622",
"q  c #FBD32D",
"w  c #FCD32C",
"e  c #FFD629",
"r  c #FFD72A",
"t  c #FCD42C",
"y  c #FFDA29",
"u  c #FFDB2F",
"i  c #F6D33F",
"p  c #F9D431",
"a  c #F8D53A",
"s  c #FCD638",
"d  c #FDD73A",
"f  c #FFD830",
"g  c #FFD93B",
"h  c #FFDA3B",
"j  c yellow",
"k  c #FFEE39",
"l  c #DFC14A",
"z  c #DEC76B",
"x  c #E0C040",
"c  c #EECE48",
"v  c #EECE4B",
"b  c #EDCD4E",
"n  c #ECCD51",
"m  c #EFD35B",
"M  c #EFD35F",
"N  c #F5D340",
"B  c #F3D34A",
"V  c #F4D449",
"C  c #FAD544",
"Z  c #FAD647",
"A  c #FCD947",
"S  c #FFDB46",
"D  c #FFDB4C",
"F  c #FFDB4D",
"G  c #FFDC4D",
"H  c #F6D653",
"J  c #F7D754",
"K  c #F6D659",
"L  c #F5D85F",
"P  c #FFDC51",
"I  c #FFDD50",
"U  c #FEDD57",
"Y  c #FFDD57",
"T  c #F8DB5E",
"R  c #FCD95A",
"E  c #FFDD5A",
"W  c #FEDF5A",
"Q  c #E0C762",
"!  c #E3CC6D",
"~  c #E4CE76",
"^  c #E0CB79",
"/  c #ECD264",
"(  c #EDD870",
")  c #F2D767",
"_  c #F3D867",
"`  c #F5D966",
"'  c #F5D96B",
"]  c #FDDD63",
"[  c #FBDF6C",
"{  c #FBDF6D",
"}  c #F6DE7D",
"|  c #FFE146",
" . c #FFE051",
".. c #FFE35B",
"X. c #FFE05D",
"o. c #FFFF46",
"O. c #FCE16F",
"+. c #FAE075",
"@. c #FFE270",
"#. c #FEE273",
"$. c #FFE272",
"%. c #FFE373",
"&. c #FEE374",
"*. c #FFE374",
"=. c #FFE776",
"-. c #FDE37C",
";. c #FFE57B",
":. c #FFE57C",
">. c #FFE67E",
",. c #9DA8D1",
"<. c #B2C1A2",
"1. c #B2C9FF",
"2. c #B5D9FF",
"3. c #C5BE9E",
"4. c #D5A68D",
"5. c #C6C0A1",
"6. c #CCC3A4",
"7. c #E2D08B",
"8. c #E2D497",
"9. c #E5D595",
"0. c #E0D8A6",
"q. c #E5DDA9",
"w. c #EBDEAD",
"e. c #E0D8B8",
"r. c #F7E080",
"t. c #F4E085",
"y. c #F7E28F",
"u. c #FBE380",
"i. c #FDE480",
"p. c #F8E48A",
"a. c #FCE68E",
"s. c #FCE78E",
"d. c #FDEA8A",
"f. c #FEE88C",
"g. c #FFEA8D",
"h. c #F3E19A",
"j. c #F1E09C",
"k. c #F3E19E",
"l. c #F0E59F",
"z. c #FFE890",
"x. c #FFE992",
"c. c #FFEB98",
"v. c #FFEB99",
"b. c #FFED9D",
"n. c #FFEC9F",
"m. c #E8E1A9",
"M. c #E6E1B3",
"N. c #FFEDA1",
"B. c #FEECA5",
"V. c #FFEFAD",
"C. c #FCEDB1",
"Z. c #FFEFB0",
"A. c #FFF0A9",
"S. c #FFFFA5",
"D. c #FFF1B9",
"F. c #FFF1BA",
"G. c #FFF1BB",
"H. c #FFF8B8",
"J. c #FFF8BD",
"K. c #C7CBD0",
"L. c #C4CAD4",
"P. c #C9CDD0",
"I. c #C9CDD1",
"U. c #CBCCD0",
"Y. c #CBD0D5",
"T. c #CCD0D6",
"R. c #D4D1C8",
"E. c #D4D7CD",
"W. c #D4D8D4",
"Q. c #D4D8D7",
"!. c #DAD6D2",
"~. c #D0DAE3",
"^. c #D2DAE0",
"/. c #D3DDE6",
"(. c #D5DDE4",
"). c #D6DFE6",
"_. c #DCE3E9",
"`. c #DDE7EF",
"'. c #DFE7ED",
"]. c #DFE7EF",
"[. c #D2E2FF",
"{. c #DAE5F1",
"}. c #DBE5F1",
"|. c #E8E6DB",
" X c #EAECDD",
".X c #F0EDD0",
"XX c #F6F0CC",
"oX c #F7F2CE",
"OX c #FFF3C2",
"+X c #FCF1C4",
"@X c #FFF3C4",
"#X c #F8F2C9",
"$X c #F9F3CD",
"%X c #FCF2CE",
"&X c #FFF5CB",
"*X c #FCF5CC",
"=X c #F7F1D9",
"-X c #FAF3D2",
";X c #FFF7D4",
":X c #FCF5D9",
">X c #FFF8D7",
",X c #FFFBD6",
"<X c #E1E7E1",
"1X c #E2E8E4",
"2X c #E6EAEA",
"3X c #E0E8F1",
"4X c #E2E9F0",
"5X c #E5EFF6",
"6X c #E6EFF5",
"7X c #E0EDF9",
"8X c #E1F2E9",
"9X c #ECF1FF",
"0X c #EEF5FB",
"qX c #FFF9E1",
"wX c #FEF8E3",
"eX c #FEF9E4",
"rX c #FFFFE6",
"tX c #FCF8EA",
"yX c #FEF9E8",
"uX c #FDFAED",
"iX c #F6F5F1",
"pX c #F7F8F3",
"aX c #F3FAFE",
"sX c #F7FCFF",
"dX c #FBF9F3",
"fX c #FDFBF4",
"gX c #FFFFF4",
"hX c #F8FCFF",
"jX c #F8FFFF",
"kX c #FFFEFA",
"lX c gray100",
"zX c None",
/* pixels */
"zXzXzXzXzXzXzXzXzXzXzXzXzXzXzXzXzXzXzXzXzXzXzXzXzXzXzXzXzXzXzXzX",
"zXzXzXzXzXzXzXzXzXzXzXzXzXzXzXzXzXzXzXzXzXzXzXzXzXzXzXzXzXzXzXzX",
"zXzXzXzXzXzXzXzXzXzXzXg.lXzXd.h.|.zXlXXXzXzXzXzXzXzXzXzXzXzXzXzX",
"zXzXzXzXzXzXzXzXzXzXzXi.' <.k n 2...) 8XzXzXzXzXzXzXzXzXzXzXzXzX",
"zXzXzXzXzXzXzXzXzX-.9.zXA M t.C 8.q , zX=.k.zXzXzXzXzXzXzXzXzXzX",
"zXzXzXzXzXzXzXzXzX-.A ` { u.{ f.J V + f 1 E.zXzXzXzXzXzXzXzXzXzX",
"zXzXzXzXzXzXzXB.H.zXL @.a.:X,XG.b.{ a 4 6.zXS.2XzXzXzXzXzXzXzXzX",
"zXzXzXzXzXzXzXC.K g L f.qXfXuX@XN.:. .6 v t ~ 7XzXzXzXzXzXzXzXzX",
"zXzXzXzXzXzXzXzXO b ] A.&XeXeXOXN.:.Y y & X ,.zXzXzXzXzXzXzXzXzX",
"zXzXzXzXzXzXzXy.S H R c.Z.G.G.V.z.@.P 0 3 M | w.zXzXzXzXzXzXzXzX",
"zXzXzXzXzXzXzX_ 2 8 W :.z.v.v.z.&.W g - @ . l 9.zXzXzXzXzXzXzXzX",
"zXzXzXzXzXzXzXzXzX/ q X.@.%.*.@.W g p ( q.(.[.zXzXzXzXzXzXzXzXzX",
"zXzXzXzXzXzXzX,XB 5 7 s I F F F t N m..X-XXX1X}.~.  zXzXzXzXzXzX",
"zXzXzXzXzXzXzXJ.7.5.! % ; e e 0 N M.#X+XiXdXpXjX0X{.zXzXzXzXzXzX",
"zXzXzXzXzXzXzXzXzXo.= o < $ # * 0.$X=X%X:XlXlXlXlX5X/.zXzXzXzXzX",
"zXzXzXzXzXzXzXzXzX} z 1.t x Q : W.&XtXlXtXkXlXlXlXaX`.zXzXzXzXzX",
"zXzXzXzXzXzXzXzXzXzXzXj v 3.l.> L.<X X5XjXjX4X4X}.4X_.zXzXzXzXzX",
"zXzXzXzXzXzXzXzXzXzXzXp.e.zXj ^ R.T.W.P.~.(.I.P.U.P.zXzXzXzXzXzX",
"zXzXzXzXzXzXzXzXzXzXzXzXzXzXzX9XrXzXzXlX!.4.zXzXzXzXzXzXzXzXzXzX",
"zXzXzXzXzXzXzXzXzXzXzXzXzXzXzXzXzXzXzXzXzXzXzXzXzXzXzXzXzXzXzXzX"
};
