/* XPM */
static char *03-scaled[] = {
/* columns rows colors chars-per-pixel */
"18 11 104 2",
"   c black",
".  c #064605CC03F1",
"X  c #0545057F05B2",
"o  c #0733071D06C0",
"O  c #0ADE09850423",
"+  c #0AB2099D054B",
"@  c #0D660C6307E1",
"#  c #0D6B0C780884",
"$  c #280E28682895",
"%  c #33F9321C22FE",
"&  c #36AD35C92F45",
"*  c #33B334A3354F",
"=  c #4FBD52113B78",
"-  c #43A345924505",
";  c #4A014E0B5175",
":  c #5B575E9D61B9",
">  c #5B915EED6396",
",  c #7C3C74F55898",
"<  c #61FA64F167EF",
"1  c #64BE6619685B",
"2  c #60DA6B316E68",
"3  c #6BF86BF86A2A",
"4  c #6A6C6FDA79E1",
"5  c #771F7C998294",
"6  c #7F54818B8375",
"7  c #9EFE91625B44",
"8  c #87E78A2172A7",
"9  c #94B48D5D6D75",
"0  c #AA6A9959539A",
"q  c #AA0998EC5683",
"w  c #A9229AD45FE6",
"e  c #BE69AA25576C",
"r  c #BE5EB4606121",
"t  c #D989BD154BB1",
"y  c #C208B187685E",
"u  c #E6A6C5343951",
"i  c #F220CC013065",
"p  c #F4DCCF1733A6",
"a  c #F2B2CFDB3E6A",
"s  c #F57FD1D04001",
"d  c #F999D2DA34F5",
"f  c #DE5DC7CB6DB2",
"g  c #E7E9C7A44401",
"h  c #ECAAD250545D",
"j  c #F88CD61E4364",
"k  c #F0F0D2525656",
"l  c #F630D621508F",
"z  c #E8A8CE256222",
"x  c #E389CE7A76EA",
"c  c #EDBCD46363C4",
"v  c #FD4DDFBE62B8",
"b  c #86D28B6F8F77",
"n  c #94409A94A24E",
"m  c #B17EAA7C81E5",
"M  c #C8EFBB45820A",
"N  c #DF73D0088DAF",
"B  c #DFE8D64B925F",
"V  c #DADDD92CBE21",
"C  c #EE5DDD0C8EC6",
"Z  c #E138D3939108",
"A  c #E9E8DACC9688",
"S  c #EE41DF099A35",
"D  c #E139DA82B45C",
"F  c #FDC4E94093A2",
"G  c #FE39EAED97AC",
"H  c #FF2BECD49FE6",
"J  c #DADAD9C1CB4B",
"K  c #D775DF3EE6F1",
"L  c #DF25E3CEDDB6",
"P  c #DEB7E33AE2B3",
"I  c #DF22E3B2E746",
"U  c #D8DEE161E969",
"Y  c #DEF1E5FFECC5",
"T  c #E06EE641EB8B",
"R  c #EB4EE731CA65",
"E  c #EFD3E9EBCD7C",
"W  c #E29DE5A0E0B5",
"Q  c #E90DE9A4DD85",
"!  c #F79CF15FCF6A",
"~  c #FEB6F601CEEB",
"^  c #FFBEF638CF11",
"/  c #F673F11CD292",
"(  c #FB10F4D1D85D",
")  c #FEA4F65AD38E",
"_  c #FF39F6E4D398",
"`  c #FF50F707D2FE",
"'  c #FD0EF686D8B9",
"]  c #FC8FF7AAE02C",
"[  c #FEE2F8C1DD34",
"{  c #E7B7E8D0E635",
"}  c #E2DBE85EE9F7",
"|  c #E279E969EF13",
" . c #EE25ED24E423",
".. c #E87BEF0EF467",
"X. c #F81FF4BEE43E",
"o. c #F8D1F69BE9D7",
"O. c #FAFAF67CE443",
"+. c #FB48F6CBE58D",
"@. c #FF31F957E10C",
"#. c #FE2EFB28ED13",
"$. c #F263F596F45A",
"%. c #F928F8AEF2AB",
"&. c #FD71FE59FEF8",
"*. c None",
/* pixels */
"*.*.*.*.*.*.*.*.*.*.*.*.*.*.*.*.*.*.",
"*.*.*.*.*.*.m 8 t = M & *.*.*.*.*.*.",
"*.*.*.*.- e N c s h A y % *.*.*.*.*.",
"*.*.*.+ q x l F H v p f 7 *.*.*.*.*.",
"*.*.*.# 0 a G ] E S j i B . *.*.*.*.",
"*.*.*.9 k d C J {  .Z u z , *.*.*.*.",
"*.*.*.@ w g D X.@.[ ! R P n X *.*.*.",
"*.*.*.+ r V / ` ` ^ ^ X.%.U * *.*.*.",
"*.*.*.*.2 L o.' ` ( X.#.&...b *.*.*.",
"*.*.*.*.$ 5 I } Q $.{ | T T 6 *.*.*.",
"*.*.*.*.*.*.; : > K 4 < 1 3 X *.*.*."
};
