/* XPM */
static char *03[] = {
/* columns rows colors chars-per-pixel */
"32 20 252 2",
"   c #D9BC49",
".  c #F6C709",
"X  c #FCCC05",
"o  c #F0C514",
"O  c #F3C615",
"+  c #F2C718",
"@  c #F4C91B",
"#  c #F7CB1D",
"$  c #FACC10",
"%  c #FDCE13",
"&  c #FFD514",
"*  c #EAC120",
"=  c #EBC739",
"-  c #EECA37",
";  c #EECA3E",
":  c #F0C725",
">  c #F7CD21",
",  c #F2CB2C",
"<  c #F2CB2F",
"1  c #F4CA28",
"2  c #F7CF28",
"3  c #FBCF21",
"4  c #F8CF27",
"5  c #F0CB37",
"6  c #F4CD33",
"7  c #F1CE3B",
"8  c #F0CD3D",
"9  c #FED421",
"0  c #FAD32B",
"q  c #F6D23D",
"w  c #FBD537",
"e  c #FFD936",
"r  c #FFDB3B",
"t  c #FFDC3F",
"y  c #DEC148",
"u  c #D3C471",
"i  c #DFCB7C",
"p  c #DCCC7F",
"a  c #E7C643",
"s  c #ECCD47",
"d  c #ECCD4B",
"f  c #EBCC52",
"g  c #EECF52",
"h  c #E9CC58",
"j  c #EBCE5D",
"k  c #F2CF44",
"l  c #F3D044",
"z  c #F3D148",
"x  c #FDD842",
"c  c #FFDC48",
"v  c #F3D352",
"b  c #F3D556",
"n  c #F4D350",
"m  c #F4D553",
"M  c #F2D25A",
"N  c #FAD750",
"B  c #FAD850",
"V  c #FEDC53",
"C  c #FAD959",
"Z  c #E1CC76",
"A  c #EDD060",
"S  c #EED368",
"D  c #EDD472",
"F  c #EED871",
"G  c #F5D762",
"H  c #F2D96A",
"J  c #FCDF68",
"K  c #F0D876",
"L  c #F5DD7D",
"P  c #FFE579",
"I  c #86D9FF",
"U  c #BDCCEC",
"Y  c #D9CA87",
"T  c #DACB8B",
"R  c #D0CBA6",
"E  c #D0CCB2",
"W  c #D7D6BD",
"Q  c #E1CE82",
"!  c #E2D38A",
"~  c #E4D48E",
"^  c #F5DF86",
"/  c #F0DC94",
"(  c #E0D4A3",
")  c #E6D9A6",
"_  c #EADEA9",
"`  c #EADEAF",
"'  c #ECDFA9",
"]  c #E1D8B0",
"[  c #E1D8B9",
"{  c #E9DEB2",
"}  c #F5E08F",
"|  c #FFE983",
" . c #F2E19F",
".. c #FAE79D",
"X. c #FFED9B",
"o. c #FFEE9B",
"O. c #FEEC9F",
"+. c #EFE2A9",
"@. c #FBF2A9",
"#. c #FFF0B0",
"$. c #FFF0B2",
"%. c #C9CDCE",
"&. c #C9CECD",
"*. c #CFCEC8",
"=. c #CACFD3",
"-. c #C9D1DD",
";. c #C9D4DD",
":. c #CCD3DC",
">. c #D7D9CB",
",. c #DDDACC",
"<. c #DFDECB",
"1. c #D0D7DD",
"2. c #D2D9DE",
"3. c #D8D9D1",
"4. c #DDDED1",
"5. c #DCDED2",
"6. c #DADBDE",
"7. c #D8DEDB",
"8. c #DADEDA",
"9. c #CBD6E0",
"0. c #CFD9E1",
"q. c #CDD8E5",
"w. c #CEDAF1",
"e. c #D0D9E2",
"r. c #D0DAE1",
"t. c #D1DAE2",
"y. c #D2D9E0",
"u. c #D2DBE3",
"i. c #D1DBE5",
"p. c #D1DBE7",
"a. c #D3DDE7",
"s. c #D4DCE3",
"d. c #D4DCE4",
"f. c #D5DDE4",
"g. c #D5DEE6",
"h. c #D3D9ED",
"j. c #D2DCED",
"k. c #D6DFE8",
"l. c #D6DEEA",
"z. c #DADBE0",
"x. c #DEDFE4",
"c. c #D4DFFF",
"v. c #D7E1EA",
"b. c #DBE0E4",
"n. c #DDE3E6",
"m. c #DFE2E7",
"M. c #DBE0E8",
"N. c #D8E2EC",
"B. c #DCE2E8",
"V. c #DDE2E9",
"C. c #DDE3EA",
"Z. c #DEE3E9",
"A. c #DDE5ED",
"S. c #DDE7ED",
"D. c #DCE6EE",
"F. c #D5EFFF",
"G. c #D8FFFF",
"H. c #E3E2C4",
"J. c #EDE6C4",
"K. c #E3E5D8",
"L. c #E3E5DF",
"P. c #EBE7D1",
"I. c #ECEBDC",
"U. c #EFF3D8",
"Y. c #F3EAC5",
"T. c #F5EBC4",
"R. c #F4EBCD",
"E. c #FFF6C6",
"W. c #F8F2CE",
"Q. c #FBF4CB",
"!. c #FDF3CB",
"~. c #FFF5C8",
"^. c #FFF5CA",
"/. c #FFF6CB",
"(. c #FEF4CC",
"). c #FFF5CC",
"_. c #FFF5CD",
"`. c #FEF4CF",
"'. c #FFF5CE",
"]. c #FFF6CC",
"[. c #FFF6CE",
"{. c #F5F2DE",
"}. c #F6F4DF",
"|. c #FBF4D3",
" X c #FAF4D4",
".X c #FDF4D1",
"XX c #FDF5D1",
"oX c #FFF6D0",
"OX c #FFF6D1",
"+X c #FEF6D3",
"@X c #FFF7D3",
"#X c #FDF5D6",
"$X c #FFF7D4",
"%X c #FAF3D9",
"&X c #F8F3DD",
"*X c #F9F3DD",
"=X c #F9F4DB",
"-X c #FAF4DB",
";X c #FAF5DE",
":X c #FCF5DA",
">X c #FFF7D8",
",X c #FCF6DE",
"<X c #FFF9D2",
"1X c cornsilk",
"2X c #FFF9DD",
"3X c #FEF8DE",
"4X c #FFFBDF",
"5X c #E4E6E7",
"6X c #E7E7E8",
"7X c #E5E7EC",
"8X c gray91",
"9X c #E9EDE9",
"0X c #EBECEB",
"qX c #E3ECF6",
"wX c #E4E9F4",
"eX c #E9F0F4",
"rX c #ECF1F7",
"tX c #E8FFFF",
"yX c #E9FFFF",
"uX c #F3F1E9",
"iX c #F7F6EE",
"pX c #F9F4E0",
"aX c #F8F4E7",
"sX c #FEF7E0",
"dX c #FAF7E8",
"fX c #F9F6EE",
"gX c #FEF8E1",
"hX c #FFF9E1",
"jX c #FEF8E2",
"kX c #FFF9E2",
"lX c #FCF8E5",
"zX c #FFFDEC",
"xX c #FFFCEF",
"cX c #F1F5F3",
"vX c #F5F4F4",
"bX c #F2F6FA",
"nX c #F3F7FB",
"mX c #F2F9FC",
"MX c #F2F8FF",
"NX c #F6F9F8",
"BX c #F7F8FB",
"VX c #F7F9FC",
"CX c #F5FCFA",
"ZX c #F7FCFE",
"AX c #FBF9F1",
"SX c #FFFCF4",
"DX c #F9FBFB",
"FX c #FBFCFF",
"GX c #FAFEFF",
"HX c #FFFFFD",
"JX c gray100",
"KX c None",
/* pixels */
"KXKXKXKXKXKXKXKXKXKXKXKXKXKXKXKXKXKXKXKXKXKXKXKXKXKXKXKXKXKXKXKX",
"KXKXKXKXKXKXKXKXKXKXKXKXKXKXKXKXKXKXKXKXKXKXKXKXKXKXKXKXKXKXKXKX",
"KXKXKXKXKXKXKXKXKXKXKXY.yXKXD v KXKX .R.KXKXKXKXKXKXKXKXKXKXKXKX",
"KXKXKXKXKXKXKXKXKXKXKX^ n F.g 6 G.7 A U.KXKXKXKXKXKXKXKXKXKXKXKX",
"KXKXKXKXKXKXKXKXCXG _ c.% Q d 2 i . { qXM @.KXKXKXKXKXKXKXKXKXKX",
"KXKXKXKXKXKXKXKXKXk 2 i q w N V 0 > T z l KXKXKXKXKXKXKXKXKXKXKX",
"KXKXKXKXKXKXKXL / h.d 9 J ~.~.#.O.x X # ,.` } KXKXKXKXKXKXKXKXKX",
"KXKXKXKXKXKXKXS , 7 = P hXSXzXE.o.| r * ; # H KXKXKXKXKXKXKXKXKX",
"KXKXKXKXKXKXKXKX] - t #.<X3XP.[ ( ~ B & + ) yXKXKXKXKXKXKXKXKXKX",
"KXKXKXKXKXKXJ.K j 5 c O.' W :.m.7X3.Y $ o h m ..KXKXKXKXKXKXKXKX",
"KXKXKXKXKXKX' b < 3 e ! %.6.uXdXlXdX4.u y   Z T.KXKXKXKXKXKXKXKX",
"KXKXKXKXKXKXKXKXz.a o E 0XdXhXhXhX3X XH.<.l.w.j.KXKXKXKXKXKXKXKX",
"KXKXKXKXKXKXKXF 1 * R K.;X3X3X3X:X<X'.XXXXXX9Xp.u.KXKXKXKXKXKXKX",
"KXKXKXKXKXKXKXC f &.L.Q.XX$X$XXX'.'.E.XXvXiXAXA.0.KXKXKXKXKXKXKX",
"KXKXKXKXKXKXKXKXI 8.W.-X'.~.'.'.~.'.%X'.,XJXJXrXu.5XKXKXKXKXKXKX",
"KXKXKXKXKXKXKXKX*.>.cXBX'.:X$X'.{.!.fXSXhXJXJXGXA.u.KXKXKXKXKXKX",
"KXKXKXKXKXKXKXKX5Xq.qXBX;XmX}.;XVX%X{.nXGXDXbXmXA.u.KXKXKXKXKXKX",
"KXKXKXKXKXKXKXKXKXKXa.B.m.N.7.I.GXeX5.1.v.g.1.l.s.8XKXKXKXKXKXKX",
"KXKXKXKXKXKXKXKXKXKXKX;.9.=.-.:.g.i.U C.f.m.m.m.xXKXKXKXKXKXKXKX",
"KXKXKXKXKXKXKXKXKXKXKXKXKXKXKXKXg.m.KXKXKXKXKXKXKXKXKXKXKXKXKXKX"
};
