/* XPM */
static char *04-scaled[] = {
/* columns rows colors chars-per-pixel */
"18 11 108 2",
"   c black",
".  c #040003B8024A",
"X  c #05A6054F0507",
"o  c #073A06F20584",
"O  c #098907E10108",
"+  c #0B330A7805DD",
"@  c #0D650CB50983",
"#  c #0E6E0EB10F7B",
"$  c #10A90F300781",
"%  c #1CCD1BAC16ED",
"&  c #20001DBE1252",
"*  c #200020001515",
"=  c #1EB61F7B2148",
"-  c #3E0137661D7A",
";  c #240024002400",
":  c #2CCD2C7322C9",
">  c #3B7637E825DD",
",  c #37043B383F39",
"<  c #3F8041734269",
"1  c #487F44FF33FE",
"2  c #4EDC49EB3962",
"3  c #51B14C0733B8",
"4  c #78F86CAC334D",
"5  c #504652A554D1",
"6  c #590654004E19",
"7  c #556D54FD51D2",
"8  c #546C5570555B",
"9  c #5B41564951FE",
"0  c #5D995B91532E",
"q  c #5DDA59AD5504",
"w  c #5FD35D90562F",
"e  c #64CC63635D75",
"r  c #74C8719850D7",
"t  c #639264AB65AD",
"y  c #7C8583A98F15",
"u  c #A61194A24B2F",
"i  c #B13E9BD542A8",
"p  c #A7A79BDB6DAD",
"a  c #B3EDA3D64F2F",
"s  c #AC8CA2C578FB",
"d  c #C255ACE35106",
"f  c #CB69B1DD4766",
"g  c #D088B73B4A0B",
"h  c #C652B10B571D",
"j  c #C93CB6425771",
"k  c #D2F2B75754C1",
"l  c #C23BB1AB6B11",
"z  c #F8E5D2D42235",
"x  c #DE1DC5565D03",
"c  c #D8B5C4F86DE1",
"v  c #DB67C78A6F5F",
"b  c #EB33CC0E464F",
"n  c #E53CCC2257A0",
"m  c #F120D1594DD6",
"M  c #FD65DDE75574",
"N  c #EA3ED0646176",
"B  c #E5DDD31271E9",
"V  c #E3E3D3D37F7F",
"C  c #EAAAD7EF7F87",
"Z  c #F478D8846746",
"A  c #F894DDE36CB1",
"S  c #FAFCE26E7E7C",
"D  c #94899B26A2F2",
"F  c #B6BCAD2A93BE",
"G  c #B568B1379380",
"H  c #A977AB2AAD36",
"J  c #E3A3D8988EE6",
"K  c #F055DDC388A1",
"L  c #FBE9E56F8831",
"P  c #FC90E6C48E61",
"I  c #FE51EB45953D",
"U  c #FE8EECE09DAF",
"Y  c #C5C5C666C739",
"T  c #CCF0D4A7DF0C",
"R  c #D387DB51E140",
"E  c #D339DB4CE211",
"W  c #D3D3DB7CE22D",
"Q  c #D56CDE06E2E0",
"!  c #D4FFDE36E473",
"~  c #DFCEE374D32B",
"^  c #DF1EE544E2B2",
"/  c #DAB3E314E98B",
"(  c #DA40E3D0F029",
")  c #DE6CE5A0ECAA",
"_  c #E830E719DB2E",
"`  c #EA8AE86CD0EC",
"'  c #F923F0B6C664",
"]  c #FF6EF840D622",
"[  c #FF52F956D83F",
"{  c #E3FFEBB6F1E0",
"}  c #ED75F504F554",
"|  c #EE96F736FC43",
" . c #F04FF83AFCC2",
".. c #F197F817FDB6",
"X. c #F5E1FC1CFF59",
"o. c #F71DFC66FD50",
"O. c #F8A0FBDBFF35",
"+. c #F805FCCBFFCF",
"@. c #F932FCAFFF65",
"#. c #FA19FE55FFFF",
"$. c #FB5DFD27FE57",
"%. c #FB04FDF3FFF5",
"&. c #FCB9FEE4FFFF",
"*. c #FD91FE55FFFF",
"=. c #FE41FF83FFFF",
"-. c #FFA7FFD5FFFF",
";. c gray100",
":. c None",
/* pixels */
":.:.:.:.:.:.0 ; - > e % :.:.:.:.:.:.",
":.:.:.:.:.3 s k i u v 1 2 :.:.:.:.:.",
":.:.:.. & h x S P A N g F * :.:.:.:.",
":.:.:.@ l f L ] [ U M b d r :.:.:.:.",
":.:.:.$ j Z I ' _ ` K z v 4 O :.:.:.",
":.:.:.7 V m C ^ | $.} J B p o :.:.:.",
":.:.:.o a n ~ X.-.-.-.$.X.( , :.:.:.",
":.:.:.+ G Q X.-.-.-.-.-.-...y :.:.:.",
":.:.:.:.w R X.-.-.-.-.$.$.$.T = :.:.",
":.:.:.:.: H R ) / | { R ! E D # :.:.",
":.:.:.:.:.:.< 8 5 Y t 6 q 9 X :.:.:."
};
