/* XPM */
static char *04[] = {
/* columns rows colors chars-per-pixel */
"32 20 227 2",
"   c #D7BC4F",
".  c #D0B957",
"X  c #EFC61C",
"o  c #F0C616",
"O  c #F5CA13",
"+  c #F2C819",
"@  c #FFD300",
"#  c #FFD600",
"$  c #FFD00E",
"%  c #FFD516",
"&  c #FFD41A",
"*  c #EAC732",
"=  c #EFCC35",
"-  c #F1CC2D",
";  c #FACE22",
":  c #FAD323",
">  c #F9D026",
",  c #FCD420",
"<  c #FBD432",
"1  c #F8D33A",
"2  c #F9D53F",
"3  c #FCD83A",
"4  c #FFE137",
"5  c #DDC146",
"6  c #DCC151",
"7  c #DDC250",
"8  c #D9C466",
"9  c #DFCB79",
"0  c #E4C343",
"q  c #EECF4F",
"w  c #E3C857",
"e  c #E7CB55",
"r  c #E5C959",
"t  c #F5D043",
"y  c #F6D341",
"u  c #F7D249",
"i  c #F6D64C",
"p  c #F8D64C",
"a  c #FDDA45",
"s  c #FED944",
"d  c #FFDC42",
"f  c #FFDD48",
"g  c #F0D255",
"h  c #F5D758",
"j  c #F7D95B",
"k  c #F6D85D",
"l  c #FDDD52",
"z  c #F8D959",
"x  c #FADA59",
"c  c #ECC962",
"v  c #F7DB61",
"b  c #F6D864",
"n  c #FBDD62",
"m  c #F9DD67",
"M  c #FCDE64",
"N  c #F9D968",
"B  c #F4DA74",
"V  c #F5DB74",
"C  c #F6DD78",
"Z  c #FFE362",
"A  c #FEE065",
"S  c #FFE467",
"D  c #FAE070",
"F  c #F8E076",
"G  c #F9E17C",
"H  c #FBE27F",
"J  c #FCE47B",
"K  c #FDE47A",
"L  c #FFEC75",
"P  c #9D9CA1",
"I  c #A5AAAC",
"U  c #A7AAAC",
"Y  c #B4ADA5",
"T  c #BCAEA0",
"R  c #B7B0A7",
"E  c #BDBDBA",
"W  c #B6BAC3",
"Q  c #B7BEC5",
"!  c #AEBBE8",
"~  c #BAC1C8",
"^  c #BFC5C9",
"/  c #B5C1DC",
"(  c #BFC7D0",
")  c #BFC9D2",
"_  c #BCCCD9",
"`  c #B6C5FF",
"'  c #C4B9B1",
"]  c #C8BCB2",
"[  c #CBC796",
"{  c #DBC880",
"}  c #D5CA9C",
"|  c #CDC0AF",
" . c #C7C2BD",
".. c #CCC2B9",
"X. c #D6D4BB",
"o. c #DFDBBE",
"O. c #EBD88E",
"+. c #E7D991",
"@. c #EADC95",
"#. c #F1DE90",
"$. c #E2D9A8",
"%. c #EBDFAF",
"&. c #F6E28D",
"*. c #F9E189",
"=. c #FAE489",
"-. c #FFE882",
";. c #FFE989",
":. c #FFE98F",
">. c #FFED92",
",. c #FFEE9B",
"<. c #FFED9F",
"1. c #E9E0AC",
"2. c #F5E8AD",
"3. c #FFEEA3",
"4. c #F7EBB3",
"5. c #F5EBBB",
"6. c #FFF0A7",
"7. c #FFFFA8",
"8. c #FFF2B4",
"9. c #C3C2C1",
"0. c #C6C9C5",
"q. c #C2CBCE",
"w. c #CDCBC3",
"e. c #C2CAD3",
"r. c #C3CDD7",
"t. c #C4CDD6",
"y. c #CDD1C7",
"u. c #C7D0D7",
"i. c #C9D3DD",
"p. c #D8D0C4",
"a. c #D8DAC4",
"s. c #DDD8C9",
"d. c #D0D4D2",
"f. c #D6DED3",
"g. c #D9DED8",
"h. c #C7D4ED",
"j. c #C9D4E1",
"k. c #C9D5E0",
"l. c #C9D6E0",
"z. c #CAD5E0",
"x. c #CED7E1",
"c. c #CBD4EB",
"v. c #CED8E2",
"b. c #CFDCE8",
"n. c #D1DAE4",
"m. c #D7DDE6",
"M. c #D4DEE8",
"N. c #D6DEEA",
"B. c #DBDFEB",
"V. c #D9DFEC",
"C. c #D9E2D3",
"Z. c #D7E2EE",
"A. c #D8E3EE",
"S. c #D2E1F3",
"D. c #DDE7F1",
"F. c #DEE7F3",
"G. c #DDE8F3",
"H. c #DFE9F5",
"J. c #E1DAE8",
"K. c #E9E0C7",
"L. c #E0E0D0",
"P. c #F7EEC7",
"I. c #F9EFC4",
"U. c #FFF3C0",
"Y. c #FFF7C2",
"T. c #FFF5C7",
"R. c #FFF5CB",
"E. c #FFF6CB",
"W. c #FFFDC6",
"Q. c #FFF5D1",
"!. c #FFF7D6",
"~. c #FFF8D1",
"^. c #FFFAD9",
"/. c #E0E6EF",
"(. c #E0E8F0",
"). c #E4EEF6",
"_. c #E7EFF9",
"`. c #E3F0FA",
"'. c #E6F2FF",
"]. c #E9F4FF",
"[. c #EAF6FF",
"{. c #EBF7FF",
"}. c #ECF3FF",
"|. c #ECF7FC",
" X c #ECF7FD",
".X c #ECF7FE",
"XX c #EDF7FE",
"oX c #E8F8FF",
"OX c #EDFBFF",
"+X c #EEF8FE",
"@X c #EEF8FF",
"#X c #EEF9FF",
"$X c #EFFBFF",
"%X c #FFFAE4",
"&X c #FFFBEB",
"*X c #FFFDE9",
"=X c #FFFDEE",
"-X c AliceBlue",
";X c #F0FAFF",
":X c #F0FBFF",
">X c #F1FAFE",
",X c #F2F9FF",
"<X c #F3FCFF",
"1X c #F5FBFF",
"2X c #F4FCFF",
"3X c #F5FCFF",
"4X c #F5FDFF",
"5X c #F5FFFF",
"6X c #F6FDFF",
"7X c #F6FFFF",
"8X c #F7FEFF",
"9X c #F7FFFF",
"0X c #FFFFF2",
"qX c #FFFEF5",
"wX c #F8FFFF",
"eX c #F9FEFF",
"rX c #F9FFFF",
"tX c #FBFCFF",
"yX c #FAFFFF",
"uX c #FBFEFF",
"iX c #FBFFFF",
"pX c #FCFEFF",
"aX c #FCFFFF",
"sX c #FDFFFF",
"dX c #FEFFFF",
"fX c gray100",
"gX c None",
/* pixels */
"gXgXgXgXgXgXgXgXgXgXgXgXgXgXgXgXgXgXgXgXgXgXgXgXgXgXgXgXgXgXgXgX",
"gXgXgXgXgXgXgXgXgXgXgX!.fXgXgXB @.gXfXR.gXgXgXgXgXgXgXgXgXgXgXgX",
"gXgXgXgXgXgXgXgXgXgXgX%Xv c gX2 w gXj @.gXgXgXgXgXgXgXgXgXgXgXgX",
"gXgXgXgXgXgXgXgXgX=.5.gXs u %.a 9 m = 0.gX*.K.gXgXgXgXgXgXgXgXgX",
"gXgXgXgXgXgXgXgXgXC 3 D V J N :.k l e } & r J.gXgXgXgXgXgXgXgXgX",
"gXgXgXgXgXgXgX>.gXgXh n G T.R.Y.3.-.p : * ! gX7.gXgXgXgXgXgXgXgX",
"gXgXgXgXgXgXgXI.x f V H ^.&XqX~.8.;.S < 7 z 1 +.gXgXgXgXgXgXgXgX",
"gXgXgXgXgXgXgXgXg t n <.R.*X=XP.2.&.A d % X   q.gXgXgXgXgXgXgXgX",
"gXgXgXgXgXgXgX# 0XO.i ,.6.4.s.m.(./.o.y # 6 L.gX$ gXgXgXgXgXgXgX",
"gXgXgXgXgXgXtXv - > Z J $.d.A.OX4X4XoXX.o O + 0 %.gXgXgXgXgXgXgX",
"gXgXgXgXgXgXgXg.[ { ; 8 S.@X<XtXfXtXtXoXf.C.a.w.gXgXgXgXgXgXgXgX",
"gXgXgXgXgXgXgXgX4 , 5 y.oXtXfXfXfXfXtXtXtX4X<X'.c.gXgXgXgXgXgXgX",
"gXgXgXgXgXgXgXY.q . M.@X<XfXfXfXfXfXfXfXfXfXfX4XG._ gXgXgXgXgXgX",
"gXgXgXgXgXgXgXL ` h.oX4XfXfXfXfXfXfXfXfXfXfXfXtX`./ gXgXgXgXgXgX",
"gXgXgXgXgXgXgXgXP n.-XtXfXfXfXfXfXfXfXfXfXfXfXfX-X(.gXgXgXgXgXgX",
"gXgXgXgXgXgXgXgXR u.@XtXfXfXfXfXfXfXfXfXfXfXtXfXtX'.V.gXgXgXgXgX",
"gXgXgXgXgXgXgXgXW.W N.<XtX4X4X4XtXfXtXOX@X<XoX|.|.F.B.gXgXgXgXgX",
"gXgXgXgXgXgXgXgXgX .Q x.A.N.( D.OX@X).i.( k.t.( k.k.gXgXgXgXgXgX",
"gXgXgXgXgXgXgXgXgXgXgXI ^ E U ~ i.x.r.Y | ' p...] gXgXgXgXgXgXgX",
"gXgXgXgXgXgXgXgXgXgXgXgXgXgXgXgX9.T gXgXgXgXgXgXgXgXgXgXgXgXgXgX"
};
