/* XPM */
static char *05-scaled[] = {
/* columns rows colors chars-per-pixel */
"18 11 92 1",
"  c black",
". c #09E208D506FD",
"X c #0AB408AD058F",
"o c #0D990BBE0897",
"O c #0E660CE00AAC",
"+ c #10CD0CB70405",
"@ c #2199196E080A",
"# c #21D222182282",
"$ c #2CCD286820AD",
"% c #3E0F371D26F7",
"& c #31AB37FE370A",
"* c #330F3773367C",
"= c #385F382B37D1",
"- c #3C3A3D3E3E83",
"; c #40653E0631B6",
": c #466646664666",
"> c #4F0859535999",
", c #600056964606",
"< c #5838587F58C5",
"1 c #68A861A15494",
"2 c #7B716ABA4D6C",
"3 c #70E9657A5296",
"4 c #71AB738D6F2E",
"5 c #7E3F762C66C0",
"6 c #860E72CF4DC5",
"7 c #8E0772A946D6",
"8 c #8C2875FD5146",
"9 c #88117C7E62AB",
"0 c #AD1982823B01",
"q c #9B8B89006AD2",
"w c #9E5190566E07",
"e c #91E586DA75AF",
"r c #9FE999C76B46",
"t c #A5EF868D4E47",
"y c #ABA585FF4B38",
"u c #A147882D5D62",
"i c #B5868BA546BF",
"p c #B4AA8E4652E2",
"a c #A4B48E3866D9",
"s c #A13F94E37DB1",
"d c #AD9BA5EF7224",
"f c #C1CF887E2D1B",
"g c #DF9499162A28",
"h c #E90897371878",
"j c #F8549B850AD8",
"k c #FB2E9EE50F12",
"l c #E2B796A0211A",
"z c #E5A498782106",
"x c #E44C9A3224F9",
"c c #E284989F2866",
"v c #F8C0A14018F6",
"b c #FC53A2BD1896",
"n c #EC33A1552D0B",
"m c #EE6EA98E3A24",
"M c #FF87ADA53018",
"N c #FFFFAED93353",
"B c #C2F5963A4D8E",
"V c #C9C49BE84FE0",
"C c #C4D4996651A9",
"Z c #D199A070521A",
"A c #DAD9AD395F0A",
"S c #C878A19061A1",
"D c #D5C8AC536662",
"F c #D133AB236D79",
"G c #D513B62B7FDF",
"H c #E161A3E347C7",
"J c #E81BB17B57D8",
"K c #E87CB3705E52",
"L c #F38BB1994B83",
"P c #FE84B40241E7",
"I c #FD23B5964763",
"U c #F19DB7545B31",
"Y c #FFFFBB7654E3",
"T c #FFFFBD37599B",
"R c #EBA2BAAB6B44",
"E c #EE24BF016FF8",
"W c #F4D5BE686974",
"Q c #FFFFC2AA6787",
"! c #FC5FCA877BDE",
"~ c #A5BA9F3D8ABA",
"^ c #E402C55B89CC",
"/ c #F90ECDA687B0",
"( c #FFA5CFC68494",
") c #FFCFCFB785B5",
"_ c #FFFFD6AE9727",
"` c #FFFFD9C99D04",
"' c #FF5EDF9EAE3E",
"] c #FFFFE5E9BDCA",
"[ c #FFFFE86FC420",
"{ c #FDD4EBB8CE0C",
"} c #FF31F298DE4B",
"| c None",
/* pixels */
"|||||||O3|||||||||",
"||||$*p6J98+@|||||",
"||||,A^EWKSi%|||||",
"|||XyR/{]!mCt>||||",
"|||owU'}[(Pg2&||||",
"|||qHL)`_QNhZ1||||",
"|||o0nITYNkc7=||||",
"|||XeDxvbjlF~<||||",
"||||:uGVh0dr;|||||",
"||||||a4B9s#||||||",
"|||||||||-||||||||"
};
