/* XPM */
static char *05[] = {
/* columns rows colors chars-per-pixel */
"32 20 218 2",
"   c blue",
".  c #66FFFF",
"X  c red",
"o  c #B68D50",
"O  c #A68F6A",
"+  c #AF9363",
"@  c #A49170",
"#  c #AA9673",
"$  c #B29A69",
"%  c #BC9F71",
"&  c #D48B1B",
"*  c #DC8F19",
"=  c #D9901D",
"-  c #CB8B27",
";  c #CB8D2B",
":  c #C88D32",
">  c #D18E29",
",  c #D79328",
"<  c #D99629",
"1  c #D2963D",
"2  c #D89737",
"3  c #D99B37",
"4  c #DF9F3C",
"5  c #EB9004",
"6  c #ED9206",
"7  c #EF9104",
"8  c #E8920F",
"9  c #EE9409",
"0  c #EE9609",
"q  c #E8971C",
"w  c #EB9916",
"e  c #F09305",
"r  c #F59605",
"t  c #F7990F",
"y  c #F89702",
"u  c #FF9900",
"i  c #FF9C00",
"p  c #FF9F05",
"a  c #FC9D0C",
"s  c #F29810",
"d  c #F39D14",
"f  c #F59F1A",
"g  c #F79F18",
"h  c #E39A2F",
"j  c #E09C36",
"k  c #E79E32",
"l  c #E89F33",
"z  c #FFA00A",
"x  c #F4A01E",
"c  c #F4A11F",
"v  c #FFA311",
"b  c #FFA312",
"n  c #FFA418",
"m  c #FFA41A",
"M  c #FFA618",
"N  c #FFA619",
"B  c #FFA91B",
"V  c #EFA22C",
"C  c #E4A239",
"Z  c #E6A43C",
"A  c #E9A131",
"S  c #EBA83F",
"D  c #F7A323",
"F  c #F4A327",
"G  c #F5A425",
"H  c #F7AE2E",
"J  c #FFAA2A",
"K  c #FFAE2B",
"L  c #FDAD2C",
"P  c #FFAD31",
"I  c #FFAE30",
"U  c #FFAE32",
"Y  c #FFB434",
"T  c #FBB13E",
"R  c #FBB23E",
"E  c #FFB13B",
"W  c #FFB23F",
"Q  c #FDB43F",
"!  c #C19754",
"~  c #CA9B56",
"^  c #DBA040",
"/  c #DBA54F",
"(  c #C3A06E",
")  c #CEAB6F",
"_  c #C3A370",
"`  c #C0A77E",
"'  c #C9AD7B",
"]  c #D2A665",
"[  c #D7AF6B",
"{  c #D4AE6C",
"}  c #D5B076",
"|  c #D6B277",
" . c #E0A346",
".. c #EFA940",
"X. c #EFAD47",
"o. c #EAAB4A",
"O. c #ECAF4B",
"+. c #EFAE49",
"@. c #E3AE5A",
"#. c #E0AE5E",
"$. c #E8B157",
"%. c #ECB254",
"&. c #E9B35E",
"*. c #EBB45F",
"=. c #F2AF41",
"-. c #F4B84F",
";. c #FAB242",
":. c #FFB342",
">. c #FFB541",
",. c #FFB443",
"<. c #FFB74B",
"1. c #FFB74D",
"2. c #FFBD44",
"3. c #FFB84E",
"4. c #F2B451",
"5. c #FFBA51",
"6. c #FCBA54",
"7. c #FFBB57",
"8. c #FFBE5C",
"9. c #F7BF67",
"0. c #F1BD6D",
"q. c #F8BE62",
"w. c #FFC13D",
"e. c #ECC27B",
"r. c #FFC164",
"t. c #FFC165",
"y. c #FFC166",
"u. c #FFC267",
"i. c #FBC46F",
"p. c #FDC269",
"a. c #FFC46A",
"s. c #FCC46C",
"d. c #FFC76D",
"f. c #FFCC62",
"g. c #F6C87D",
"h. c #FFC672",
"j. c #FDC775",
"k. c #F8C67C",
"l. c #FDC977",
"z. c #FFC877",
"x. c #FFCC71",
"c. c #FFCC7F",
"v. c #939CA4",
"b. c #98A5B4",
"n. c #AFA798",
"m. c #B6AB94",
"M. c #BCB6AC",
"N. c #B5BED1",
"B. c #BEC1A4",
"V. c #90C7FF",
"C. c #B4C3DF",
"Z. c #BDD0E1",
"A. c #BBDEFF",
"S. c #D6B784",
"D. c #D3BF99",
"F. c #CFC0A5",
"G. c #CFC4A6",
"H. c #CEC6B8",
"J. c #C6DBA3",
"K. c #DDC8A6",
"L. c #DECBA9",
"P. c #DDD2B8",
"I. c #E4C488",
"U. c #E0C392",
"Y. c #ECCA92",
"T. c #FFCD83",
"R. c #FFD087",
"E. c #FFD28B",
"W. c #FFD38D",
"Q. c #FFD48D",
"!. c #FDD492",
"~. c #FFD695",
"^. c #FFD798",
"/. c #FFD899",
"(. c #FFD99D",
"). c #FFDA9E",
"_. c #E6CDA7",
"`. c #E9D4AF",
"'. c #FED8A0",
"]. c #FFDDA5",
"[. c #FADDAD",
"{. c #F6DEB2",
"}. c #FFE0AA",
"|. c #FFE0AF",
" X c #FFE6AF",
".X c #FFE0B1",
"XX c #FFE1B2",
"oX c #FFE1B3",
"OX c #FFE2B4",
"+X c #FBE3BB",
"@X c #FFE6BA",
"#X c #FFE7BA",
"$X c #FCE7BF",
"%X c #FFE4BD",
"&X c #FFE6BE",
"*X c #C2E9FF",
"=X c #CBF5FF",
"-X c #D9E8FA",
";X c #DCF8FF",
":X c #DDFFFF",
">X c #FEE9C6",
",X c #FFE9C7",
"<X c #FFEDD1",
"1X c #FFF1DA",
"2X c #FFF2DD",
"3X c #E2FEFF",
"4X c #E6FFFF",
"5X c #EDF1F6",
"6X c #FEF4E2",
"7X c #FFF5E5",
"8X c #FFF8ED",
"9X c #F5F7FA",
"0X c #FFFFF2",
"qX c #FFFFF7",
"wX c #FAFBFC",
"eX c #FCFBF9",
"rX c gray100",
"tX c None",
/* pixels */
"tXtXtXtXtXtXtXtXtXtXtXtXtXtXtXtXtXtXtXtXtXtXtXtXtXtXtXtXtXtXtXtX",
"tXtXtXtXtXtXtXtXtXtXtXtXtXtX%X{.tXtXtXtXtXtXtXtXtXtXtXtXtXtXtXtX",
"tXtXtXtXtXtXtXtXtXtXtXs._.tX=.[ tX XY.tXtXtXtXtXtXtXtXtXtXtXtXtX",
"tXtXtXtXtXtXtXtX@X4XtXp.S B.Q 3 A.F _ tXtXw.tXtXtXtXtXtXtXtXtXtX",
"tXtXtXtXtXtXtXtX@X4.O.;X6.$.p.*.@.V n.x.X.G.tXtXtXtXtXtXtXtXtXtX",
"tXtXtXtXtXtXtXtXtXO.;.&.g.[.(./.d.o.^ G o tXtXtXtXtXtXtXtXtXtXtX",
"tXtXtXtXtXtXtXk.q.`.%.Q.>X8X2X%X(.s.Y ; m.f.0.3XtXtXtXtXtXtXtXtX",
"tXtXtXtXtXtXtXI.A R i.oX6XeX7X%X/.l.<.x a , ` :XtXtXtXtXtXtXtXtX",
"tXtXtXtXtXtXtXtX*X .l.oX,X2X<X|.Q.h.1.B - v.tXtXtXtXtXtXtXtXtXtX",
"tXtXtXtXtXtX[...D R j.~.].OXoX(.c.r.W M y f C D.tXtXtXtXtXtXtXtX",
"tXtXtXtXtXtX+X] ~ 4 5.c.T.Q.E.T.y.1.I a & + % H.tXtXtXtXtXtXtXtX",
"tXtXtXtXtXtXtXtX2.x I 7.y.y.y.8.1.I b u 8 S.tXtXtXtXtXtXtXtXtXtX",
"tXtXtXtXtXtXtXe.j 2 < K >.:.:.E J z i = 1 h { rXtXtXtXtXtXtXtXtX",
"tXtXtXtXtXtXtXL.N.Z.f 0 d M m M z r 6 q M.C.F.wXtXtXtXtXtXtXtXtX",
"tXtXtXtXtXtXtXtXtXH > O s 5 e r 0 6 # l k J.tXtXtXtXtXtXtXtXtXtX",
"tXtXtXtXtXtXtXtXrX| b.0Xw @ Z * $ t ( . | K.tXtXtXtXtXtXtXtXtXtX",
"tXtXtXtXtXtXtXtXtXtXtX-.! V.L : tX/ ) tXtXtXtXtXtXtXtXtXtXtXtXtX",
"tXtXtXtXtXtXtXtXtXtXtXU.-XtX#.' qXtXP.9XtXtXtXtXtXtXtXtXtXtXtXtX",
"tXtXtXtXtXtXtXtXtXtXtXtXtXtXtXtX5XtXtXtXtXtXtXtXtXtXtXtXtXtXtXtX",
"tXtXtXtXtXtXtXtXtXtXtXtXtXtXtXtXtXtXtXtXtXtXtXtXtXtXtXtXtXtXtXtX"
};
