/* XPM */
static char *06-scaled[] = {
/* columns rows colors chars-per-pixel */
"18 11 107 2",
"   c black",
".  c #03F403DC0377",
"X  c #052F0558057C",
"o  c #060B060B0604",
"O  c #07A00727054D",
"+  c #07B807F00800",
"@  c #096D0895054B",
"#  c #094A097C098B",
"$  c #0D2A0D040C83",
"%  c #1CCD1BAC189F",
"&  c #1E9E1C3C1919",
"*  c #1ED51F2C1F00",
"=  c #2CCD2CCD2CCD",
"-  c #34A136073743",
";  c #3A31386A3292",
":  c #3F3F3C9C3272",
">  c #432741603640",
",  c #529D4DDF3A2C",
"<  c #50604F414997",
"1  c #5CEC575C41D8",
"2  c #546C560F5714",
"3  c #561758185A53",
"4  c #571458115973",
"5  c #592A59B45AA2",
"6  c #5C295D105E31",
"7  c #64CC63635F93",
"8  c #697E76225859",
"9  c #629561A860ED",
"0  c #6720678167C1",
"q  c #683B6A2E6D0B",
"w  c #773777F871B1",
"e  c #79967E9D83D6",
"r  c #AD06A1A76DC9",
"t  c #C5F8B95278D8",
"y  c #DE2EC3A357A9",
"u  c #DDCAC69065A0",
"i  c #EC31CE215045",
"p  c #F54CD73153CB",
"a  c #E552CF3A6C01",
"s  c #E162D3EA6132",
"d  c #E1DBD59D72B2",
"f  c #EB76D6397D77",
"g  c #FA33DDA76926",
"h  c #F65AE1697585",
"j  c #865A8BD6928B",
"k  c #8E1494C79BD5",
"l  c #91D190838403",
"z  c #96CA94F5861A",
"x  c #96A396769562",
"c  c #94C596A299F7",
"v  c #AA2AA2628202",
"b  c #B23FB186B166",
"n  c #B407B5BBB548",
"m  c #C7D7C1999B33",
"M  c #D0A5D92199F0",
"N  c #E10CCEF7830B",
"B  c #EDC6DA688C6D",
"V  c #E672D7DB9684",
"C  c #E397D7FF9A7E",
"Z  c #EB05DFC6B0A8",
"A  c #E403DACDB205",
"S  c #E8FBDF06B353",
"D  c #F880E37185C7",
"F  c #FAB7E5E38E2A",
"G  c #FCC2E75A8E34",
"H  c #FBAFE8DA9AB1",
"J  c #CE7ED272D6F4",
"K  c #D2C5D913DF30",
"L  c #DBABDC4BD59D",
"P  c #D687DB86E20C",
"I  c #DAC2E174E80F",
"U  c #DAAFE220E80E",
"Y  c #DB86E290E85A",
"T  c #DAC0E31CEA43",
"R  c #DFF6E644EDB5",
"E  c #E088E6B6EFFF",
"W  c #E475E0ADCD7B",
"Q  c #E393E191D7BF",
"!  c #E4CDE340D6C8",
"~  c #EAF2E715D544",
"^  c #FC86F6CBD039",
"/  c #FA13F409DA52",
"(  c #E4DEE90DF06D",
")  c #EA05EBBBEDD9",
"_  c #EE3BEEDDEFFC",
"`  c #E1FBEA5DF1F7",
"'  c #E2FAE969F47C",
"]  c #E49DEBC3F1D3",
"[  c #E74AEBC4F2B6",
"{  c #E760ED75F38F",
"}  c #E534ED64F64D",
"|  c #E7C8EDEAF58E",
" . c #F05FF231F7B7",
".. c #ECD4F4ECFC63",
"X. c #EF42F61CFCB5",
"o. c #F00CF661FB9B",
"O. c #F262F87CFD31",
"+. c #F38FFA16FD63",
"@. c #F3FFF928FD79",
"#. c #FA75FC90FE7D",
"$. c #FA47FD72FF65",
"%. c #FDABFEE1FFC1",
"&. c #FDEAFF48FFFF",
"*. c #FE6AFF82FFFF",
"=. c #FF52FFBEFFFF",
"-. c gray100",
";. c None",
/* pixels */
";.;.;.;.;.;.1 > ^ ; 7 & ;.;.;.;.;.;.",
";.;.;.;.;., r a h C M 8 < ;.;.;.;.;.",
";.;.;.  : B u F H g s d z & ;.;.;.;.",
";.;.;.$ A D F / ~ S p i V 9 ;.;.;.;.",
";.;.;.@ t f S ! ) [ W y N l $ ;.;.;.",
";.;.;.X v !  .` } ..` L m w X ;.;.;.",
";.;.;.X x _ R @.*.*.#.O.| k X ;.;.;.",
";.;.;.$ n P O.*.*.*.*.*.*.` - ;.;.;.",
";.;.;.;.0 K #.*.*.*.*.*.*.X.j ;.;.;.",
";.;.;.;.= b U [ { @.[ Y U Y e ;.;.;.",
";.;.;.;.;.* 4 3 c J q 4 4 6 X ;.;.;."
};
