/* XPM */
static char *06[] = {
/* columns rows colors chars-per-pixel */
"32 20 231 2",
"   c #35FFFF",
".  c #C7AC3F",
"X  c #D6B945",
"o  c #F4C300",
"O  c #F6CB15",
"+  c #EECB3F",
"@  c #F2CF38",
"#  c #F7D12E",
"$  c #FAD123",
"%  c #FCD53C",
"&  c #FEDC3E",
"*  c #D5C060",
"=  c #DCC566",
"-  c #D9C672",
";  c #E8C640",
":  c #EACC50",
">  c #EFD256",
",  c #F1CF4A",
"<  c #FCD940",
"1  c #FBD84B",
"2  c #F9D94E",
"3  c #F9DA4C",
"4  c #FDDB4D",
"5  c #FEDD4C",
"6  c #FAD955",
"7  c #FADC56",
"8  c #FEDF58",
"9  c #E7CD62",
"0  c #EBCF62",
"q  c #E8D16E",
"w  c #EED673",
"e  c #F9DC68",
"r  c #F4DB72",
"t  c #F7DD72",
"y  c #F8DE74",
"u  c #F8DE7B",
"i  c #FFE04B",
"p  c #FFE15A",
"a  c #FCE067",
"s  c #FFE36B",
"d  c #F6E07D",
"f  c #FFE375",
"g  c #B1B4B9",
"h  c #B4B7B9",
"j  c #B6B8B7",
"k  c #B8BCBF",
"l  c #B9BFC5",
"z  c #BDC0C4",
"x  c #BDC1CA",
"c  c #BCC2CA",
"v  c #BEC3C9",
"b  c #C2B6AB",
"n  c #CFC18A",
"m  c #D8C88A",
"M  c #DACE99",
"N  c #CEC7A7",
"B  c #CDCDBF",
"V  c #D9CEA2",
"C  c #E0CE84",
"Z  c #E4D496",
"A  c #E4D79F",
"S  c #EBDB93",
"D  c #EEDD99",
"F  c #F8E086",
"G  c #FCE481",
"H  c #FBE48A",
"J  c #FCE688",
"K  c #FFEF85",
"L  c #F9E79B",
"P  c #FEE894",
"I  c #F9E99E",
"U  c #FFED9F",
"Y  c #FFFB9F",
"T  c #EFE3B6",
"R  c #F1E3A4",
"E  c #F5E4A0",
"W  c #F3E4A9",
"Q  c #FEEDA4",
"!  c #FFEEAC",
"~  c #F1E7BC",
"^  c #F6EEBA",
"/  c #FCEDB5",
"(  c #FCF0BF",
")  c #FEF1BC",
"_  c #FFF4B9",
"`  c #FFFFB2",
"'  c #C4C4C5",
"]  c #C4C5C7",
"[  c #C6C5C6",
"{  c gray78",
"}  c #C2C6CC",
"|  c #C5C9CC",
" . c #CECECF",
".. c #CFCECE",
"X. c #C4C9D1",
"o. c #C6CBD0",
"O. c #C4CCD6",
"+. c #C6CCD4",
"@. c #C9D1D9",
"#. c #CBD3DB",
"$. c #CDD2D8",
"%. c #CCD5DE",
"&. c #D2CFC7",
"*. c #D9D6C8",
"=. c #DDD9C3",
"-. c #DBD8CD",
";. c #DCD9CB",
":. c #D1D3D4",
">. c #D6D6D5",
",. c #D0D5DB",
"<. c #D5D8D9",
"1. c #DCDAD2",
"2. c #DEDFDB",
"3. c #DDDEDE",
"4. c #C1CEE8",
"5. c #C6D0E7",
"6. c #CAD7E3",
"7. c #CCD7E1",
"8. c #CCD6E3",
"9. c #CFD6E1",
"0. c #CFD8E3",
"q. c #CFD9E2",
"w. c #CFDAE3",
"e. c #CFD9E6",
"r. c #C8D7FF",
"t. c #CCD6FB",
"y. c #CCDAF1",
"u. c #D0D5E5",
"i. c #D0DAE3",
"p. c #D0DAE5",
"a. c #D7D9E2",
"s. c #D5DEE5",
"d. c #D6DCE8",
"f. c #DADBE1",
"g. c #D8DDE7",
"h. c #DBDFEB",
"j. c #D8E0E8",
"k. c #DAE2E9",
"l. c #DBE2EB",
"z. c #DAE0EC",
"x. c #DAE1EC",
"c. c #DBE4EE",
"v. c #DBE5EF",
"b. c #DFE2EA",
"n. c #D7E2F0",
"m. c #DCE6F1",
"M. c #DEE6F4",
"N. c #DDE9F4",
"B. c #DDEBF5",
"V. c #DEE8F5",
"C. c #E5DEC7",
"Z. c #E5E1C6",
"A. c #E0E0D1",
"S. c #E2E1DE",
"D. c #E9E7DF",
"F. c #F4E1C8",
"G. c #F9EEC4",
"H. c #FFF7C5",
"J. c #FFF5DA",
"K. c #FFF7DA",
"L. c #FCF6DD",
"P. c #FFFADB",
"I. c gray89",
"U. c #E0E1EA",
"Y. c #E3E6EB",
"T. c #E9EBED",
"R. c #EBEDED",
"E. c #E0E7F2",
"W. c #E1EAF5",
"Q. c #E1EBF4",
"!. c #E2E8F4",
"~. c #E7EBF0",
"^. c #E7ECF0",
"/. c #E3EFFA",
"(. c #E5EAFF",
"). c #E4EFF8",
"_. c #E6EEF8",
"`. c #E6EFFB",
"'. c #E8EBF1",
"]. c #EDEEF2",
"[. c #E7F1F9",
"{. c #E7F6FF",
"}. c #E9F2F9",
"|. c #E9F3FD",
" X c #EAF2FD",
".X c #E9F4FA",
"XX c #EFF1FA",
"oX c #ECF0FD",
"OX c #EFF1FC",
"+X c #EEF6FF",
"@X c #EFF9FF",
"#X c #FFFCE6",
"$X c gray94",
"%X c #F0F0F1",
"&X c #F1F1F2",
"*X c #F2F3F3",
"=X c #F0F7F7",
"-X c #F4F3F2",
";X c #F6F7F7",
":X c #F5F6FA",
">X c #F5F6FB",
",X c #F6F9F7",
"<X c #F0FAFF",
"1X c #F6FAFE",
"2X c #F6FBFF",
"3X c #F4FCFF",
"4X c #F5FDFF",
"5X c #F6FDFF",
"6X c #F7FCFF",
"7X c #F7FEFF",
"8X c #FCFAF0",
"9X c #FDFBF2",
"0X c #FBFBF9",
"qX c #F8FEFF",
"wX c #F8FFFF",
"eX c #F9FFFF",
"rX c #FBFCFF",
"tX c #FAFEFF",
"yX c #FAFFFF",
"uX c #FBFEFF",
"iX c #FBFFFF",
"pX c #FCFBFB",
"aX c #FCFDFF",
"sX c #FCFEFF",
"dX c #FCFFFF",
"fX c #FDFEFF",
"gX c #FDFFFF",
"hX c #FEFEFF",
"jX c #FEFFFF",
"kX c gray100",
"lX c None",
/* pixels */
"lXlXlXlXlXlXlXlXlXlXlXlXlXlXkX8XlXlXlXlXlXlXlXlXlXlXlXlXlXlXlXlX",
"lXlXlXlXlXlXlXlXlXlXlX! G.lXY E C.lXkXJ.lXlXlXlXlXlXlXlXlXlXlXlX",
"lXlXlXlXlXlXlXlXlXlXlXH.e q ` + 2.K 0 y.lXlXlXlXlXlXlXlXlXlXlXlX",
"lXlXlXlXlXlXlXlXlX( L lXs > D 2 A 5 =   i ~ ;XlXlXlXlXlXlXlXlXlX",
"lXlXlXlXlXlXlXlXlXF % t d J u Q 6 1 - 3 + B lXlXlXlXlXlXlXlXlXlX",
"lXlXlXlXlXlXlXL./ ,XR a P K.#X) Q f & O N =X_ F.lXlXlXlXlXlXlXlX",
"lXlXlXlXlXlXlX-Xr 3 f G K.9XD.*.=.Z 7 # + $ m E.lXlXlXlXlXlXlXlX",
"lXlXlXlXlXlXlXlX{.S % I ^ A.3.].XXh.V : o n t.lXlXlXlXlXlXlXlXlX",
"lXlXlXlXlXlXlXH p w m 1.-.S.*XT.^.^.XXz.. , 8 T 5XlXlXlXlXlXlXlX",
"lXlXlXlXlXlXlXW 9 M (.>X>XY.i.M./.V.z.XX*.X * Z.5XlXlXlXlXlXlXlX",
"lXlXlXlXlXlXlXlXt.h.pX*Xd.n. X5X6X6X`.d.E.4.5.lXlXlXlXlXlXlXlXlX",
"lXlXlXlXlXlXlXlX&.*X0X,.W.6X6XkXkXkXkX[.)..Xz.0.lXlXlXlXlXlXlXlX",
"lXlXlXlXlXlXlX:.I.$Xa.V.<XkXkXkXkXkXkXkXkXkX1Xv.7.lXlXlXlXlXlXlX",
"lXlXlXlXlXlXlX<.2.$.M.5X6XkXkXkXkXkXkXkXkXkXkX}.j.lXlXlXlXlXlXlX",
"lXlXlXlXlXlXlXlXh l 6X6XkXkXkXkXkXkXkXkXkXkXkX6Xc.^.lXlXlXlXlXlX",
"lXlXlXlXlXlXlXlX{ X.<XkXkXkXkXkXkXkXkXkXkXkXkX6X Xe.lXlXlXlXlXlX",
"lXlXlXlXlXlXlXlXkXv v.6X6XkX6XkX6XkX6X6X5X5X6X6X[.8.lXlXlXlXlXlX",
"lXlXlXlXlXlXlXlXlXb z q.!.h.i.+X5X<XQ.#.%.q.#.q.q.k.lXlXlXlXlXlX",
"lXlXlXlXlXlXlXlXlXlXj k | v g X.s.p.+.[ z | [ } >.lXlXlXlXlXlXlX",
"lXlXlXlXlXlXlXlXlXlXlXlXlXlXlX .[  .lXlXlXlXlXlXlXlXlXlXlXlXlXlX"
};
