/* XPM */
static char *07-scaled[] = {
/* columns rows colors chars-per-pixel */
"18 11 84 1",
"  c black",
". c #026402610260",
"X c #0DBE0DBE0DBE",
"o c #0ED80ED20ECF",
"O c #10481064106C",
"+ c #1104117811B2",
"@ c #166616661666",
"# c #1DDE1D7D1D1D",
"$ c #2581258D2599",
"% c #2A612B552BFD",
"& c #37BC37A0377E",
"* c #3946396D3989",
"= c #4B034B1B4B33",
"- c #4BBE4CF94E0C",
"; c #4C5B4C344C34",
": c #4D5E4D474CFE",
"> c #4F634E334D1A",
", c #4FF04EF34E28",
"< c #526550774E88",
"1 c #52C551414FB2",
"2 c #522751C2515D",
"3 c #52E153085308",
"4 c #589F588B5878",
"5 c #5E705E7A5E7F",
"6 c #6141612E612E",
"7 c #65CE660F65DA",
"8 c #7F727E917E31",
"9 c #92B69243914E",
"0 c #977798E899B1",
"q c #A6E1A737A67D",
"w c #AD55B3A8B8FB",
"e c #B97EBA93BB0A",
"r c #BA26BD50BF9F",
"t c #C5C9C601C63D",
"y c #CB93CC44CCF6",
"u c #D376D2EDD2AC",
"i c #D3D9D2D8D34C",
"p c #D271D3BBD522",
"a c #D427D87CDDFC",
"s c #D59BDABAE039",
"d c #D636DB95DFD5",
"f c #D792DB6EE01A",
"g c #DC65DDADDED1",
"h c #DF43DF39DF05",
"j c #D458DC1EE241",
"k c #D74ADD9FE331",
"l c #D915E04CE72E",
"z c #D9E1E2C3E8BD",
"x c #DDD5E292E7AF",
"c c #DCA8E349E912",
"v c #DF82E771EE44",
"b c #E1E3E1B2E1A3",
"n c #E363E2E2E262",
"m c #E440E645E8CA",
"M c #E67FE692E645",
"N c #E1BCE5D2EA25",
"B c #E7CCE841E903",
"V c #E215E931F075",
"C c #E544EAFCEFD7",
"Z c #E8E9E864E76B",
"A c #EB21EB49EB39",
"S c #E2E8E9FAF120",
"D c #E363EDEDF635",
"F c #E75AEE6FF4C9",
"G c #E533EF55F6D0",
"H c #E847F08DF747",
"J c #E8D0F1E9F7CF",
"K c #EFFCF5D3FA46",
"L c #EFAFF6CFFB61",
"P c #F38FF31EF2C5",
"I c #F415FBABFE5C",
"U c #F56BF979FD3B",
"Y c #F77DFA50FD91",
"T c #F7B4FC2AFF4B",
"R c #FADBFDC2FF95",
"E c #FB67FDC6FF26",
"W c #FBBFFEB0FFD3",
"Q c #FC94FEB6FFB7",
"! c #FB94FF31FFFF",
"~ c #FD04FF36FFFF",
"^ c #FDFDFF16FFFF",
"/ c #FF95FFDBFFFF",
"( c gray100",
") c None",
/* pixels */
"))))))))))))))))))",
")))))))*::3@))))))",
")))))7qiBZbt=)))))",
"))) 6hANSHChe4))))",
")))oMPcGU!LSlrO)))",
")))onxJ//////D0)))",
")))+ic!//////Lw+))",
"))) 8jI!!//UUUv%))",
"))))#pfjjGxafah$))",
")))))3>:9y5>3>*)))",
"))))))))))))))))))"
};
