/* XPM */
static char *07[] = {
/* columns rows colors chars-per-pixel */
"32 20 169 2",
"   c #B3B3B5",
".  c #B7B9B7",
"X  c #BEBDBE",
"o  c #BBC1C8",
"O  c #C0C3C6",
"+  c #C2C6C9",
"@  c #C6C8CB",
"#  c #C4C8CE",
"$  c #C4C9CF",
"%  c #C4CAD0",
"&  c #CACCD0",
"*  c #C8CED4",
"=  c #CACFD5",
"-  c #C7D0D9",
";  c #C7D3DD",
":  c #CBD1D7",
">  c #CCD0D4",
",  c #CAD1D8",
"<  c #CCD3DA",
"1  c #CFD4DA",
"2  c #CFD5DA",
"3  c #CFD5DB",
"4  c #CCD7DF",
"5  c #D0CFCE",
"6  c #D2D2D2",
"7  c #D1D3D5",
"8  c #D6D4D2",
"9  c #D5D5D5",
"0  c #D6D5D5",
"q  c #D7D8D8",
"w  c #D8D8D8",
"e  c #D9D9D8",
"r  c #D9DADA",
"t  c #D9DADB",
"y  c #DAD9D9",
"u  c #DADADB",
"i  c #DADBDB",
"p  c #DBDADA",
"a  c #DBDCDC",
"s  c #DCDCDA",
"d  c #DCDCDB",
"f  c #DFDDDB",
"g  c #DDDDDC",
"h  c #DCDDDF",
"j  c #DEDDDD",
"k  c #DFDEDC",
"l  c #DFDFDF",
"z  c #CFD7E0",
"x  c #CDD8E2",
"c  c #D1DAE4",
"v  c #D3DDE6",
"b  c #D4DAE1",
"n  c #D5DDE4",
"m  c #D7DFE6",
"M  c #D5DEE9",
"N  c #D6E0E9",
"B  c #D6E2EB",
"V  c #D5E1EC",
"C  c #DAE0E7",
"Z  c #DBE2E7",
"A  c #DFE0E1",
"S  c #D9E4EE",
"D  c #DAE5EF",
"F  c #DBE5EF",
"G  c #DFE6EC",
"H  c #DAE5F0",
"J  c #DEE7F2",
"K  c #DEE7F4",
"L  c #DBE8F4",
"P  c #DDE8F2",
"I  c #DDE9F3",
"U  c #DDE9F6",
"Y  c #DDEAF5",
"T  c #DEEAF4",
"R  c #DEEAF6",
"E  c #E0DCD6",
"W  c #E2DCD7",
"Q  c #E1DDDA",
"!  c #E1DEDC",
"~  c #E0DFDF",
"^  c #E1E0DF",
"/  c #E5E4E1",
"(  c #E4E4E2",
")  c #E5E4E3",
"_  c #E5E5E4",
"`  c #E5E6E6",
"'  c #E7E6E6",
"]  c #E4E5E8",
"[  c #E2E8EB",
"{  c #E9E8E7",
"}  c gray91",
"|  c #E8E8E9",
" . c #E9E9E8",
".. c #EAE9E8",
"X. c #E8E8EC",
"o. c #E8EBEC",
"O. c #EAECEF",
"+. c #EEEBE8",
"@. c #ECEDEC",
"#. c #ECEDEE",
"$. c #EEEEEF",
"%. c #EFEEEE",
"&. c #EFEFEE",
"*. c #E1E9F0",
"=. c #E0EBF5",
"-. c #E2EBF6",
";. c #E2ECF6",
":. c #E2EDF7",
">. c #E3EFF7",
",. c #E9ECF0",
"<. c #ECEEF2",
"1. c #E5F0F7",
"2. c #E5F0FB",
"3. c #E6F0F9",
"4. c #E7F0F8",
"5. c #E6F1FB",
"6. c #E7F2FB",
"7. c #E9F4FC",
"8. c #EDF6FD",
"9. c #EEF6FE",
"0. c #F1EEEB",
"q. c #F3EEE8",
"w. c #F0EFEE",
"e. c #F4EFEB",
"r. c #F3F0EC",
"t. c #F5F1EF",
"y. c #F0F1F3",
"u. c #F1F2F2",
"i. c #F2F1F0",
"p. c #F2F1F1",
"a. c #F2F2F1",
"s. c #F3F5F5",
"d. c #F4F2F1",
"f. c #F5F4F3",
"g. c #F4F4F4",
"h. c #F5F4F4",
"j. c #F0F7FE",
"k. c #F0FBFF",
"l. c #F2FAFF",
"z. c #F2FBFF",
"x. c #F0FCFF",
"c. c #F3FDFF",
"v. c #F4F9FF",
"b. c #F4FDFF",
"n. c #F5FCFF",
"m. c #F5FDFF",
"M. c #F5FFFF",
"N. c #F6FCFF",
"B. c #F7FDFF",
"V. c #F7FEFF",
"C. c #F7FFFF",
"Z. c #F8F7F7",
"A. c #FAF8F6",
"S. c #F9FDFF",
"D. c #FAFDFF",
"F. c #FBFDFF",
"G. c #FAFEFF",
"H. c #FBFEFF",
"J. c #FBFFFF",
"K. c #FDFBFA",
"L. c #FCFDFF",
"P. c #FDFEFD",
"I. c #FCFEFF",
"U. c #FCFFFF",
"Y. c #FDFEFF",
"T. c #FEFEFF",
"R. c #FEFFFF",
"E. c gray100",
"W. c None",
/* pixels */
"W.W.W.W.W.W.W.W.W.W.W.W.W.W.W.W.W.W.W.W.W.W.W.W.W.W.W.W.W.W.W.W.",
"W.W.W.W.W.W.W.W.W.W.W.W.W.W.W.W.W.W.W.W.W.W.W.W.W.W.W.W.W.W.W.W.",
"W.W.W.W.W.W.W.W.W.W.W.W.W.W.W.W.W.W.W.W.W.W.W.W.W.W.W.W.W.W.W.W.",
"W.W.W.W.W.W.W.W.W.W.W.W.W.i.m w w p ` E.W.W.W.W.W.W.W.W.W.W.W.W.",
"W.W.W.W.W.W.W.W.W.W.@.. j p l w.r.( 0 p #.E.W.W.W.W.W.W.W.W.W.W.",
"W.W.W.W.W.W.W.W.W.` p p p ( d.<.O.O.#.( 6 #.W.W.W.W.W.W.W.W.W.W.",
"W.W.W.W.W.W.W.W.l p ..s.d.] c P 5.T D i.d 5 s.E.W.W.W.W.W.W.W.W.",
"W.W.W.W.W.W.W.E.p ` E.i.m V 5.l.b.b.4.N ..< 7 i.W.W.W.W.W.W.W.W.",
"W.W.W.W.W.W.W.` d Z.A.= U k.H.E.E.E.E.>.K >.M m s.W.W.W.W.W.W.W.",
"W.W.W.W.W.W.W.a ..i.b D k.E.E.E.E.E.E.F.F.H.H.U T E.W.W.W.W.W.W.",
"W.W.W.W.W.W.W.p ..: U b.H.E.E.E.E.E.E.E.E.E.E.k.G o.W.W.W.W.W.W.",
"W.W.W.W.W.W.W.j X ; b.H.E.E.E.E.E.E.E.E.E.E.E.H.H G W.W.W.W.W.W.",
"W.W.W.W.W.W.W.K.  4 H.H.E.E.E.E.E.E.E.E.E.E.E.H.k.H [ W.W.W.W.W.",
"W.W.W.W.W.W.W.W.0 - k.b.E.E.E.E.E.E.E.E.E.E.H.E.E.P Z W.W.W.W.W.",
"W.W.W.W.W.W.W.W.+.O x k.k.8.8.b.H.E.b.-.-.5.J -.U m #.W.W.W.W.W.",
"W.W.W.W.W.W.W.W.W.{ @ % z , o V 7.-.v = # < & % < ..E.W.W.W.W.W.",
"W.W.W.W.W.W.W.W.W.E.0.Q l d 8 + > < j ( Q W r.W q.E.W.W.W.W.W.W.",
"W.W.W.W.W.W.W.W.W.W.W.W.W.W.W.r.+.w.W.W.W.W.W.W.W.W.W.W.W.W.W.W.",
"W.W.W.W.W.W.W.W.W.W.W.W.W.W.W.W.W.W.W.W.W.W.W.W.W.W.W.W.W.W.W.W.",
"W.W.W.W.W.W.W.W.W.W.W.W.W.W.W.W.W.W.W.W.W.W.W.W.W.W.W.W.W.W.W.W."
};
