/* XPM */
static char *08-scaled[] = {
/* columns rows colors chars-per-pixel */
"18 11 96 2",
"   c black",
".  c #01FA01FA01FA",
"X  c #0217020D0208",
"o  c #0556052904F7",
"O  c #0A8E0A8E0A8C",
"+  c #0BF50BF50BF4",
"@  c #0C300C160C00",
"#  c #0DCF0DB50D8A",
"$  c #0EFC0F6F0F96",
"%  c #11CA11CA11B2",
"&  c #166616661666",
"*  c #185817D81777",
"=  c #1C761BEF1B46",
"-  c #266D273827D9",
";  c #293929212909",
":  c #2E242DF12DB3",
">  c #3C153C0A3BD8",
",  c #3C643C973C6F",
"<  c #418E41964167",
"1  c #46B146BC46BC",
"2  c #488947CA46C7",
"3  c #49F649534889",
"4  c #4BE54BB24BB2",
"5  c #50664E6C4C2E",
"6  c #520B4F964C99",
"7  c #542D52004F96",
"8  c #55885588559C",
"9  c #5DA35DAA5D1F",
"0  c #684E677A66C0",
"q  c #817181A98101",
"w  c #81BA8391851A",
"e  c #8B8F8B588AA5",
"r  c #91D191549010",
"t  c #998F9A6B9AE8",
"y  c #9B839C929DA2",
"u  c #9BBB9D839F3F",
"i  c #99139F52A4DE",
"p  c #A50CA460A395",
"a  c #ACBFAC1FABD2",
"s  c #AE8AAE62ADB9",
"d  c #B434B3F3B333",
"f  c #B689B695B63C",
"g  c #B77DB7A2B78C",
"h  c #B7ABB88BB86D",
"j  c #B40BB7DFBBCB",
"k  c #B6A8B7F8BA27",
"l  c #B827B8E7B8FD",
"z  c #B629B958BCF7",
"x  c #BA68BA3EB9D9",
"c  c #B460BB49C0ED",
"v  c #B617BE2BC3AB",
"b  c #B70DBDB0C305",
"n  c #BA40C01EC606",
"m  c #BD5AC292C6E9",
"M  c #BE77C518CAA4",
"N  c #BF14C743CD6B",
"B  c #C140C1B0C120",
"V  c #C28FC7BDCC23",
"C  c #CAE7CA52C9E4",
"Z  c #C3FBCBF3D211",
"A  c #C4EACB52D152",
"S  c #C848CFCFD716",
"D  c #CD6ED374D93A",
"F  c #CE50D51FDA24",
"G  c #D08FD5BFD8DE",
"H  c #D0A9D745DCE7",
"J  c #D25ED61CDAA0",
"K  c #D21BD6E4DC72",
"L  c #D12ED87BDE41",
"P  c #D634D99FDE47",
"I  c #D9C5DD3CDEE8",
"U  c #DC23DE6EDF97",
"Y  c #DC60DF08E0AD",
"T  c #DBCDE1ECE66E",
"R  c #DB6BE284E8C3",
"E  c #DE57E416E8FB",
"W  c #E5CDE585E504",
"Q  c #E62DE8B0EAA2",
"!  c #EA59E9B1E948",
"~  c #EB62EB52EB52",
"^  c #EA61EC33ED34",
"/  c #ECACEDA5EDF5",
"(  c #E6C7EE9CF46E",
")  c #E8C1EE3AF36C",
"_  c #EC1EEF01F14B",
"`  c #F04BF42BF8F8",
"'  c #F1F2F224F217",
"]  c #F2ECF30FF2E3",
"[  c #F67FF6E4F6E4",
"{  c #F770F7A8F7A5",
"}  c #F885F841F83D",
"|  c #F499F7C2F965",
" . c #F4E4F7FDFB9C",
".. c #FA8AFBFFFD8A",
"X. c #FD4EFD50FDD2",
"o. c None",
/* pixels */
"o.o.o.o.o.o.o.o.o.o.o.o.o.o.o.o.o.o.",
"o.o.o.o.o.o.o.: , > 1 & o.o.o.o.o.o.",
"o.o.o.o.o.; < p f x f e % o.o.o.o.o.",
"o.o.o.  4 s x k v M m h t 8 o.o.o.o.",
"o.o.o.+ f B z N F U H Z n u # o.o.o.",
"o.o.o.# d j Z U W ^ ^ ^ Q S q o.o.o.",
"o.o.o.# a v Y ! ' [ } } ] E i # o.o.",
"o.o.o.  0 c T _ | X... .` _ F - o.o.",
"o.o.o.o.* y V D L ( R K P J w + o.o.",
"o.o.o.o.o.= 1 4 r C 9 5 7 5 o o.o.o.",
"o.o.o.o.o.o.o.o.o.o.o.o.o.o.o.o.o.o."
};
