/* XPM */
static char *08[] = {
/* columns rows colors chars-per-pixel */
"32 20 213 2",
"   c #8D8E90",
".  c gray60",
"X  c #A2A4A7",
"o  c #A4A4A3",
"O  c #A4A8AD",
"+  c #A6AAAF",
"@  c #A9A9A9",
"#  c #A9AAAA",
"$  c #AAAAA9",
"%  c #ABAAA9",
"&  c #AAABAB",
"*  c #ABAAAA",
"=  c gray67",
"-  c #ABACAC",
";  c #ACACAC",
":  c #ADADAC",
">  c gray68",
",  c #AEAEAD",
"<  c #AFAEAD",
"1  c #AEAFAF",
"2  c #A4AEB6",
"3  c #A7AFB6",
"4  c #ACAEB1",
"5  c #A8B0B7",
"6  c #AEB0B1",
"7  c #ACB2B7",
"8  c #ABB3BA",
"9  c #AFB3B8",
"0  c #ADB4BA",
"q  c #B0B0AF",
"w  c gray69",
"e  c #B1B1B1",
"r  c #B2B2B2",
"t  c #B4B4B3",
"y  c #B5B4B3",
"u  c #B5B5B4",
"i  c #B6B5B4",
"p  c #B7B6B4",
"a  c #B6B7B6",
"s  c #B7B7B6",
"d  c #B7B7BA",
"f  c #B2B8BD",
"g  c #B9B9B8",
"h  c #BBBABA",
"j  c #BDBDBC",
"k  c gray74",
"l  c #AFB8C1",
"z  c #B3BEC6",
"x  c #B4BBC2",
"c  c #B6BDC3",
"v  c #B4BDC5",
"b  c #B4BDC6",
"n  c #B5BEC7",
"m  c #B7BFC7",
"M  c #BBBEC1",
"N  c #BCBEC0",
"B  c #BDBEC1",
"V  c #B7C1C9",
"C  c #B6C1CA",
"Z  c #BFC2C5",
"A  c #B8C0C9",
"S  c #B8C2CC",
"D  c #BCC4CB",
"F  c #BFC4CB",
"G  c #BEC6CD",
"H  c #BEC8D0",
"J  c #C2BEBB",
"K  c #C0BFBE",
"L  c #C2C0BF",
"P  c #C1C1C0",
"I  c #C1C1C1",
"U  c #C2C1C0",
"Y  c #C2C1C1",
"T  c #C3C2C1",
"R  c #C4C3C2",
"E  c #C6C4C3",
"W  c #C4C5C4",
"Q  c #C2C7CD",
"!  c #C5C6C8",
"~  c #C6C7C8",
"^  c #C6C8C8",
"/  c #C7C8C9",
"(  c #C7C9CE",
")  c #C7CDCF",
"_  c #C8C7C6",
"`  c #C8C9C7",
"'  c #CBC9C6",
"]  c #CBCAC6",
"[  c #C9C9CA",
"{  c #CFCECD",
"}  c #C1C9D0",
"|  c #C1C9D2",
" . c #C2C9D0",
".. c #C2CAD2",
"X. c #C2CDD7",
"o. c #C6CCD1",
"O. c #C4CCD6",
"+. c #C7CDD4",
"@. c #C4CED8",
"#. c #C5CFD8",
"$. c #CACED2",
"%. c #C8CDD4",
"&. c #C7D1DC",
"*. c #CCD3D6",
"=. c #C9D1D9",
"-. c #C9D2DB",
";. c #CCD3D9",
":. c #CDD2D8",
">. c #CDD3D8",
",. c #CCD4D9",
"<. c #CFD5D9",
"1. c #CED7DB",
"2. c #CDD5DC",
"3. c #CCD6DE",
"4. c #CED7DC",
"5. c #D0CDCB",
"6. c #D8D4CF",
"7. c #D2D2D2",
"8. c #D5D3D0",
"9. c #D3D7D9",
"0. c #D2D7DA",
"q. c #D4DCDF",
"w. c #DCDAD7",
"e. c #D8DADB",
"r. c #DADADB",
"t. c #DADBDD",
"y. c #DADCDD",
"u. c #DBDCDC",
"i. c #DADCDE",
"p. c #DEDAD8",
"a. c #DEDFDF",
"s. c #D1DAE1",
"d. c #D3DDE6",
"f. c #D4DFE8",
"g. c #D7E1EB",
"h. c #DDE1E3",
"j. c #DFE0E1",
"k. c #DCE0E6",
"l. c #DCE2E6",
"z. c #DFE3E6",
"x. c #D9E3EB",
"c. c #DEE6EB",
"v. c #DCE4EE",
"b. c #DDE6F1",
"n. c #E0DAD2",
"m. c #E4DCD4",
"M. c #E5DFD9",
"N. c #E0E0DF",
"B. c #E5E2DC",
"V. c #E0E1E1",
"C. c gray89",
"Z. c #E4E3E3",
"A. c #E6E6E6",
"S. c #E7E7E7",
"D. c #E3E6E8",
"F. c #E4E8EA",
"G. c #E4E8EB",
"H. c #EAE6E3",
"J. c #E9E8E7",
"K. c gray91",
"L. c #E9E9E9",
"P. c #E8E9EA",
"I. c #E9EAEB",
"U. c #EAEAEA",
"Y. c #EAEBEB",
"T. c #E8EBED",
"R. c gray93",
"E. c #EEEDED",
"W. c #EEEEED",
"Q. c #E2EAF2",
"!. c #E3EBF2",
"~. c #E0EAF5",
"^. c #E1ECF7",
"/. c #E3EFF7",
"(. c #E4EEF9",
"). c #E7F0F6",
"_. c #EEF0F1",
"`. c #EDF1F4",
"'. c #E8F4FC",
"]. c #F3EBE2",
"[. c #F4EFEA",
"{. c #F5F3EE",
"}. c #F9F4EE",
"|. c gray94",
" X c #F1F1F1",
".X c #F1F2F2",
"XX c gray95",
"oX c #F3F3F3",
"OX c gray96",
"+X c #F6F5F5",
"@X c #F6F6F6",
"#X c #F6F7F7",
"$X c #F2F5F8",
"%X c #F2FAFF",
"&X c #F5F8FB",
"*X c #F7FCFF",
"=X c #F7FEFF",
"-X c #F8F9F9",
";X c #F9F8F8",
":X c #F9F9F9",
">X c #FAFAF9",
",X c gray98",
"<X c #FBFAFA",
"1X c #FBFBFA",
"2X c #F9FAFD",
"3X c #FDFCFC",
"4X c #FDFCFD",
"5X c #FDFDFD",
"6X c #FCFDFF",
"7X c #FDFEFF",
"8X c #FEFFFF",
"9X c gray100",
"0X c None",
/* pixels */
"0X0X0X0X0X0X0X0X0X0X0X0X0X0X0X0X0X0X0X0X0X0X0X0X0X0X0X0X0X0X0X0X",
"0X0X0X0X0X0X0X0X0X0X0X0X0X0X0X0X0X0X0X0X0X0X0X0X0X0X0X0X0X0X0X0X",
"0X0X0X0X0X0X0X0X0X0X0X0X0X0X0X0X0X0X0X0X0X0X0X0X0X0X0X0X0X0X0X0X",
"0X0X0X0X0X0X0X0X0X0X0X0X0XT : - % - r 9X0X0X0X0X0X0X0X0X0X0X0X0X",
"0X0X0X0X0X0X0X0X0X0X0X0Xo % w j j a @ % j 0X0X0X0X0X0X0X0X0X0X0X",
"0X0X0X0X0X0X0X0X0Xr % - * i K B M B T a % j 0X0X0X0X0X0X0X0X0X0X",
"0X0X0X0X0X0X0X0X* % a T T d 3 z D V z [ a - ~ 9X0X0X0X0X0X0X0X0X",
"0X0X0X0X0X0X0X7.- a [ Y 7 l H *.1.0.O.m W 7 w [ 0X0X0X0X0X0X0X0X",
"0X0X0X0X0X0X0Xr : W _ O n 1.0.e.a.j.l.4.O.&.m x ' 0X0X0X0X0X0X0X",
"0X0X0X0X0X0X0X: g T 7 n 1.e.a.C.C.L.L.G.D.D.D.O.D w.0X0X0X0X0X0X",
"0X0X0X0X0X0X0X: h O S 4.i.C.J.J.E..X.XW..XE.T.l...W 0X0X0X0X0X0X",
"0X0X0X0X0X0X0Xq . 2 1.i.C.J.E..XoX@X@X@X@XoXW.T.&...0X0X0X0X0X0X",
"0X0X0X0X0X0X0Xp.  0 q.j.J.E..X@X-X-X<X<X-X-X+X.Xc.@.) 0X0X0X0X0X",
"0X0X0X0X0X0X0X0X: 3 s.l.Y..X#X-X3X9X3X9X9X2X&X$X`.4.o.0X0X0X0X0X",
"0X0X0X0X0X0X0X0XJ X z x.Q.Q.).%X2X9X*X^.b.(.v.b.g.;.r.0X0X0X0X0X",
"0X0X0X0X0X0X0X0X0XR 4 f ....c f.'./.d.O.Q =.( Q %.e.0X0X0X0X0X0X",
"0X0X0X0X0X0X0X0X0X0X6.' { 8.5.Z $.;.e.B.M.m.}.n.].0X0X0X0X0X0X0X",
"0X0X0X0X0X0X0X0X0X0X0X0X0X0X0X{.H.[.0X0X0X0X0X0X0X0X0X0X0X0X0X0X",
"0X0X0X0X0X0X0X0X0X0X0X0X0X0X0X0X0X0X0X0X0X0X0X0X0X0X0X0X0X0X0X0X",
"0X0X0X0X0X0X0X0X0X0X0X0X0X0X0X0X0X0X0X0X0X0X0X0X0X0X0X0X0X0X0X0X"
};
