/* XPM */
static char *11-scaled[] = {
/* columns rows colors chars-per-pixel */
"18 11 97 2",
"   c black",
".  c #01EC01DE023B",
"X  c #0556052904F7",
"o  c #0A420A420A4E",
"O  c #0AD30AC30B13",
"+  c #0BCA0B9A0C9D",
"@  c #0B940B6A0D29",
"#  c #0DA40D9B0E25",
"$  c #0EFC0F6F0F96",
"%  c #1181115112D3",
"&  c #166616661666",
"*  c #185817D81777",
"=  c #1C761BEF1B46",
"-  c #2688275227A4",
";  c #28C1289C2A5A",
":  c #2EBB2E4B2E3A",
">  c #3BBB3C153C15",
",  c #3C323C3D3CB3",
"<  c #40FE40CD42EC",
"1  c #470B471646E3",
"2  c #488947CA46C7",
"3  c #49F649534889",
"4  c #4AFE4A034EAE",
"5  c #4EA848E95225",
"6  c #50664E6C4C2E",
"7  c #51574F964D7A",
"8  c #541652004FB2",
"9  c #5E255DF15D5B",
"0  c #67B4668668B5",
"q  c #734B6AEBB910",
"w  c #6AD25DCDD2DA",
"e  c #751569B1CE6E",
"r  c #7EDE7830C2C2",
"t  c #84F47FDAAF29",
"y  c #820A823A8282",
"u  c #82C18404853A",
"i  c #8B698AEA8CDE",
"p  c #91D191549010",
"a  c #9C7C9F5C8939",
"s  c #9BB89C289DBA",
"d  c #8D838E1EA3AD",
"f  c #8D358C6CB504",
"g  c #8F088C01B746",
"h  c #905D904EB2D5",
"j  c #8EB98A5CBCF9",
"k  c #928295A7A47D",
"l  c #99219F59A52C",
"z  c #A01FA3099292",
"x  c #9F43A50CA316",
"c  c #A046A258B548",
"v  c #AA28B07E9DEA",
"b  c #AF02B1949F9A",
"n  c #A44BA3F9A424",
"m  c #AEB4AECEAB5E",
"M  c #A8D8ACF4B6D6",
"N  c #AFE7B33BB45C",
"B  c #B7D2BAFEA3CB",
"V  c #B73BBF7FAED9",
"C  c #B939BC29A61E",
"Z  c #B939BAFAAAEA",
"A  c #B95CBCCAAB4F",
"S  c #C088BB7BACD4",
"D  c #B71BB8A2B741",
"F  c #B705B64BB8EF",
"G  c #B791B84DB9A1",
"H  c #B532BCE1BACC",
"J  c #B979BA46B676",
"K  c #A543A145C496",
"L  c #A5C0A30DC0F3",
"P  c #B522B3FDC217",
"I  c #BB95BA4CC669",
"U  c #BEDCC4BABD15",
"Y  c #BF5FC77EBB4E",
"T  c #CD07D146BDB5",
"R  c #C2A9C788CC2F",
"E  c #CAB4CB16CB1A",
"W  c #CC8CD494D0D0",
"Q  c #CD92D398D942",
"!  c #CE03D4CEDA1F",
"~  c #D0C3D507DA33",
"^  c #D4D7D54BC810",
"/  c #D82BDAFDC5E4",
"(  c #D22DD71FDCB5",
")  c #D0DED7DCDDBE",
"_  c #D631D9CDDEB2",
"`  c #E01FE74DE060",
"'  c #DBE5E259E35E",
"]  c #DC5FE2EAE8B1",
"[  c #ECF1F001F020",
"{  c #E7C7EC7FF1F7",
"}  c #E6C5EECDF485",
"|  c #F306F79DEFBC",
" . c #F11AF5E9F2D9",
".. c #F2CBF710F1F4",
"X. c #FA39FCB7F8AF",
"o. c #FCF2FEE3F765",
"O. c None",
/* pixels */
"O.O.O.O.O.O.O.O.O.O.O.O.O.O.O.O.O.O.",
"O.O.O.O.O.O.O.: , , 1 & O.O.O.O.O.O.",
"O.O.O.O.O.; < n D G F i % O.O.O.O.O.",
"O.O.O.  4 b C A V Y U B a 5 O.O.O.O.",
"O.O.O.@ J t d x f j c h b z @ O.O.O.",
"O.O.O.+ Z q f r S e w N M W y O.O.O.",
"O.O.O.# m k T / L I ^ K P ` l $ O.O.",
"O.O.O.  0 H ' [ ..o.X... .{ ! - O.O.",
"O.O.O.O.* s R Q ) } ] ) _ ( y O O.O.",
"O.O.O.O.O.= 2 3 p E 9 6 8 7 X O.O.O.",
"O.O.O.O.O.O.O.O.O.O.O.O.O.O.O.O.O.O."
};
