/* XPM */
static char *11[] = {
/* columns rows colors chars-per-pixel */
"32 20 229 2",
"   c #2E16E4",
".  c #2A11EA",
"X  c #331DE7",
"o  c #3F2BE1",
"O  c #3B30E6",
"+  c #4734DE",
"@  c #4B39D9",
"#  c #7774B2",
"$  c #5141D7",
"%  c #5442D9",
"&  c #5744D8",
"*  c #5E4ED7",
"=  c #5948D9",
"-  c #5D4DD8",
";  c #6658CF",
":  c #6B5FCD",
">  c #6153D4",
",  c #6557D2",
"<  c #695CD1",
"1  c #6A5DD2",
"2  c #7268CD",
"3  c #786DCD",
"4  c #7C73C5",
"5  c #7F76CA",
"6  c #847FB3",
"7  c #827BC7",
"8  c #847CC9",
"9  c #8A8A9F",
"0  c #8D8E98",
"q  c #8C9291",
"w  c #92948E",
"e  c #8682AD",
"r  c #8782AE",
"t  c #8C8DA0",
"y  c #8281B6",
"u  c #8A85BB",
"i  c #9897A3",
"p  c #9F9EA1",
"a  c #9394B3",
"s  c #9490B8",
"d  c #9FA788",
"f  c #9DA3A4",
"g  c #9FA2A9",
"h  c #A7AB89",
"j  c #A2AA9A",
"k  c #AEB48D",
"l  c #A8B09C",
"z  c #B0B68B",
"x  c #B0B39D",
"c  c #B5B89B",
"v  c #A2A4A7",
"b  c #A4A4A3",
"n  c #A6ACA8",
"m  c #A7ADAC",
"M  c #A9A9A9",
"N  c #A9AAAA",
"B  c #AAABAB",
"V  c #A9A8AE",
"C  c #A8AFAE",
"Z  c #ABACAC",
"A  c #ADACAF",
"S  c #AEAFAF",
"D  c #A7AEB8",
"F  c #A8A5B1",
"G  c #A9A9B1",
"H  c #A9A8B2",
"J  c #AAA9B0",
"K  c #ABAAB2",
"L  c #ACABB0",
"P  c #ADACB1",
"I  c #ACAEB1",
"U  c #AEADB4",
"Y  c #AFAEBE",
"T  c #B0AFB6",
"R  c #B2B6AA",
"E  c #B3BBA7",
"W  c gray69",
"Q  c #B4B3B4",
"!  c #B4B4B3",
"~  c #B5B5B4",
"^  c #B6B4B8",
"/  c #B2B8BD",
"(  c #BABCB3",
")  c #BDBDBC",
"_  c gray74",
"`  c #8F89C2",
"'  c #B3BEC7",
"]  c #B6BDC3",
"[  c #B4BCCA",
"{  c #BABDC5",
"}  c #BBBDC6",
"|  c #BDBEC2",
" . c #BAB8C8",
".. c #BDC48B",
"X. c #B3C092",
"o. c #BBC098",
"O. c #B6C1A3",
"+. c #BEC1A5",
"@. c #BFC2C5",
"#. c #B8C2C8",
"$. c #BFC4CB",
"%. c #BEC5D1",
"&. c #C2BEBB",
"*. c #C0BFBE",
"=. c #C1BFC2",
"-. c #C7CE91",
";. c #C1D283",
":. c #C5D68D",
">. c #C8D095",
",. c #D0D79E",
"<. c #C3C8A3",
"1. c #C0CCA7",
"2. c #C6CAA5",
"3. c #C6D5A2",
"4. c #CFD4A4",
"5. c #C9D6B1",
"6. c #CED4B0",
"7. c #D2D3AC",
"8. c #D2D9A6",
"9. c #D4DAAF",
"0. c #D0D5B5",
"q. c #D6E59F",
"w. c #D8E39A",
"e. c #D8E09C",
"r. c #D6E0A3",
"t. c #D5E4A0",
"y. c #D3E3AB",
"u. c #DAE7A6",
"i. c #DAE1B5",
"p. c #DFE5B6",
"a. c #E6F59C",
"s. c #FFFF90",
"d. c #FFFF93",
"f. c #E1EEA0",
"g. c #EBF1AC",
"h. c #E9F1B2",
"j. c #EAF6BF",
"k. c #F0F9B3",
"l. c #F2FBB7",
"z. c #FBFFBC",
"x. c #C2C1C1",
"c. c #C4C3C2",
"v. c #C6C4C3",
"b. c #C2C7CD",
"n. c #C6C7C8",
"m. c #C2CECB",
"M. c #C7C9CE",
"N. c #C7CDCF",
"B. c #CBC9C6",
"V. c #CFCECD",
"C. c #C6C6D7",
"Z. c #C1C9D0",
"A. c #C2C9D0",
"S. c #C2CAD2",
"D. c #C6CCD1",
"F. c #C7CDD4",
"G. c #C1C9D8",
"H. c #C4CED8",
"J. c #CACED2",
"K. c #C8CDD4",
"L. c #C9D1D9",
"P. c #CDD2D8",
"I. c #CDD3D8",
"U. c #CCD6DE",
"Y. c #D0CDCB",
"T. c #D8D4CF",
"R. c #D5D3D0",
"E. c #DCDAD7",
"W. c #DADADB",
"Q. c #DADBDD",
"!. c #DBDCDC",
"~. c #C7C2F1",
"^. c #C7D1E1",
"/. c #D1CBE9",
"(. c #D2DCE1",
"). c #D3DDE6",
"_. c #D4DFE8",
"`. c #DFE4C1",
"'. c #D7E1EB",
"]. c #D9E3EB",
"[. c #DCE1E9",
"{. c #DEE5EB",
"}. c #DCE4EF",
"|. c #DDE6F1",
" X c #E0DAD2",
".X c #E4DCD4",
"XX c #E5DFD9",
"oX c #E2CBFF",
"OX c #E5E2DC",
"+X c #EEF3CC",
"@X c #F6FDC4",
"#X c #F2FBCF",
"$X c #F2F5D6",
"%X c #FEFFDF",
"&X c #EAE6E3",
"*X c #E8E7EF",
"=X c #EAEBEC",
"-X c #E2EAF2",
";X c #E3EBF2",
":X c #E0EAF5",
">X c #E1ECF7",
",X c #E3EFF7",
"<X c #E4EEF9",
"1X c #E7F0F7",
"2X c #EEF0F0",
"3X c #EDF1F4",
"4X c #E8F4FC",
"5X c #F3EBE2",
"6X c #F4EFEA",
"7X c #F5F3EE",
"8X c #F9F4EE",
"9X c #FDFFEC",
"0X c #F2F2F6",
"qX c #F2F4F9",
"wX c #F2FAFF",
"eX c #F7F8F9",
"rX c #F6F9FF",
"tX c #F7FCFF",
"yX c #F7FEFF",
"uX c #FAFCF7",
"iX c #FBFDFC",
"pX c #FDFCFF",
"aX c #FEFDFF",
"sX c #FEFEFD",
"dX c #FFFFFD",
"fX c #FEFEFF",
"gX c #FEFFFF",
"hX c gray100",
"jX c None",
/* pixels */
"jXjXjXjXjXjXjXjXjXjXjXjXjXjXjXjXjXjXjXjXjXjXjXjXjXjXjXjXjXjXjXjX",
"jXjXjXjXjXjXjXjXjXjXjXjXjXjXjXjXjXjXjXjXjXjXjXjXjXjXjXjXjXjXjXjX",
"jXjXjXjXjXjXjXjXjXjXjXjXjXjXjXjXjXjXjXjXjXjXjXjXjXjXjXjXjXjXjXjX",
"jXjXjXjXjXjXjXjXjXjXjXjXjXv.A B B B ! hXjXjXjXjXjXjXjXjXjXjXjXjX",
"jXjXjXjXjXjXjXjXjXjXjXjXb M R ) _ ~ V A ) jXjXjXjXjXjXjXjXjXjXjX",
"jXjXjXjXjXjXjXjXjXT G G F Q | { { | x.^ V  .jXjXjXjXjXjXjXjXjXjX",
"jXjXjXjXjXjXjXjXF x >.,.4.( O.3.5.#.[ 6.-...6.oXjXjXjXjXjXjXjXjX",
"jXjXjXjXjXjXjX~.c z r r t ;.f y v u.y.j 6 9 k e.jXjXjXjXjXjXjXjX",
"jXjXjXjXjXjXjXY o.i . d :.a + +.% s R o m C l +.C.jXjXjXjXjXjXjX",
"jXjXjXjXjXjXjXP <.p   # n $ 4 d.` = - 2 a.q.a.m.%.E.jXjXjXjXjXjX",
"jXjXjXjXjXjXjXL 2.0 X E w.: > d.3 1 5 - 8.O u +XG.n.jXjXjXjXjXjX",
"jXjXjXjXjXjXjXU h q @ r.+X8.; 7 , 9.g.< 8 & G #X^.S.jXjXjXjXjXjX",
"jXjXjXjXjXjXjX/.w X.t.`.*X$Xk.i.l.%X9Xz.p.h.@X=X{.H.N.jXjXjXjXjX",
"jXjXjXjXjXjXjXjXA D (.[.=X0XeXuXhXhXhXiXhXhXrX0X3XU.N.jXjXjXjXjX",
"jXjXjXjXjXjXjXjX&.v ' ].-X;X1XwXtXiXtX|.>X<X|.|._.P.W.jXjXjXjXjX",
"jXjXjXjXjXjXjXjXjXc.P / S.S.] ).4X1X).L.$.L.M.$.K.!.jXjXjXjXjXjX",
"jXjXjXjXjXjXjXjXjXjXT.B.V.R.Y.@.F.I.W.OXXX.X8XE.5XjXjXjXjXjXjXjX",
"jXjXjXjXjXjXjXjXjXjXjXjXjXjXjX7X&X7XjXjXjXjXjXjXjXjXjXjXjXjXjXjX",
"jXjXjXjXjXjXjXjXjXjXjXjXjXjXjXjXjXjXjXjXjXjXjXjXjXjXjXjXjXjXjXjX",
"jXjXjXjXjXjXjXjXjXjXjXjXjXjXjXjXjXjXjXjXjXjXjXjXjXjXjXjXjXjXjXjX"
};
