/* XPM */
static char *12-scaled[] = {
/* columns rows colors chars-per-pixel */
"18 11 92 1",
"  c black",
". c #02F303200320",
"X c #03C803CC03DC",
"o c #080008000800",
"O c #0994099A09B0",
"+ c #0B220B200B14",
"@ c #0D890D800DD3",
"# c #0E070E030E2D",
"$ c #159C15421558",
"% c #1B5B1B3B1B5B",
"& c #3C9C3C7F3C7F",
"* c #4538453844DE",
"= c #4813480848A5",
"- c #4A2349DD487B",
"; c #4ADF4B144A20",
": c #4C2E4BF04C01",
"> c #546C53E55429",
", c #5A065A065A04",
"< c #52EB60636068",
"1 c #62CA62C6629A",
"2 c #7E557E297EDE",
"3 c #7CC98BFF8BFF",
"4 c #93D497EC9802",
"5 c #9D969CA19CA1",
"6 c #A41FA3DBA458",
"7 c #A638A85EA848",
"8 c #ABC1AA3DAA32",
"9 c #ADDAAD2DADDA",
"0 c #ACACACECB02F",
"q c #B47AB454B420",
"w c #B3EAB6B5B674",
"e c #C014BE84C050",
"r c #BFC2BFE8C098",
"t c #B8F9BFDDC5E8",
"y c #C0ABCC02CDC0",
"u c #C60CC5F8C60C",
"i c #C5DFC5F2C74D",
"p c #C908C888C8C8",
"a c #C848CDE3D5D5",
"s c #CD62CD8ED57D",
"d c #D0B6D0F0D070",
"f c #C9DBD69CD823",
"g c #CFC3D60AD7C1",
"h c #D00ED5F8D804",
"j c #CB0BDD4DDD26",
"k c #CC5FDE79DE6F",
"l c #CE14D8F3D97A",
"z c #D121D0B9D234",
"x c #D4C5D40AD418",
"c c #D20ED241D74E",
"v c #D287D7B3D80E",
"b c #D4E8D4B9D6F3",
"n c #D48CD484DE15",
"m c #D641D61ADCB4",
"M c #D68FD670E012",
"N c #D78CD751E07C",
"B c #D972D8A5E01F",
"V c #DB20D9AFDA6A",
"C c #DA13DA60E06C",
"Z c #DBECDE76DE76",
"A c #DD1BDCB0DDCB",
"S c #DE9FDDEADFED",
"D c #DAC5DAE9E34F",
"F c #DC4FDC4EE42E",
"G c #DE98DF05E731",
"H c #DEE1DE86E6AF",
"J c #E0BCE0BCE8B9",
"K c #D4DAE1BBE204",
"L c #D575E2CFE2F5",
"P c #D5AEE3A4E372",
"I c #D75EE2A7E23E",
"U c #DCB0E6B3E698",
"Y c #E0C7E5D5E5AA",
"T c #DC7AEDAAEDAA",
"R c #E183E189EAC0",
"E c #E49DE46CE9AA",
"W c #E621E59CEBB2",
"Q c #E66BE642ED43",
"! c #E66EE6BEEE65",
"~ c #E776EDFDEDFD",
"^ c #E952E894EAEC",
"/ c #ED30EF03F296",
"( c #F0BEF0DEF5CF",
") c #F256F251F6A2",
"_ c #F605F64DF9C9",
"` c #F79AF762F9BF",
"' c #FA38FA38FC38",
"] c #FE71FE37FE64",
"[ c #FEDFFED7FF27",
"{ c #FF18FECBFECB",
"} c gray100",
"| c None",
/* pixels */
"||||||||||||||||||",
"||||||$:*=O|||||||",
"||||%66xSs85||||||",
"|||OqVSmYDbe;|||||",
"|||,xWN({'YNc=||||",
"|||2im`{{{{{Q0O|||",
"|||1iQ{{{{{{`B#|||",
"|||OisWW(/FHFC#|||",
"||| 3lygyagfr2.|||",
"|||<PkUjKDKg>|||||",
"|||49Y7ZwT~&||||||"
};
