/* XPM */
static char *12[] = {
/* columns rows colors chars-per-pixel */
"32 20 205 2",
"   c #91A6AA",
".  c #A6A6AC",
"X  c #AAADB5",
"o  c #AEAFB0",
"O  c #A2BCBB",
"+  c #B1B1B4",
"@  c #B7B7B8",
"#  c #B6B5BC",
"$  c #BBBCBB",
"%  c #B9B9C1",
"&  c #B8B8C2",
"*  c #BAB9C4",
"=  c #BFBFC0",
"-  c #BEBEC7",
";  c #93D7D7",
":  c #A4C0C2",
">  c #B2C7C7",
",  c #B0CFCF",
"<  c #B7CAC9",
"1  c #BCCECE",
"2  c #BFCFCF",
"3  c #B5D2D1",
"4  c #B3DDDD",
"5  c #BDD0D0",
"6  c #BDD2D2",
"7  c #BDD6D6",
"8  c #BDDBDB",
"9  c #BED8D8",
"0  c #BCDCDC",
"q  c #BCE0E0",
"w  c #C0BFC7",
"e  c #C1C0C0",
"r  c #C2C2C3",
"t  c #C1C0C7",
"y  c #C1C1C7",
"u  c #C2C1C7",
"i  c #C5C3C3",
"p  c #C4C3C5",
"a  c #C4C5C3",
"s  c #C5C5C4",
"d  c #C7C6C5",
"f  c #C6C6C6",
"g  c #C7C6C6",
"h  c #C2C2C9",
"j  c #C7C7C8",
"k  c #C7C6CF",
"l  c #C8C5C7",
"z  c #C8C7CF",
"x  c #C8C8C7",
"c  c #C9C8C8",
"v  c #CBCACA",
"b  c #CBCACB",
"n  c #CBCBCB",
"m  c #CBCACC",
"M  c #CCCBCB",
"N  c #CDCECE",
"B  c #CECDCC",
"V  c #C6C5D0",
"C  c #C7C7D1",
"Z  c #C7C7D2",
"A  c #C9C7D0",
"S  c #CAC7D1",
"D  c #CACAD5",
"F  c #CBCBD7",
"G  c #CDCED0",
"H  c #CFCDD0",
"J  c #CECCD7",
"K  c #CECED9",
"L  c #C1D1D1",
"P  c #C1D3D3",
"I  c #C3D2D2",
"U  c #C4D0D2",
"Y  c #C4D2D2",
"T  c #C6D1D0",
"R  c #C3DFDF",
"E  c #C5DBDB",
"W  c #CDD6D6",
"Q  c #CFD0DD",
"!  c #D0CFCE",
"~  c #D1D0D0",
"^  c #D1D1D7",
"/  c #D1D6D6",
"(  c #D3D4D7",
")  c #D4D3D3",
"_  c #D4D3D4",
"`  c #D4D5D0",
"'  c #D5D5D5",
"]  c #D0D0D9",
"[  c #D1D1D8",
"{  c #D0D0DD",
"}  c #D1D1DD",
"|  c #D0D2DD",
" . c #D2D2DE",
".. c #D5D3DD",
"X. c #D5D6DA",
"o. c #D6D7D9",
"O. c #D7D6DE",
"+. c #D3DADA",
"@. c #D0DCDC",
"#. c #DAD9DA",
"$. c #D9D8DD",
"%. c #DBDCDC",
"&. c #DDDCDC",
"*. c #DFDEDD",
"=. c gray87",
"-. c #D3D2E1",
";. c #D4D4E0",
":. c #D6D6E3",
">. c #D7D7E2",
",. c #D9D9E1",
"<. c #DADAE0",
"1. c #D8D9E5",
"2. c #DBDBE7",
"3. c #DDDCE7",
"4. c #DFDFEA",
"5. c #D4E4E4",
"6. c #D4E9E7",
"7. c #D3EBEA",
"8. c #DAF4F4",
"9. c #E3DDDC",
"0. c #E3DEDD",
"q. c #E0DFE3",
"w. c gray88",
"e. c #E1E0E0",
"r. c #E1E3E3",
"t. c #E2E0E1",
"y. c #E2E2E2",
"u. c #E2E5E4",
"i. c #E4E0E0",
"p. c #E6E2E0",
"a. c #E5E4E3",
"s. c #E5E5E3",
"d. c #E7E7E7",
"f. c #E1E1EA",
"g. c #E3E3EF",
"h. c #E4E4EC",
"j. c #E4E4EF",
"k. c #E5E4EE",
"l. c #E5E5EE",
"z. c #E5E5EF",
"x. c #E6E6EF",
"c. c #E8E7E6",
"v. c #E9E8E6",
"b. c #EAE9E9",
"n. c #E9EDEC",
"m. c #EEEBEB",
"M. c #EFEAEA",
"N. c #EDEDEA",
"B. c #EFEDEC",
"V. c #E5E6F0",
"C. c #E6E6F1",
"Z. c #E7E7F1",
"A. c #E9E9F0",
"S. c #EFEFF5",
"D. c #EFF0F6",
"F. c #EBF9F9",
"G. c #ECFAFA",
"H. c #F0ECEE",
"J. c #F0F0EF",
"K. c #F1F0EF",
"L. c #F1F1F1",
"P. c #F1F2F6",
"I. c #F3F1F4",
"U. c #F2F1F6",
"Y. c #F3F3F5",
"T. c #F3F3F7",
"R. c #F6F2F3",
"E. c #F7F3F3",
"W. c #F4F3F4",
"Q. c #F4F4F4",
"!. c #F4F4F7",
"~. c #F3F2F8",
"^. c #F3F3F8",
"/. c #F6F5FA",
"(. c #F6F6FA",
"). c #F2FBFB",
"_. c #F8F7F2",
"`. c #F8F7F7",
"'. c #F9F7F6",
"]. c #FCF6F7",
"[. c #F9F9FA",
"{. c #FAFAFB",
"}. c #FAFAFC",
"|. c #FBFBFC",
" X c #FBFDF8",
".X c #FCFBFB",
"XX c #FFF8F8",
"oX c snow",
"OX c #FFFBFB",
"+X c #FCFCFB",
"@X c #FDFCFB",
"#X c #FFFDFB",
"$X c #FCFCFD",
"%X c #FDFDFD",
"&X c #FCFCFF",
"*X c #FDFEFC",
"=X c #FDFEFD",
"-X c #FFFCFC",
";X c #FFFDFD",
":X c #FEFEFD",
">X c #FEFEFE",
",X c #FFFEFE",
"<X c #FFFFFE",
"1X c gray100",
"2X c None",
/* pixels */
"2X2X2X2X2X2X2X2X2X2X2X2X2X2X2X2X2X2X2X2X2X2X2X2X2X2X2X2X2X2X2X2X",
"2X2X2X2X2X2X2X2X2X2X2X2X2X2X2X2X2X2X2X2X2X2X2X2X2X2X2X2X2X2X2X2X",
"2X2X2X2X2X2X2X2X2X2X2X2X2X2X2X2X2X2X2X2X2X2X2X2X2X2X2X2X2X2X2X2X",
"2X2X2X2X2X2X2X2X2X2X2X2XR.N s s g X.2X2X2X2X2X2X2X2X2X2X2X2X2X2X",
"2X2X2X2X2X2X2X2X2XL.@ o g v s.c.' e e M.1X2X2X2X2X2X2X2X2X2X2X2X",
"2X2X2X2X2X2X2X2X#.m v v ) d.$.>.O.y.! i b.2X2X2X2X2X2X2X2X2X2X2X",
"2X2X2X2X2X2X2Xy.s ~ H.L.X.V 1.g.1.D y.N $ ` 2X2X2X2X2X2X2X2X2X2X",
"2X2X2X2X2X2X2X' s Q.Q.A Q z.{..X1Xz.D K * y N.2X2X2X2X2X2X2X2X2X",
"2X2X2X2X2X2Xd.x %.`.A Q (.{.1X1X1X{.A.h.Z.Q ^ _.2X2X2X2X2X2X2X2X",
"2X2X2X2X2X2X= M *.z -.D.1X1X1X1X1X1X1X1X1XT.Q y.2X2X2X2X2X2X2X2X",
"2X2X2X2X2X2X_ s + Q P.1X1X1X1X1X1X1X1X1X1X1Xz.Q 1X2X2X2X2X2X2X2X",
"2X2X2X2X2X2X1Xa . z..X1X1X1X1X1X1X1X1X1X1X1XT...$.2X2X2X2X2X2X2X",
"2X2X2X2X2X2X2X_.y >.(.1X1X1X1X1X1X1X{.1X.X.X{.f.^ 2X2X2X2X2X2X2X",
"2X2X2X2X2X2X2X1Xn & g.T.P.S.P.1X{.P.g.g.z.f.x.Q #.2X2X2X2X2X2X2X",
"2X2X2X2X2X2X2X2X1XN & S A # ..g.2.U h w z - - ( P.2X2X2X2X2X2X2X",
"2X2X2X2X2X2X2X2X4 7 p.O T c.  X F & T n.3 u.9..X2X2X2X2X2X2X2X2X",
"2X2X2X2X2X2X2XF.E W F.1 u.8.< 0.7.1 H.7.1 H.2X2X2X2X2X2X2X2X2X2X",
"2X2X2X2X2X2Xq , M.R 6 oX8 > oX0 6 .X7 @.].1X2X2X2X2X2X2X2X2X2X2X",
"2X2X2X2X2X2X5.( E.6 *.1X6 &.1XT i.).+.e.2X2X2X2X2X2X2X2X2X2X2X2X",
"2X2X2X2X2X2X1X1X2X1X1X2X.X1X2X1X1X; .X1X2X2X2X2X2X2X2X2X2X2X2X2X"
};
