/* XPM */
static char *13-scaled[] = {
/* columns rows colors chars-per-pixel */
"18 11 104 2",
"   c black",
".  c #07B0071F04A5",
"X  c #06EF07C80800",
"o  c #095408ED06FD",
"O  c #080B095F099A",
"+  c #11FF11780F96",
"@  c #1CCD1C0215AF",
"#  c #1CCD1BE5177E",
"$  c #20001D9D1191",
"%  c #20001DFE1393",
"&  c #240023031B1B",
"*  c #240022DF1D5D",
"=  c #3E4239AF259C",
"-  c #3CBC39AF2BB5",
";  c #3C293C633C63",
":  c #3C0247A74842",
">  c #4F8E476226B6",
",  c #53574CB02FF6",
"<  c #6A5061613A13",
"1  c #4CC04CB042DF",
"2  c #5DAA5D3D5EAB",
"3  c #63F75F594815",
"4  c #6FF070705858",
"5  c #70766C935528",
"6  c #74E1739E58F8",
"7  c #6E5B6C2C627C",
"8  c #699669F06E41",
"9  c #70706EDB6801",
"0  c #760F73CD7683",
"q  c #96F68A505333",
"w  c #8B048D8D6F42",
"e  c #AFD69AC54322",
"r  c #A84E976B5123",
"t  c #BD55A9D856CE",
"y  c #AD2DA3237838",
"u  c #D48EBD035C26",
"i  c #C5A6B3D764CC",
"p  c #DCCBC201557D",
"a  c #DFDACAC06FAB",
"s  c #EC3ECE8C4F93",
"d  c #E340C94053E2",
"f  c #E70DCCDA5B8A",
"g  c #E94ED186613F",
"h  c #ED17D7A87D3F",
"j  c #F5DCDC417565",
"k  c #F6DFDD347176",
"l  c #FB34E2927CCC",
"z  c #8889877B8759",
"x  c #8D9E91D5901A",
"c  c #9D49A322A322",
"v  c #B0DDB490B464",
"b  c #B42BB737B737",
"n  c #B4DDBB87BB46",
"m  c #C060C181C181",
"M  c #DD72CCA78A4F",
"N  c #D2EAC65E9898",
"B  c #F5CEDEF68121",
"V  c #EC6CE0E59EE1",
"C  c #F7F9E4A18FFF",
"Z  c #C426C359C3DB",
"A  c #C4BFC408C3A4",
"S  c #CC52D04BD639",
"D  c #CBF5D124D524",
"F  c #CABBD4E0D676",
"G  c #CB27D830D847",
"H  c #CF21D2F4D447",
"J  c #CDEDD242D641",
"K  c #CF6BD2DFD7EC",
"L  c #CF14D98FDA65",
"P  c #CFF3DD01DCD8",
"I  c #CF59DF0DDEFF",
"U  c #D7EFD423C595",
"Y  c #D944D521C688",
"T  c #DC23D953CFBA",
"R  c #D231D231D702",
"E  c #D645D554DABA",
"W  c #D7A1D683DB3D",
"Q  c #D813D71DD94C",
"!  c #D21FDFAFDF8C",
"~  c #D884D9D8DF60",
"^  c #D6AEDF41DEDD",
"/  c #DA7CD7DAD2E2",
"(  c #DAB7DD2CDD2C",
")  c #DA8DDA64E2D4",
"_  c #DBCCDB4FE2C2",
"`  c #E0DBE063E688",
"'  c #ED6FE534C4F0",
"]  c #E181E0F0E5ED",
"[  c #E13AE1ABE883",
"{  c #E138E138E940",
"}  c #E26AE26AEA92",
"|  c #E412E384EAA9",
" . c #E774E771EE31",
".. c #F630F596F8A8",
"X. c #F721F6DEF9AC",
"o. c #FABFFA85FC84",
"O. c #FB45FB67FCB4",
"+. c #FB62FB62FD24",
"@. c #FC7CFC7CFDCD",
"#. c #FC5AFC74FE07",
"$. c #FD88FD51FE37",
"%. c #FF61FF61FF96",
"&. c gray100",
"*. c None",
/* pixels */
"*.*.*.*.*.*.# * = - & # *.*.*.*.*.*.",
"*.*.*.*.*., > u e r i 6 1 *.*.*.*.*.",
"*.*.*.*.$ V p l C k f g 5 % *.*.*.*.",
"*.*.*.*.< j B ' / Y h s t 3 *.*.*.*.",
"*.*.*.o q M T Q _ ) K a d w O *.*.*.",
"*.*.*.. y U ] [ #.#.[ Q N 4 X *.*.*.",
"*.*.*.*.7 A [ $.$.$.$.$.] 9 *.*.*.*.",
"*.*.*.*.+ Z | o.$.$.X.X. .8 *.*.*.*.",
"*.*.*.*.*.x D S S ~ F K W 2 *.*.*.*.",
"*.*.*.*.: P ! P G L ^ H z *.*.*.*.*.",
"*.*.*.*.0 n v Z c b ( ; *.*.*.*.*.*."
};
