/* XPM */
static char *13[] = {
/* columns rows colors chars-per-pixel */
"32 20 222 2",
"   c #E5BF2C",
".  c #C5B87D",
"X  c #FACF1A",
"o  c #FDD21B",
"O  c #FFD81C",
"+  c #F0C927",
"@  c #F9D33A",
"#  c #FCD63D",
"$  c #DDC254",
"%  c #D4C176",
"&  c #E5C340",
"*  c #E7C742",
"=  c #E1C54F",
"-  c #EECC46",
";  c #E8CA4E",
":  c #EECE4B",
">  c #F5D242",
",  c #F8D541",
"<  c #F9D647",
"1  c #F8D54C",
"2  c #FAD94A",
"3  c #FCDB4A",
"4  c #FFDD4D",
"5  c #FEDD4F",
"6  c #F9D751",
"7  c #FFDE51",
"8  c #F8DA5C",
"9  c #FEDF5C",
"0  c #E1C861",
"q  c #E3C963",
"w  c #E3CD73",
"e  c #E0CC7E",
"r  c #ECD063",
"t  c #E5D17C",
"y  c #ECD77F",
"u  c #F3D96F",
"i  c #F5DC69",
"p  c #FBDD60",
"a  c #F9DD6A",
"s  c #FBDD69",
"d  c #F0D770",
"f  c #F9DD70",
"g  c #F9DF77",
"h  c #FADF74",
"j  c #FFE451",
"k  c #FEE26E",
"l  c #FAE17F",
"z  c #FCE379",
"x  c #FEE47A",
"c  c #97A9AB",
"v  c #B6B7B4",
"b  c #B5B6BF",
"n  c #809EFF",
"m  c #BEBFC6",
"M  c #B8BBD0",
"N  c #A9C6C7",
"B  c #B3CDCB",
"V  c #B0D0D0",
"C  c #B3DDDD",
"Z  c #BAD1D1",
"A  c #BBCEFF",
"S  c #C0BDC2",
"D  c #D6CA97",
"F  c #D0CCB7",
"G  c #D5CFB9",
"H  c #DFD7B0",
"J  c #E7D796",
"K  c #EAD993",
"L  c #EADA96",
"P  c #E9DA9E",
"I  c #E4D6B0",
"U  c #E7DFBD",
"Y  c #EADFB2",
"T  c #F6E086",
"R  c #FBE486",
"E  c #FFEC8C",
"W  c #FFEE8D",
"Q  c #F7E393",
"!  c #F5E394",
"~  c #FAE79C",
"^  c #FFEF9C",
"/  c #FFEE9E",
"(  c #EFE3AC",
")  c #F8EEBD",
"_  c #FFFFA3",
"`  c #FFF1B4",
"'  c #FFF3BF",
"]  c #C0C3C4",
"[  c #C4C2C3",
"{  c #C1C1CB",
"}  c #C3C2C8",
"|  c #C2C3CD",
" . c #C3C7CA",
".. c #C2C5CC",
"X. c #C5C4CA",
"o. c #C5C5CC",
"O. c #C5C7CE",
"+. c #C9C8C5",
"@. c #CDCBC7",
"#. c #CFCCC2",
"$. c #C9C9CC",
"%. c #CDCCCC",
"&. c #CECDCD",
"*. c #C5C7D4",
"=. c #C5CAD1",
"-. c #C7C9D3",
";. c #C7CAD4",
":. c #CACBD0",
">. c #C9C8D6",
",. c #CBCBD5",
"<. c #CCCED7",
"1. c #CFCFD7",
"2. c #CCCCD9",
"3. c #CECFDA",
"4. c #CFCFDC",
"5. c #C0D3D3",
"6. c #C2D6D5",
"7. c #C5D3D3",
"8. c #C7D3D3",
"9. c #C2DADA",
"0. c #C3DBDB",
"q. c #C2DCDA",
"w. c #CBD3D3",
"e. c #CCD6D5",
"r. c #CDD8D8",
"t. c #D6CFD0",
"y. c #D7D3C2",
"u. c #D0D0D4",
"i. c #D0D0D9",
"p. c #D1D1DC",
"a. c #D2D2DF",
"s. c #D4D3D8",
"d. c #D5D3DA",
"f. c #D4D5D9",
"g. c #D6D6D8",
"h. c #D7D7DB",
"j. c #D7D6DC",
"k. c #D6D7DE",
"l. c #D7D7DF",
"z. c #D6DCD3",
"x. c #DADADA",
"c. c #DBDADD",
"v. c #DDDDDF",
"b. c #DDDFDF",
"n. c #CDD0E4",
"m. c #C5D2FF",
"M. c #D3D4E0",
"N. c #D4D4E0",
"B. c #D6D5E0",
"V. c #D7DAEB",
"C. c #DBDAE6",
"Z. c #DEDDE3",
"A. c #DFDDE7",
"S. c #DEDFE4",
"D. c #DEDEE7",
"F. c #DDDDE9",
"G. c #DEDEE9",
"H. c #CCE0E0",
"J. c #CFE1E1",
"K. c #CFE6E6",
"L. c #D2E0E0",
"P. c #D3E7E1",
"I. c #D7E4E4",
"U. c #DEE9E7",
"Y. c #DFE9E9",
"T. c #DEEAE9",
"R. c #DDECF9",
"E. c #D5F9FF",
"W. c #DDF8FF",
"Q. c #E0DFDF",
"!. c #EFE8CF",
"~. c #E9E6DF",
"^. c #F3EEDA",
"/. c #F4F7C1",
"(. c #FFF8C0",
"). c #FFF7D0",
"_. c #F8F3D8",
"`. c #E2E2E7",
"'. c #E0E5E5",
"]. c #E4E6E6",
"[. c #E7E4E6",
"{. c #E7E7E7",
"}. c #E0E0EA",
"|. c #E6EAE9",
" X c #EBEAEA",
".X c #E8E9EF",
"XX c #EBEEEE",
"oX c #EDEDEF",
"OX c #E7E7F1",
"+X c #EAEAF2",
"@X c #EAEAF4",
"#X c #EBECF5",
"$X c #EEEDF3",
"%X c #EEECF5",
"&X c #EEEEF5",
"*X c #EFEFF5",
"=X c #EFEEF6",
"-X c #F9F7ED",
";X c #F2F0F2",
":X c #F2F2F6",
">X c #F4F4F8",
",X c #F5F5F8",
"<X c #F6F7FB",
"1X c #F8F6F6",
"2X c #FFF3F3",
"3X c #FDF5F4",
"4X c #FFF6F6",
"5X c #F8F7FC",
"6X c #F9F9FB",
"7X c #FBFBFC",
"8X c #FBFBFE",
"9X c #FFF8F8",
"0X c #FCFCFB",
"qX c #FDFFFF",
"wX c #FFFCFC",
"eX c #FEFEFD",
"rX c #FEFEFE",
"tX c #FEFEFF",
"yX c #FFFEFE",
"uX c #FFFFFE",
"iX c gray100",
"pX c None",
/* pixels */
"pXpXpXpXpXpXpXpXpXpXpXpXpXpXpXpXpXpXpXpXpXpXpXpXpXpXpXpXpXpXpXpX",
"pXpXpXpXpXpXpXpXpXpXpXpX).pXpX! ( pXpX(.pXpXpXpXpXpXpXpXpXpXpXpX",
"pXpXpXpXpXpXpXpXpXpXpXpXf d pX> w pX8 L pXpXpXpXpXpXpXpXpXpXpXpX",
"pXpXpXpXpXpXpXpXpX/ l pXk , J 4 r i + n _ R R.pXpXpXpXpXpXpXpXpX",
"pXpXpXpXpXpXpXpXpX/.6 < u x h E a 3 = t X q pXpXpXpXpXpXpXpXpXpX",
"pXpXpXpXpXpXpXpXE iXI p z ` ^.U Y ~ 2 o $ A pX^ pXpXpXpXpXpXpXpX",
"pXpXpXpXpXpXpXpXT @ 4 a ' ~.X.s.<.+.K 7 * # : H pXpXpXpXpXpXpXpX",
"pXpXpXpXpXpXpXpXpX- y G #.&.Q.`.Z.s.-.y.O   . pXpXpXpXpXpXpXpXpX",
"pXpXpXpXpXpXpX) 9 P | S.oXj.,.C.G.3.Z.O.% : j h E.pXpXpXpXpXpXpX",
"pXpXpXpXpXpXpX! 1 D k.0X1.a.+XiXiX*X2.2.M % & 0 W.pXpXpXpXpXpXpX",
"pXpXpXpXpXpXpXpXm.:. Xd.4.6XiXiXiXiX:X*X=Xn.V.pXpXpXpXpXpXpXpXpX",
"pXpXpXpXpXpXpXpXF @.X.M.>XiXiXiXiXiXiXiXiX#Xd._.pXpXpXpXpXpXpXpX",
"pXpXpXpXpXpXpXpX!.v b <XiXiXiXiXiXiXiXiXiX6Xl.c.pXpXpXpXpXpXpXpX",
"pXpXpXpXpXpXpXpXpX&.{ =XiXiXiXiXiXiXiXiXiXiXOX3.pXpXpXpXpXpXpXpX",
"pXpXpXpXpXpXpXpXpX-X[ >.=X$X.X,X5X1XG.A.A.A.k.k.pXpXpXpXpXpXpXpX",
"pXpXpXpXpXpXpXpXpXpXU. .m  .m -.B.:.B $.=.[ 1.;XpXpXpXpXpXpXpXpX",
"pXpXpXpXpXpXpXpXpXiXV |.B e.U.c t.N z.I.6.3XiXpXpXpXpXpXpXpXpXpX",
"pXpXpXpXpXpXpXpXC 0.'.0.[.J.Z XX0.[.I.k.[.iXpXpXpXpXpXpXpXpXpXpX",
"pXpXpXpXpXpXpXpXM.6.U.7.9XZ x.K.8.iXr.b.pXpXpXpXpXpXpXpXpXpXpXpX",
"pXpXpXpXpXpXpXpX4XiXpXiXpX2XiXpXiXpX1XiXpXpXpXpXpXpXpXpXpXpXpXpX"
};
