/* XPM */
static char *14-scaled[] = {
/* columns rows colors chars-per-pixel */
"18 11 106 2",
"   c black",
".  c #07B0071F04B5",
"X  c #06EF07C80800",
"o  c #095408ED0707",
"O  c #080B095F099A",
"+  c #11D8112B0E88",
"@  c #1CCD1B8F1606",
"#  c #1CCD1BE5177E",
"$  c #20001D7D1191",
"%  c #20001DFE1393",
"&  c #240022721B87",
"*  c #240022DF1D5D",
"=  c #3E4239AF261E",
"-  c #3CBC39AF2BB5",
";  c #3C633CF33CF3",
":  c #3BA848424842",
">  c #4F8E476226B6",
",  c #53574CB02FF6",
"<  c #6A50613A3A13",
"1  c #4CC04CB042DF",
"2  c #5DCA5D1D5E6B",
"3  c #63F75F594815",
"4  c #70416C5E5528",
"5  c #6FAF6C395D77",
"6  c #7030707058D9",
"7  c #74E17384590B",
"8  c #705D6DC164DE",
"9  c #694269C96E9B",
"0  c #73ED763C75F6",
"q  c #96A38A4A54A1",
"w  c #8AC48D8D7023",
"e  c #A84E976B5123",
"r  c #B0E29B154128",
"t  c #BCB6A939569C",
"y  c #AAAAA32378B8",
"u  c #D43FBCB45D64",
"i  c #C5A6B3B764E5",
"p  c #DCC7C21155B1",
"a  c #EC9ECE414DAB",
"s  c #E239C8AB54BF",
"d  c #E6F1CCCA5BCF",
"f  c #E583CBBD5E49",
"g  c #E174CD9C7DF5",
"h  c #EA22D2B961EE",
"j  c #F7FFDDC56FFF",
"k  c #F14DD91F74BE",
"l  c #F5DCDC2E7587",
"z  c #F741E014804D",
"x  c #FB62E29B7CCC",
"c  c #8889877B8759",
"v  c #8E20925F8F11",
"b  c #9D08A322A363",
"n  c #B134B44FB44F",
"m  c #B3EAB65EB65E",
"M  c #B70EBB12BB09",
"N  c #D57DC7069181",
"B  c #CB03C4E5AE01",
"V  c #C7B5C540C07D",
"C  c #DF4ED332AC64",
"Z  c #DB7BD302B159",
"A  c #DC95D50FB97B",
"S  c #E322DB54BCB3",
"D  c #E493DC5DBD57",
"F  c #E631DD67BF21",
"G  c #EC6CE0E19EE1",
"H  c #F8CCE55A9095",
"J  c #C106C2A2C252",
"K  c #D0CACF46C236",
"L  c #CD24D106D330",
"P  c #CE94D2DED47C",
"I  c #CEF9D32CD561",
"U  c #CCEBD949D747",
"Y  c #CF60DA5DD889",
"T  c #CF0DDEC0DEC0",
"R  c #D07DDD34DD49",
"E  c #D0E3D04AC483",
"W  c #D1D9D148C406",
"Q  c #D738D5E3CE35",
"!  c #D60ED75DDA80",
"~  c #D222DF4DDEDA",
"^  c #D632DF9CDF28",
"/  c #DA11DD66DE05",
"(  c #E8B8E080C514",
")  c #E239DCB8CC6B",
"_  c #E35EDD0FCB93",
"`  c #E27ADE1FD08E",
"'  c #EA29E0D0C151",
"]  c #E1BEDE0CD196",
"[  c #E378E077D758",
"{  c #E35AE0C8DB20",
"}  c #E888E2B2D0B0",
"|  c #F214E957C6CB",
" . c #F42EEBA7CCE8",
".. c #FAFDF0DCC74F",
"X. c #F949F0B5CCD1",
"o. c #F349ECC1D7B4",
"O. c #FCCCF34DC866",
"+. c #FF7FF4F4C5C0",
"@. c #F9CAF150CE79",
"#. c #FE15F59BCFCB",
"$. c #FFFFF6EDCE10",
"%. c #FFFFF7AAD2AB",
"&. c #FCECF5F5DA62",
"*. c #FC33F6AEE057",
"=. c #E705E55AEC2A",
"-. c None",
/* pixels */
"-.-.-.-.-.-.# * = - & # -.-.-.-.-.-.",
"-.-.-.-.-., > u r e i 7 1 -.-.-.-.-.",
"-.-.-.-.$ G p x H j d h 4 % -.-.-.-.",
"-.-.-.-.< l z | [ S k a t 3 -.-.-.-.",
"-.-.-.o q g F ` { Q A f s w O -.-.-.",
"-.-.-.. y Z ( } *.&.| C N 6 X -.-.-.",
"-.-.-.-.5 B F #.%.#.+.X.) 8 -.-.-.-.",
"-.-.-.-.+ V _ X...+. .o.=.9 -.-.-.-.",
"-.-.-.-.-.v P E E Q W P ! 2 -.-.-.-.",
"-.-.-.-.: R ~ ~ Y Y ^ P c -.-.-.-.-.",
"-.-.-.-.0 M n J b n / ; -.-.-.-.-.-."
};
