/* XPM */
static char *14[] = {
/* columns rows colors chars-per-pixel */
"32 20 245 2",
"   c #E5BF2E",
".  c #C5B87D",
"X  c #FACF1A",
"o  c #FDD31C",
"O  c #FFD619",
"+  c #F0C927",
"@  c #F9D33A",
"#  c #FCD63D",
"$  c #DDC254",
"%  c #DCC45E",
"&  c #E3C241",
"*  c #E7C743",
"=  c #E1C54F",
"-  c #E8C94D",
";  c #ECCC4A",
":  c #EECE4B",
">  c #F5D242",
",  c #F6D44C",
"<  c #F8D541",
"1  c #F9D647",
"2  c #F9D84C",
"3  c #FCDB4B",
"4  c #FFDC4A",
"5  c #FEDD4F",
"6  c #FFDD4F",
"7  c #F9D751",
"8  c #F8DA5C",
"9  c #E2C863",
"0  c #E3C963",
"q  c #E4CA66",
"w  c #E3CD73",
"e  c #ECD063",
"r  c #E5D17C",
"t  c #EFD674",
"y  c #F3D96F",
"u  c #F5DC69",
"i  c #FADD61",
"p  c #FDDF60",
"a  c #F9DD6A",
"s  c #FADD69",
"d  c #F0D770",
"f  c #F9DD70",
"g  c #F9DF74",
"h  c #F9DF77",
"j  c #FFE552",
"k  c #FEE26E",
"l  c #FAE17F",
"z  c #FCE379",
"x  c #FEE47A",
"c  c #A3AFA3",
"v  c #BBB8AD",
"b  c #B8B8BE",
"n  c #809EFF",
"m  c #A8C7CA",
"M  c #B7CEC8",
"N  c #BFC0CC",
"B  c #B0D0D0",
"V  c #B3DDDD",
"C  c #B9D0D0",
"Z  c #BFD3D3",
"A  c #BBCEFF",
"S  c #BDD3FF",
"D  c #CABFA1",
"F  c #DCC981",
"G  c #C9C4A9",
"H  c #C7C5B5",
"J  c #C5C1B9",
"K  c #C9C3B7",
"L  c #CAC4B6",
"P  c #CEC7B1",
"I  c #D0C6A2",
"U  c #D4CBA6",
"Y  c #D3CBAC",
"T  c #D7CFAF",
"R  c #D1CAB2",
"E  c #D3CEBA",
"W  c #D6CFB8",
"Q  c #D8CFB1",
"!  c #DCD2B7",
"~  c #DFD7B0",
"^  c #DAD2B8",
"/  c #DAD2BB",
"(  c #DED7BB",
")  c #EFDB8A",
"_  c #EDDB8F",
"`  c #E7D796",
"'  c #EADA96",
"]  c #E1D5A4",
"[  c #E0D6AE",
"{  c #E0D5B5",
"}  c #E4D6B0",
"|  c #E5DABC",
" . c #F6E086",
".. c #FBE486",
"X. c #FFEB8C",
"o. c #FFEE8D",
"O. c #F7E393",
"+. c #F5E396",
"@. c #FBE797",
"#. c #FFEF9C",
"$. c #FFEE9E",
"%. c #EFE3AC",
"&. c #EFE3B0",
"*. c #EFE3B8",
"=. c #EDE3BF",
"-. c #EDE4BE",
";. c #F1E4BC",
":. c #F3E8BF",
">. c #F8EEBE",
",. c #FFFFA3",
"<. c #FFF0B3",
"1. c #FFF2BD",
"2. c #FFF3BE",
"3. c #FFF4BF",
"4. c #C3C2C9",
"5. c #C3C6CD",
"6. c #CAC9C7",
"7. c #CFCCC8",
"8. c #C4CBD4",
"9. c #C7CAD8",
"0. c #C8C7D4",
"q. c #CBCCD1",
"w. c #CCCFDE",
"e. c #C1D5D6",
"r. c #C4D3D3",
"t. c #C6D2D2",
"y. c #C2DADA",
"u. c #C3DBDB",
"i. c #C4DCDB",
"p. c #CBD3D3",
"a. c #CDD6D6",
"s. c #CFD0DA",
"d. c #CDD8D8",
"f. c #D7CEC4",
"g. c #D7D1C7",
"h. c #DBD3C1",
"j. c #DBD5C1",
"k. c #DAD5C5",
"l. c #DBD6C7",
"z. c #D8D4CF",
"x. c #D8D6CE",
"c. c #DDD8CD",
"v. c #D0D0D4",
"b. c #D2D3D6",
"n. c #D7D4D2",
"m. c #D7D6DC",
"M. c #D6DCD2",
"N. c #D9D6D0",
"B. c #DCDAD7",
"V. c #DADADA",
"C. c #DEDBD9",
"Z. c #DFDDD8",
"A. c #DFDCDB",
"S. c #DDDFDF",
"D. c #D5D5E1",
"F. c #D6DAEE",
"G. c #DCDDEC",
"H. c #D4E7DE",
"J. c #CCE0E0",
"K. c #CEE1E2",
"L. c #CEE6E7",
"P. c #D2E0E0",
"I. c #D7E4E5",
"U. c #DFE4E4",
"Y. c #DFE9E9",
"T. c #DEEAEC",
"R. c #DFEBED",
"E. c #DDECF9",
"W. c #D5F9FF",
"Q. c #DDF8FF",
"!. c #E0DBC7",
"~. c #E5DDC2",
"^. c #E1DDD2",
"/. c #E2DED0",
"(. c #E6E0CA",
"). c #EDE4C1",
"_. c #EFE6C3",
"`. c #EEE4C4",
"'. c #E5E1D7",
"]. c #E5E2D6",
"[. c #E3E0DB",
"{. c #EFEADD",
"}. c #F5ECC9",
"|. c #F5EDCB",
" X c #F8EDC4",
".X c #F8EFCE",
"XX c #F1EAD0",
"oX c #F2EBD2",
"OX c #F5EED3",
"+X c #F7EFD1",
"@X c #F1EDDD",
"#X c #F4F7C1",
"$X c #FFF3C4",
"%X c #FFF4C3",
"&X c #FFF4C6",
"*X c #FFF6C7",
"=X c #F9F0CF",
"-X c #FCF2C9",
";X c #FDF2C9",
":X c #FFF5C9",
">X c #FFF5CA",
",X c #FFF6CC",
"<X c #FFF6CD",
"1X c #FFF6CF",
"2X c #FFF8C0",
"3X c #F6F0D8",
"4X c #F7F1D9",
"5X c #F6F1DC",
"6X c #FFF7D0",
"7X c #FFF7D3",
"8X c #FEF6D4",
"9X c #FFF7D5",
"0X c #F8F2DC",
"qX c #FAF4DB",
"wX c #FDF6D9",
"eX c #FFF8D5",
"rX c #FFF9DC",
"tX c #FFF9DD",
"yX c #FFF9DE",
"uX c #E7E5E2",
"iX c #E4E6E7",
"pX c #E7E4E6",
"aX c #E7E7E7",
"sX c #E6EAE9",
"dX c #E9E7E2",
"fX c #EFEBE2",
"gX c #EAEEEE",
"hX c #EDEBED",
"jX c #E7E8F6",
"kX c #FBF8E7",
"lX c #FFF8E0",
"zX c #FEF9E4",
"xX c #F2F0F2",
"cX c #F5F5F7",
"vX c #F9F6F6",
"bX c #FFF3F3",
"nX c #FDF5F4",
"mX c #FFF6F6",
"MX c #FEFCF2",
"NX c #FFF8F8",
"BX c #FCFFFF",
"VX c #FFFCFC",
"CX c #FFFEFE",
"ZX c gray100",
"AX c None",
/* pixels */
"AXAXAXAXAXAXAXAXAXAXAXAXAXAXAXAXAXAXAXAXAXAXAXAXAXAXAXAXAXAXAXAX",
"AXAXAXAXAXAXAXAXAXAXAXAX6XAXAX+.%.AXAX%XAXAXAXAXAXAXAXAXAXAXAXAX",
"AXAXAXAXAXAXAXAXAXAXAXAXf t AX@ w AX8 ' AXAXAXAXAXAXAXAXAXAXAXAX",
"AXAXAXAXAXAXAXAXAX$.l AXk < ` 5 e u + n ,...E.AXAXAXAXAXAXAXAXAX",
"AXAXAXAXAXAXAXAXAX#X7 1 y x g X.s 3 = r o 9 AXAXAXAXAXAXAXAXAXAX",
"AXAXAXAXAXAXAXAXX.ZX} i x <.5X-.%.@.2 o $ A AX#.AXAXAXAXAXAXAXAX",
"AXAXAXAXAXAXAXAX .@ 6 a 3.fXb.A.x.^ ) 4 * # ; ~ AXAXAXAXAXAXAXAX",
"AXAXAXAXAXAXAXAXAX; t [ j.x.dXaX].l.E ] O   . AXAXAXAXAXAXAXAXAX",
"AXAXAXAXAXAXAX>.p _ P (.@X/.n.^.'.k.~.Y % - j h W.AXAXAXAXAXAXAX",
"AXAXAXAXAXAXAX+., F ( wXk.c.{.zXlXXX^ ! D q & 9 Q.AXAXAXAXAXAXAX",
"AXAXAXAXAXAXAXAXS q.).{ h.qXyXyXyX9X}.;.*.7.F.AXAXAXAXAXAXAXAXAX",
"AXAXAXAXAXAXAXAXT U I ! .XeX9X9X9X,X&X*X-X=.^ +XAXAXAXAXAXAXAXAX",
"AXAXAXAXAXAXAXAX).v b |.%X,X,X,X&X*X%X2.0XcXn.B.AXAXAXAXAXAXAXAX",
"AXAXAXAXAXAXAXAXAXs.K `.3X*X%X$X*X2.=XOX-XNXjXw.AXAXAXAXAXAXAXAX",
"AXAXAXAXAXAXAXAXAXkXL 0.hX;./. X+XXX| G.^.A.D.m.AXAXAXAXAXAXAXAX",
"AXAXAXAXAXAXAXAXAXAXT.5.J H N R g.9.G 6.8.4.p.xXAXAXAXAXAXAXAXAX",
"AXAXAXAXAXAXAXAXAXBXB sXM a.T.c f.m M.H.e.nXZXAXAXAXAXAXAXAXAXAX",
"AXAXAXAXAXAXAXAXV u.U.y.pXK.C gXi.aXI.D.pXZXAXAXAXAXAXAXAXAXAXAX",
"AXAXAXAXAXAXAXAXJ.p.Y.t.NXZ V.L.t.VXd.U.AXAXAXAXAXAXAXAXAXAXAXAX",
"AXAXAXAXAXAXAXAXnXZXAXZXAXnXZXAXZXAXcXZXAXAXAXAXAXAXAXAXAXAXAXAX"
};
