/* XPM */
static char *15-scaled[] = {
/* columns rows colors chars-per-pixel */
"18 11 86 1",
"  c black",
". c #026602660266",
"X c #073F073F073F",
"o c #0AC40AC40AC4",
"O c #0CD00CB80CE3",
"+ c #0F990F980F9B",
"@ c #200F200D1FB3",
"# c #2B492BAE3266",
"$ c #2FD432663266",
"% c #42AC42AC4306",
"& c #4AEB4AEB49F6",
"* c #4CB04BB34D7A",
"= c #4CA44C9C4CFD",
"- c #4DAD4DAD4DAD",
"; c #4EBA4EBA4EDC",
": c #60F061845E3A",
"> c #618B616760DD",
", c #616161616181",
"< c #63C363C363F5",
"1 c #68FC68E867D4",
"2 c #7DE37D257653",
"3 c #E4A9D82E3AB9",
"4 c #FBBFF71F0E28",
"5 c #F234EA262025",
"6 c #E081D4605D47",
"7 c #CA88C243779E",
"8 c #E12ED69F75E2",
"9 c #EE8AE1DD7581",
"0 c #8FCE8FDD90CD",
"q c #9CC899A88815",
"w c #935D935792E9",
"e c #9574961293FA",
"r c #99A7999799C4",
"t c #9C909C909CBB",
"y c #9FDF9FDF9E9E",
"u c #9FB29F9FA0ED",
"i c #A23EA28CA4D4",
"p c #BEDEBEDEBEA9",
"a c #BF32BF32BF58",
"s c #C0CAC0CAC085",
"d c #D154CF91B4EB",
"f c #D74ED2DBBE12",
"g c #EFBCEA06A0AA",
"h c #F548EFE5AEEF",
"j c #C77BC730CC6C",
"k c #C5C5C5F5CDE5",
"l c #C6C0C710CF4F",
"z c #C99CC99CC955",
"x c #CD92CC3CC94D",
"c c #CF6FCF6FCEE2",
"v c #CFB5CF88D3E9",
"b c #D297D22CD1B5",
"n c #D46CD46CD3E7",
"m c #D21AD1F4D644",
"M c #D521D521D75B",
"N c #D70DD6A8D890",
"B c #D7A8D757D7D2",
"V c #DA03DA0AE0C6",
"C c #DC13DC10DFC1",
"Z c #DD5DDD4FDCD9",
"A c #D7DDD7F1E201",
"S c #DBDBDB9BE363",
"D c #DB2FDB7FE4F0",
"F c #DEA7DE5EE79F",
"G c #DF91DFE7E870",
"H c #DF87DFA3E9A1",
"J c #E0F2E021E56B",
"K c #E1A3E131DE31",
"L c #F44BED54CE2D",
"P c #FE45F9A9DD95",
"I c #E156E1A6E86C",
"U c #E2A7E2D7E8F1",
"Y c #E497E45DE935",
"T c #E491E4A5EA8C",
"R c #EAAFEAA9F0D0",
"E c #ED1DECB9F524",
"W c #F2F8F324F7FF",
"Q c #F890F8A8FABA",
"! c #F961F961FB7F",
"~ c #FBEBFC0BFCCC",
"^ c #FB14FB14FD43",
"/ c #FCACFCACFD44",
"( c #FDA9FD76FD1B",
") c #FEBEFEBEFE1D",
"_ c gray100",
"` c None",
/* pixels */
"```````O*;O```````",
"`````;%rbcs<``````",
"````>nBNVSNa>`````",
"```oaZJFWQGkm1 ```",
"```OzmF~___^EYO```",
"```XykQ__PL_~V;```",
"````&kFEh6VYUVw```",
"`````yx843fi0u@```",
"``````:g57eO``````",
"``````q9d#````````",
"``````2K$`````````"
};
