/* XPM */
static char *15[] = {
/* columns rows colors chars-per-pixel */
"32 20 178 2",
"   c #D8C927",
".  c #E7DB21",
"X  c #E8DA27",
"o  c #F0E704",
"O  c #F8EE0E",
"+  c #FCEF1F",
"@  c #FBF600",
"#  c #FFFA00",
"$  c #FFFE00",
"%  c yellow",
"&  c #FCF318",
"*  c #FFF424",
"=  c #FFF139",
"-  c #D4C342",
";  c #DCCD4B",
":  c #DFCE4A",
">  c #DDD04D",
",  c #E0CD50",
"<  c #EEDD43",
"1  c #FBE66A",
"2  c #FCE774",
"3  c #A8A8AE",
"4  c #B7B7B8",
"5  c #BABAB9",
"6  c #BABABB",
"7  c gray",
"8  c #B8B8C0",
"9  c #BEBEC4",
"0  c #BABBEC",
"q  c #D0C480",
"w  c #DFD29C",
"e  c #CDC5A4",
"r  c #CEC7B7",
"t  c #C9C5BE",
"y  c #E0CF8C",
"u  c #EFE6BB",
"i  c #F8E9A3",
"p  c #C1C0C1",
"a  c #C1C1C1",
"s  c #C3C3C1",
"d  c #C2C1C6",
"f  c #C4C4C3",
"g  c gray77",
"h  c #C7C7C6",
"j  c gray78",
"k  c #C3C3CE",
"l  c #C5C5CA",
"z  c #C5C5CE",
"x  c #C7C8CC",
"c  c #C9C5CC",
"v  c #C8C8C8",
"b  c #C9C9C8",
"n  c #C8C8CA",
"m  c #CACAC9",
"M  c #CACACA",
"N  c #C8C8CF",
"B  c #CACACC",
"V  c #CCCCCA",
"C  c gray80",
"Z  c #CECECD",
"A  c #C4C3D2",
"S  c #C5C4D2",
"D  c #C5C5D3",
"F  c #C7C7D1",
"G  c #C6C6D3",
"H  c #C9C9D2",
"J  c #C9C9D5",
"K  c #C9C9D7",
"L  c #CDCFD7",
"P  c #CFCFD4",
"I  c #CDCCD8",
"U  c #CDCDDB",
"Y  c gray82",
"T  c #D5D5D0",
"R  c gray83",
"E  c #D5D5D5",
"W  c #D6D6D5",
"Q  c #D0D0DA",
"!  c #D0D0DB",
"~  c #D1D2DB",
"^  c #D2D2DB",
"/  c #D1D1DD",
"(  c #D1D1DE",
")  c #D1D2DF",
"_  c #D7D7D8",
"`  c #D6D6DA",
"'  c #DFDAD4",
"]  c #D9D9DA",
"[  c #DADAD9",
"{  c gray86",
"}  c #D9D9DF",
"|  c #D9DADF",
" . c #DBDADE",
".. c gainsboro",
"X. c #DEDEDC",
"o. c gray87",
"O. c #DFDFDE",
"+. c #C7C6EF",
"@. c #CFCFF2",
"#. c #D1D2E0",
"$. c #D1D2E1",
"%. c #D6D6E0",
"&. c #D5D8EF",
"*. c #D7D8ED",
"=. c #DAD9E1",
"-. c #DDDDE0",
";. c #DDDCE2",
":. c #DEDDE5",
">. c #DCDFF4",
",. c #DBDDFF",
"<. c #E2DDE6",
"1. c #E0E0DF",
"2. c #F7F2DA",
"3. c #FCF5DB",
"4. c #E1E1E1",
"5. c #E3E3E2",
"6. c gray89",
"7. c #E1E1E5",
"8. c #E2E2E4",
"9. c #E4E4E3",
"0. c #E6E6E5",
"q. c #E6E6E6",
"w. c #E7E7E7",
"e. c #E3E3ED",
"r. c #E4E5EB",
"t. c #E6E6ED",
"y. c #EAE9E6",
"u. c #E9E9E9",
"i. c gray92",
"p. c #ECEBEB",
"a. c #E4E5F1",
"s. c #E7E7F1",
"d. c #E7E8F2",
"f. c #EAEAF0",
"g. c #EAEAF3",
"h. c #ECECF1",
"j. c #ECF7FF",
"k. c #EEF4FF",
"l. c #F1F1F2",
"z. c #F0F0F7",
"x. c #F2F2F8",
"c. c #F3F3F9",
"v. c #F2F2FB",
"b. c #F5F5F8",
"n. c #F5F5F9",
"m. c #F5F5FA",
"M. c #F5F6F9",
"N. c #F6F6F9",
"B. c #F2FFFF",
"V. c #F7F9FF",
"C. c #F6FEFF",
"Z. c #F8F7FD",
"A. c #FBFAF5",
"S. c #FBFBF6",
"D. c #FFFFF4",
"F. c #F9F9F9",
"G. c #F9F9FA",
"H. c #FAFAFB",
"J. c #FBFBFB",
"K. c #F9FAFF",
"L. c #FBFBFC",
"P. c #F9FFFF",
"I. c #FCFCF9",
"U. c #FCFCFB",
"Y. c #FDFDFB",
"T. c gray99",
"R. c #FDFCFD",
"E. c #FDFDFD",
"W. c #FDFEFF",
"Q. c #FFFDFC",
"!. c #FEFEFC",
"~. c #FEFEFD",
"^. c #FFFEFC",
"/. c #FFFFFD",
"(. c #FEFEFE",
"). c #FFFFFE",
"_. c gray100",
"`. c None",
/* pixels */
"`.`.`.`.`.`.`.`.`.`.`.`.`.`.`.`.`.`.`.`.`.`.`.`.`.`.`.`.`.`.`.`.",
"`.`.`.`.`.`.`.`.`.`.`.`.`.`.<.7 7 w.`.`.`.`.`.`.`.`.`.`.`.`.`.`.",
"`.`.`.`.`.`.`.`.`.`.`.`.`._ m Z m m M J.`.`.`.`.`.`.`.`.`.`.`.`.",
"`.`.`.`.`.`.`.`.`._._ 4 6 m X.p.u.R f j l.`.`.`.`.`.`.`.`.`.`.`.",
"`.`.`.`.`.`.`.`._.Z m R X.O.` Q $.Q 5.m j 5.`.`.`.`.`.`.`.`.`.`.",
"`.`.`.`.`.`.`.`._ j 5.H.<.H ( d.v.e.U X.7 6 y.`.`.`.`.`.`.`.`.`.",
"`.`.`.`.`.`.`._.Y Y I. .A d.c._._.I.r.U $.z P S.`.`.`.`.`.`.`.`.",
"`.`.`.`.`.`.`.Y j 9.;.G r._._._._._.J.b.c.z.(  ._.`.`.`.`.`.`.`.",
"`.`.`.`.`.`.`.a m B G d.J._._._._._._._._._.h.( i.`.`.`.`.`.`.`.",
"`.`.`.`.`.`.`.w.a 3 e.J._._._._._._.3.F._._.H.%.=.`.`.`.`.`.`.`.",
"`.`.`.`.`.`.`.`.T 8 a.J._._._._.I.1 w S._._._.i.( 1.`.`.`.`.`.`.",
"`.`.`.`.`.`.`.`.I.d K v.H._.V.2.= - >.H.b.v.N.d.Q 9.`.`.`.`.`.`.",
"`.`.`.`.`.`.`.`.`.X.9 G *.@.w &   0 &.l K x z G =.I.`.`.`.`.`.`.",
"`.`.`.`.`.`.`.`.`._.w.x t ; @ $ X : e L m R m ` S.`.`.`.`.`.`.`.",
"`.`.`.`.`.`.`.`.`.`.`._.i < O $ # ; ' _.`.`.`.`.`.`.`.`.`.`.`.`.",
"`.`.`.`.`.`.`.`.`.`.`.`.j.<.& o , +.P.`.`.`.`.`.`.`.`.`.`.`.`.`.",
"`.`.`.`.`.`.`.`.`.`.`.`._.* . r ,.`.`.`.`.`.`.`.`.`.`.`.`.`.`.`.",
"`.`.`.`.`.`.`.`.`.`.`._.2 , c k.`.`.`.`.`.`.`.`.`.`.`.`.`.`.`.`.",
"`.`.`.`.`.`.`.`.`.`.`.D.u :.B.`.`.`.`.`.`.`.`.`.`.`.`.`.`.`.`.`.",
"`.`.`.`.`.`.`.`.`.`.`.`.V._.`.`.`.`.`.`.`.`.`.`.`.`.`.`.`.`.`.`."
};
