/* XPM */
static char *16-scaled[] = {
/* columns rows colors chars-per-pixel */
"18 11 97 2",
"   c black",
".  c #07A8072704CD",
"X  c #06EF07C80800",
"o  c #095308EE071B",
"O  c #080B095F099A",
"+  c #11FF10A40B11",
"@  c #112B10430C59",
"#  c #14E814070FE6",
"$  c #1CCD1C0215AF",
"%  c #1CCD1BAC177E",
"&  c #20001DDE11B2",
"*  c #20001DDE13D4",
"=  c #1C731BD51960",
"-  c #240023031B1B",
";  c #240022961D5D",
":  c #3AAE369621D6",
">  c #3EC439AF255B",
",  c #3CBC39AF2BB5",
"<  c #400040003DEE",
"1  c #4F6C475526B6",
"2  c #53144CB02FF6",
"3  c #6A5061AE3A3A",
"4  c #79796D2D3979",
"5  c #4CC04CB042DF",
"6  c #643D5F3248A8",
"7  c #629862AD594D",
"8  c #6D00678E513E",
"9  c #70416C8F55CF",
"0  c #703070B05999",
"q  c #74746A7D4094",
"w  c #74E1739E58F8",
"e  c #95A289A3584B",
"r  c #94E48A3858E7",
"t  c #8AC48D937036",
"y  c #AFC19AC54379",
"u  c #A84E976B5123",
"i  c #BC7BA9AD5813",
"p  c #D48EBCF35C26",
"a  c #C5A6B3D764CC",
"s  c #ED4CCAF23E1E",
"d  c #F9A1D0FB24E2",
"f  c #DBDAC1A055E9",
"g  c #D656C393779F",
"h  c #DF6ECBA275F4",
"j  c #DA35CE9C7999",
"k  c #ED6FCD5946DA",
"l  c #E21EC8EB5590",
"z  c #E67FCC915CBD",
"x  c #EF7FD03A517C",
"c  c #E948D1295FD1",
"v  c #FDCADE8C5775",
"b  c #E7CFCF6F66FF",
"n  c #E591CEE673E0",
"m  c #F985DEC06F6E",
"M  c #F59DDC2E75F6",
"N  c #F5C2DE6D712F",
"B  c #ED5FE46B46F7",
"V  c #F2D3E7AE4770",
"C  c #FB2AE2277C94",
"Z  c #FB6AE3007D25",
"A  c #97239678961E",
"S  c #A455A2D49E39",
"D  c #AEF6AF1FB0B9",
"F  c #B363B2C6B365",
"G  c #CC43C7CD9D18",
"H  c #C2F4C79EAA09",
"J  c #D69CCD03AC1D",
"K  c #DB42D00FA4DC",
"L  c #DBF1D29EB03A",
"P  c #DE38D65EB28D",
"I  c #DB43D4BCBFB5",
"U  c #EBA6E0B89F2E",
"Y  c #E71EDA19A56D",
"T  c #E5E7DB33B108",
"R  c #E61CDCDAB8C7",
"E  c #F294E14B89BA",
"W  c #FB83E43F85A9",
"Q  c #FBD8E73E9135",
"!  c #FE1BECFAA0C2",
"~  c #F76FEC67BE73",
"^  c #CABCCE87D2A4",
"/  c #E4ACDEAEC979",
"(  c #E827E312CFDF",
")  c #E981E272C8B0",
"_  c #EF7CE594C293",
"`  c #E6CBE30AD443",
"'  c #EDE9E853D520",
"]  c #F337EAFBC433",
"[  c #F342ECDEC50D",
"{  c #F3FBEB56C84D",
"}  c #F64EEDD3CA93",
"|  c #FBDBF114C119",
" . c #FF87F5FFCC1B",
".. c #FE5EF53BCD82",
"X. c #FF2DF609D047",
"o. c #FD79F7FEDE67",
"O. c None",
/* pixels */
"O.O.O.O.O.O.% ; > , - $ O.O.O.O.O.O.",
"O.O.O.O.O.2 1 p y u a w 5 O.O.O.O.O.",
"O.O.O.O.& U f C Q m z c 9 * O.O.O.O.",
"O.O.O.O.3 M C  .o.! v k i 6 O.O.O.O.",
"O.O.O.o e x W ] ` R N d l t O O.O.O.",
"O.O.O.. 4 b Y / ( ) K s g 0 X O.O.O.",
"O.O.O.O.q h L _ X. .~ T n 8 O.O.O.O.",
"O.O.O.O.+ e J } | E { ' ^ @ O.O.O.O.",
"O.O.O.O.O.: S P V j / D D O.O.O.O.O.",
"O.O.O.O.O.O.= G B H 7 # O.O.O.O.O.O.",
"O.O.O.O.O.O.< [ A O.O.O.O.O.O.O.O.O."
};
