/* XPM */
static char *16[] = {
/* columns rows colors chars-per-pixel */
"32 20 221 2",
"   c #DEBF45",
".  c #C5B87C",
"X  c #FA9B7B",
"o  c #EEC31A",
"O  c #FFCF01",
"+  c #FACC0D",
"@  c #FACF1A",
"#  c #FFD20E",
"$  c #E4C034",
"%  c #E3CE3F",
"&  c #EFC930",
"*  c #EDCA3D",
"=  c #E6DA3B",
"-  c #F0C927",
";  c #F1CC2A",
":  c #FCD321",
">  c #FDD633",
",  c #FAD43B",
"<  c #FCD63D",
"1  c #FBEC00",
"2  c #FEFA00",
"3  c #F5E82D",
"4  c #F4E83B",
"5  c #DACA4B",
"6  c #DDC254",
"7  c #DAC56C",
"8  c #DCC774",
"9  c #D9CD78",
"0  c #DED561",
"q  c #E6C745",
"w  c #E1C54F",
"e  c #E8C94B",
"r  c #EECE4B",
"t  c #E5C955",
"y  c #F0CE45",
"u  c #F0CF4C",
"i  c #F5D242",
"p  c #F2D34F",
"a  c #F7D44D",
"s  c #F6D44F",
"d  c #F8D541",
"f  c #F9D647",
"g  c #FFDB44",
"h  c #FFDE46",
"j  c #FBDB4E",
"k  c #FEDD4F",
"l  c #F6D651",
"z  c #F9D751",
"x  c #FBDA50",
"c  c #FDDD54",
"v  c #F8DA5C",
"b  c #FDDE5A",
"n  c #E3C963",
"m  c #E2C966",
"M  c #E3CD73",
"N  c #E3CE74",
"B  c #E4CE75",
"V  c #E0D967",
"C  c #ECD063",
"Z  c #EDD260",
"A  c #E5D17C",
"S  c #F2D96D",
"D  c #F3D96F",
"F  c #F7DA6A",
"G  c #F5DC69",
"H  c #FADD61",
"J  c #F8DD6A",
"K  c #FADD6B",
"L  c #F0D770",
"P  c #F1D976",
"I  c #F7DD73",
"U  c #F9DD70",
"Y  c #F9DF77",
"T  c #FFE658",
"R  c #FFE261",
"E  c #FFE36C",
"W  c #FEE26E",
"Q  c #F4E275",
"!  c #F8E17F",
"~  c #FAE17F",
"^  c #FCE379",
"/  c #FEE47A",
"(  c #FFE47D",
")  c #FAE87E",
"_  c #809EFF",
"`  c #BBCEFF",
"'  c #CCC099",
"]  c #CEC39C",
"[  c #D7C789",
"{  c #DACB8A",
"}  c #CAC1A1",
"|  c #CEC6AE",
" . c #CEC9BD",
".. c #D1C7A6",
"X. c #D7CFB8",
"o. c #D5D0B6",
"O. c #D9D1B0",
"+. c #DAD1B2",
"@. c #DAD1B3",
"#. c #DBD3B3",
"$. c #DCD3B5",
"%. c #DFD7B0",
"&. c #E7D796",
"*. c #EADA96",
"=. c #ECDB91",
"-. c #EFDD93",
";. c #E2D5A1",
":. c #E4D8A4",
">. c #E5DAAF",
",. c #E0D7B1",
"<. c #E4D6B3",
"1. c #E6DDBD",
"2. c #E6DCBF",
"3. c #ECDFB4",
"4. c #F6E086",
"5. c #FBE486",
"6. c #FFE987",
"7. c #FFE888",
"8. c #FFE98B",
"9. c #FFE98C",
"0. c #FFEE8D",
"q. c #F7E393",
"w. c #F4E499",
"e. c #FCE895",
"r. c #FFED95",
"t. c #FFEF9C",
"y. c #FFEE9E",
"u. c #ECE0A2",
"i. c #EFE3AC",
"p. c #ECE4B1",
"a. c #EEE4B5",
"s. c #EBE1B8",
"d. c #EBE2BB",
"f. c #F2E5AE",
"g. c #FFEFAA",
"h. c #F0E5BC",
"j. c #F3E8BE",
"k. c #FEEEB1",
"l. c #FFF2A1",
"z. c #FFFFA3",
"x. c #FFF2B0",
"c. c #FFF3BE",
"v. c #FFF3BF",
"b. c #FFF4BB",
"n. c #C3C2C6",
"m. c #C3C5C8",
"M. c #C3C4CE",
"N. c #CAC8C3",
"B. c #CECAC2",
"V. c #CECADE",
"C. c #DDD6C2",
"Z. c #DFD8C0",
"A. c #DFD9C6",
"S. c #DDD9CA",
"D. c #DED9C8",
"F. c #DDD9CE",
"G. c #D2D1D8",
"H. c #D7D8DD",
"J. c #D8D6D3",
"K. c #D9D7DD",
"L. c #DBD9DD",
"P. c #DBDCE2",
"I. c #D6D7FF",
"U. c #D0DAFE",
"Y. c #CDE1FF",
"T. c #DFE5FF",
"R. c #DDECF9",
"E. c #D5F9FF",
"W. c #D6FEFF",
"Q. c #DDF8FF",
"!. c #E2DCCC",
"~. c #E2DECF",
"^. c #E4DDC9",
"/. c #E4DFCA",
"(. c #E9E0C3",
"). c #EBE1C2",
"_. c #E9E4CF",
"`. c #E3E0D4",
"'. c #E6E1D3",
"]. c #E5E3DF",
"[. c #EDE8D3",
"{. c #F4E9C2",
"}. c #F7EFCF",
"|. c #F8EEC0",
" X c #F1EBD7",
".X c #F3EDDE",
"XX c #F4F7C1",
"oX c #FBF0C6",
"OX c #FFF3C4",
"+X c #FFF5C0",
"@X c #FFF5C3",
"#X c #FFF6C3",
"$X c #FBF1CA",
"%X c #FFF4C9",
"&X c #FFF5CB",
"*X c #FFF6CB",
"=X c #FFF6CF",
"-X c #FFF8C0",
";X c #F7F0D4",
":X c #F7F0D7",
">X c #FAF3D6",
",X c #FFF5D0",
"<X c #FFF7D0",
"1X c #FFF7D2",
"2X c #FFF7D4",
"3X c #FBF4D8",
"4X c #FFFAD9",
"5X c #FFFBDB",
"6X c #FFF9DF",
"7X c #E6E0E2",
"8X c #E4E7EE",
"9X c #E3E5F1",
"0X c #F5F2E7",
"qX c #F8F2E0",
"wX c #FFFAEC",
"eX c ivory",
"rX c #FFFDF7",
"tX c #FBFFFF",
"yX c #FFFFFD",
"uX c gray100",
"iX c None",
/* pixels */
"iXiXiXiXiXiXiXiXiXiXiXiXiXiXiXiXiXiXiXiXiXiXiXiXiXiXiXiXiXiXiXiX",
"iXiXiXiXiXiXiXiXiXiXiXiX,XiXiXq.i.iXiX-XiXiXiXiXiXiXiXiXiXiXiXiX",
"iXiXiXiXiXiXiXiXiXiXiXiXU L iXi M iXv *.iXiXiXiXiXiXiXiXiXiXiXiX",
"iXiXiXiXiXiXiXiXiXy.! iXW d &.k C G - _ z.5.R.iXiXiXiXiXiXiXiXiX",
"iXiXiXiXiXiXiXiXiXXXl f L ( I 8.F j w A @ m iXiXiXiXiXiXiXiXiXiX",
"iXiXiXiXiXiXiXiX0.uX<.H ^ g.6XOXg.8.l :   ` iXy.iXiXiXiXiXiXiXiX",
"iXiXiXiXiXiXiXiX4., c K #XwXrX4Xx.8.E > e d r ,.iXiXiXiXiXiXiXiX",
"iXiXiXiXiXiXiXiXiXt a 6.b.4X0X_.s.e.T g # $ . iXiXiXiXiXiXiXiXiX",
"iXiXiXiXiXiXiX|.K b a ( f.d.S.`.F.#.=.h + e T Y E.iXiXiXiXiXiXiX",
"iXiXiXiXiXiXiXw.u & x ;.A./.S.~.~.$.o.C O o   m Q.iXiXiXiXiXiXiX",
"iXiXiXiXiXiXiXiXiXp.B ,.;XC./.:X3X1.+.] * 7 U.iXiXiXiXiXiXiXiXiX",
"iXiXiXiXiXiXiXiX! ; { 1.$.(.2X2X1X$Xj.h.+.p y >.iXiXiXiXiXiXiXiX",
"iXiXiXiXiXiXiXiX-.[ m.} 3.%X%X%X,X#Xv.b.`.G.8 :.iXiXiXiXiXiXiXiX",
"iXiXiXiXiXiXiXiXiXiXN '  X#X#X,Xr.S }.3XoXK.Y.iXiXiXiXiXiXiXiXiX",
"iXiXiXiXiXiXiXiXiXl.P n.K.{.7X) % o.(.9X].J.P.iXiXiXiXiXiXiXiXiX",
"iXiXiXiXiXiXiXiXiXiXiX8X .| V 1 5 B...N.M.H.uXiXiXiXiXiXiXiXiXiX",
"iXiXiXiXiXiXiXiXiXiXiXiX3Xu.3 2 = $..Xa.iXiXiXiXiXiXiXiXiXiXiXiX",
"iXiXiXiXiXiXiXiXiXiXiXiXiXtX4 0 V.W.iXiXiXiXiXiXiXiXiXiXiXiXiXiX",
"iXiXiXiXiXiXiXiXiXiXiXiXuXQ 9 I.iXiXiXiXiXiXiXiXiXiXiXiXiXiXiXiX",
"iXiXiXiXiXiXiXiXiXiXiXiXeX[.T.iXiXiXiXiXiXiXiXiXiXiXiXiXiXiXiXiX"
};
