/* XPM */
static char *17-scaled[] = {
/* columns rows colors chars-per-pixel */
"18 11 107 2",
"   c black",
".  c #07A8072704CD",
"X  c #07FE0965099A",
"o  c #095308EE071B",
"O  c #0EB70F1F0ED7",
"+  c #11FF10910B11",
"@  c #14BB13260D17",
"#  c #10AB10AB1068",
"$  c #133313331333",
"%  c #1CCD1C0215AF",
"&  c #1CCD1BE5177E",
"*  c #20001DDE11B2",
"=  c #20001DDE13D4",
"-  c #240023031B1B",
";  c #240022DF1D5D",
":  c #246C246C2B33",
">  c #29C029C02ADD",
",  c #39FA35EE236F",
"<  c #3EC439AF255B",
"1  c #3CBC39AF2BB5",
"2  c #4F5D477826F3",
"3  c #53574CB02FF6",
"4  c #62D25B653937",
"5  c #6A5061AE3A3A",
"6  c #79796D2D3979",
"7  c #43D0433942C3",
"8  c #459245BF4916",
"9  c #4CC04CB042DF",
"0  c #4E014E014DF0",
"q  c #63F75E5E46BA",
"w  c #742D6A4A4121",
"e  c #70766C8F5530",
"r  c #74E1739E58F8",
"t  c #75B6743063F4",
"y  c #9A448BFD481D",
"u  c #95A289A3584B",
"i  c #8AB18D4D6D19",
"p  c #8D1D893B6A5F",
"a  c #AF299A604346",
"s  c #A84E976B5123",
"d  c #BD46A9C85701",
"f  c #D452BD205C72",
"g  c #C557B388651C",
"h  c #D18ABB93682C",
"j  c #F8ABCDFF1992",
"k  c #F362CD71300D",
"l  c #FA33D04B2137",
"z  c #F4AAD11D3A73",
"x  c #FFC5D9D33C71",
"c  c #FFFFDB9B3EA4",
"v  c #DC6CC21055B0",
"b  c #E016CB167237",
"n  c #DDF8C9057686",
"m  c #ED48CDAB470F",
"M  c #E21FC87050E7",
"N  c #E4B3C94C53C3",
"B  c #E5CDCBFE5E0D",
"V  c #E50FCB755FC6",
"C  c #EF6BCFFB5213",
"Z  c #FE20DDFE58AE",
"A  c #FF86DF935BCA",
"S  c #FE65DF7F5C9C",
"D  c #E756CE66630B",
"F  c #E96ED1E661A0",
"G  c #F027D66E67AF",
"H  c #F985DF046F14",
"J  c #F555DC4B75F6",
"K  c #EF01E69D443C",
"L  c #FCECE1506FA7",
"P  c #FB87E2A37BBE",
"I  c #FB6CE25F7CFD",
"U  c #9B6A98408951",
"Y  c #AC55ABEDAA01",
"T  c #BB57C2A5AFFE",
"R  c #C6CDC1EE83F7",
"E  c #D7D4CF979F62",
"W  c #DA92CB6090A0",
"Q  c #DA49CD6D9888",
"!  c #DF1DD7E99265",
"~  c #E696D3738139",
"^  c #ED3ED7F782CE",
"/  c #EE18DFE19D39",
"(  c #E615DA66B022",
")  c #FE59E5638385",
"_  c #FFFFE6FE8353",
"`  c #FFFFE79F8767",
"'  c #F11BEBA39901",
"]  c #FB49E7059231",
"[  c #FFC1EB36979B",
"{  c #FFFFED09A003",
"}  c #EB0CE19CC06C",
"|  c #FFABF320BF0E",
" . c #D14AD144D669",
".. c #E057DDD8D5CC",
"X. c #DC84DCD4E268",
"o. c #E01FE039E5FF",
"O. c #E262E0A0C949",
"+. c #EE55E59CC74B",
"@. c #EB73E674D68F",
"#. c #FF6BF475C796",
"$. c #FF91F502CBA9",
"%. c #FC44F665DF06",
"&. c #FEB9F841DF1E",
"*. c #E282E298E942",
"=. c #FA6FF6DEE34D",
"-. c #FBB4FBB4FCAF",
";. c None",
/* pixels */
";.;.;.;.;.;.& ; < 1 - % ;.;.;.;.;.;.",
";.;.;.;.;.3 2 f a s g r 9 ;.;.;.;.;.",
";.;.;.;.* / v P ] H V F e = ;.;.;.;.",
";.;.;.;.5 J I $.&.{ Z m d q ;.;.;.;.",
";.;.;.o u C _ | #.[ A l M i X ;.;.;.",
";.;.;.. 6 D S _ ` L G ~ Q O.O ;.;.;.",
";.;.;.;.w V z x x ^ ( } @. .Y $ ;.;.",
";.;.;.;.+ y N k j n +.%.=.-.*.> ;.;.",
";.;.;.;.;., 4 b h W ..' ! o.X.> ;.;.",
";.;.;.;.;.;.@ 7 t U p K R 8 0 $ ;.;.",
";.;.;.;.;.;.;.;.;.;.E T : ;.;.;.;.;."
};
