/* XPM */
static char *17[] = {
/* columns rows colors chars-per-pixel */
"32 20 237 2",
"   c #E18100",
".  c #C5B87C",
"X  c #D2BF78",
"o  c #FDCC03",
"O  c #FECC00",
"+  c #FECE00",
"@  c #FECF0C",
"#  c #F7C911",
"$  c #FACC18",
"%  c #FACF1A",
"&  c #FFD10C",
"*  c #FFD20D",
"=  c #FFDA1E",
"-  c #EDC626",
";  c #E4C034",
":  c #E5C43D",
">  c #EEC932",
",  c #E4D639",
"<  c #F0C927",
"1  c #F3CC26",
"2  c #F1CB2A",
"3  c #F0CB2C",
"4  c #F2CF3D",
"5  c #F8CF33",
"6  c #FCD321",
"7  c #FED426",
"8  c #FFD821",
"9  c #FFD82C",
"0  c #F5D035",
"q  c #FDD633",
"w  c #FAD43B",
"e  c #FCD63D",
"r  c #FFDA39",
"t  c #F0E80B",
"y  c #FCF700",
"u  c #F2E821",
"i  c #DDC254",
"p  c #DEC255",
"a  c #DEC354",
"s  c #D9C05E",
"d  c #DCD66A",
"f  c #DCD07B",
"g  c #E6C745",
"h  c #E1C248",
"j  c #E1C54F",
"k  c #E7C94E",
"l  c #E8C740",
"z  c #EECE4B",
"x  c #ECCD4F",
"c  c #E5C955",
"v  c #EDD055",
"b  c #ECDC5C",
"n  c #F0CF4C",
"m  c #F5D242",
"M  c #F6D44F",
"N  c #F8D541",
"B  c #F9D543",
"V  c #F9D647",
"C  c #FFDA41",
"Z  c #FFDC41",
"A  c #FFDC46",
"S  c #FFDC47",
"D  c #FBD84C",
"F  c #FBDB4E",
"G  c #FBDD4D",
"H  c #FFDC4A",
"J  c #FFDC4D",
"K  c #FEDD4F",
"L  c #F6D350",
"P  c #F6D651",
"I  c #F7D95D",
"U  c #F9D751",
"Y  c #FFDC50",
"T  c #FDDD54",
"R  c #F8DA5C",
"E  c #FEDE59",
"W  c #E3C963",
"Q  c #E7CE69",
"!  c #E4CD6E",
"~  c #E3CD73",
"^  c #ECD063",
"/  c #ECD264",
"(  c #EED266",
")  c #E5D17C",
"_  c #F3D96F",
"`  c #F7DA6A",
"'  c #F5DC69",
"]  c #FADD61",
"[  c #FEDF61",
"{  c #F8DD6A",
"}  c #FADD6B",
"|  c #F0D770",
" . c #F1D874",
".. c #F7DD73",
"X. c #F9DD70",
"o. c #FBDF70",
"O. c #FFE54D",
"+. c #FFE162",
"@. c #FFE163",
"#. c #FFE067",
"$. c #FFE16C",
"%. c #FFE36C",
"&. c #FEE26E",
"*. c #FFE375",
"=. c #FAE17F",
"-. c #FCE379",
";. c #FEE47A",
":. c #FFE47A",
">. c #BEBAA7",
",. c #BBBBBF",
"<. c #809EFF",
"1. c #BBCEFF",
"2. c #B6DDFF",
"3. c #D6C687",
"4. c #D9CA8C",
"5. c #D5CB96",
"6. c #D8D094",
"7. c #CEC4A1",
"8. c #C8C3B8",
"9. c #CCC8BB",
"0. c #DDD0A6",
"q. c #DDD1A9",
"w. c #DFD4AA",
"e. c #D6D0BF",
"r. c #DFD7B0",
"t. c #DFD6B3",
"y. c #E3D185",
"u. c #E0D295",
"i. c #E7D796",
"p. c #EADA96",
"a. c #ECDA95",
"s. c #ECDF91",
"d. c #EFDC93",
"f. c #E4DCAB",
"g. c #EEDFAD",
"h. c #E2D7B2",
"j. c #E4D6B3",
"k. c #E6DDB9",
"l. c #F7E181",
"z. c #F6E086",
"x. c #FBE486",
"c. c #FFE683",
"v. c #FEE684",
"b. c #FFE78A",
"n. c #FFE888",
"m. c #FFE988",
"M. c #FFE98B",
"N. c #FFE98E",
"B. c #FFEE8D",
"V. c #F7E393",
"C. c #F4E499",
"Z. c #F6ED91",
"A. c #F2EB9A",
"S. c #FFEA97",
"D. c #FFEB97",
"F. c #FFEB9B",
"G. c #FFEF9C",
"H. c #FFEE9E",
"J. c #EFE3AC",
"K. c #EFE4BD",
"L. c #FFECA0",
"P. c #FFEEA7",
"I. c #FFEFAA",
"U. c #FEEEB1",
"Y. c #FFEFB0",
"T. c #FFFFA3",
"R. c #FFF0B2",
"E. c #FCF2B7",
"W. c #FFF6B6",
"Q. c #FFF2B8",
"!. c #FFF2B9",
"~. c #FFF1BC",
"^. c #FFF2BD",
"/. c #FFF3BF",
"(. c #FCF4BB",
"). c #C6C6C9",
"_. c #CACACF",
"`. c #CCCCCE",
"'. c #C6C7D7",
"]. c #CDD0DB",
"[. c #D6D5D2",
"{. c #D0D0DD",
"}. c #D2D2DC",
"|. c #D4D5DD",
" X c #D6D6DD",
".X c #D8D6D0",
"XX c #D9D9DF",
"oX c #C6CCE7",
"OX c #CBD0E3",
"+X c #C7D0F8",
"@X c #D8D8E0",
"#X c #D9DAE3",
"$X c #DADAE1",
"%X c #DCDDE7",
"&X c #DEDEE6",
"*X c #D7D7FF",
"=X c #D4DBFF",
"-X c #DDECF9",
";X c #D2F9FF",
":X c #E1DAC5",
">X c #E0DFF2",
",X c #E2E1C9",
"<X c #E7E1CE",
"1X c #EAE1C2",
"2X c #EEE5C1",
"3X c #E7E3DA",
"4X c #ECEADD",
"5X c #F8EEC0",
"6X c #F4F7C1",
"7X c #FFF3C4",
"8X c #FBF0CB",
"9X c #FAF4CF",
"0X c #FDF3C8",
"qX c #FFF8C0",
"wX c #F7F1DA",
"eX c #FAF3D6",
"rX c #FFF7D0",
"tX c #FEF6D5",
"yX c #FEF6D8",
"uX c #FFF7DB",
"iX c #FFF9DF",
"pX c #E7E7EC",
"aX c #EEEEE6",
"sX c #E8F3FF",
"dX c #EEFFFF",
"fX c #F4F1E9",
"gX c #FDF9E9",
"hX c #FFFAEC",
"jX c #F0F0F5",
"kX c #FDFBF7",
"lX c #FBFBF9",
"zX c #FCFBFF",
"xX c #FDFDF9",
"cX c #FDFCFC",
"vX c #FDFDFF",
"bX c gray100",
"nX c None",
/* pixels */
"nXnXnXnXnXnXnXnXnXnXnXnXnXnXnXnXnXnXnXnXnXnXnXnXnXnXnXnXnXnXnXnX",
"nXnXnXnXnXnXnXnXnXnXnXnXrXnXnXV.J.nXnXqXnXnXnXnXnXnXnXnXnXnXnXnX",
"nXnXnXnXnXnXnXnXnXnXnXnX..| nXm ~ nXI p.nXnXnXnXnXnXnXnXnXnXnXnX",
"nXnXnXnXnXnXnXnXnXH.=.nX%.N i.F ^ ' < <.T.x.-XnXnXnXnXnXnXnXnXnX",
"nXnXnXnXnXnXnXnXnX(.P V _ ;...M.` G a ) % W nXnXnXnXnXnXnXnXnXnX",
"nXnXnXnXnXnXnXnXB.bXh.] ;.I.gX7XI.b.L 8 i 1.nXH.nXnXnXnXnXnXnXnX",
"nXnXnXnXnXnXnXnXz.w T } ^.hXkXtXY.N.%.q g e z w.nXnXnXnXnXnXnXnX",
"nXnXnXnXnXnXnXnXnXc M b.7XtXgXtXY.M.#.S & ; . nXnXnXnXnXnXnXnXnX",
"nXnXnXnXnXnXnX5X} E L :.P.!.~.!.L.v.[ r o l O.} ;XnXnXnXnXnXnXnX",
"nXnXnXnXnXnXnXC.n > D %.b.S.F.S.c.+.C V v x a ! dXnXnXnXnXnXnXnX",
"nXnXnXnXnXnXnXnXnX,X4 Z %.*.*.*.+. .y.6.t.[.OX].3XnXnXnXnXnXnXnX",
"nXnXnXnXnXnXnXnXl.2 3 0 S Y J H I w.2Xq.h.K.:X_.,.4XnXnXnXnXnXnX",
"nXnXnXnXnXnXnXnXd.3.9.1 & 7 9 8 ( k.0.g.wXlXfXpX&X|.bXnXnXnXnXnX",
"nXnXnXnXnXnXnXnXnXnX= - s @ + + k 7.1XeX0XzXbXbXbX&X$XnXnXnXnXnX",
"nXnXnXnXnXnXnXnXnXE.( >.f.# X $ : 8.8XbXzX(.s.bXbXjX}.nXnXnXnXnX",
"nXnXnXnXnXnXnXnXnXnXnXnXG a +X5 h oX.X%XA., _.$X$X|.XXnXnXnXnXnX",
"nXnXnXnXnXnXnXnXnXnXnXnXa.=XnXQ 3.bX}.f y t 5.'.).`.xXnXnXnXnXnX",
"nXnXnXnXnXnXnXnXnXnXnXnXnXnXnXsXaXnXnXZ.u d .XnXnXnXnXnXnXnXnXnX",
"nXnXnXnXnXnXnXnXnXnXnXnXnXnXnXnXnXnXW.b 6.*XnXnXnXnXnXnXnXnXnXnX",
"nXnXnXnXnXnXnXnXnXnXnXnXnXnXnXnXnXnXtX:X2.nXnXnXnXnXnXnXnXnXnXnX"
};
