/* XPM */
static char *18-scaled[] = {
/* columns rows colors chars-per-pixel */
"18 11 95 2",
"   c #000200020002",
".  c #025D025D025A",
"X  c #040004000400",
"o  c #0B870B870B7B",
"O  c #0C7C0C7C0C7C",
"+  c #0CFD0CFD0D37",
"@  c #0DD60DD60DC7",
"#  c #0EC60EC30EBE",
"$  c #23DC23C023A8",
"%  c #219C256D256D",
"&  c #2CCD2CCD2CCD",
"*  c #3467370A36E3",
"=  c #3F9B3F653F2B",
"-  c #486748784867",
";  c #4B7D4B6F4BC3",
":  c #59A558FF5940",
">  c #5EC25E3F5F8C",
",  c #5F9360215F59",
"<  c #653A648564CB",
"1  c #672766E066DA",
"2  c #7481748174C8",
"3  c #7925781E784B",
"4  c #7F4F86F286F2",
"5  c #8F1A8F138F67",
"6  c #B19EB037B037",
"7  c #BC3CBB84BCF7",
"8  c #B11DC61FC61F",
"9  c #BF95C7F2C7F2",
"0  c #C5D2C569C649",
"q  c #C670C899CDCB",
"w  c #C3A9CA09CA09",
"e  c #C312CAFACD38",
"r  c #C50BCAA7CAA7",
"t  c #C7D5CC15CC15",
"y  c #C7FCCDAACDB7",
"u  c #C945CBF8CC08",
"i  c #CC45CBC5CBC5",
"p  c #CC62CD8ACD8A",
"a  c #CECECE8ECECE",
"s  c #D095CF46CF09",
"d  c #D027CFFBCFE2",
"f  c #C2F4CDF1D133",
"g  c #C53FCB98D21C",
"h  c #C870CE38D23C",
"j  c #CAB8CA31D120",
"k  c #CE5ACE47D421",
"l  c #C523D2E3D3E0",
"z  c #C7E3DBE4DBCC",
"x  c #CACED279D5CC",
"c  c #CD3FD1CFD1CF",
"v  c #CD95D1F5D7C5",
"b  c #D0AEDEC3DE86",
"n  c #D0E9D0E2D0E2",
"m  c #D29FD282D2D8",
"M  c #D37BD263D8A5",
"N  c #D621D5ACD7CB",
"B  c #D878D864D864",
"V  c #D24DD32DDAD8",
"C  c #D2FAD312DA72",
"Z  c #D647D61CD8EC",
"A  c #D204DB51DB3A",
"S  c #D253DDD1DDD1",
"D  c #D2C7DE23DDCF",
"F  c #D456E00BDF87",
"G  c #D8DAD816D83B",
"H  c #D945D8EBD9BF",
"J  c #DA49DAF8DAAF",
"K  c #D9D3D96CE295",
"L  c #DA9ADA9AE464",
"P  c #DABFDAFDE1B1",
"I  c #DBB8DBB8E42E",
"U  c #DC07DBDAE3D2",
"Y  c #E0ABE000E80D",
"T  c #D71BE0FFE0B0",
"R  c #D7CCE362E347",
"E  c #DFDFE12DE27B",
"W  c #E27BE27BE760",
"Q  c #E654E5BAE5D4",
"!  c #E2EBE320EB1D",
"~  c #E62FE5CDECC9",
"^  c #E5C0E5E9EDA2",
"/  c #E77BE771EEBE",
"(  c #E989E8EAF08C",
")  c #EB2BEB2BF1D6",
"_  c #EC42EC6EF1CF",
"`  c #F03AF021F55D",
"'  c #F4DAF480F837",
"]  c #F7AFF7AFFA89",
"[  c #F9ACF9ACFC42",
"{  c #FA24FA24FC70",
"}  c #FBE8FBCEFCDC",
"|  c #FCDCFCDCFD24",
" . c #FDD3FDC0FEB0",
".. c gray100",
"X. c None",
/* pixels */
"X.X.X.X.X.X.X.; : > # X.X.X.X.X.X.X.",
"X.X.X.X.X.- < s J m 7 6 X.X.X.X.X.X.",
"X.X.X.  2 s J Z K U N 0 < X.X.X.X.X.",
"X.X.X.# J Q K ! ] { Y C k 1   X.X.X.",
"X.X.X.# p C ^  . . . .} ( W # X.X.X.",
"X.X.X.# s C  . . . . . .} K ; X.X.X.",
"X.X.X.  3 p ( ` ] { _ ( ^ K 5 X.X.X.",
"X.X.X.X.* l e h v h q e x E = # X.X.",
"X.X.X.% 8 z S F S b S T R J $ o X.X.",
"X.X.X.4 w r y u 9 i q c n & X.X.X.X.",
"X.X.X.X.X.X.X.X.X.X.X.X.X.X.X.X.X.X."
};
