/* XPM */
static char *18[] = {
/* columns rows colors chars-per-pixel */
"32 20 214 2",
"   c #91A1A3",
".  c #A9A9A9",
"X  c #B0B6BB",
"o  c #B6B6B8",
"O  c #B8B8B9",
"+  c #B9B9BB",
"@  c #BCBCBB",
"#  c #BFBEBF",
"$  c #BABAC3",
"%  c #B9BDC0",
"&  c #B8BCC2",
"*  c #B8BCC5",
"=  c #BCBBC6",
"-  c #BFBFC3",
";  c #BDBEC7",
":  c #A6C0C0",
">  c #AAC7C6",
",  c #ADC5C5",
"<  c #ACC7C7",
"1  c #AEC6C6",
"2  c #A8CBCA",
"3  c #AACCCC",
"4  c #BBC1C7",
"5  c #BBCACA",
"6  c #B6D2D2",
"7  c #BAD1D1",
"8  c #B8D4D3",
"9  c #B8D4D4",
"0  c #BBD8D8",
"q  c #BFE2E2",
"w  c #C0BFC1",
"e  c #C2C0C2",
"r  c #C3C3C2",
"t  c #C1C0C6",
"y  c gray77",
"u  c #C5C5C6",
"i  c #C6C5C6",
"p  c gray78",
"a  c #C3C3CC",
"s  c #C5C5C8",
"d  c #C1CACD",
"f  c #C8C6C8",
"g  c #C8C7C8",
"h  c #C8C7C9",
"j  c gray79",
"k  c #CBC9CA",
"l  c #CBCACB",
"z  c #C9CACD",
"x  c #CACACC",
"c  c #C9CDCF",
"v  c #CFCDCB",
"b  c gray80",
"n  c #CECDCD",
"m  c gray81",
"M  c #C4C4D1",
"N  c #C5C5D0",
"B  c #C7C6D2",
"V  c #CAC9D4",
"C  c #CAC9D5",
"Z  c #CBCBD5",
"A  c #CBCAD6",
"S  c #CBCAD7",
"D  c #CCCCD2",
"F  c #CFCDD6",
"G  c #CECED6",
"H  c #CDCDDA",
"J  c #CDCDDB",
"K  c #CFCFD8",
"L  c #CAD1D4",
"P  c #C9D6D6",
"I  c #CED2D4",
"U  c #CED4D4",
"Y  c #C9D8D8",
"T  c #C9DDDD",
"R  c #CBDDDD",
"E  c #D0CECE",
"W  c #D0D0D0",
"Q  c #D0D1D0",
"!  c #D2D1D1",
"~  c #D5D4D3",
"^  c #D1D1D9",
"/  c #D2D2DB",
"(  c #D0D0DD",
")  c #D1D1DC",
"_  c #D1D1DF",
"`  c #D2D0DC",
"'  c #D2D2DF",
"]  c #D2D3DE",
"[  c #D4D3DB",
"{  c #D5D3DD",
"}  c #D4D4DE",
"|  c #D5DEDE",
" . c #D7DFDF",
".. c #D8D7D7",
"X. c #D8D8D7",
"o. c #D9D9DA",
"O. c #DAD9DF",
"+. c #D8DDDD",
"@. c #DCD9DB",
"#. c #DCDBDD",
"$. c #DCDEDA",
"%. c gainsboro",
"&. c #DCDCDD",
"*. c #D2D2E0",
"=. c #D3D3E1",
"-. c #D5D5E1",
";. c #D6D6E0",
":. c #D9D9E1",
">. c #D9D8E2",
",. c #DBDAE6",
"<. c #DDDBE4",
"1. c #DEDEE9",
"2. c #CCE0DF",
"3. c #D6E0DF",
"4. c #D8E0DF",
"5. c #D1E2E2",
"6. c #D1E3E3",
"7. c #D0E4E4",
"8. c #D6E1E1",
"9. c #D4E5E5",
"0. c #D7E6E5",
"q. c #D6E7E7",
"w. c #D6E8E7",
"e. c #DAE7E7",
"r. c #DCE1E1",
"t. c #DBEFEF",
"y. c #DEEAEA",
"u. c #DCEDED",
"i. c #E1D8D8",
"p. c #E0DFDE",
"a. c #E1E1E0",
"s. c #E1E2E0",
"d. c gray89",
"f. c #E0E7E6",
"g. c #E1E7E7",
"h. c #E5E3E3",
"j. c #E7E2E2",
"k. c #E4E3E4",
"l. c gray90",
"z. c #E6E4E4",
"x. c #E7E5E5",
"c. c #E7E6E6",
"v. c #E3E1EC",
"b. c #E2E2ED",
"n. c #E3E3EC",
"m. c #E6E6E8",
"M. c #E7E7E8",
"N. c #E6E6EA",
"B. c #E7E8E7",
"V. c #E0EAEA",
"C. c #E3E9E9",
"Z. c #E8E4E7",
"A. c #EAE7E7",
"S. c #E8E8E4",
"D. c #E9E9E7",
"F. c #EAE8E8",
"G. c #EAEAEC",
"H. c #ECE8E8",
"J. c #ECE9E9",
"K. c #EDEAEA",
"L. c #EEEAEA",
"P. c #EEECEB",
"I. c #ECECEC",
"U. c #EEEEEE",
"Y. c #EAEAF2",
"T. c #EDEDF4",
"R. c #EEEEF5",
"E. c #EEEEF7",
"W. c #EFEFF6",
"Q. c #E1F3F3",
"!. c #E8F2F2",
"~. c #EFF0F6",
"^. c #F0EDED",
"/. c #F1ECEC",
"(. c #F1EFF0",
"). c #F3F1EE",
"_. c #F2F3F3",
"`. c #F1F1F7",
"'. c #F3F3F7",
"]. c #F4F0F0",
"[. c #F5F3F3",
"{. c #F5F5F2",
"}. c #F6F5F3",
"|. c #F5F5F4",
" X c #F6F6F6",
".X c #F2F2F9",
"XX c #F3F3F8",
"oX c #F2F4F8",
"OX c #F5F4FA",
"+X c #F6F6F9",
"@X c #F7F7FA",
"#X c #F6F7FD",
"$X c #F6F6FE",
"%X c #FAF6F4",
"&X c #F8F8FA",
"*X c #F8F8FB",
"=X c #FBFBFA",
"-X c #FBFBFB",
";X c #F9F9FD",
":X c #FBFBFC",
">X c #FEF8F9",
",X c #FFF8F8",
"<X c #FFFFFB",
"1X c gray99",
"2X c #FDFDFC",
"3X c #FDFDFD",
"4X c #FDFDFE",
"5X c #FEFEFC",
"6X c #FEFEFD",
"7X c #FFFEFD",
"8X c #FFFFFD",
"9X c #FFFFFE",
"0X c gray100",
"qX c None",
/* pixels */
"qXqXqXqXqXqXqXqXqXqXqXqXqXqXqXqXqXqXqXqXqXqXqXqXqXqXqXqXqXqXqXqX",
"qXqXqXqXqXqXqXqXqXqXqXqXqX-XE # e N.qXqXqXqXqXqXqXqXqXqXqXqXqXqX",
"qXqXqXqXqXqXqXqXqXqXqXqX%Xj j ~ b y - ^.0XqXqXqXqXqXqXqXqXqXqXqX",
"qXqXqXqXqXqXqXqXqXB.l + # E F.G.M.X.g j /.qXqXqXqXqXqXqXqXqXqXqX",
"qXqXqXqXqXqXqXqXo.y ! $.d.%.G ( =.K d.v e $.qXqXqXqXqXqXqXqXqXqX",
"qXqXqXqXqXqXqX0Xy b |.'.I B 1.'.XXb.Z %.4 + B.qXqXqXqXqXqXqXqXqX",
"qXqXqXqXqXqXqXd.p c.=Xa -.E.@X0X0X0Xv.H } B D }.qXqXqXqXqXqXqXqX",
"qXqXqXqXqXqXqXj ! P.F H `.0X0X0X0X0X-XOX X`.( :.=XqXqXqXqXqXqXqX",
"qXqXqXqXqXqXqXy ! t =.~.4X0X0X0X0X0X0X0X0X0XR.( D.qXqXqXqXqXqXqX",
"qXqXqXqXqXqXqX... ; `.0X0X0X0X0X0X0X0X0X0X0X=X} :.qXqXqXqXqXqXqX",
"qXqXqXqXqXqXqX0XO a OX0X0X0X0X0X0X0X0X0X0X0X0XY.( %.qXqXqXqXqXqX",
"qXqXqXqXqXqXqXqX@.$ n.OX4X0X4X4X0X0X*X#X@XOX*XT./ %.qXqXqXqXqXqX",
"qXqXqXqXqXqXqXqX}.g = ,.b.=.<.T.`.T.:.Z ( S Z S [ |.qXqXqXqXqXqX",
"qXqXqXqXqXqXqXqXqXu.c @ 4 s X ] { * $ z d L z I ).qXqXqXqXqXqXqX",
"qXqXqXqXqXqXqXqXQ.3 0.2 d.2.: ].7   i.8 > g.0 P ,XqX|.qXqXqXqXqX",
"qXqXqXqXqXqXqXq 6.R 5.r.7.3.c.R 3.I.w. .F.0.8.Z.0XqXqXqXqXqXqXqX",
"qXqXqXqXqXqXt.6 P 6 U C.> j.e.1 j.7.1 ].y.5 ,X0XqXqXqXqXqXqXqXqX",
"qXqXqXqXqXqX!.c.F.c.^.g.M.F. .c.K.%.K.I.C.K.0XqXqXqXqXqXqXqXqXqX",
"qXqXqXqXqXqXqXqXqXqXqXqXqXqXqXqXqXqXqXqXqXqXqXqXqXqXqXqXqXqXqXqX",
"qXqXqXqXqXqXqXqXqXqXqXqXqXqXqXqXqXqXqXqXqXqXqXqXqXqXqXqXqXqXqXqX"
};
