/* XPM */
static char *19-scaled[] = {
/* columns rows colors chars-per-pixel */
"18 11 90 1",
"  c black",
". c #026602660266",
"X c #03B803B003A0",
"o c #07F708F90A10",
"O c #0ADA0ADA0AB4",
"+ c #0C040C750CDA",
"@ c #162316251614",
"# c #166616661666",
"$ c #17A417AC17B5",
"% c #200020002000",
"& c #238A23C42411",
"* c #2CCD2CCD2CCD",
"= c #346C362A37AB",
"- c #3B943BE33C26",
"; c #3E69423C460E",
": c #43B446C249DA",
"> c #4C774E2E5017",
", c #51F2517150F1",
"< c #534B558557C3",
"1 c #633063286310",
"2 c #612A63016534",
"3 c #6C186CA86D51",
"4 c #760A7C4382AB",
"5 c #7EAB824885B2",
"6 c #8262859D8919",
"7 c #81EB8585898A",
"8 c #8A7E8CC68EC3",
"9 c #9C349AFA9898",
"0 c #9C289C989D0F",
"q c #86B39B74B0DD",
"w c #9CE7A188A830",
"e c #90E4A23EB48E",
"r c #A368A4DBA66E",
"t c #B449B9ECBFDE",
"y c #AFB0BDC2CCA6",
"u c #BCA2C2C2C89B",
"i c #BE37C369C7F4",
"p c #BB71C2E9CA7A",
"a c #BC3CC68FD070",
"s c #BEC0C59BCC2B",
"d c #C040C787CE8E",
"f c #B9BDC6F6D492",
"g c #C322C376C29B",
"h c #C49DC969CE21",
"j c #C510C94FCD71",
"k c #C65BCA8DCD5F",
"l c #C5B3CB5DD06D",
"z c #C705CB02CF6F",
"x c #CBE7CDAECF30",
"c c #C222C9CDD192",
"v c #C6A1CC55D266",
"b c #C512CC34D2DA",
"n c #C7FECD20D2E4",
"m c #C69FCF9CD8D2",
"M c #C6B4CFC2D92A",
"N c #C856D0A8D92D",
"B c #C7A0D104DA70",
"V c #C9B2D1E2DA2F",
"C c #CA4AD353DD00",
"Z c #CBB8D4B2DDFF",
"A c #CE4ED696DF5F",
"S c #D0CAD902E06D",
"D c #D65BD819DA33",
"F c #CFC8D8C0E1D7",
"G c #D209DA67E2B7",
"H c #D19EDBC8E464",
"J c #D229DBACE55D",
"K c #D602DC6FE356",
"L c #D985DCF6E0ED",
"P c #DBD5E083E586",
"I c #DADDE2B7EA73",
"U c #E7C4EC3BF105",
"Y c #E9C2EE1EF298",
"T c #E995EE6FF384",
"R c #EAF9EF14F39A",
"E c #ECC4F128F52C",
"W c #ED39F10FF544",
"Q c #EE98F2A1F6F0",
"! c #F07EF40DF81B",
"~ c #F191F458F78B",
"^ c #F44CF6B7F98C",
"/ c #F89DFAC3FCA0",
"( c #F9A5FAFAFCC2",
") c #FB81FC4FFD16",
"_ c #FB07FCA0FE00",
"` c #FC95FD49FE3D",
"' c #FDFDFE55FEC6",
"] c #FF87FF87FF9F",
"[ c gray100",
"{ c None",
/* pixels */
"{{{{{{{{{{{{{{{{{{",
"{{{{{{#>;:-{{{{{{{",
"{{{{{3tMFCv<=&{{{{",
"{{{ &zCR_^GZM5#{{{",
"{{{#LB~[[[__RM0{{{",
"{{{9dW[[[[[[[Z6{{{",
"{{{1iI!W((WRUG4{{{",
"{{{+gscpBBvblz2{{{",
"{{{OqKyIeSfJa, {{{",
"{{{+iDz8z6rwx*{{{{",
"{{{{{{{{{{{{{{{{{{"
};
