/* XPM */
static char *19[] = {
/* columns rows colors chars-per-pixel */
"32 20 184 2",
"   c #5B81A7",
".  c #6C8DAF",
"X  c #6D8DAE",
"o  c #6A8DB0",
"O  c #758AA0",
"+  c #849DB7",
"@  c #819CB9",
"#  c #8AA0B6",
"$  c #8DA0B4",
"%  c #9FA9B3",
"&  c #9CABBB",
"*  c #A4ADB5",
"=  c #A6AEB6",
"-  c #A6B1BB",
";  c #A5B1BC",
":  c #A6B3BF",
">  c #ABB1B9",
",  c #ABB5BF",
"<  c #AFB5BB",
"1  c #B2B4B7",
"2  c #B0B8BF",
"3  c #94ADC4",
"4  c #A6BACF",
"5  c #AAB4C0",
"6  c #ACB7C1",
"7  c #ADB6C0",
"8  c #AEB8C1",
"9  c #AFB9C3",
"0  c #AEBAC7",
"q  c #A5BCD5",
"w  c #B1BBC7",
"e  c #B4BBC2",
"r  c #B5BEC7",
"t  c #B2BDC9",
"y  c #B2BECA",
"u  c #B3BECA",
"i  c #B4BEC9",
"p  c #B3C0CD",
"a  c #B4C0CD",
"s  c #B5C1CD",
"d  c #B7C1CC",
"f  c #B7C1CD",
"g  c #B6C2CE",
"h  c #BBC2C9",
"j  c #BAC3CC",
"k  c #BBC5CF",
"l  c #B7C4D1",
"z  c #B5C6D8",
"x  c #B8C5D0",
"c  c #B9C4D1",
"v  c #BBC9D6",
"b  c #BDC9D4",
"n  c #BECAD5",
"m  c #BFCAD6",
"M  c #B8CBDE",
"N  c #C3C6C8",
"B  c #C4C7C8",
"V  c #C1C9D2",
"C  c #C2CBD3",
"Z  c #C3CAD2",
"A  c #C4CDD6",
"S  c #C5CDD6",
"D  c #C1CCD8",
"F  c #C2CCD8",
"G  c #C2CDD8",
"H  c #C2CEDA",
"J  c #C4CFDA",
"K  c #CACDD1",
"L  c #C5D0DC",
"P  c #CDD0D3",
"I  c #CFD0D1",
"U  c #CED1D4",
"Y  c #C9D1D8",
"T  c #CAD2DA",
"R  c #C8D3DE",
"E  c #C9D3DE",
"W  c #C8D4DF",
"Q  c #CBD4DD",
"!  c #CCD3DA",
"~  c #CDD3DA",
"^  c #CFD4D9",
"/  c #D0CFCE",
"(  c LightGray",
")  c #D4D2D2",
"_  c #D4D3D2",
"`  c #D1D7DD",
"'  c #D5D4D9",
"]  c #D1D8DE",
"[  c #DADAD9",
"{  c #DEDDDD",
"}  c #C9D6E3",
"|  c #CCD8E3",
" . c #CFD8E1",
".. c #CED9E2",
"X. c #CFD8E3",
"o. c #D1DAE4",
"O. c #D1DBE5",
"+. c #D3DBE4",
"@. c #D3DCE6",
"#. c #D4DBE1",
"$. c #D6DCE1",
"%. c #D4DDE5",
"&. c #D4DCE6",
"*. c #D5DEE7",
"=. c #D7DFE7",
"-. c #D6DFE8",
";. c #D8DDE1",
":. c #D9DCE0",
">. c #DBDEE2",
",. c #D8DEE4",
"<. c #DDDEE2",
"1. c #D8E1EB",
"2. c #D9E3EE",
"3. c #DCE3EC",
"4. c #DDE5ED",
"5. c #DEE7EF",
"6. c #E1E3E5",
"7. c #E5E5E6",
"8. c #E6E7E7",
"9. c #E7E7E8",
"0. c #E9E7E6",
"q. c #EBE8E5",
"w. c #EDEBE7",
"e. c #E9EBEB",
"r. c #EBEAEC",
"t. c #EEEDEE",
"y. c #E1E9F1",
"u. c #E2E9F0",
"i. c #E3E9F0",
"p. c #E6EBF1",
"a. c #E6ECF2",
"s. c #E8ECF2",
"d. c #E9EEF2",
"f. c #E9EEF3",
"g. c #EBEEF3",
"h. c #EAF1F5",
"j. c #EBF0F4",
"k. c #EEF0F2",
"l. c #ECF1F5",
"z. c #EDF2F7",
"x. c #E9F1F8",
"c. c #F1EEED",
"v. c #F0F0EE",
"b. c #FDF5EC",
"n. c #F3F2F0",
"m. c #F3F2F1",
"M. c #F1F1F7",
"N. c #F0F3F7",
"B. c #F2F4F4",
"V. c #F2F4F6",
"C. c #F4F3F0",
"Z. c #F4F4F3",
"A. c #F6F7F7",
"S. c #F2F6FB",
"D. c #F4F7F8",
"F. c #F4F7F9",
"G. c #F4F6FA",
"H. c #F4F7FA",
"J. c #F6F8FA",
"K. c #F7F9FB",
"L. c #FCFAF7",
"P. c #FEF9F4",
"I. c gray98",
"U. c #FAFAFB",
"Y. c #F8FBFC",
"T. c #F9FBFC",
"R. c #F9FBFD",
"E. c #FAFBFD",
"W. c #FAFCFD",
"Q. c #FBFCFD",
"!. c #FBFDFE",
"~. c #FFFDF9",
"^. c #FFFDFB",
"/. c #FFFFFB",
"(. c #FCFDFE",
"). c #FDFDFE",
"_. c #FDFFFF",
"`. c #FEFDFD",
"'. c #FFFDFC",
"]. c #FFFFFD",
"[. c #FEFFFF",
"{. c #FFFFFE",
"}. c gray100",
"|. c None",
/* pixels */
"|.|.|.|.|.|.|.|.|.|.|.|.|.|.|.|.|.|.|.|.|.|.|.|.|.|.|.|.|.|.|.|.",
"|.|.|.|.|.|.|.|.|.|.|.|.|.|.|.|.|.|.|.|.|.|.|.|.|.|.|.|.|.|.|.|.",
"|.|.|.|.|.|.|.|.|.|.|.|.|.|.|.|.|.|.|.|.|.|.|.|.|.|.|.|.|.|.|.|.",
"|.|.|.|.|.|.|.|.|.|.|.|.}.~ s 9 i ] }.|.|.|.|.|.|.|.|.|.|.|.|.|.",
"|.|.|.|.|.|.|.|.|.|.}.,.S y J o.E s Z }.|.|.|.|.|.|.|.|.|.|.|.|.",
"|.|.|.|.|.|.|.|.|.}.~ s c =.h.S.N.*.s Z k Y ] }.|.|.|.|.|.|.|.|.",
"|.|.|.|.|.|.|.|.|.{ 9 L g.H.}.}.}.N.%.H E H s %.|.|.|.|.|.|.|.|.",
"|.|.|.|.|.|.|.}.:., H a.}.}.}.}.}.}.J.G.A.z.+.y :.}.|.|.|.|.|.|.",
"|.|.|.|.|.|.|.7.r J p.U.}.}.}.}.}.}.}.}.}.}.z.H T }.|.|.|.|.|.|.",
"|.|.|.|.|.|./.K u i.U.}.}.}.}.}.}.}.}.}.}.}.}.+.k 6.|.|.|.|.|.|.",
"|.|.|.|.|.|.P.B b h.}.}.}.}.}.}.}.}.}.}.}.}.}.g.b Z |.|.|.|.|.|.",
"|.|.|.|.|.|.}.N 0 i.H.E.U.K.}.}.}.E.U.U.K.U.U.h...s |.|.|.|.|.|.",
"|.|.|.|.|.|.|.[ = v 5.i.5.1.f.G.H.h.1...+...E | g Z |.|.|.|.|.|.",
"|.|.|.|.|.|.|././ = : y , % b 1.+.g e > : 2 < < h >.|.|.|.|.|.|.",
"|.|.|.|.|.|.|.|.}.8.) ( >.I 1 - , U 0.t.v.B.8.) w.|.|.|.|.|.|.|.",
"|.|.|.|.|.|.|.q   G S.. ~ }.@ O C.M . A.2.. ] |.|.|.|.|.|.|.|.|.",
"|.|.|.|.|.|.|.z # c.} $ q.x.+ K }.3 , }.4 & n.}.|.|.|.|.|.|.|.|.",
"|.|.|.|.|.|.|.e.b.}.k.n.}.|.C./.|.r.P.|.' Z.}.|.|.|.|.|.|.|.|.|.",
"|.|.|.|.|.|.|.|.|.|.|.|.|.|.|.|.|.|.|.|.|.|.|.|.|.|.|.|.|.|.|.|.",
"|.|.|.|.|.|.|.|.|.|.|.|.|.|.|.|.|.|.|.|.|.|.|.|.|.|.|.|.|.|.|.|."
};
