/* XPM */
static char *20-scaled[] = {
/* columns rows colors chars-per-pixel */
"18 11 118 2",
"   c black",
".  c #0550054B052F",
"X  c #06CA07B408AD",
"o  c #094A08A005AC",
"O  c #0C370C2F0C2F",
"+  c #0D810E0A0E83",
"@  c #0F0F0F070E86",
"#  c #1C3C19C00F79",
"$  c #109D10A210A5",
"%  c #1BAC1A1712DC",
"&  c #1D7D1BFC14D5",
"*  c #1F5F1C9C1131",
"=  c #396039603960",
"-  c #67E85E3E38CC",
";  c #7EE270BA351F",
":  c #62E15CD64285",
">  c #60895C6A4ABD",
",  c #6F1B6CC05E5E",
"<  c #6C636F527194",
"1  c #711C70F37046",
"2  c #7FC37F91745E",
"3  c #767A7C8D8346",
"4  c #8D2185A85682",
"5  c #952185B84640",
"6  c #8D258608680C",
"7  c #89A584A66E16",
"8  c #914B8A2264BB",
"9  c #A0D58F7B477C",
"0  c #A20394AF5B8A",
"q  c #E08BCD176EC2",
"w  c #EFAFCE3144E8",
"e  c #E6C1CBE85339",
"r  c #EC7DD1D758CF",
"t  c #E5CECF7D73F6",
"y  c #E9C6D1816A28",
"u  c #E3CDD5767E7D",
"i  c #F426D9B56714",
"p  c #F842DB6B6247",
"a  c #F2D9DB6C700F",
"s  c #835A874C8AAA",
"d  c #94CC94579288",
"f  c #9C949D049D5D",
"g  c #80E794BBA8D5",
"h  c #96DF9CA0A223",
"j  c #90A4A197B2D5",
"k  c #A275A275A194",
"l  c #A146A3CAA68C",
"z  c #B25AB7D4BE29",
"x  c #B8A5BBA5BC33",
"c  c #BF32BF92BB27",
"v  c #B16BBFDDCEC9",
"b  c #BC6FC2E2C935",
"n  c #BBB9C39CCB1E",
"m  c #BC50C988D6A9",
"M  c #C005C8DED160",
"N  c #CD9DCE66BB22",
"B  c #D69FD1BDA4F2",
"V  c #D9E5D2F8AF3D",
"C  c #D860D7D9BF18",
"Z  c #E7B0D6EC85D4",
"A  c #EA0ADC8A9A7F",
"S  c #F356DEEA8623",
"D  c #F82DE58C9279",
"F  c #EFF4E335A591",
"G  c #FE44F276C04B",
"H  c #C12BC598C1A7",
"J  c #C288C96FCE4E",
"K  c #C2ADC9A7CF83",
"L  c #CCA1CEFDC24E",
"P  c #C8FFCCE4C540",
"I  c #C969CAF1CC58",
"U  c #C407CBB5D2B0",
"Y  c #C523CF20D8A1",
"T  c #C686CF4FD716",
"R  c #CEB6D235CD0F",
"E  c #CD09D3DDD40A",
"W  c #CD0CD561DD50",
"Q  c #D41BD5A6C69A",
"!  c #D5A6D869CCF3",
"~  c #D174D8ACDF19",
"^  c #D677D978D195",
"/  c #D18ADA33E079",
"(  c #DC5CDD1CD595",
")  c #DA09DEF6DFAD",
"_  c #D32CDB94E3B6",
"`  c #D600DBC8E1D1",
"'  c #D66DDF5AE820",
"]  c #D9EEDE97E2E4",
"[  c #DA7FDF3DE37B",
"{  c #DC21E072E412",
"}  c #DD54E3EAE508",
"|  c #EE34E9B6CEBC",
" . c #E82FE575D59D",
".. c #E8C1E878DC38",
"X. c #E97DE968DDAD",
"o. c #EE0CEC5FDE27",
"O. c #F779EE81C885",
"+. c #F123EB1DCC54",
"@. c #F4B4EDE5C8F0",
"#. c #FAF2F04FC151",
"$. c #F997F071C9CE",
"%. c #FEF8F453C8AA",
"&. c #FC8AF31BCDCB",
"*. c #FE5DF3D3CA7A",
"=. c #FDB5F3BBCC32",
"-. c #FEBBF486CBAB",
";. c #F5D1F170DCCF",
":. c #F9F8F286D24D",
">. c #FF0EF726D555",
",. c #FFFFF979DC6C",
"<. c #FFFFF979DD5D",
"1. c #E25EE467E624",
"2. c #EEACEDEAE12D",
"3. c #EB16EEA6EEA7",
"4. c #EDFCEFA2EFA7",
"5. c #F84AF5DDE931",
"6. c #FC22F9C6EC52",
"7. c None",
/* pixels */
"7.7.7.7.7.7.# > 6 7 : * 7.7.7.7.7.7.",
"7.7.7.7.7.0 ; a u t q 4 2 7.7.7.7.7.",
"7.7.7.7.* 5 p D F S r e 8 & 7.7.7.7.",
"7.7.7.7.- i A ^ ) ! Z w y , 7.7.7.7.",
"7.7.7.o 5 V Q o.6.;.C B L c $ 7.7.7.",
"7.7.7.@ ( N O.,.<.>.*.G  .T f 7.7.7.",
"7.7.7.d J ..&.&.*.*.%.&.5.W s 7.7.7.",
"7.7.7.1 b } 2.+.O.O.| ..3._ 3 7.7.7.",
"7.7.7.O I n U H R E P n U U < 7.7.7.",
"7.7.7.X g ` v ] j ~ m ' Y k . 7.7.7.",
"7.7.7.@ / 4.] l } h x z 1.= 7.7.7.7."
};
