/* XPM */
static char *20[] = {
/* columns rows colors chars-per-pixel */
"32 20 161 2",
"   c #597FA5",
".  c #6588AC",
"X  c #6889AA",
"o  c #768CA3",
"O  c #7C99B7",
"+  c #FBCB0F",
"@  c #FBCF14",
"#  c #FFD41C",
"$  c #EEC82A",
"%  c #E7C537",
"&  c #F4CC28",
"*  c #F5CF35",
"=  c #FFDA25",
"-  c #F6D33C",
";  c #FAD539",
":  c #D7C067",
">  c #D8CA79",
",  c #E4C54B",
"<  c #E9CB4F",
"1  c #F3D147",
"2  c #F7D448",
"3  c #FBD749",
"4  c #FDDB4D",
"5  c #F0D353",
"6  c #F7D850",
"7  c #FDDD57",
"8  c #FCDF58",
"9  c #E7CB62",
"0  c #EED671",
"q  c #F0D463",
"w  c #F2D76A",
"e  c #F5D963",
"r  c #F9DB63",
"t  c #FEE165",
"y  c #FFE46D",
"u  c #8BA2B8",
"i  c #95A6B8",
"p  c #A5ACAC",
"a  c #A6AEB6",
"s  c #A4B0BD",
"d  c #A8B1B6",
"f  c #B5B7AC",
"g  c #B1B4B6",
"h  c #B1B7BB",
"j  c #B4BAB6",
"k  c #B4BBBF",
"l  c #BCBEB7",
"z  c #98AFC6",
"x  c #8DBBFF",
"c  c #A6BACF",
"v  c #ACB9C6",
"b  c #A4BBD4",
"n  c #B2BBC2",
"m  c #B2BCC8",
"M  c #BEC0AC",
"N  c #B7C1CD",
"B  c #BBC4C6",
"V  c #BBC3CA",
"C  c #B5C3D3",
"Z  c #B4C7D9",
"A  c #B9C7D2",
"S  c #BECAD5",
"D  c #BCCADD",
"F  c #C9BD93",
"G  c #D9CA8C",
"H  c #D9D09E",
"J  c #C3C4AC",
"K  c #CEC8A3",
"L  c #CFCEAD",
"P  c #C6C9B9",
"I  c #CDCBB6",
"U  c #CFD0B8",
"Y  c #DAD3A9",
"T  c #D3D3B4",
"R  c #DCD6BC",
"E  c #DCD8B7",
"W  c #DDD9BA",
"Q  c #E9D58B",
"!  c #E6D692",
"~  c #EDDF9E",
"^  c #F0D983",
"/  c #F0DF98",
"(  c #EBDFA6",
")  c #F6E38F",
"_  c #FFE686",
"`  c #FAE489",
"'  c #FFEB95",
"]  c #ECE5BB",
"[  c #F5E7A7",
"{  c #FDEDA3",
"}  c #FDEDA9",
"|  c #F7EDBC",
" . c #FAEFBE",
".. c #FEF2BD",
"X. c #C3C6C8",
"o. c #C2C9C2",
"O. c #C2CBD4",
"+. c #C2CEDB",
"@. c #C9CDD2",
"#. c #CDD1C6",
"$. c #CDD2CB",
"%. c #CBD3DA",
"&. c #D8DAC7",
"*. c #DADAC9",
"=. c #D3D4D4",
"-. c #D3D6DA",
";. c #D5D9D3",
":. c #D9D7D6",
">. c #DCDADA",
",. c #C9D5E1",
"<. c #CED9E4",
"1. c #C9D7FB",
"2. c #D3DBE1",
"3. c #D3DFEB",
"4. c #D8DEE2",
"5. c #DFE3DE",
"6. c #DDE1E3",
"7. c #DCE4EA",
"8. c #DFE9F7",
"9. c #DBECFC",
"0. c #D5F5FF",
"q. c #E2DEC3",
"w. c #E4E1C8",
"e. c #EDE9C9",
"r. c #E2E2D2",
"t. c #E8E5D0",
"y. c #F5ECC4",
"u. c #F4EDCB",
"i. c #F9EEC2",
"p. c #F0EBD4",
"a. c #F1EDDA",
"s. c #FEF2C3",
"d. c #FDF3CC",
"f. c #F6F0D4",
"g. c #F5F2D9",
"h. c #FEF6D4",
"j. c #FCF6DA",
"k. c #FFF8D7",
"l. c #FFF9DC",
"z. c #E1E3E4",
"x. c #E6E7E8",
"c. c #E7EAE4",
"v. c #E7E8E9",
"b. c #EDEAE6",
"n. c #E0E9F2",
"m. c #E9EEF2",
"M. c #E8EFF8",
"N. c #ECF2FA",
"B. c #F1EEED",
"V. c #F6F3E6",
"C. c #F2F1EC",
"Z. c #FAF7E6",
"A. c #F8F7EE",
"S. c #FFF9E2",
"D. c #FFFCEB",
"F. c #F4F4F3",
"G. c #F5FAFE",
"H. c #F9F7F4",
"J. c #FEFBF2",
"K. c #FEFEFE",
"L. c None",
/* pixels */
"L.L.L.L.L.L.L.L.L.L.L.L.L.L.L.K.D.L.L.L.L.L.L.L.L.L.L.L.L.L.L.L.",
"L.L.L.L.L.L.L.L.L.L.L.L.` a.L.e ! L.} [ L.L.L.L.L.L.L.L.L.L.L.L.",
"L.L.L.L.L.L.L.L.L.' L.L.r 1 0.2 9 | * G L.K.L.L.L.L.L.L.L.L.L.L.",
"L.L.L.L.L.L.L.L.L.{ r 5 ' 8 0 r q 6 % x = w 9.L.L.L.L.L.L.L.L.L.",
"L.L.L.L.L.L.L.L.L.L.2 6 r ' { } _ t < - $ F L.L.L.L.L.L.L.L.L.L.",
"L.L.L.L.L.L.L.L.` t / r } r.%.$.#.w.t # : w.8 ( L.L.L.L.L.L.L.L.",
"L.L.L.L.L.L.L.L.^ & 8 ~ ;.O.2.6.;.o.Y 4 + + , I L.L.L.L.L.L.L.L.",
"L.L.L.L.L.L.L.L.L.G.Y o.@.r.C.A.V.w.P Y > K 1.K.L.L.L.L.L.L.L.L.",
"L.L.L.L.L.L.L.) 3 Q l &.a.Z.D.D.S.a.&.T T L J *.K.L.L.L.L.L.L.L.",
"L.L.L.L.L.L.L.D.R f T e.l.S.S.S.l.h.d.s.| t.=.n 4.K.L.L.L.L.L.L.",
"L.L.L.L.L.L.L.z.m $.] s.k.k.k.k.h.d.d.s...s.V.+.%.K.L.L.L.L.L.L.",
"L.L.L.L.L.L.K.@.B q.a.d.d.d.h.d.h.s... .a.j.a.4.N 6.L.L.L.L.L.L.",
"L.L.L.L.L.L.J.X.S M.J.s.i.d.s.s.s...s...d.K.K.m.S O.L.L.L.L.L.L.",
"L.L.L.L.L.L.K.X.v n.g.a.C. .y.s.s...u.C.p.Z.G.m.<.N L.L.L.L.L.L.",
"L.L.L.L.L.L.L.>.a A 7.8.5.W z.y.p.v.E ,.<.%.%.%.N O.L.L.L.L.L.L.",
"L.L.L.L.L.L.L.K.=.a s m j p D *.$.Z M d s v h n V 6.L.L.L.L.L.L.",
"L.L.L.L.L.L.L.L.G.v.:.-.6.=.g a n -.v.B.F.F.x.=.C.L.L.L.L.L.L.L.",
"L.L.L.L.L.L.L.b   O.N.. %.K.O o H.Z X G.3.X %.K.L.L.L.L.L.L.L.L.",
"L.L.L.L.L.L.L.Z u C.%.i b.M.u =.K.z n K.c s F.K.L.L.L.L.L.L.L.L.",
"L.L.L.L.L.L.L.F.J.K.F.F.K.L.H.K.L.m.J.L.>.F.K.L.L.L.L.L.L.L.L.L."
};
