/* XPM */
static char *21-scaled[] = {
/* columns rows colors chars-per-pixel */
"18 11 110 2",
"   c black",
".  c #07A8072704CD",
"X  c #095308EE071B",
"o  c #08270965099A",
"O  c #0C070CB50D71",
"+  c #0EA30EAF0ECC",
"@  c #11FF10910B11",
"#  c #14BB13260D17",
"$  c #116511B211EB",
"%  c #1CCD1B8F15CC",
"&  c #1C761B7216ED",
"*  c #20001DDE11B2",
"=  c #20001DDE13D4",
"-  c #240022721B3F",
";  c #2393224E1CA9",
":  c #24E2264C27EF",
">  c #256C26E12878",
",  c #39FA35EE236F",
"<  c #3EC439AF255B",
"1  c #3CBC39AF2BB5",
"2  c #4F91475E26C3",
"3  c #53574CB02FF6",
"4  c #62D25B653937",
"5  c #6A5061AE3A3A",
"6  c #79796D2D3979",
"7  c #474B474B4759",
"8  c #4CC04CB042DF",
"9  c #5680568A5687",
"0  c #58DB5E0663A4",
"q  c #5DF76073639D",
"w  c #63F75F324862",
"e  c #742D6A4A4121",
"r  c #70766C8F5530",
"t  c #7477731A58FE",
"y  c #620163AB6588",
"u  c #6305652A6791",
"i  c #65D8674167A6",
"p  c #660A683E69C5",
"a  c #9A448BFD481D",
"s  c #95A289A3584B",
"d  c #8BB28DC06FEF",
"f  c #AFF39B2B4346",
"g  c #A84E976B5123",
"h  c #BD46A9E25736",
"j  c #D492BCFF5C36",
"k  c #C5BAB3CA64A2",
"l  c #FA4AD0802074",
"z  c #F365CD603141",
"x  c #F4AAD11D3A73",
"c  c #FFC5D9DB3C60",
"v  c #DCD4C21E55EF",
"b  c #ED55CDD8470F",
"n  c #E251C8D55419",
"m  c #E4B3C94C53C3",
"M  c #E50FCB755FC6",
"N  c #E6D6CD0B5C77",
"B  c #EF6BCFFB5213",
"V  c #F972DB8457F3",
"C  c #FDC4DE9C58E3",
"Z  c #FE65DF7F5C9C",
"A  c #E756CE66630B",
"S  c #E11CCB4370E5",
"D  c #E93ED19661A0",
"F  c #F985DF3C6EDC",
"G  c #F4F0DBDE7662",
"H  c #F84FE01F78E8",
"J  c #FE2CE13B586C",
"K  c #FB88E2747C36",
"L  c #9B39A0A5A683",
"P  c #A1EFAAC9AB5B",
"I  c #AC43ADADAEFC",
"U  c #BF8BBB33A49E",
"Y  c #B9B3C3F9CE6E",
"T  c #D2E2C70E8F77",
"R  c #DB94CC91816E",
"E  c #DCACD01F8AAA",
"W  c #D9AAD2DDA610",
"Q  c #E259D3CB8A12",
"!  c #EC6CE0ED9F2E",
"~  c #FE59E5A38243",
"^  c #FFFFE6FE8353",
"/  c #FFFFE79F85FD",
"(  c #FBBCE7789231",
")  c #FFA9EB6298B1",
"_  c #F02DE8CEBF01",
"`  c #FF9AED25A252",
"'  c #F3F8EB64BDC5",
"]  c #FFE5F319BF67",
"[  c #C262CCB2D743",
"{  c #C5B4CE43D51F",
"}  c #C73CCF3AD744",
"|  c #C6E2CFD2D93F",
" . c #D05BD7BCDFF3",
".. c #D21BD55BCD21",
"X. c #D9D9D9D9CE8E",
"o. c #DAECDC6FD16D",
"O. c #D5C8DB34E113",
"+. c #D6FDDE04E61F",
"@. c #DAC5DF16E32F",
"#. c #E72AE627D567",
"$. c #FF6BF475C796",
"%. c #F970F13FCB8C",
"&. c #FBE1F3C1D03E",
"*. c #FFA7F4D3CB9F",
"=. c #FCA1F6BBDE2D",
"-. c #FEB9F841DF1E",
";. c #E4DFE8E0EC7A",
":. c #FE8CFD9DF93F",
">. c #FDD0FE1DFE44",
",. c None",
/* pixels */
",.,.,.,.,.,.& ; < 1 - & ,.,.,.,.,.,.",
",.,.,.,.,.3 2 j f g k t 8 ,.,.,.,.,.",
",.,.,.,.* ! v K ( F N D r = ,.,.,.,.",
",.,.,.,.5 G K *.-.` C b h w ,.,.,.,.",
",.,.,.X s B ^ ] $.) J l n d o ,.,.,.",
",.,.,.. 6 A Z ^ ^ K Q E T X.+ ,.,.,.",
",.,.,.,.e M x c V W ' %.#.+.L $ ,.,.",
",.,.,.,.@ a m z R _ &.=.:.>. .> ,.,.",
",.,.,.,.,., 4 S U ..o.;.@.+.| > ,.,.",
",.,.,.,.,.,.# 9 L { } Y | Y I $ ,.,.",
",.,.,.,.,.,.,.+ q p p p y q 7 ,.,.,."
};
