/* XPM */
static char *21[] = {
/* columns rows colors chars-per-pixel */
"32 20 249 2",
"   c #E18100",
".  c #C5B87C",
"X  c #F7C80C",
"o  c #FECD03",
"O  c #FFCD02",
"+  c #FACF1A",
"@  c #FFD10C",
"#  c #FFD20D",
"$  c #FFDA1E",
"%  c #EDC626",
"&  c #E4C034",
"*  c #E2C03F",
"=  c #EEC932",
"-  c #F0C927",
";  c #F3CC26",
":  c #F1CB2A",
">  c #F0CB2C",
",  c #F2CF3D",
"<  c #FCD321",
"1  c #FED424",
"2  c #F5D035",
"3  c #FDD633",
"4  c #F8D33C",
"5  c #FAD43B",
"6  c #FCD63D",
"7  c #FFDA33",
"8  c #FFDB33",
"9  c #DFC252",
"0  c #DDC254",
"q  c #D9C05E",
"w  c #E6C745",
"e  c #E1C54F",
"r  c #E7C845",
"t  c #E9C841",
"y  c #EECE4B",
"u  c #E2C953",
"i  c #E5C955",
"p  c #E5C95B",
"a  c #F0CF4C",
"s  c #F5D242",
"d  c #F6D44F",
"f  c #F8D541",
"g  c #F9D647",
"h  c #FFDC41",
"j  c #FFDC46",
"k  c #FFDC47",
"l  c #FBD84C",
"z  c #FBDB4E",
"x  c #FBDD4D",
"c  c #FFDB49",
"v  c #FEDD4F",
"b  c #FFDF4E",
"n  c #F6D350",
"m  c #F6D651",
"M  c #F9D751",
"N  c #FFDC51",
"B  c #FDDD54",
"V  c #F8DA5C",
"C  c #FEDE59",
"Z  c #FFDF5C",
"A  c #E3C963",
"S  c #E3CE69",
"D  c #E3CD73",
"F  c #ECD063",
"G  c #EED266",
"H  c #E5D17C",
"J  c #F7DA65",
"K  c #F3D96F",
"L  c #F7DA6A",
"P  c #F5DC69",
"I  c #FADD61",
"U  c #F8DD6A",
"Y  c #FADD6B",
"T  c #F0D770",
"R  c #F7DD73",
"E  c #F9DD70",
"W  c #F9DF77",
"Q  c #FFE658",
"!  c #FFE261",
"~  c #FFE067",
"^  c #FFE16C",
"/  c #FFE36C",
"(  c #FEE26E",
")  c #FFE370",
"_  c #FFE371",
"`  c #FFE375",
"'  c #FAE17F",
"]  c #FCE379",
"[  c #FEE47A",
"{  c #FFE47A",
"}  c #839EBA",
"|  c #BEBAA7",
" . c #809EFF",
".. c #99ADC2",
"X. c #A1B5C8",
"o. c #B6BCC0",
"O. c #B1BDC9",
"+. c #BCC1B5",
"@. c #AEC0D2",
"#. c #B3C0CE",
"$. c #BDC2C5",
"%. c #B8C3CF",
"&. c #BAC5D1",
"*. c #BAC6D2",
"=. c #BFC8D2",
"-. c #BEC9D4",
";. c #BACADA",
":. c #ACC3FF",
">. c #BFC9E0",
",. c #BBCEFF",
"<. c #CEC69F",
"1. c #D6C687",
"2. c #D5C894",
"3. c #DED090",
"4. c #C6C4A6",
"5. c #C8C7A8",
"6. c #CBC9A9",
"7. c #CBCAAC",
"8. c #C9CBB6",
"9. c #CCC8BB",
"0. c #D1D1BB",
"q. c #D2D3BF",
"w. c #DFD7B0",
"e. c #D8D7BB",
"r. c #E2D38B",
"t. c #E1D491",
"y. c #E7D796",
"u. c #EADA96",
"i. c #ECDA95",
"p. c #EFDC93",
"a. c #E6DAA2",
"s. c #E4DCAB",
"d. c #E4D6B3",
"f. c #E1DDBD",
"g. c #F7E181",
"h. c #F6E086",
"j. c #FBE486",
"k. c #FFE680",
"l. c #FEE683",
"z. c #FFE78A",
"x. c #FFE888",
"c. c #FFE988",
"v. c #FFE98B",
"b. c #FFE98E",
"n. c #FFEE8D",
"m. c #F7E393",
"M. c #F4E499",
"N. c #FFEA97",
"B. c #FFEB97",
"V. c #FFEB9B",
"C. c #FFEF9C",
"Z. c #FFEE9E",
"A. c #EFE3AC",
"S. c #EBE4B7",
"D. c #EFE7BD",
"F. c #EEE7BE",
"G. c #FFECA0",
"H. c #FFEEA7",
"J. c #FFEFAA",
"K. c #F0E8BB",
"L. c #FEEEB1",
"P. c #FFEFB0",
"I. c #FFFFA3",
"U. c #FFF0B2",
"Y. c #FCF2B7",
"T. c #FFF2B8",
"R. c #FFF2B9",
"E. c #FFF2BA",
"W. c #FFF1BC",
"Q. c #FFF2BD",
"!. c #FFF3BC",
"~. c #FFF3BF",
"^. c #C1C7CE",
"/. c #C4CAC9",
"(. c #C5CACD",
"). c #CDCDC3",
"_. c #C0C7D1",
"`. c #C0C9D4",
"'. c #C0CBD7",
"]. c #C1CBD6",
"[. c #C3CCD6",
"{. c #C5CBD2",
"}. c #C4CCD5",
"|. c #C5CCD4",
" X c #C5CDD6",
".X c #C5CED7",
"XX c #CACFD3",
"oX c #CAD3DD",
"OX c #CBD4DD",
"+X c #CCD3DA",
"@X c #CED4DB",
"#X c #CCD4DD",
"$X c #D1D4D7",
"%X c #D4D9DE",
"&X c #D5DADD",
"*X c #DEDDDE",
"=X c #D0D5ED",
"-X c #D7DEE5",
";X c #D4DEEB",
":X c #D4DBFE",
">X c #D5E1EE",
",X c #DBE1E4",
"<X c #DDE4EC",
"1X c #DDECF9",
"2X c #D5F9FF",
"3X c #E2E1C9",
"4X c #EAE6C9",
"5X c #F8EEC0",
"6X c #F4F7C1",
"7X c #FEF2C1",
"8X c #FCF2C7",
"9X c #FFF3C4",
"0X c #FEF3C7",
"qX c #FFF4C1",
"wX c #FAF1CC",
"eX c #FCF3CB",
"rX c #FFF8C0",
"tX c #F6F1D9",
"yX c #F8F1D6",
"uX c #FAF3D5",
"iX c #FFF7D0",
"pX c #FEF6D5",
"aX c #FEF6D8",
"sX c #FFF7DB",
"dX c #FFF9DF",
"fX c #E1E7EE",
"gX c #E6E6E8",
"hX c #E7EAEE",
"jX c #E7EBEE",
"kX c #EDEBE9",
"lX c #E5EAF1",
"zX c #EAEDF0",
"xX c #E8EFF6",
"cX c #F8F6EC",
"vX c #FDF9E9",
"bX c #FDFAED",
"nX c #FFFAEC",
"mX c #F6F5F0",
"MX c #F3F7FF",
"NX c #F8F8F7",
"BX c #FFFBF1",
"VX c #FDFBF7",
"CX c #FDFCF3",
"ZX c #FAFBF9",
"AX c #FBFBF9",
"SX c #FBFDFF",
"DX c #FEFFFF",
"FX c gray100",
"GX c None",
/* pixels */
"GXGXGXGXGXGXGXGXGXGXGXGXGXGXGXGXGXGXGXGXGXGXGXGXGXGXGXGXGXGXGXGX",
"GXGXGXGXGXGXGXGXGXGXGXGXeXGXGXm.A.GXGXqXGXGXGXGXGXGXGXGXGXGXGXGX",
"GXGXGXGXGXGXGXGXGXGXGXGXE T GXs D GXV y.GXGXGXGXGXGXGXGXGXGXGXGX",
"GXGXGXGXGXGXGXGXGXZ.' GX) f y.b F P ;  .I.j.1XGXGXGXGXGXGXGXGXGX",
"GXGXGXGXGXGXGXGXGX6XM g K [ R v.L x e H + A GXGXGXGXGXGXGXGXGXGX",
"GXGXGXGXGXGXGXGXn.FXd.I [ J.vX9XJ.c.m < 0 ,.GXZ.GXGXGXGXGXGXGXGX",
"GXGXGXGXGXGXGXGXh.4 B Y W.nXVXpXL.N./ 7 w 6 y w.GXGXGXGXGXGXGXGX",
"GXGXGXGXGXGXGXGXGXi d c.W.sXvXpXL.v.I k @ & . GXGXGXGXGXGXGXGXGX",
"GXGXGXGXGXGXGX5XY C n { H.R.W.R.G.x.Q 8 O t Q W 2XGXGXGXGXGXGXGX",
"GXGXGXGXGXGXGXM.a = l / z.N.V.N.k.I J S u r * p FXGXGXGXGXGXGXGX",
"GXGXGXGXGXGXGXGXGX3X, h / ` ` ) ) t.7.e.e.(.>.:.%XGXGXGXGXGXGXGX",
"GXGXGXGXGXGXGXGXg.: > 2 k N c b 3.8.F.qX0XK.q.oX'.@XGXGXGXGXGXGX",
"GXGXGXGXGXGXGXGXp.1.9.; @ 1 7 r.6.K.qXR.tXNXcXZXhX'.jXGXGXGXGXGX",
"GXGXGXGXGXGXGXGXGXGX$ % q O 4 5.S.!.wXyX8XCXFXFXFX#X|.GXGXGXGXGX",
"GXGXGXGXGXGXGXGXGXY.G | s.X 2.4.4XuXeXSXBXnXFXFXFXfX&.GXGXGXGXGX",
"GXGXGXGXGXGXGXGXGXGXGXGXx 9 =X<.+.;X0.,XMX<X|.[.|.-.=.GXGXGXGXGX",
"GXGXGXGXGXGXGXGXGXGXGXGXi.:XGXa.)._.(.o.O.{.$X%XXX$.*XGXGXGXGXGX",
"GXGXGXGXGXGXGXGXGXGXGXGXGXGXxX} -XX.hX..^.@.oX;.#.FXGXGXGXGXGXGX",
"GXGXGXGXGXGXGXGXGXGXGXGXGXGX>X%.hX+XmX.XZX'.kX&.gXFXGXGXGXGXGXGX",
"GXGXGXGXGXGXGXGXGXGXGXGXGXGXGXGXGXGXGXGXGXGXGXGXGXGXGXGXGXGXGXGX"
};
