/* XPM */
static char *22-scaled[] = {
/* columns rows colors chars-per-pixel */
"18 11 92 1",
"  c black",
". c #0666064D064D",
"X c #080008000800",
"o c #0A2A09F909F0",
"O c #0B330B2A0B2A",
"+ c #0E4E0E260E21",
"@ c #125F125F1239",
"# c #2CCD2CCD2CCD",
"$ c #361636163616",
"% c #383E38183818",
"& c #40CD40CD40CD",
"* c #470346314623",
"= c #493949394981",
"- c #51C2516E51B1",
"; c #5A005B1B5B1B",
": c #5D995C215C21",
"> c #60B462426242",
", c #61B961C76194",
"< c #60AD62A262A2",
"1 c #653966BF66BF",
"2 c #6B4469756975",
"3 c #6D196B8C6B8C",
"4 c #6EAE74B479FA",
"5 c #7333709A709A",
"6 c #733373337333",
"7 c #708A7379762F",
"8 c #75F6775D7818",
"9 c #7BBE7BD77BB5",
"0 c #800080008000",
"q c #A868A7E7A7E7",
"w c #AE14ADBAAD26",
"e c #AFDBB407B873",
"r c #BB0BBB54BBF6",
"t c #B4B0D139D13E",
"y c #B504D305D2C2",
"u c #B6F6DECCDECC",
"i c #C2AFBFE6BF45",
"p c #C3FDCD20CD20",
"a c #CB5BCBEECB97",
"s c #CF90CE57CE46",
"d c #D001CF17CEE4",
"f c #C2C1D0D6D236",
"g c #C0C3D87CD866",
"h c #C76AD371D5C7",
"j c #C87FD61DD828",
"k c #C893DDA2DE21",
"l c #CB98DA3FDA5B",
"z c #CE56DA71DA42",
"x c #D12ADE91DE50",
"c c #DCC3DB0BDB08",
"v c #DE4ADD76DD03",
"b c #D2F4DC22E270",
"n c #D816E0A1E6DC",
"m c #D89DE0BAE737",
"M c #C773E5FCE60C",
"N c #CDA9E24DE241",
"B c #CD9CE2FCE2E6",
"V c #D73AE2B7E777",
"C c #D6FFE6C3E64D",
"Z c #D8FBE1D8E173",
"A c #DABAE4C5E4C5",
"S c #DB5FE49DE49A",
"D c #DC91E499E4C7",
"F c #D8D8E12AE5A9",
"G c #D9A2E544E5E3",
"H c #DD0CE423E8A8",
"J c #E047E2B7E526",
"K c #E4B0E37CE37E",
"L c #E22CE759EC54",
"P c #E149E9E6E9EC",
"I c #E2D7E9A0E9DA",
"U c #E15FE944EF97",
"Y c #E6C4E996E991",
"T c #EA21EA2FEA89",
"R c #EA7AEB42EBA7",
"E c #EE69EF1FEFBF",
"W c #E458ED1AF24C",
"Q c #E5B2EC6EF175",
"! c #E677EE86F3C6",
"~ c #E655EDF9F466",
"^ c #EA62F1DFF7E5",
"/ c #EA77F236F7DE",
"( c #EB86F3F5F985",
") c #F3BEFA3BFD79",
"_ c #F5EDFB32FE65",
"` c #F7C2FC37FEB7",
"' c #FBE4FE0BFF78",
"] c #FCFCFF6EFFFF",
"[ c #FEBAFFB1FFFF",
"{ c #FF87FFE7FFFF",
"} c gray100",
"| c None",
/* pixels */
"|||||||*,3+|||||||",
"|||||9scTKd$||||||",
"||||;KTL/~Hr=|||||",
"|||oiEU)}'/Re@||||",
"|||+vV_}}}}}(8||||",
"|||oqH}}}}}}_4||||",
"|||.whVnRWbVm7||||",
"|||opuztfgtII%||||",
"||||<SNSMkHNx0||||",
"|||||SgYzVCa-#||||",
"|||||12,&75:||||||"
};
