/* XPM */
static char *22[] = {
/* columns rows colors chars-per-pixel */
"32 20 198 2",
"   c #A3BBBC",
".  c #A7BBBB",
"X  c #BDBCBD",
"o  c #B6BCC1",
"O  c #A7C6C7",
"+  c #A3CACA",
"@  c #A3CCCC",
"#  c #A2CECD",
"$  c #A8C7C7",
"%  c #A0D7D7",
"&  c #A0D9D8",
"*  c #A8D5D5",
"=  c #ADDCDB",
"-  c #B1C0C1",
";  c #B7C1C4",
":  c #BCC7CE",
">  c #B8CFCF",
",  c #BACECE",
"<  c #BCC8CB",
"1  c #B5D2D2",
"2  c #B1DADA",
"3  c #BDD2D1",
"4  c #BDDDDD",
"5  c #BEDFDD",
"6  c #B0E8E8",
"7  c #B9E2E1",
"8  c #BDE0E0",
"9  c #BFE4E4",
"0  c #BAF5F5",
"q  c #C4C9CE",
"w  c #C9C8C9",
"e  c #C9CCCB",
"r  c #CCCDCD",
"t  c #C2CFD4",
"y  c #CDCFD2",
"u  c #C3D0D4",
"i  c #C7D0D0",
"p  c #C6D5D3",
"a  c #C7D6D6",
"s  c #C7D1D8",
"d  c #C6DCDB",
"f  c #CAD0D6",
"g  c #CDD5D5",
"h  c #CBD2D9",
"j  c #CDD6DD",
"k  c #C9DEDE",
"l  c #CCD9D9",
"z  c #CEDCDE",
"x  c LightGray",
"c  c #D0D5D5",
"v  c #D7D7D7",
"b  c #D7D7D8",
"n  c #D7D8D8",
"m  c #D7DDDF",
"M  c #D8D8D8",
"N  c gray85",
"B  c #DAD9D8",
"V  c #DADBDB",
"C  c gray86",
"Z  c #D9D9DC",
"A  c #DCD9D8",
"S  c #DED9D8",
"D  c gainsboro",
"F  c #DDDCDC",
"G  c #DDDDDD",
"H  c #DEDCDC",
"J  c #DFDDDD",
"K  c gray87",
"L  c #D2DAE3",
"P  c #D0DBE7",
"I  c #D6DDE4",
"U  c #DADDE1",
"Y  c #DDDDE0",
"T  c #C6E0E0",
"R  c #C8E1E1",
"E  c #CAE1E1",
"W  c #CCE9E9",
"Q  c #D4E1E0",
"!  c #D5E5E5",
"~  c #D5E6E6",
"^  c #D7E4E5",
"/  c #D3E0EA",
"(  c #D7E2EB",
")  c #D5E3EE",
"_  c #D7E4EE",
"`  c #D7E7ED",
"'  c #D2EAEA",
"]  c #DBE3E2",
"[  c #DAE5E5",
"{  c #DDE2E2",
"}  c #DDE1E4",
"|  c #DDE5E4",
" . c #D9E1E9",
".. c #DAE3EC",
"X. c #DBE3ED",
"o. c #D9E4ED",
"O. c #D9E5EF",
"+. c #DBE5EE",
"@. c #DDE2E8",
"#. c #DDE6EF",
"$. c #DEE5EF",
"%. c #DCE9E9",
"&. c #DAE6F2",
"*. c #DBE8F2",
"=. c #DCE8F4",
"-. c #DFEBF4",
";. c #E2DEDD",
":. c #E3E0DF",
">. c #E3E2E1",
",. c #E2E2E2",
"<. c #E1E3E5",
"1. c #E2E6E6",
"2. c #E7E4E4",
"3. c #E0E8E8",
"4. c #E2EAEA",
"5. c #E2EDED",
"6. c #E3ECEC",
"7. c #E6EAED",
"8. c #E6EBEF",
"9. c #E8E4E3",
"0. c #EAE5E4",
"q. c #EFE6E6",
"w. c gray91",
"e. c #EBE8E8",
"r. c #EBEAEA",
"t. c #EAEBED",
"y. c #EBECEC",
"u. c #EDEBEA",
"i. c #EDEBEB",
"p. c #EFEBEB",
"a. c #ECEBEC",
"s. c #ECECEC",
"d. c #EDEDEC",
"f. c #ECEDEF",
"g. c #ECEEEE",
"h. c #EEEEEE",
"j. c #EFEEEE",
"k. c #E0E9F3",
"l. c #E1EAF3",
"z. c #E4ECF5",
"x. c #E5F0F9",
"c. c #E6F1F9",
"v. c #E9F5F5",
"b. c #EAF7F7",
"n. c #EFF0F0",
"m. c #E9F2FB",
"M. c #EBF6FC",
"N. c #EDF7FD",
"B. c #EEF5FC",
"V. c #EFF7FE",
"C. c #EFF7FF",
"Z. c #EDF8FE",
"A. c #F1EBEB",
"S. c #F8EFEF",
"D. c #F0EFF1",
"F. c #F0F1F1",
"G. c #F4F4F2",
"H. c #F5F4F4",
"J. c #F7F5F5",
"K. c #F7F6F5",
"L. c #F6F7F7",
"P. c #F2F7FF",
"I. c #F0F9FF",
"U. c #F2F9FF",
"Y. c #F1FCFC",
"T. c #F2FDFF",
"R. c #F3FDFF",
"E. c #F7FAFA",
"W. c #F4FDFF",
"Q. c #F7FDFF",
"!. c #F7FEFF",
"~. c #FAF6F6",
"^. c #FDF0F0",
"/. c #FFF6F6",
"(. c #FFF7F7",
"). c #FAF8F7",
"_. c #FFF8F6",
"`. c #FBF9FA",
"'. c #FBFBF9",
"]. c #F9FEFF",
"[. c #FAFEFF",
"{. c #FBFEFF",
"}. c #FBFFFF",
"|. c #FDF8F8",
" X c #FDFAFA",
".X c #FEF9F9",
"XX c #FFFBFB",
"oX c #FFFCFB",
"OX c #FCFDFC",
"+X c #FCFFFF",
"@X c #FDFFFF",
"#X c #FFFCFC",
"$X c #FFFDFD",
"%X c #FEFEFF",
"&X c #FEFFFF",
"*X c #FFFEFF",
"=X c gray100",
"-X c None",
/* pixels */
"-X-X-X-X-X-X-X-X-X-X-X-X-X-X-X-X-X-X-X-X-X-X-X-X-X-X-X-X-X-X-X-X",
"-X-X-X-X-X-X-X-X-X-X-X-X-X2.B n 2.XX-X-X-X-X-X-X-X-X-X-X-X-X-X-X",
"-X-X-X-X-X-X-X-X-X-XE.i.H H w.r.;.v H =X-X-X-X-X-X-X-X-X-X-X-X-X",
"-X-X-X-X-X-X-X-X-XH B H H i.n.f.t.r.B v -X-X-X-X-X-X-X-X-X-X-X-X",
"-X-X-X-X-X-X-X-X1.H n.G.i.I *.x.-.O.u.x B =X-X-X-X-X-X-X-X-X-X-X",
"-X-X-X-X-X-X-X-XD i.=X} O.x.W.=X=Xm.O.@.y Z -X-X-X-X-X-X-X-X-X-X",
"-X-X-X-X-X-X-X0.;.'.<.P R.[.=X=X=X[.M.M.M.X.7.-X-X-X-X-X-X-X-X-X",
"-X-X-X-X-X-X-XH u.Y ) I.[.=X=X=X=X=X=X=X=XI.#.G.-X-X-X-X-X-X-X-X",
"-X-X-X-X-X-X-X>.r t W.=X=X=X=X=X=X=X=X=X=X=X-.7.-X-X-X-X-X-X-X-X",
"-X-X-X-X-X-X-X=XX j [.=X=X=X=X=X=X=X=X=X=X=XB.&.-X-X-X-X-X-X-X-X",
"-X-X-X-X-X-X-X-X>.h R.[.=X=X=X=X=X[.=X=X[.=XW.-.-X-X-X-X-X-X-X-X",
"-X-X-X-X-X-X-X-X_.w L Z.Z.z.I.[.[.M.$.k.O./ O.( -X-X-X-X-X-X-X-X",
"-X-X-X-X-X-X-XXXv.4 . < u o : O.P u - q m r U i.-X-X-X-X-X-X-X-X",
"-X-X-X-X-X-X-X=XT 0 * S 5 # e   ; k & p XX=X=X-X-X-X-X-X-X-X-X-X",
"-X-X-X-X-X-X-X-X6.1 , i.k $ [ ! Q [ $ i ' 7 [ =X-X-X-X-X-X-X-X-X",
"-X-X-X-X-X-X-X-XE.i.4.T 4.i.%.6 2 } A.~.8 @ B =X-X-X-X-X-X-X-X-X",
"-X-X-X-X-X-X-X-X-X=X9 % 3 ~.z = + >.W T e.B D.=X-X-X-X-X-X-X-X-X",
"-X-X-X-X-X-X-X-X-XR.! , g ~.E.g c K.~ p S.-X-X-X-X-X-X-X-X-X-X-X",
"-X-X-X-X-X-X-X-X-Xv.S.q.5.=X-X=X=X=X(.XXXX-X-X-X-X-X-X-X-X-X-X-X",
"-X-X-X-X-X-X-X-X-X-X-X-X-X-X-X-X-X-X-X-X-X-X-X-X-X-X-X-X-X-X-X-X"
};
