/* XPM */
static char *23-scaled[] = {
/* columns rows colors chars-per-pixel */
"18 11 111 2",
"   c black",
".  c #03830383037B",
"X  c #0572055C0534",
"o  c #072F05F604A5",
"O  c #0E580E100E10",
"+  c #1D2E1DA01DCA",
"@  c #1E5D1DB41D39",
"#  c #292F29CA2A49",
"$  c #2CCD2CCD2CCD",
"%  c #3818382B382B",
"&  c #40CD40CD40CD",
"*  c #4735463145F0",
"=  c #516E51A151D3",
"-  c #5D585B2C5B2C",
";  c #6000627C6396",
":  c #60B462426242",
">  c #620862086208",
",  c #657A67416741",
"<  c #6B4469756975",
"1  c #6D286B276AE6",
"2  c #72F2708B708B",
"3  c #733373337333",
"4  c #709D735975DC",
"5  c #7590746574C3",
"6  c #7629772376C3",
"7  c #7C107BBE7C13",
"8  c #7CD17E5F7AB9",
"9  c #800080008000",
"0  c #970E98A89951",
"q  c #989E97BE9629",
"w  c #A767A3A39EDE",
"e  c #A4AAA53FA555",
"r  c #A9C4A9D0AA08",
"t  c #B965BAD0BBFA",
"y  c #C026C8FBC89B",
"u  c #B4A3D2B6D28D",
"i  c #B4C6D11AD163",
"p  c #B746DEC4DEA3",
"a  c #CB9BCB37CB92",
"s  c #CC3CCC4ECC65",
"d  c #CD2ACDAECE21",
"f  c #CF7BCF26CF31",
"g  c #C951D058D58A",
"h  c #C2B8D0E9D1D1",
"j  c #C0C3D897D880",
"k  c #C806D60ED7B0",
"l  c #C7D1DE1ADD90",
"z  c #CC34D5A2DA89",
"x  c #CC90DA01DA5B",
"c  c #CEA3DB2ADB7F",
"v  c #D115D87CDE95",
"b  c #D117DEAEDE8E",
"n  c #D18ADD03DFED",
"m  c #D8C5DDD7E02C",
"M  c #DB8ADABCDA41",
"N  c #D36FDC8DE2BF",
"B  c #D7FADD5EE266",
"V  c #C78FE5E8E5DC",
"C  c #CE5AE235E1E0",
"Z  c #CD3CE2FCE2F0",
"A  c #D8C6E1F6E713",
"S  c #D6F9E6D4E6C8",
"D  c #D91EE134E15C",
"F  c #DAA4E4C0E4E3",
"G  c #DB22E4D2E4DB",
"H  c #DC90E469E487",
"J  c #D96AE1C2E708",
"K  c #D9B1E596E635",
"L  c #E205E1D0E25D",
"P  c #E397E330E2C0",
"I  c #E3DCE650E878",
"U  c #E14CE632E9DA",
"Y  c #E1F4E5F8E95C",
"T  c #E189E76DEC8F",
"R  c #E28EE70DEB24",
"E  c #E2D9E7A5EC2A",
"W  c #E53EE7D4EA03",
"Q  c #E101E955E971",
"!  c #E34DE9BFE9F9",
"~  c #E5B0E97DE9BC",
"^  c #E5D5E938EC65",
"/  c #E6B0E902EB2D",
"(  c #E66EEA34ED81",
")  c #E76CEC57F08F",
"_  c #E9D1E977E993",
"`  c #EAE8EB67ECC2",
"'  c #E4DBEDDFF375",
"]  c #E67FEF38F315",
"[  c #E958ED7AF11C",
"{  c #EA06EF54F373",
"}  c #EB34F11BF534",
"|  c #EB32F182F722",
" . c #ECECF1F1F544",
".. c #ED96F2B3F643",
"X. c #EF75F494F823",
"o. c #EFB5F4F6F86C",
"O. c #EE4DF4D4FA01",
"+. c #F3CFF4DDF5FB",
"@. c #F181F544F80F",
"#. c #F52BF7D1FA6C",
"$. c #F898F888F8F8",
"%. c #F470F98BFC94",
"&. c #F76CFB40FDB0",
"*. c #FA0EFCDBFEC9",
"=. c #FE75FD34FD85",
"-. c #FEE3FFB7FFFA",
";. c #FEBEFFBFFFFF",
":. c #FF3EFF8BFFD8",
">. c #FF32FFD6FFFF",
",. c gray100",
"<. c None",
/* pixels */
"<.<.<.<.<.<.<.* > 1 O <.<.<.<.<.<.<.",
"<.<.<.<.<.7 f M _ P a f f q X <.<.<.",
"<.<.<.  6 L ` T | W W O...U 8 <.<.<.",
"<.<.6 e W ^ U &.;.W O.;.;.*.g @ <.<.",
"<.<.r [ &.&.{ #.;.+.T { { W m # <.<.",
"<.<.0 ..;.;.*.O.;.;.;.$.O.w X <.<.<.",
"<.<.@ t m n z c [ [ N J J 4 <.<.<.<.",
"<.<.<.@ y p c i i k i Q ! % <.<.<.<.",
"<.<.<.<.> H Z K V l H Z n 9 <.<.<.<.",
"<.<.<.<.<.K j ! c H K s = $ <.<.<.<.",
"<.<.<.<.<., < > & 2 2 - <.<.<.<.<.<."
};
