/* XPM */
static char *23[] = {
/* columns rows colors chars-per-pixel */
"32 20 249 2",
"   c #A3BBBC",
".  c #ABBFBE",
"X  c #B8BEC2",
"o  c #A7C6C7",
"O  c #A3CACA",
"+  c #A3CCCC",
"@  c #A2CECD",
"#  c #A8C7C7",
"$  c #A0D7D7",
"%  c #A7D5D5",
"&  c #A0D9D8",
"*  c #ADDCDB",
"=  c #B1C0C1",
"-  c #B7C1C4",
";  c #BCC7CE",
":  c #B8CFCF",
">  c #BACECE",
",  c #BDC8CA",
"<  c #B5D2D2",
"1  c #B1DADA",
"2  c #BDD2D1",
"3  c #BFDADB",
"4  c #BEDFDE",
"5  c #B0E8E8",
"6  c #B9E2E1",
"7  c #BDE0E0",
"8  c #BFE4E4",
"9  c #B9F5F5",
"0  c #C0BFBD",
"q  c #E5BE94",
"w  c #C4C9CE",
"e  c #CACBCB",
"r  c #C9CCCB",
"t  c #C4CFD4",
"y  c #C8CFD5",
"u  c #CDCFD2",
"i  c #C3D0D4",
"p  c #C7D0D0",
"a  c #C6D5D3",
"s  c #C7D6D6",
"d  c #C6DCDB",
"f  c #CDD5D5",
"g  c #C9DEDE",
"h  c #CCD9D9",
"j  c #CEDCDE",
"k  c #D0D5D5",
"l  c #D2D4D5",
"z  c #D0D5DC",
"x  c #D1D7DC",
"c  c #D1D7DD",
"v  c #D0D8DD",
"b  c #D2D8DE",
"n  c #D7D8D8",
"m  c #D7DDDF",
"M  c #DDD6D0",
"N  c #D8D8D8",
"B  c gray85",
"V  c #DADBDB",
"C  c #DBDBDC",
"Z  c #DCD9D8",
"A  c #DCDBD9",
"S  c #DED9D9",
"D  c #DEDADB",
"F  c #DDDBDC",
"G  c gainsboro",
"H  c #DDDDDD",
"J  c #DFDDDD",
"K  c gray87",
"L  c #DEDEDF",
"P  c #DEDFDE",
"I  c #D2DAE0",
"U  c #D3DAE0",
"Y  c #D3DAE1",
"T  c #D3DBE1",
"R  c #D5DBE3",
"E  c #D6DBE0",
"W  c #D4DCE3",
"Q  c #D6DCE1",
"!  c #D4DEE5",
"~  c #D6DDE4",
"^  c #D7DEE4",
"/  c #D9DDE1",
"(  c #D9DDE3",
")  c #DADDE1",
"_  c #D8DFE5",
"`  c #DADFE5",
"'  c #C6E0E0",
"]  c #C9E3E3",
"[  c #CAE1E1",
"{  c #CCE9E9",
"}  c #D4E1E0",
"|  c #D7E0E7",
" . c #D5E5E5",
".. c #D5E6E6",
"X. c #D7E4E5",
"o. c #D3E0EA",
"O. c #D7E2EB",
"+. c #D7E3ED",
"@. c #D7E7ED",
"#. c #D2EAEA",
"$. c #DAE1E2",
"%. c #DBE3E2",
"&. c #DAE5E5",
"*. c #DDE2E2",
"=. c #DFE0E0",
"-. c #DFE3E3",
";. c #DCE1E5",
":. c #DDE5E4",
">. c #D9E1E9",
",. c #D9E4ED",
"<. c #D9E5EF",
"1. c #DCE2EA",
"2. c #DDE6EE",
"3. c #DEE5EF",
"4. c #DEE7EF",
"5. c #DCE9E9",
"6. c #DAE5F0",
"7. c #DBE8F2",
"8. c #DFE8F0",
"9. c #DCE9F5",
"0. c #E0DFDF",
"q. c #E6DFDA",
"w. c #E0E0DE",
"e. c #E2E0DE",
"r. c #E2E0DF",
"t. c #E0E2E3",
"y. c #E3E1E1",
"u. c #E2E1E2",
"i. c #E3E2E1",
"p. c #E3E3E1",
"a. c #E2E2E2",
"s. c #E3E2E2",
"d. c #E3E3E2",
"f. c #E2E2E4",
"g. c #E7E4E4",
"h. c #E6E6E5",
"j. c #E6E6E6",
"k. c #E1E5E9",
"l. c #E3E6E9",
"z. c #E7E7E8",
"x. c #E0E8E8",
"c. c #E2EAEA",
"v. c #E3E9EE",
"b. c #E2EDED",
"n. c #E3ECEC",
"m. c #E6E9ED",
"M. c #E6EAEE",
"N. c #E8E4E3",
"B. c #EFE6E6",
"V. c gray91",
"C. c #EBEAEA",
"Z. c #EAEAED",
"A. c #EBECEC",
"S. c #EBECEE",
"D. c #EDEBEB",
"F. c #EFEBEB",
"G. c #ECEBEC",
"H. c #EDEDEC",
"J. c #ECEDEF",
"K. c #EEEDEC",
"L. c #EEEEEE",
"P. c #EEEEEF",
"I. c #EFEEEE",
"U. c #E0E9F1",
"Y. c #E0E9F3",
"T. c #E3EBF2",
"R. c #E1EBF4",
"E. c #E3ECF0",
"W. c #E2ECF4",
"Q. c #E3ECF4",
"!. c #E5EBF0",
"~. c #E7ECF0",
"^. c #E5EDF4",
"/. c #E5EDF5",
"(. c #E6EFF7",
"). c #E8EDF2",
"_. c #EAEEF1",
"`. c #E5F0F9",
"'. c #E6F1F9",
"]. c #E8F0F7",
"[. c #E9F0F6",
"{. c #E9F1F7",
"}. c #EBF0F7",
"|. c #EAF7F7",
" X c #EFF0F0",
".X c #EFF0F1",
"XX c #ECF4FA",
"oX c #EEF7FC",
"OX c #EFF7FE",
"+X c #F1EBEB",
"@X c #F1EFEF",
"#X c #F8EFEF",
"$X c #F0EFF1",
"%X c #F0F0EF",
"&X c #F8F4ED",
"*X c #FFFFEF",
"=X c #F0F1F1",
"-X c #F1F1F1",
";X c #F5F4F4",
":X c #F7F5F5",
">X c #F7F6F5",
",X c #F6F7F7",
"<X c #F3F9FC",
"1X c #F3FAFD",
"2X c #F2FAFE",
"3X c #F3FAFF",
"4X c #F1FCFC",
"5X c #F3FDFF",
"6X c #F7F8FA",
"7X c #F7FAFA",
"8X c #F5F9FD",
"9X c #F4FBFE",
"0X c #F5FBFF",
"qX c #F6FBFE",
"wX c #F7FBFF",
"eX c #F5FDFF",
"rX c #F6FCFF",
"tX c #F7FCFE",
"yX c #F7FDFF",
"uX c #F6FEFF",
"iX c #F7FEFF",
"pX c #FAF6F6",
"aX c #FDF0F0",
"sX c #FFF6F6",
"dX c #FFF7F7",
"fX c #F9F8F7",
"gX c #FAF8F7",
"hX c #FBF9FA",
"jX c #F8FBFE",
"kX c #F8FCFF",
"lX c #F9FDFF",
"zX c #F9FEFF",
"xX c #FAFDFF",
"cX c #FBFDFF",
"vX c #FAFEFF",
"bX c #FDF8F8",
"nX c #FCFBFA",
"mX c #FDFAFA",
"MX c #FEF9F9",
"NX c #FCFDFC",
"BX c #FDFCFC",
"VX c #FDFDFD",
"CX c #FCFFFF",
"ZX c #FDFFFF",
"AX c #FFFCFC",
"SX c #FEFFFF",
"DX c #FFFEFF",
"FX c gray100",
"GX c None",
/* pixels */
"GXGXGXGXGXGXGXGXGXGXGXGXGXGXGXGXGXGXGXGXGXGXGXGXGXGXGXGXGXGXGXGX",
"GXGXGXGXGXGXGXGXGXGXGXGXGXN.B B N.MXGXGXGXGXGXGXGXGXGXGXGXGXGXGX",
"GXGXGXGXGXGXGXGXGXGX,XK.V A V.V.w.B C 0.i.w.L FXGXGXGXGXGXGXGXGX",
"GXGXGXGXGXGXGXGXGXL D L L D.$XK.S.i.L i.M.M.i.A &XGXGXGXGXGXGXGX",
"GXGXGXGXGXGXGXGX-.L .X;XD.! 6.`.8.z._.v.oX2X^.( Q *XGXGXGXGXGXGX",
"GXGXGXGXGXGXGXw.i.i.I.l.+.`.vXFX_.h.2.8XFXFXvXrX].8.GXGXGXGXGXGX",
"GXGXGXGXD =.h.f.~.M.L / 5XFXFXFXI.y rXFXFXFXFXFXFXW.-.GXGXGXGXGX",
"GXGXGXGXL K.M.R.2X2XT.Q ~.FXFXFXFXx oXFXFXFXFX8XvX`.>.GXGXGXGXGX",
"GXGXGXGXi.l.W.FXFXFXvXrX^.6XFXFXFXP.z Q W T.! W z ` %XGXGXGXGXGX",
"GXGXGXGXe ! FXFXFXFXFXFXqX(.FXFXFXFXMX6XI.S._.6.q GXGXGXGXGXGXGX",
"GXGXGXGX0 U rXvXFXFXvX8X<X^.FXFXFXFXFXFXFXFXrX9.GXGXGXGXGXGXGXGX",
"GXGXGXGXGXl U v ! v.z W W 1.2XvXrXOX3.R.@.>.@.>.GXGXGXGXGXGXGXGX",
"GXGXGXGXGXGXq.M $.d . , t X ; @.o.i = w m u / A.GXGXGXGXGXGXGXGX",
"GXGXGXGXGXGXGXFX' 9 % D 4 @ r   - d & a MXFXFXGXGXGXGXGXGXGXGXGX",
"GXGXGXGXGXGXGXGXb.< > K.g o %...} &.o p #.6 :.FXGXGXGXGXGXGXGXGX",
"GXGXGXGXGXGXGXGX8XD.c.[ :.I.5.5 * =.+XpX7 + B FXGXGXGXGXGXGXGXGX",
"GXGXGXGXGXGXGXGXGXFX8 $ 2 hXj * O d.{ ' V.B .XFXGXGXGXGXGXGXGXGX",
"GXGXGXGXGXGXGXGXGX5X..> f ;XhXf l ;X..s aXGXGXGXGXGXGXGXGXGXGXGX",
"GXGXGXGXGXGXGXGXGX|.#XB.b.FXGXFXFXFXMXdXMXGXGXGXGXGXGXGXGXGXGXGX",
"GXGXGXGXGXGXGXGXGXGXGXGXGXGXGXGXGXGXGXGXGXGXGXGXGXGXGXGXGXGXGXGX"
};
