/* XPM */
static char *24-scaled[] = {
/* columns rows colors chars-per-pixel */
"18 11 74 1",
"  c black",
". c #01EE001807B8",
"X c #019500000AD8",
"o c #0212000009F2",
"O c #028F000012F9",
"+ c #02FB000019E6",
"@ c #04FF001B1B33",
"# c #061E00001969",
"$ c #059A001D1C8C",
"% c #075700001E7E",
"& c #05EA005026E7",
"* c #0808000027E4",
"= c #09D0000D28AF",
"- c #0A1E007828FD",
"; c #05AE00004B0B",
": c #10ED07E84728",
"> c #187F10B74DA2",
", c #164607D0652D",
"< c #1AA30B3E685A",
"1 c #1FC20FDC6BD7",
"2 c #1C0B0D637273",
"3 c #1D2813FA6F38",
"4 c #20A014266D7A",
"5 c #2A02176478AB",
"6 c #2DAE23CC756D",
"7 c #2B8C24597996",
"8 c #21410E9F93F3",
"9 c #27590D889CAA",
"0 c #2A2811BFA589",
"q c #3B722E4A9F9E",
"w c #34AC29F1AAAC",
"e c #3BD62FA9A63E",
"r c #39592C14AB33",
"t c #42DC2FA3B120",
"y c #404E336BB17E",
"u c #40DA3CFDB6F6",
"i c #4B144AC68D84",
"p c #454B56369232",
"a c #455F57D192C5",
"s c #4E3F5CA6944D",
"d c #52075D569490",
"f c #5F3559029240",
"g c #5D164C68BC0B",
"h c #577A536CAC43",
"j c #627D5BB0931B",
"k c #55425B95C491",
"l c #58985A1AC242",
"z c #5CE97434CAF7",
"x c #5C357D50D245",
"c c #5F2C7B0ED0FD",
"v c #696B57B0C1D7",
"b c #65326D73C895",
"n c #69B56DEFCB07",
"m c #769577A8C322",
"M c #6CDA869CD4D4",
"N c #709286DDD4DE",
"B c #78848891D3E4",
"V c #7548958FDA00",
"C c #7FB49CFBDD38",
"Z c #887686B7D280",
"A c #83138F1FD7A7",
"S c #8B668818D36B",
"D c #84449999DB9B",
"F c #91568AC4D41E",
"G c #9727B576E5F5",
"H c #9E72B32BE44F",
"J c #A1C4A086DC48",
"K c #AA22AAE7DECB",
"L c #A37CB66BE4E2",
"P c #AF47BAE2E6A6",
"I c #B3ADBA38E645",
"U c #AA42C229E900",
"Y c #C66EC9E9EC43",
"T c None",
/* pixels */
"TTTTTTTTTTTTTTTTTT",
"TTTTTTTTTTTTTTTTTT",
"TT.---$@*&&---@TTT",
"TT$0xMeqSStnNc4TTT",
"TTo:zCwImhgHbu<TTT",
"TTTokArY6;8PUD,TTT",
"TT@9VGyJKFvLBk1TTT",
"TTO2ps73fj5idp>TTT",
"TTT    T  T    TTT",
"TTTTTTTTTTTTTTTTTT",
"TTTTTTTTTTTTTTTTTT"
};
