/* XPM */
static char *24[] = {
/* columns rows colors chars-per-pixel */
"32 20 168 2",
"   c black",
".  c #000076",
"X  c #000079",
"o  c #00007B",
"O  c #000084",
"+  c #00008D",
"@  c #03008E",
"#  c #030092",
"$  c #0A0094",
"%  c #0E0096",
"&  c #130090",
"*  c #100095",
"=  c #150090",
"-  c #150092",
";  c #120098",
":  c #130098",
">  c #16009A",
",  c #17009B",
"<  c #15059A",
"1  c #1A0093",
"2  c #180096",
"3  c #19009A",
"4  c #19009B",
"5  c #19009C",
"6  c #1A009C",
"7  c #1C009C",
"8  c #1F009D",
"9  c #1E009F",
"0  c #1F009F",
"q  c #21009D",
"w  c #21019E",
"e  c #2300A0",
"r  c #2204A0",
"t  c #2400A1",
"y  c #2600A2",
"u  c #2700A2",
"i  c #2701A3",
"p  c #2703A3",
"a  c #2901A2",
"s  c #2802A3",
"d  c #2902A4",
"f  c #2904A4",
"g  c #2C08A6",
"h  c #2E11A7",
"j  c #2F16A6",
"k  c #2F13AA",
"l  c #2F16AB",
"z  c #3414AA",
"x  c #3516AA",
"c  c #301AAC",
"v  c #331CAD",
"b  c #331DAD",
"n  c #371AAC",
"m  c #371CAB",
"M  c #3819AB",
"N  c #391AAB",
"B  c #3A1AAC",
"V  c #3421AF",
"C  c #3522AF",
"Z  c #3727AD",
"A  c #3F24AF",
"S  c #3724B0",
"D  c #4025B0",
"F  c #4026B0",
"G  c #4229B2",
"H  c #432DB1",
"J  c #422CB3",
"K  c #4528B1",
"L  c #472BB2",
"P  c #4C34B3",
"I  c #4B3CB9",
"U  c #543EB9",
"Y  c #5040B9",
"T  c #5642B8",
"R  c #5C48BC",
"E  c #624ABD",
"W  c #4F5AC4",
"Q  c #4F5CC5",
"!  c #5B57C3",
"~  c #5866C8",
"^  c #5D65C8",
"/  c #5B69C9",
"(  c #5875CE",
")  c #5D76CF",
"_  c #6655C2",
"`  c #6E59C2",
"'  c #6068C9",
"]  c #6368C9",
"[  c #6669C9",
"{  c #6968C9",
"}  c #7366C6",
"|  c #7475CB",
" . c #747ACF",
".. c #7F72CB",
"X. c #7F74CC",
"o. c #7E7BCF",
"O. c #6B87D5",
"+. c #6F85D2",
"@. c #7B90D8",
"#. c #6CB2E6",
"$. c #71AEE4",
"%. c #79BBE9",
"&. c #8174CC",
"*. c #D111F4",
"=. c #8382D1",
"-. c #8D80D0",
";. c #8D8BD5",
":. c #8F94D8",
">. c #908FD3",
",. c #909FDD",
"<. c #9893D7",
"1. c #9895D8",
"2. c #9B9BDB",
"3. c #85A2DE",
"4. c #95A4DE",
"5. c #9EA2DD",
"6. c #82A8E1",
"7. c #8DAEE2",
"8. c #82B9E7",
"9. c #93AFE3",
"0. c #92B9E7",
"q. c #99BCE7",
"w. c #A6A7DE",
"e. c #87C6ED",
"r. c #88CBEE",
"t. c #88CEEF",
"y. c #8DD1F1",
"u. c #96C4EB",
"i. c #94C7EC",
"p. c #92CBEE",
"a. c #A5CFEF",
"s. c #A1D1F0",
"d. c #ACD3F0",
"f. c #B7CAEB",
"g. c #B3D6F1",
"h. c #A1E5F7",
"j. c #A2E8F9",
"k. c #A2EEFB",
"l. c #ADE8F8",
"z. c #AEF0FB",
"x. c #B1E0F5",
"c. c #B4E6F7",
"v. c #BBF1FB",
"b. c #CDD5EF",
"n. c #C1DAF1",
"m. c #CADBF1",
"M. c #C2EBF8",
"N. c #C3F1FB",
"B. c #C0F5FC",
"V. c #C9F4FB",
"C. c #CEF1FA",
"Z. c #CFF5FB",
"A. c #D2E0F4",
"S. c #D2EAF7",
"D. c #DBEDF8",
"F. c #D4F6FB",
"G. c #DAF2FA",
"H. c #E2F9FC",
"J. c #EBFFFF",
"K. c #EDFDFE",
"L. c #ECFFFF",
"P. c #EFFCFD",
"I. c #F1FFFF",
"U. c #F3FFFF",
"Y. c #F4FFFF",
"T. c #FBFFFF",
"R. c gray100",
"E. c None",
/* pixels */
"E.E.E.E.E.E.E.E.E.E.E.E.E.E.E.E.E.E.E.E.E.E.E.E.E.E.E.E.E.E.E.E.",
"E.E.E.E.E.E.E.E.E.E.E.E.E.E.E.E.E.E.E.E.E.E.E.E.E.E.E.E.E.E.E.E.",
"E.E.E.E.E.E.E.E.E.E.E.E.E.E.E.E.E.E.E.E.E.E.E.E.E.E.E.E.E.E.E.E.",
"E.E.E.E.E.E.E.E.E.E.E.E.E.E.E.E.E.E.E.E.E.E.E.E.E.E.E.E.E.E.E.E.",
"E.E.E.E.E.E.E.E.E.E.E.E.E.E.E.E.E.E.E.E.E.E.E.E.E.E.E.E.E.E.E.E.",
"E.E.E.E.E.d s u u u u u E.* , u u , % f u u u u u u E.E.E.E.E.E.",
"E.E.E.E.E.1 c #.%.8.i.I * D :.m.A.5.H m q.u.p.r.$.V E.E.E.E.E.E.",
"E.E.E.E.E.= l ( y.h.@.Z m n.J.w.;.D.;.x N.a.+.O.( V E.E.E.E.E.E.",
"E.E.E.E.E.E.E.2 6.s.s @ o.U.<.@ X L T A Z.,.4 8 w w E.E.E.E.E.E.",
"E.E.E.E.E.E.E.e 7.d.D * 2.J.E E.E.E.O L S.C.M.v.3.8 E.E.E.E.E.E.",
"E.E.E.E.E.E.E.8 0.g.B $ 1.T.` . # > r L G.f.|  .! , E.E.E.E.E.E.",
"E.E.E.E.E.w f h 0.g.G < _ Y.b.P m &...N F.4.9 e u g E.E.E.E.E.E.",
"E.E.E.E.E.= v t.k.l.c.Y 4 =.H.U.U.K.} N V.B.l.j.e.S E.E.E.E.E.E.",
"E.E.E.E.E.& k Q / / ] J X > U X.&.R 8 x { [ ] / W v E.E.E.E.E.E.",
"E.E.E.E.E.E.E.        E.E.E.E.    E.E.E.          E.E.E.E.E.E.E.",
"E.E.E.E.E.E.E.E.E.E.E.E.E.E.E.E.E.E.E.E.E.E.E.E.E.E.E.E.E.E.E.E.",
"E.E.E.E.E.E.E.E.E.E.E.E.E.E.E.E.E.E.E.E.E.E.E.E.E.E.E.E.E.E.E.E.",
"E.E.E.E.E.E.E.E.E.E.E.E.E.E.E.E.E.E.E.E.E.E.E.E.E.E.E.E.E.E.E.E.",
"E.E.E.E.E.E.E.E.E.E.E.E.E.E.E.E.E.E.E.E.E.E.E.E.E.E.E.E.E.E.E.E.",
"E.E.E.E.E.E.E.E.E.E.E.E.E.E.E.E.E.E.E.E.E.E.E.E.E.E.E.E.E.E.E.E."
};
