/* XPM */
static char *25-scaled[] = {
/* columns rows colors chars-per-pixel */
"18 11 98 2",
"   c black",
".  c #026602660266",
"X  c #080008000800",
"o  c #0985098C0992",
"O  c #09C00A750B26",
"+  c #0A6E0A6E0A6E",
"@  c #0C6C0C4F0C33",
"#  c #0DB90DDA0DEA",
"$  c #0D9E0E3E0EDF",
"%  c #0EE00EFB0F28",
"&  c #32D335153791",
"*  c #40CD40CD3F46",
"=  c #4E554E124E12",
"-  c #576A57DE5852",
";  c #58D4587D5843",
":  c #5CE3602061EE",
">  c #611A60325F4B",
",  c #613E61C06283",
"<  c #67826733670F",
"1  c #689368936893",
"2  c #6CC06C906ADE",
"3  c #6E086D0B6B93",
"4  c #715D70F16D45",
"5  c #7270716B6EF7",
"6  c #74E171E56EAE",
"7  c #7171714470EA",
"8  c #7333733372B1",
"9  c #74F577FE7905",
"0  c #7FAC7F997F8C",
"q  c #8DC78E018E01",
"w  c #AFAFAF2FAE6E",
"e  c #BEFFBEDDBF10",
"r  c #9D71BB4AD832",
"t  c #9997C01BE567",
"y  c #AB24BAEDC9DC",
"u  c #A2DBBAFDD235",
"i  c #A2C3C062DE9C",
"p  c #BBC8BFF2C3D6",
"a  c #AA0EC147D8C6",
"s  c #AF43C534DB70",
"d  c #C0A0C1BBC1C7",
"f  c #B3F2C327D169",
"g  c #BD7EC938D530",
"h  c #BBBCCC95DD94",
"j  c #B941CCE7DDCF",
"k  c #BC44CD0ADDD9",
"l  c #BFBACE2DDC3E",
"z  c #BFE2CEBDDE3D",
"x  c #C433CF46DA7F",
"c  c #D01ED18ED0C7",
"v  c #C424D120DDCC",
"b  c #C2E1D179DF1B",
"n  c #C3F9D265E080",
"m  c #C65DD2E2DF3F",
"M  c #C98CD1D4D944",
"N  c #C9F0D388DDEE",
"B  c #CA52D5C3DFDA",
"V  c #D1F7D1ACD11D",
"C  c #D624D602D610",
"Z  c #D4FBD7CBD913",
"A  c #DF78DF4BDF11",
"S  c #C54BD4BEE430",
"D  c #CB8ED854E463",
"F  c #D01CDBDDE3D1",
"G  c #D4D4DD6DE373",
"H  c #DAF2DEFDE170",
"J  c #D83EE2D9E93A",
"K  c #DC48E315E861",
"L  c #DF6BE637EC07",
"P  c #DE1DE827F1F1",
"I  c #E1B7E27FE2FD",
"U  c #E30DE306E3A1",
"Y  c #E158E34AE5FC",
"T  c #E1ACE596E759",
"R  c #E405E60EE80E",
"E  c #E7E3E787E721",
"W  c #E122E719EC28",
"Q  c #E297E879EDDB",
"!  c #E2C2E8DFEE76",
"~  c #E30FE989EEDB",
"^  c #E388EAF0F015",
"/  c #E5A5EA7DEF1B",
"(  c #EAE4EA28EA43",
")  c #EC47EE18EE8D",
"_  c #E60FEDC2F45D",
"`  c #E658EE34F4B0",
"'  c #E9FAF0D1F534",
"]  c #EA4DF140F77B",
"[  c #EC99F3C6F8B7",
"{  c #EE3CF48BFA22",
"}  c #EFD5F69EFA6A",
"|  c #F043F736FAC7",
" . c #F8C8FC84FECE",
".. c #FA89FE35FF9A",
"X. c #FB69FEC6FFB5",
"o. c #FF32FFCCFFFF",
"O. c gray100",
"+. c None",
/* pixels */
"+.+.+.+.+.+.+.# > < # +.+.+.+.+.+.+.",
"+.+.+.+.+.= e V E I c 1 +.+.+.+.+.+.",
"+.+.+.+.: I ( R _ _ Y C 2 +.+.+.+.+.",
"+.+.+.+ e ) ^ [ X.X.' ^ R - +.+.+.+.",
"+.+.+.# A H } O.O.O.O.O.} p X +.+.+.",
"+.+.+.+ w G X.O.O.O.O.O. .P # +.+.+.",
"+.+.+.+.0 M J ^ ' } ^ L L _ % +.+.+.",
"+.+.+.+.9 t u x g f m z G q   +.+.+.",
"+.+.+.+ y S s k j i m z r 4 +.+.+.+.",
"+.+.+.# J m S x D u D v Z 7 +.+.+.+.",
"+.+.+.+.& 3 7 , * 6 4 ; +.+.+.+.+.+."
};
