/* XPM */
static char *25[] = {
/* columns rows colors chars-per-pixel */
"32 20 210 2",
"   c #679CD2",
".  c #76A8D8",
"X  c #68A6E5",
"o  c #72ACE3",
"O  c #78B6F3",
"+  c #849EB6",
"@  c #91A7BC",
"#  c #8CA9C6",
"$  c #8BACCC",
"%  c #8EB1D4",
"&  c #94ADC7",
"*  c #90AFCE",
"=  c #99AFC4",
"-  c #96BBDD",
";  c #9EB7D1",
":  c #98B8D8",
">  c #9EBBD9",
",  c #9EBCDC",
"<  c #88B5E2",
"1  c #A6B3C1",
"2  c #A6B9CC",
"3  c #AABCCE",
"4  c #A0B9D2",
"5  c #A2BAD2",
"6  c #ADBFD2",
"7  c #B8BFC6",
"8  c #9BC1E6",
"9  c #A5C1DA",
"0  c #A4C2DF",
"q  c #B1C0CF",
"w  c #B5C2CE",
"e  c #B5C3D2",
"r  c #B4C4D4",
"t  c #B6C6D4",
"y  c #B0C5D8",
"u  c #B1C5DA",
"i  c #BBC8D4",
"p  c #BFC8D1",
"a  c #B9CBDB",
"s  c #BFCCD9",
"d  c #ACC6E1",
"f  c #AFC8E1",
"g  c #ADC8E4",
"h  c #C0C9CF",
"j  c #CBCCCB",
"k  c #C2CFDC",
"l  c #C4CFDB",
"z  c #C9CDD2",
"x  c #CACED1",
"c  c #CACFD3",
"v  c #C3D1DD",
"b  c #CBD2D7",
"n  c #CED1D4",
"m  c #CBD3DA",
"M  c #C8D4DE",
"N  c #CDD3D8",
"B  c #CED4DB",
"V  c #CED4DC",
"C  c #CED7DE",
"Z  c #D3D1CF",
"A  c #D3D2D0",
"S  c #D4D2D2",
"D  c #D5D5D5",
"F  c #D5D6D7",
"G  c gray84",
"H  c #D0D5DA",
"J  c #D2D8DB",
"K  c #D1D8DE",
"L  c #D6D9DA",
"P  c #D4D8DD",
"I  c #D6D9DD",
"U  c #D8D6D7",
"Y  c #D8D8D8",
"T  c #D8D9D9",
"R  c #DBDAD9",
"E  c #DADADA",
"W  c #DCDAD8",
"Q  c #DDDDDB",
"!  c #DCDCDD",
"~  c #DCDDDD",
"^  c #DDDDDC",
"/  c #DDDDDD",
"(  c #DFDFDF",
")  c #C0CFE0",
"_  c #C4D2E0",
"`  c #C6D3E1",
"'  c #C5D7E9",
"]  c #CDD8E4",
"[  c #CDDCEA",
"{  c #D3DDE7",
"}  c #D4DDE2",
"|  c #D5DCE2",
" . c #D5DCE3",
".. c #D0DFEE",
"X. c #D4DFE9",
"o. c #D8DFE6",
"O. c #DFDFE0",
"+. c #D7E1EA",
"@. c #D7E2E9",
"#. c #DAE0E6",
"$. c #DDE3E2",
"%. c #DFE1E1",
"&. c #DFE1E2",
"*. c #DDE2E6",
"=. c #D8E1E9",
"-. c #D9E2EB",
";. c #D9E3ED",
":. c #D8E2EE",
">. c #D9E3EE",
",. c #DBE5ED",
"<. c #DCE5ED",
"1. c #DCE6F1",
"2. c #DEE7F2",
"3. c #DCE8F4",
"4. c #DEEAF5",
"5. c #DFEBF5",
"6. c #E3D9CF",
"7. c #E0DEDE",
"8. c #E0E0DF",
"9. c #E1E0DE",
"0. c #E1E1E2",
"q. c #E3E2E1",
"w. c #E2E2E2",
"e. c #E5E4E3",
"r. c #E7E6E5",
"t. c #E6E6E6",
"y. c #E0E4E9",
"u. c #E1E5EA",
"i. c #E3E5E9",
"p. c #E1E6EC",
"a. c #E2E8EE",
"s. c #E5EAED",
"d. c #EEE9E6",
"f. c #ECEBE9",
"g. c #EEEBE8",
"h. c #ECECED",
"j. c #EDEDEC",
"k. c #EDEDEE",
"l. c #EFEDEC",
"z. c #EEEEED",
"x. c #E0EBF4",
"c. c #E1EBF6",
"v. c #E3EDF3",
"b. c #E2EDF6",
"n. c #E2EEF7",
"m. c #E4EDF4",
"M. c #E5EEF6",
"N. c #E5F0FA",
"B. c #E7F1F9",
"V. c #EEF1F4",
"C. c #EFF0F4",
"Z. c #E9F0F8",
"A. c #E8F2F8",
"S. c #E8F2FA",
"D. c #E9F2FA",
"F. c #EAF1F9",
"G. c #EBF3FA",
"H. c #EBF5FB",
"J. c #E9F4FC",
"K. c #EBF6FD",
"L. c #ECF5FC",
"P. c #F2EFED",
"I. c #F3EFEC",
"U. c #F3F2F1",
"Y. c gray95",
"T. c #F1F3F6",
"R. c #F1F4F6",
"E. c #F4F2F0",
"W. c #F5F4F1",
"Q. c #F5F4F2",
"!. c #F4F5F6",
"~. c #F6F7F5",
"^. c #F0F6FC",
"/. c #F1F7FD",
"(. c #F3F9FF",
"). c #F1FCFF",
"_. c #F3FDFF",
"`. c #F4F9FD",
"'. c #F5FCFF",
"]. c #F5FDFF",
"[. c #F7FDFF",
"{. c #F6FEFF",
"}. c #F7FEFF",
"|. c #F8F7F7",
" X c #FCF8F3",
".X c #FFFAF3",
"XX c #FFFFF3",
"oX c #FFFFF4",
"OX c #F9FAFA",
"+X c #F9FAFB",
"@X c #FAFBFE",
"#X c #F8FDFF",
"$X c #F9FDFF",
"%X c #F8FFFF",
"&X c #F9FEFF",
"*X c #FAFEFF",
"=X c #FAFFFF",
"-X c #FBFFFF",
";X c #FEFBF9",
":X c #FEFCFA",
">X c #FFFFF9",
",X c #FFFFFA",
"<X c #FCFFFF",
"1X c #FDFEFF",
"2X c #FDFFFF",
"3X c #FFFFFC",
"4X c #FFFFFD",
"5X c #FEFFFF",
"6X c gray100",
"7X c None",
/* pixels */
"7X7X7X7X7X7X7X7X7X7X7X7X7X7X7X7X7X7X7X7X7X7X7X7X7X7X7X7X7X7X7X7X",
"7X7X7X7X7X7X7X7X7X7X7X7X7X7XW Z U ~.7X7X7X7X7X7X7X7X7X7X7X7X7X7X",
"7X7X7X7X7X7X7X7X7X7X7X6X6X/ 9.e./ E $.6X7X7X7X7X7X7X7X7X7X7X7X7X",
"7X7X7X7X7X7X7X7X7X6XS ! E 9.Y.T.C.r.W Y 6X7X7X7X7X7X7X7X7X7X7X7X",
"7X7X7X7X7X7X7X7XL.! 7.P.l.r.o.4.4.,.k.S A 6X7X7X7X7X7X7X7X7X7X7X",
"7X7X7X7X7X7X7X7X$.$.+X!.-.-.J.[.=XL.>.i.n S XX7X7X7X7X7X7X7X7X7X",
"7X7X7X7X7X7X7XY.F h.OXB x.[.=X6X6X=XG.x.B.@.i.6X7X7X7X7X7X7X7X7X",
"7X7X7X7X7X7X7X/ q.l.} 5.[.6X6X6X6X6X6X6X6X[.1.a.7X7X7X7X7X7X7X7X",
"7X7X7X7X7X7X7X/ / j x.=X6X6X6X6X6X6X6X6X6X6XG.<.6X7X7X7X7X7X7X7X",
"7X7X7X7X7X7X7X6Xj w ).6X6X6X6X6X6X6X6X6X6X6X/.1.M.7X7X7X7X7X7X7X",
"7X7X7X7X7X7X7X7XP.n K.=X6X6X6X6X6X6X6X6X6X6X=XB.] 7X7X7X7X7X7X7X",
"7X7X7X7X7X7X7X7X6XZ J ).[.L.(.=X=X=XG.M.G.M.G.,.i.7X7X7X7X7X7X7X",
"7X7X7X7X7X7X7X7X6X' @ w } b p v.B.X.I z L n N *.6X7X7X7X7X7X7X7X",
"7X7X7X7X7X7X7X7X@.8 O = e k e.1 + p u d.f ` XX6X7X7X7X7X7X7X7X7X",
"7X7X7X7X7X7X7X7X>X0 . t 6 P , q B a i C.; # 0 f.7X7X7X7X7X7X7X7X",
"7X7X7X7X7X7X7X..: m q.u > { $.9 < ) ,.; q.o * 6.7X7X7X7X7X7X7X7X",
"7X7X7X7X7X7X7X[ s M ;.g   3 U.- X &  .$ p.v H Q.7X7X7X7X7X7X7X7X",
"7X7X7X7X7X7X7X6X=X; P o.t  .~.` 2 B !.% l >X6X6X7X7X7X7X7X7X7X7X",
"7X7X7X7X7X7X7X7Xc.d.>X6X6XT.7X>X X>XXXP.Y.7X7X7X7X7X7X7X7X7X7X7X",
"7X7X7X7X7X7X7X7X7X7X7X7X7X7X7X7X7X7X7X7X7X7X7X7X7X7X7X7X7X7X7X7X"
};
