/* XPM */
static char *26-scaled[] = {
/* columns rows colors chars-per-pixel */
"18 11 89 1",
"  c #000200020002",
". c #02660266025F",
"X c #040004000400",
"o c #0B7B0B6F0BA0",
"O c #0DAA0DA30DC0",
"+ c #0E450E450E44",
"@ c #0F600F600F51",
"# c #23C0238B23EC",
"$ c #23BB25F925F9",
"% c #2CCD2CCD2CCD",
"& c #34673467347B",
"* c #40073FDE4012",
"= c #4D984D904D90",
"- c #523A51EA5262",
"; c #665366206620",
": c #681A681A681A",
"> c #685E6893684A",
", c #69C96A1069A9",
"< c #717B717B7157",
"1 c #7D5D7D5D7D16",
"2 c #802C7FE67FF9",
"3 c #8606885E894D",
"4 c #955595879722",
"5 c #B565B4F9B651",
"6 c #B55BC46AC48A",
"7 c #C077C7ECC7EC",
"8 c #C722CDBECD4B",
"9 c #C9A9D0B0D069",
"0 c #CA72CEE9CEE9",
"q c #CA87CFC4CFE7",
"w c #C1A8D7E9D7ED",
"e c #CFC8D144D144",
"r c #CF3ED229D1D0",
"t c #CEDCD36AD409",
"y c #CFC3DEA2DEFD",
"u c #D3B4D327D3CD",
"i c #D25AD58AD4EA",
"p c #D293DE2BDEA7",
"a c #D2C0DF76DF4A",
"s c #D89ED959D959",
"d c #E061E02EE05B",
"f c #D651E20DE1A7",
"g c #D6DDE2CCE272",
"h c #DA91E2D2E2D4",
"j c #D9BBE374E331",
"k c #D941E453E4B4",
"l c #DA31E359E487",
"z c #DBE0E307E4BF",
"x c #DB9EE457E663",
"c c #DEBFE1AEE441",
"v c #E176E6B6E85B",
"b c #E341E857E8BC",
"n c #E560E4BEE4B4",
"m c #E657E5FEE63D",
"M c #E661E6B9E8E2",
"N c #E7A0E7A0E720",
"B c #E4B8EA2DEB66",
"V c #E8C8EB17EB1D",
"C c #E928E928E8E8",
"Z c #EA4EE987EC94",
"A c #EB19EAA9EAAD",
"S c #EC4BEC4BEC38",
"D c #ED1BEC78ED69",
"F c #ED13ED0BEF95",
"G c #ED9DED72F030",
"H c #EE4DEDBFEF35",
"J c #EEB9EE69EF7E",
"K c #EF17EEFCEF21",
"L c #ED73ED73F0F6",
"P c #EE25EDDDF0F8",
"I c #EE6EEE2DF1F1",
"U c #F191F18AF332",
"Y c #F1E9F18EF427",
"T c #F1D9F189F5E0",
"R c #F24BF228F58B",
"E c #F426F3ACF4FD",
"W c #F4B4F4B4F799",
"Q c #F690F690F98C",
"! c #F6ADF6ADFA4D",
"~ c #F7FCF7E1FAD5",
"^ c #F8AFF87EF9BB",
"/ c #FABCFA82FC0A",
"( c #FBE1FB9BFCE2",
") c #FD95FD6DFE76",
"_ c #FE57FE57FEB8",
"` c #FEDEFEDEFF8B",
"' c #FF65FF65FFA1",
"] c gray100",
"[ c None",
/* pixels */
"[[[[[[[=;:O[[[[[[[",
"[[[[[=<mHCu5[[[[[[",
"[[[ 1mHHRIHd,[[[[[",
"[[[@SER~]]EGM, [[[",
"[[[@CGQ]]]]]QRO[[[",
"[[[@CG]]]]]]]G-[[[",
"[[[ 3A~//]/~WZ4[[[",
"[[[[&ahMBxxxxn=O[[",
"[[[$6wpffppjks#o[[",
"[[[3q8qt7u0tr%[[[[",
"[[[[[[[[[[[[[[[[[["
};
