/* XPM */
static char *26[] = {
/* columns rows colors chars-per-pixel */
"32 20 192 2",
"   c #A0BCBC",
".  c #A7C0BF",
"X  c #ABC4C4",
"o  c #AAC6C6",
"O  c #AEC5C5",
"+  c #A8CAC9",
"@  c #B2CBCA",
"#  c #B7CECE",
"$  c #BACACA",
"%  c #B3D0CF",
"&  c #B7D6D6",
"*  c #B9D5D5",
"=  c #BFD2D2",
"-  c #BFD6D6",
";  c #BFD7D7",
":  c #C0D6D6",
">  c #C7D6D6",
",  c #C8DADA",
"<  c #C9DEDE",
"1  c #D6D9D9",
"2  c #D8D8D8",
"3  c #D8DEDE",
"4  c #D8DFDF",
"5  c #DDDCDC",
"6  c #DDDDDE",
"7  c #DFDFDF",
"8  c #DFDFE0",
"9  c #DFDFE3",
"0  c #CBE0E0",
"q  c #CDE2E1",
"w  c #CEFFFF",
"e  c #D1E0E0",
"r  c #D1E5E5",
"t  c #D2E5E5",
"y  c #D6E0E0",
"u  c #D8E0E0",
"i  c #D8E1E1",
"p  c #D9E0E0",
"a  c #DBE7E7",
"s  c #DFE3E3",
"d  c #DDE2E4",
"f  c #DDE7E7",
"g  c #DFE4E5",
"h  c #D8E9E9",
"j  c #D8EAE9",
"k  c #DAEAEA",
"l  c #DEEBEB",
"z  c #E0D9DA",
"x  c gray88",
"c  c #E1E1E1",
"v  c #E2E1E2",
"b  c #E2E2E2",
"n  c gray89",
"m  c #E3E2E6",
"M  c #E2E6E7",
"N  c #E3E6E7",
"B  c #E4E4E4",
"V  c #E4E4E5",
"C  c #E5E4E5",
"Z  c gray90",
"A  c #E6E5E5",
"S  c #E6E5E6",
"D  c #E6E6E6",
"F  c #E7E6E6",
"G  c #E7E7E7",
"H  c #E0E7E9",
"J  c #E2E6E9",
"K  c #E3E7E9",
"L  c #E4E4E8",
"P  c #E5E4E9",
"I  c #E6E5E8",
"U  c #E7E7E8",
"Y  c #E6E6EB",
"T  c #E7E7EA",
"R  c #E7E7EC",
"E  c #E7E7ED",
"W  c #E1E9E9",
"Q  c #E3E9E9",
"!  c #E0EDED",
"~  c #E6EFEF",
"^  c #E8E5E5",
"/  c #E8E4E6",
"(  c #EBE7E7",
")  c #E8E7E8",
"_  c #E8E8E6",
"`  c #E9E8E8",
"'  c #E9E9E8",
"]  c #EAE8E8",
"[  c #EAE9E9",
"{  c #EAEAEB",
"}  c #EBEAEA",
"|  c #EBEAEB",
" . c #EBEBEA",
".. c #E8E8EC",
"X. c #E8E9EC",
"o. c #E9E8ED",
"O. c #E9E9ED",
"+. c #E9E9EE",
"@. c #EBEBEC",
"#. c #EAEAEF",
"$. c #EBEBEF",
"%. c #E9ECED",
"&. c #ECE9E9",
"*. c #EEEAEA",
"=. c gray93",
"-. c #ECECEF",
";. c #EDECEF",
":. c #EDEEEC",
">. c #EDEEEE",
",. c #EFEEEF",
"<. c #EAEAF1",
"1. c #ECECF0",
"2. c #ECECF1",
"3. c #ECEDF0",
"4. c #EDEDF0",
"5. c #EDEDF2",
"6. c #EDEDF3",
"7. c #EEEEF0",
"8. c #EEEEF1",
"9. c #EEEEF3",
"0. c #EFEEF2",
"q. c #EEEEF4",
"w. c #EFEFF4",
"e. c #E9F4F4",
"r. c #F1EBEB",
"t. c #F1EFF3",
"y. c gray94",
"u. c #F1F1F0",
"i. c #F1F1F1",
"p. c #F1F1F2",
"a. c #F3F1F1",
"s. c #F2F1F2",
"d. c #F3F3F1",
"f. c gray95",
"g. c #F2F3F2",
"h. c #F1F1F5",
"j. c #F3F2F5",
"k. c #F1F7F7",
"l. c #F5F1F1",
"z. c #F4F3F4",
"x. c #F4F3F7",
"c. c #F4F4F3",
"v. c #F4F4F5",
"b. c gray96",
"n. c #F5F5F7",
"m. c #F6F5F5",
"M. c #F6F6F6",
"N. c #F6F7F7",
"B. c #F7F6F6",
"V. c gray97",
"C. c #F4F4F8",
"Z. c #F4F4F9",
"A. c #F5F5F9",
"S. c #F6F6F9",
"D. c #F6F7F8",
"F. c #F7F6F8",
"G. c #F6F6FA",
"H. c #F7F7FA",
"J. c #F7F7FB",
"K. c #F7FDFC",
"L. c #F8F4F4",
"P. c #F8F6F4",
"I. c #F8F6F6",
"U. c #F8F7F7",
"Y. c #FEF7F7",
"T. c #F9F9F8",
"R. c #F9FAF8",
"E. c #FBF9F9",
"W. c #FAFAF9",
"Q. c #FBFBFB",
"!. c #FAFAFC",
"~. c #FAFAFD",
"^. c #FBFBFC",
"/. c #FBFBFD",
"(. c #FDF8F8",
"). c #FEF8F9",
"_. c #FCFBFE",
"`. c gray99",
"'. c #FCFCFD",
"]. c #FDFDFD",
"[. c #FCFCFE",
"{. c #FDFCFF",
"}. c #FDFDFE",
"|. c #FDFDFF",
" X c #FFFFFC",
".X c #FEFEFE",
"XX c #FEFEFF",
"oX c #FEFFFE",
"OX c #FFFEFE",
"+X c #FFFFFE",
"@X c gray100",
"#X c None",
/* pixels */
"#X#X#X#X#X#X#X#X#X#X#X#X#X#X#X#X#X#X#X#X#X#X#X#X#X#X#X#X#X#X#X#X",
"#X#X#X#X#X#X#X#X#X#X#X#X#X@XF 7 7 y.#X#X#X#X#X#X#X#X#X#X#X#X#X#X",
"#X#X#X#X#X#X#X#X#X#X#X#XW.F F  ._ A x x.@X#X#X#X#X#X#X#X#X#X#X#X",
"#X#X#X#X#X#X#X#X#Xy.n 7 n F j.x.x. .A F x.#X#X#X#X#X#X#X#X#X#X#X",
"#X#X#X#X#X#X#X#X .n F u.y.y.5.5.5.,.j._ n >.#X#X#X#X#X#X#X#X#X#X",
"#X#X#X#X#X#X#X@Xn F ~.Q.5.,.x.~.`.C.5.y.F 7 d.#X#X#X#X#X#X#X#X#X",
"#X#X#X#X#X#X#Xy.n j.@XE j.@X@X@X@X@XC.5.5.L X.R.#X#X#X#X#X#X#X#X",
"#X#X#X#X#X#X#Xn  .V.@.5.~.@X@X@X@X@X@X`.`.~.<.5. X#X#X#X#X#X#X#X",
"#X#X#X#X#X#X#Xn  .L 9.~.@X@X@X@X@X@X@X@X@X@XJ.E d.#X#X#X#X#X#X#X",
"#X#X#X#X#X#X#X .2 m ~.@X@X@X@X@X@X@X@X@X@X@X@X2.,.#X#X#X#X#X#X#X",
"#X#X#X#X#X#X#X@X7 R @X@X@X@X@X@X@X@X@X@X@X@X@XC.R ,.#X#X#X#X#X#X",
"#X#X#X#X#X#X#X#X,.m x.~.@X@X@X@X@X@X@X`.@X`.`.J.R E #X#X#X#X#X#X",
"#X#X#X#X#X#X#X#XW.) L C.J.j.F.~.~.@Xx.5.y.<.E R  .R.#X#X#X#X#X#X",
"#X#X#X#X#X#X#X#X#XK.>.d K  .9 e.5.M m L K @.F M d.#X#X#X#X#X#X#X",
"#X#X#X#X#X#X#X#X8 # < + _ q . Y.;   5 # @ x.& > Y.#Xx.#X#X#X#X#X",
"#X#X#X#X#X#X#X0 t ; ; d r y  .r y d j 4  .h 3 F @X#X#X#X#X#X#X#X",
"#X#X#X#X#X#Xe.: , & 1 ~ O &.! X r.h O V.l $ Q.@X#X#X#X#X#X#X#X#X",
"#X#X#X#X#X#Xj.y.u.F d.K _ V.3 ^ R.3 *.V.K &.@X#X#X#X#X#X#X#X#X#X",
"#X#X#X#X#X#X#X#X#X#X#X#X#X#X#X#X#X#X#X#X#X#X#X#X#X#X#X#X#X#X#X#X",
"#X#X#X#X#X#X#X#X#X#X#X#X#X#X#X#X#X#X#X#X#X#X#X#X#X#X#X#X#X#X#X#X"
};
