/* XPM */
static char *29-scaled[] = {
/* columns rows colors chars-per-pixel */
"18 11 98 2",
"   c black",
".  c #0264025F025D",
"X  c #0737074F074F",
"o  c #09B409BD09BF",
"O  c #09A20AD00ACB",
"+  c #0D9E0D9E0DA1",
"@  c #0DD40E5A0E9E",
"#  c #0E820ED70F29",
"$  c #342E35153515",
"%  c #35E936433659",
"&  c #3AF43C3A3C3A",
"*  c #436647114711",
"=  c #4904489A4835",
"-  c #550B54075407",
";  c #583E583E5865",
":  c #5AC15A2D5A4D",
">  c #5E8F60416186",
",  c #6186626D62AE",
"<  c #69FE6A5C6A5C",
"1  c #6AD069E969A8",
"2  c #6B356C976C97",
"3  c #6D946B2E6B2E",
"4  c #701F6E6D6E6D",
"5  c #6F3C6F426EE8",
"6  c #6E88747A7670",
"7  c #7892777D773D",
"8  c #7BE278FF78EC",
"9  c #7C6A7E317E31",
"0  c #8FF68F958FF6",
"q  c #9BDB9D9D9E1E",
"w  c #B5BDBA6FBE61",
"e  c #B98CBAB4BBB8",
"r  c #BEB1BF32BF58",
"t  c #AFFCC3C3C4B1",
"y  c #C033C33CC5F2",
"u  c #BC82CBACCDC0",
"i  c #B6D0DE18DE49",
"p  c #BDDBDB46DB2E",
"a  c #CFC8CF2FCF84",
"s  c #C0DFCF53D3B0",
"d  c #C320D199D51F",
"f  c #C142D751D6EC",
"g  c #C249D7E1D93C",
"h  c #C7EDDA82DB69",
"j  c #C637DB2EDD8C",
"k  c #C899DCC8DDCA",
"l  c #C7D5DE49DEE7",
"z  c #C9AFD229D66C",
"x  c #C9C3DD38DD74",
"c  c #CE02DCBBDE4A",
"v  c #CE9BE002E034",
"b  c #D460D7C2D7DB",
"n  c #D5B9D63CD652",
"m  c #D116DAAFDC52",
"M  c #D31ADC02DCC6",
"N  c #D218DF99E047",
"B  c #D369DDB6DDF8",
"V  c #D59BDB01DBB4",
"C  c #D985DA8FDAFB",
"Z  c #DFD2DF38DF85",
"A  c #D60FE01FE206",
"S  c #D6F2DF25E169",
"D  c #D578E126E20C",
"F  c #D82EE2D2E336",
"G  c #DCADE520E553",
"H  c #E02EE1BEE212",
"J  c #DECBE2F4E6AB",
"K  c #DB41E39AE98D",
"L  c #DB9BE6E6EFEF",
"P  c #E039E7E8EDBE",
"I  c #E06BE87CEDF4",
"U  c #E1FCE282E249",
"Y  c #E220E55BE9B4",
"T  c #E0F8E80FEC13",
"R  c #E1DBE7C7ED9E",
"E  c #E298E8BBEDA3",
"W  c #E248E894EEAE",
"Q  c #E27AE8EFEE63",
"!  c #E8D3EABFEB49",
"~  c #E9E7EAB3EAC1",
"^  c #E4B2ED6DF135",
"/  c #E5B6EC80F1E8",
"(  c #E64BEC95F11D",
")  c #E740F096F545",
"_  c #E801F05DF615",
"`  c #F04FEFBEF0FC",
"'  c #EBA1F29BF807",
"]  c #F0C9F867FAD3",
"[  c #F078F7BCFB37",
"{  c #F387FABCFD70",
"}  c #F9D9FC03FE05",
"|  c #FABFFDE3FECF",
" . c #FD7EFF78FFFF",
".. c #FD5CFFFFFFFF",
"X. c #FF04FF9FFFFF",
"o. c #FF1EFFFFFFFF",
"O. c gray100",
"+. c None",
/* pixels */
"+.+.+.+.+.+.+.* , 2 @ +.+.+.+.+.+.+.",
"+.+.+.+.+.9 n C ~ U a % +.+.+.+.+.+.",
"+.+.+.+.: U ! T ' ^ J e = +.+.+.+.+.",
"+.+.+.o r ~ P [ O.} _ W w ; +.+.+.+.",
"+.+.+.@ Z K { O.O.O.O.O.' y o +.+.+.",
"+.+.+.X q T O.O.O.O.O.O.} L @ +.+.+.",
"+.+.+.+.7 z ^ ^ ] [ W W W Q @ +.+.+.",
"+.+.+.+.6 i u m s d D D G 0   +.+.+.",
"+.+.+.o t c g F j x N x p 8 +.+.+.+.",
"+.+.+.@ V D x m h f v B b 2 +.+.+.+.",
"+.+.+.+.% < 4 , & 3 < - +.+.+.+.+.+."
};
