/* XPM */
static char *29[] = {
/* columns rows colors chars-per-pixel */
"32 20 214 2",
"   c #A1BABE",
".  c #ACB9BC",
"X  c #B3B6B7",
"o  c #A7BCC3",
"O  c #B8BEC0",
"+  c #A0CBCB",
"@  c #ABC5C5",
"#  c #AEC5C8",
"$  c #ADC9CC",
"%  c #A3D0D0",
"&  c #ABD5D5",
"*  c #ACD6D3",
"=  c #B2C7C8",
"-  c #B7C9CA",
";  c #B7CBCC",
":  c #B6CDCD",
">  c #B7CCCD",
",  c #BED0CF",
"<  c #B1D4D3",
"1  c #B6D2D2",
"2  c #B2DFDF",
"3  c #BFD6D7",
"4  c #BBD7D9",
"5  c #BEDCDD",
"6  c #A5E2E2",
"7  c #A8E1E1",
"8  c #ADE0E0",
"9  c #B2E2E5",
"0  c #BDEEEF",
"q  c #C0C7CF",
"w  c #C5C6CD",
"e  c #CACFCE",
"r  c #C4CAD2",
"t  c #C9CDD2",
"y  c #CCCFD3",
"u  c #C1D4D4",
"i  c #C1D5D5",
"p  c #C0D6D7",
"a  c #C2D6D7",
"s  c #C7D8D7",
"d  c #C3D8D9",
"f  c #C8D1D1",
"g  c #C8D1D2",
"h  c #C8D4D4",
"j  c #C9D4D7",
"k  c #CCD0D7",
"l  c #C9D3DC",
"z  c #CCD4DB",
"x  c #CED5D9",
"c  c #CCD7DF",
"v  c #CDD8D7",
"b  c #C8DADA",
"n  c #CCDCDC",
"m  c #CCDDDE",
"M  c #CCDFDF",
"N  c #D0D1D1",
"B  c #D0D0D3",
"V  c gray83",
"C  c #D4D5D6",
"Z  c #D7D6D6",
"A  c #D2D5DB",
"S  c #D2D7D8",
"D  c #D1D8D7",
"F  c #D3DDDE",
"G  c #D5D9DA",
"H  c #D7D9DA",
"J  c #D7DADA",
"K  c #D6DCDC",
"L  c #D7DCDC",
"P  c #D9D7D8",
"I  c #D9D9D7",
"U  c #D8DADA",
"Y  c #D9DBDB",
"T  c #DAD8D8",
"R  c #DBDCDC",
"E  c #DBDEDE",
"W  c gainsboro",
"Q  c #DCDDDD",
"!  c #DDDDDC",
"~  c #DDDFDE",
"^  c gray87",
"/  c #C4DEE3",
"(  c #CBD7E1",
")  c #CDD9E4",
"_  c #CFDBE4",
"`  c #D0D9E0",
"'  c #D1DBE2",
"]  c #D5DCE5",
"[  c #D0DEE9",
"{  c #D4DFE8",
"}  c #D5DFE8",
"|  c #D5DFE9",
" . c #DCDEE4",
".. c #CDE9E8",
"X. c #CFEBEB",
"o. c #D7E2EC",
"O. c #D5E4EA",
"+. c #DBE2E2",
"@. c #D8E4E6",
"#. c #D9E7E7",
"$. c #DBE7E7",
"%. c #DCE0E0",
"&. c #DCE3E3",
"*. c #DEE3E2",
"=. c #DFE2E6",
"-. c #D9E2EC",
";. c #D9E3EC",
":. c #D8E4EE",
">. c #DBE6EF",
",. c #DDE6EF",
"<. c #DEE7EF",
"1. c #DAE8E8",
"2. c #DBE9E8",
"3. c #DBE8F1",
"4. c #DDE8F2",
"5. c #E0DEDE",
"6. c gray88",
"7. c #E2E3E3",
"8. c #E1E4E6",
"9. c #E3E5E5",
"0. c #E3E7E7",
"q. c gray90",
"w. c #E4E6E7",
"e. c #E7E4E4",
"r. c #E7E4E5",
"t. c #E7E5E6",
"y. c #E1E7EB",
"u. c #E7E7E8",
"i. c #E5EAEA",
"p. c #E6E9E9",
"a. c #E7E9EA",
"s. c #E6EAEA",
"d. c #E7EBEB",
"f. c #E5E9EF",
"g. c #E8E4E3",
"h. c #E9E7E6",
"j. c #E9E9E9",
"k. c #EAE9E9",
"l. c #E8EDED",
"z. c #EAECEC",
"x. c #ECE8E8",
"c. c #EDE9E9",
"v. c #ECEBEB",
"b. c #EDECEC",
"n. c #EDEDEF",
"m. c #ECEFEF",
"M. c #EEEDED",
"N. c #EFEDEC",
"B. c #E0ECF5",
"V. c #E4EDF4",
"C. c #E4EFF6",
"Z. c #E6EFF5",
"A. c #E5EFF8",
"S. c #E9EDF1",
"D. c #EAEEF0",
"F. c #E6F1F1",
"G. c #E4F0F8",
"H. c #E7F1F8",
"J. c #EAF2F2",
"K. c #EEF1F1",
"L. c #E8F1F9",
"P. c #E9F3F9",
"I. c #EAF5FC",
"U. c #ECF5FB",
"Y. c #EDF5FC",
"T. c #ECF6FC",
"R. c #EDF7FC",
"E. c #EEFAFF",
"W. c #F6EEEE",
"Q. c #F0F0EF",
"!. c #F7F0EF",
"~. c #F0F1F3",
"^. c #F0F4F4",
"/. c #F0F5F5",
"(. c #F2F4F5",
"). c #F2F4F7",
"_. c #F5F2F0",
"`. c #F4F4F4",
"'. c #F1F6FB",
"]. c #F1F7FD",
"[. c #F1FBFF",
"{. c #F2FAFF",
"}. c #F7F9F9",
"|. c #F5FBFF",
" X c #F4FCFF",
".X c #F8F2F1",
"XX c #F9F6F6",
"oX c #FBF4F4",
"OX c #FFF4F4",
"+X c #FEF7F5",
"@X c #FFF7F7",
"#X c #FAF7F8",
"$X c #F9FDFD",
"%X c #F8FDFF",
"&X c #F9FDFF",
"*X c #F8FFFF",
"=X c #F9FEFF",
"-X c #F9FFFF",
";X c #FAFDFF",
":X c #FAFEFE",
">X c #FAFEFF",
",X c #FAFFFF",
"<X c #FBFFFF",
"1X c #FFFAFB",
"2X c #FFFBFA",
"3X c #FEFCFB",
"4X c #FCFEFF",
"5X c #FCFFFF",
"6X c #FDFEFF",
"7X c #FDFFFF",
"8X c #FEFFFF",
"9X c #FFFEFE",
"0X c gray100",
"qX c None",
/* pixels */
"qXqXqXqXqXqXqXqXqXqXqXqXqXqXqXqXqXqXqXqXqXqXqXqXqXqXqXqXqXqXqXqX",
"qXqXqXqXqXqXqXqXqXqXqXqXqX#.Y H q.*XqXqXqXqXqXqXqXqXqXqXqXqXqXqX",
"qXqXqXqXqXqXqXqXqXqX0X0X7.H q.j.! C 5.0XqXqXqXqXqXqXqXqXqXqXqXqX",
"qXqXqXqXqXqXqXqXqX+.J ^ H x.`.K.m.g.P G qXqXqXqXqXqXqXqXqXqXqXqX",
"qXqXqXqXqXqXqXqXe.H j.K.N. .O.B.>.<.m.k I 3XqXqXqXqXqXqXqXqXqXqX",
"qXqXqXqXqXqXqXqXH j.0Xp.| ,.|.*X0XC.;.=.y I qXqXqXqXqXqXqXqXqXqX",
"qXqXqXqXqXqXqX7.^ 1Xu.( E.*X0X0X0X*XC.G.Z.] y.0XqXqXqXqXqXqXqXqX",
"qXqXqXqXqXqXqX^ M.w.[ U.*X0X0X0X0X0X0X0X0X{.>.n.qXqXqXqXqXqXqXqX",
"qXqXqXqXqXqXqX^ P l E.*X0X0X0X0X0X0X0X0X0X0XV.V.0XqXqXqXqXqXqXqX",
"qXqXqXqXqXqXqXp.X ' 0X0X0X0X0X0X0X0X0X0X0X0X'.3.Z.qXqXqXqXqXqXqX",
"qXqXqXqXqXqXqXqXC ' *X*X0X0X0X0X0X0X0X0X0X0X0X4.) qXqXqXqXqXqXqX",
"qXqXqXqXqXqXqXqXg.w Z.*X*X|.*X*X*X*XR.'.U.L.R.;.;.qXqXqXqXqXqXqX",
"qXqXqXqXqXqXqXqX0X- . _ ] r ' [.R.] k r A y z =.3XqXqXqXqXqXqXqX",
"qXqXqXqXqXqXqXqXO.0 * X 3 ~ k o   x m _.2.+._.0XqXqXqXqXqXqXqXqX",
"qXqXqXqXqXqXqXqX@.2 & x ; p.< e G 3 t *X$ = ..#XqXqXqXqXqXqXqXqX",
"qXqXqXqXqXqXqX..4 G t d s (.j / 5 g.2.3 F 6 1 W.qXqXqXqXqXqXqXqX",
"qXqXqXqXqXqXqXm j J.(.8 % J m.9 7 , m ; K.3 D _.qXqXqXqXqXqXqXqX",
"qXqXqXqXqXqXqXOX$.# =.b ; r.l.3 @ ~ F.+ %.1X0X}.qXqXqXqXqXqXqXqX",
"qXqXqXqXqXqXqXqXd.g.`.@Xm.'.qXl.x.oXK.^ x.qXqXqXqXqXqXqXqXqXqXqX",
"qXqXqXqXqXqXqXqXqXqXqXqXqXqXqXqXqXqXqXqXqXqXqXqXqXqXqXqXqXqXqXqX"
};
