/* XPM */
static char *30-scaled[] = {
/* columns rows colors chars-per-pixel */
"18 11 92 1",
"  c black",
". c #048C00000010",
"X c #07B800B50018",
"o c #0CF101050028",
"O c #0DE201550028",
"+ c #14240000007C",
"@ c #158D00000058",
"# c #177705A60040",
"$ c #19FA00000060",
"% c #19B202460050",
"& c #1B6300000060",
"* c #1C8400000060",
"= c #1E1201150060",
"- c #210900000078",
"; c #22B2000000B5",
": c #2392002D00A6",
"> c #259D00D90081",
", c #27BE013D0080",
"< c #286801C20081",
"1 c #2874025F0081",
"2 c #291903980081",
"3 c #292D02D70081",
"4 c #2A8601BE00D9",
"5 c #292904040081",
"6 c #2EEF032700AD",
"7 c #420006CE00CE",
"8 c #4797057D00E1",
"9 c #6A1911900134",
"0 c #6C3C18380121",
"q c #6C8419590121",
"w c #6D091A6B0121",
"e c #6D8B1B7D0121",
"r c #72AA0DC0019E",
"t c #78BE209501A2",
"y c #891C0A1701B5",
"u c #95DC063901F5",
"i c #9AF404D20202",
"p c #9FCC121F01E8",
"a c #9F10186901CF",
"s c #82F92063017A",
"d c #84DD2B66015B",
"f c #941A225701A1",
"g c #9D0521F701B2",
"h c #99BC2B3101C0",
"j c #90E534FA0134",
"k c #A7ED1E960204",
"l c #AD8C2D3E020D",
"z c #A52040E50179",
"x c #A33A4E240149",
"c c #ADD5460E01DA",
"v c #A2D2584000D9",
"b c #B3FA417501D4",
"n c #B29B46E601F8",
"m c #B22C481B01F8",
"M c #B47544B4019A",
"N c #B61F448F01AD",
"B c #B6B34C290191",
"V c #B5C258AE0122",
"C c #BD8E5639016B",
"Z c #BC375DA60128",
"A c #BD9D5D570128",
"S c #BD8761570153",
"D c #C35F6567010E",
"F c #C40E65C5010E",
"G c #C6F6692900D1",
"H c #CD1367BF0159",
"J c #C91A6F3C0116",
"K c #CDE6768C013E",
"L c #D3537CD000E1",
"P c #CD4D81BD00D8",
"I c #CE0A84C00117",
"U c #CF5A85520112",
"Y c #D0B3923600E8",
"T c #D66992DD00B0",
"R c #D7F295DB00B3",
"E c #DA66A0B800D8",
"W c #E7FAAE2400D4",
"Q c #E33FB40E00A9",
"! c #E544B9AB00A8",
"~ c #E64DBC2B0070",
"^ c #E6E6B9790081",
"/ c #E7A3BFD700C2",
"( c #EBF7B75900CE",
") c #E80EC2ED006B",
"_ c #EBB3CABA00D1",
"` c #F0D7D44C003C",
"' c #F0F0D7D70000",
"] c #F447D6690000",
"[ c #F9C9E0980038",
"{ c #FA46EB370000",
"} c #F960EE350008",
"| c None",
/* pixels */
"||||||||||||||||||",
"||||||||||||||||||",
"|O,-#-$.,-@*---*||",
"|6kbyMhrBZfgSACs||",
"|-nWuQFU)T/NU{Kd||",
"|,m[^}G~n8_vq'q|||",
"|-m(p^FETV]jq]q|||",
"|4lHiJztPTx6kL9|||",
"|O5555*.,,@.44$|||",
"||||||||||||||||||",
"||||||||||||||||||"
};
