/* XPM */
static char *30[] = {
/* columns rows colors chars-per-pixel */
"32 20 167 2",
"   c #6C0003",
".  c #6E0003",
"X  c #710003",
"o  c #730004",
"O  c #7A0002",
"+  c #7F0003",
"@  c #7F0303",
"#  c #880002",
"$  c #890003",
"%  c #8A0002",
"&  c #8A0003",
"*  c #8B0003",
"=  c #8C0002",
"-  c #8C0003",
";  c #8D0002",
":  c #8E0002",
">  c #8F0002",
",  c #910002",
"<  c #920002",
"1  c #940002",
"2  c #950002",
"3  c #960002",
"4  c #920902",
"5  c #980002",
"6  c #990002",
"7  c #990102",
"8  c #9A0002",
"9  c #9B0002",
"0  c #9C0002",
"q  c #9C0602",
"w  c #9F0402",
"e  c #9E0602",
"r  c #9F0B02",
"t  c #A00402",
"y  c #A10802",
"u  c #A10902",
"i  c #A00B02",
"p  c #A20902",
"a  c #A20A02",
"s  c #A30C02",
"d  c #A30D02",
"f  c #A50D02",
"g  c #A40F02",
"h  c #A41102",
"j  c #A51102",
"k  c #A41202",
"l  c #A41302",
"z  c #A51202",
"x  c #A51502",
"c  c #A61402",
"v  c #A61502",
"b  c #A61602",
"n  c #A61702",
"m  c #A71902",
"M  c #A51C02",
"N  c #A81902",
"B  c #AB1B02",
"V  c #B11102",
"C  c #AB2102",
"Z  c #AA2202",
"A  c #AB2202",
"S  c #AF2502",
"D  c #AE2802",
"F  c #AE2A01",
"G  c #AE2C02",
"H  c #B22A02",
"J  c #B02F02",
"K  c #BB2D02",
"L  c #B13102",
"P  c #B23302",
"I  c #B53202",
"U  c #B63302",
"Y  c #B53502",
"T  c #B53602",
"R  c #B43901",
"E  c #B53A02",
"W  c #B84002",
"Q  c #B84201",
"!  c #B84401",
"~  c #B94602",
"^  c #BC4302",
"/  c #BE4502",
"(  c #BA4B01",
")  c #BC4E02",
"_  c #BD5201",
"`  c #BD5202",
"'  c #BF5601",
"]  c #C75702",
"[  c #C25F01",
"{  c #C75A02",
"}  c #C76201",
"|  c #C46401",
" . c #C46501",
".. c #C56601",
"X. c #C76601",
"o. c #C66802",
"O. c #C76C01",
"+. c #C86102",
"@. c #C86B01",
"#. c #C86F01",
"$. c #CB7501",
"%. c #CD7701",
"&. c #CE7A01",
"*. c #CE7D01",
"=. c #CE7E01",
"-. c #D77F01",
";. c #D48C01",
":. c #D59001",
">. c #D59101",
",. c #D79301",
"<. c #D79701",
"1. c #D99B01",
"2. c #DA9801",
"3. c #DCA301",
"4. c #DFAC01",
"5. c #E19B01",
"6. c #E3A001",
"7. c #E2A600",
"8. c #E7A201",
"9. c #E4A400",
"0. c #E4AB01",
"q. c #EEAB01",
"w. c #E2B201",
"e. c #E6BC00",
"r. c #E9C601",
"t. c #ECCB00",
"y. c #EDCF00",
"u. c #EDD000",
"i. c #EED100",
"p. c #EFD600",
"a. c #EFD601",
"s. c #FACB01",
"d. c #F2D000",
"f. c #F0D600",
"g. c #F0D700",
"h. c #F1D600",
"j. c #F3D500",
"k. c #F4D600",
"l. c #F6D500",
"z. c #F1D900",
"x. c #F2D900",
"c. c #F3DB00",
"v. c #F4DC00",
"b. c #F6DD00",
"n. c #FADE00",
"m. c #FCDF00",
"M. c #FFDE00",
"N. c #F5E500",
"B. c #F5E501",
"V. c #F6E700",
"C. c #FFE101",
"Z. c #FFE500",
"A. c #F9EE00",
"S. c #F9EF00",
"D. c #FFEB00",
"F. c #F9F000",
"G. c #FDF200",
"H. c #FCF500",
"J. c #FDF700",
"K. c #FDFA00",
"L. c #FFF900",
"P. c #FEFA00",
"I. c #FEFB00",
"U. c #FFFD00",
"Y. c yellow",
"T. c gray100",
"R. c None",
/* pixels */
"R.R.R.R.R.R.R.R.R.R.R.R.R.R.R.R.R.R.R.R.R.R.R.R.R.R.R.R.R.R.R.R.",
"R.R.R.R.R.R.R.R.R.R.R.R.R.R.R.R.R.R.R.R.R.R.R.R.R.R.R.R.R.R.R.R.",
"R.R.R.R.R.R.R.R.R.R.R.R.R.R.R.R.R.R.R.R.R.R.R.R.R.R.R.R.R.R.R.R.",
"R.R.R.R.R.R.R.R.R.R.R.R.R.R.R.R.R.R.R.R.R.R.R.R.R.R.R.R.R.R.R.R.",
"R.R.R.R.R.R.R.R.R.R.R.R.R.R.R.R.R.R.R.R.R.R.R.R.R.R.R.R.R.R.R.R.",
"R.R.R.V 9 % : R.K > % % R.R.1 $ % % O R.0 % $ : % % % 1 R.R.R.R.",
"R.R.R.4 B ] ^ q q E O.P @ 9 C  .#.' h 1 C O.O. .} } { S R.R.R.R.",
"R.R.R.  U C.8.1 9 2.Y. .: ) V.Y.Y.Y.r.C P J.Y.Y.Y.D.s./ R.R.R.R.",
"R.R.R.X U M.2.: > ;.Y._ h S.Y. .M :.Y.w.q G G b.b.S D B R.R.R.R.",
"R.R.R.X Y C.d.&.=.y.Y.! ! Y.4.$ R.g B.F.D R.h g.g.g R.R.R.R.R.R.",
"R.R.R.X Y n.L.G.L.Y.Y.Q ' Y.,.% R.a a.H.R R.m g.g.n R.R.R.R.R.R.",
"R.R.R.X Y Z.0.r a 1.Y.( G Y.g.f % R L.j.n R.m j.k.n R.R.R.R.R.R.",
"R.R.R.  U C.8.> 1 ,.Y.[ 1 3.Y.t.:.F.Y.$.% R.m j.k.n R.R.R.R.R.R.",
"R.R.R.@ H q.-.1 9 &.i.' o h =.y.V.e.O.1 R.g n 7.8.h R.R.R.R.R.R.",
"R.R.R.f f t a h g a r t R.R.: q a 0   R.R.g g t a g R.R.R.R.R.R.",
"R.R.R.R.R.R.R.R.R.R.R.R.R.R.R.R.R.R.R.R.R.R.R.R.R.R.R.R.R.R.R.R.",
"R.R.R.R.R.R.R.R.R.R.R.R.R.R.R.R.R.R.R.R.R.R.R.R.R.R.R.R.R.R.R.R.",
"R.R.R.R.R.R.R.R.R.R.R.R.R.R.R.R.R.R.R.R.R.R.R.R.R.R.R.R.R.R.R.R.",
"R.R.R.R.R.R.R.R.R.R.R.R.R.R.R.R.R.R.R.R.R.R.R.R.R.R.R.R.R.R.R.R.",
"R.R.R.R.R.R.R.R.R.R.R.R.R.R.R.R.R.R.R.R.R.R.R.R.R.R.R.R.R.R.R.R."
};
