/* XPM */
static char *31-scaled[] = {
/* columns rows colors chars-per-pixel */
"18 11 114 2",
"   c black",
".  c #0010023E0252",
"X  c #0000085808A9",
"o  c #0000096909E2",
"O  c #000009F60A6E",
"+  c #00000A6E0AD3",
"@  c #00000AC30B87",
"#  c #00000B4B0C2C",
"$  c #00000CE50D5D",
"%  c #00000E460EEF",
"&  c #00000F0F0FD0",
"*  c #000018A91A36",
"=  c #01731C3E1E81",
"-  c #00001E9F200E",
";  c #00001F9120E1",
":  c #00002009215C",
">  c #008021C22303",
",  c #0105223E23B4",
"<  c #013922EB2458",
"1  c #019A2327249C",
"2  c #023A24142561",
"3  c #0272246425A6",
"4  c #0352256C26AE",
"5  c #03F825F62737",
"6  c #03AC267A27BC",
"7  c #022D2CD82DB9",
"8  c #08652855298D",
"9  c #0195350C3718",
"0  c #05473A6C3C36",
"q  c #14713026314B",
"w  c #167630503131",
"e  c #02BF41D14419",
"r  c #00304F3752FB",
"t  c #034B58105B23",
"y  c #0326586E5BD0",
"u  c #1596473F4CC4",
"i  c #13DC5D856292",
"p  c #0C1469E76E43",
"a  c #0E3677DB7C56",
"s  c #1C5A6DE37224",
"d  c #14147B237ED9",
"f  c #1F8777F87C6C",
"g  c #0E7B7E6482BC",
"h  c #145B7D7B816B",
"j  c #14A57FFC83EC",
"k  c #21E27EEB8356",
"l  c #1313857D8B0B",
"z  c #115C97519BE4",
"x  c #162899A69E9A",
"c  c #185B936D9870",
"v  c #2B2D833C8754",
"b  c #212398649D31",
"n  c #2BF799B99E33",
"m  c #2EC798D89D8D",
"M  c #37F685B48927",
"N  c #37C68D5C9098",
"B  c #26E79F1FA424",
"V  c #25FE9FE3A4C3",
"C  c #38AD9E37A312",
"Z  c #25C6A393A8B8",
"A  c #2E8BA267A6CB",
"S  c #2BE5A7ADAC32",
"D  c #2E4EA898ADAD",
"F  c #32F0ACEEB1E7",
"G  c #3415AD55B1DF",
"H  c #3352AF22B401",
"J  c #357AAC91B0F4",
"K  c #35E0B041B51F",
"L  c #3AB2ADD0B21C",
"P  c #4380A0BCA4D7",
"I  c #485BAEB0B28F",
"U  c #41E2B15DB56E",
"Y  c #41CAB3DBB814",
"T  c #54E5AE6EB242",
"R  c #5567B596B9B1",
"E  c #5752B6E5BA77",
"W  c #5DC1B882BC10",
"Q  c #5A0DBAC0BE7E",
"!  c #58C7C8C2CCC7",
"~  c #694DC13DC448",
"^  c #6BC1C368C6A1",
"/  c #63E8D065D490",
"(  c #6480CF09D333",
")  c #6E1CD487D84B",
"_  c #7674C85FCB6B",
"`  c #7465C942CCBD",
"'  c #782BCC3BCF3C",
"]  c #7BA3C87DCBD9",
"[  c #7AA4CC6CCF6C",
"{  c #7F7DCA8BCDAF",
"}  c #7230D319D611",
"|  c #738DD447D7C4",
" . c #736DD64DD903",
".. c #7F3FD514D797",
"X. c #7AACD885DB4E",
"o. c #73CCDE18E208",
"O. c #7C8FDF58E2D8",
"+. c #8566CF7BD250",
"@. c #8734D192D427",
"#. c #8418DC09DF7E",
"$. c #8BEFD2F1D54A",
"%. c #8D66D629D82B",
"&. c #8C2CE4C1E6C3",
"*. c #8DF5E5A5E767",
"=. c #9A92E4ECE696",
"-. c #A050E29AE464",
";. c #9E76E870EA92",
":. c #A44BE7CAE999",
">. c #AAFFE988EB35",
",. c #AD12EB62ECCF",
"<. c #AB7BF221F4DC",
"1. c #B1C5E4DAE672",
"2. c #B2C3E812E971",
"3. c None",
/* pixels */
"3.3.3.3.3.3.3.3.3.3.3.3.3.3.3.3.3.3.",
"3.3.3.3.3.3.3.3.3.3.3.3.3.3.3.3.3.3.",
"3.+ : - & % : - % 6 : +   : - - + 3.",
"0 h H F g h K F a x J 8 e S Y L d 6 ",
"z o./ ! K O.( )  .B *.q y  .X.| #.p ",
"Z *.u r B ;.i f <.D =.q y ..T l :.n ",
"c :.E I U ,.E ~ >.A 2.P n %.[ W 1.s ",
"9 N ' ` k C [ _ v b +.+.^ Q $.{ M = ",
"3.+ 4 1 # * 4 : + 5 5 5 4 4 4 1 + 3.",
"3.3.3.3.3.3.3.3.3.3.3.3.3.3.3.3.3.3.",
"3.3.3.3.3.3.3.3.3.3.3.3.3.3.3.3.3.3."
};
