/* XPM */
static char *31[] = {
/* columns rows colors chars-per-pixel */
"32 20 245 2",
"   c black",
".  c #001A22",
"X  c #001B24",
"o  c #00343B",
"O  c #004C54",
"+  c #005259",
"@  c #005A61",
"#  c #005F64",
"$  c #006269",
"%  c #00656A",
"&  c #006B71",
"*  c #006F75",
"=  c #006F76",
"-  c #007278",
";  c #007379",
":  c #00747A",
">  c #00767C",
",  c #00787E",
"<  c #00797E",
"1  c #00797F",
"2  c #007980",
"3  c #007B81",
"4  c #037B81",
"5  c #007C82",
"6  c #007D82",
"7  c #007D83",
"8  c #007E83",
"9  c #007E84",
"0  c #007F85",
"q  c #008086",
"w  c #008186",
"e  c #008187",
"r  c #008287",
"t  c #008288",
"y  c #008388",
"u  c #008489",
"i  c #00848A",
"p  c #00858A",
"a  c #00868B",
"s  c #00878C",
"d  c #00888D",
"f  c #00898E",
"g  c #00898F",
"h  c #008A8F",
"j  c #008A90",
"k  c #008B90",
"l  c #008B91",
"z  c #018B91",
"x  c #008C92",
"c  c #008D92",
"v  c #068B91",
"b  c #048D92",
"n  c #048F94",
"m  c #068F94",
"M  c #098C91",
"N  c #069095",
"B  c #069297",
"V  c #079297",
"C  c #079298",
"Z  c #089196",
"A  c #0A9196",
"S  c #099496",
"D  c #0A9398",
"F  c #099499",
"G  c #0C959A",
"H  c #0D959A",
"J  c #0D959B",
"K  c #0E969B",
"L  c #0F969B",
"P  c #0F979C",
"I  c #10969B",
"U  c #13979C",
"Y  c #16969B",
"T  c #13989B",
"R  c #12999E",
"E  c #13999E",
"W  c #15989E",
"Q  c #189BA0",
"!  c #1B9BA1",
"~  c #189CA1",
"^  c #199CA1",
"/  c #199DA2",
"(  c #1D9DA2",
")  c #1C9FA4",
"_  c #1BA0A5",
"`  c #1FA1A6",
"'  c #1AA6AB",
"]  c #20A2A6",
"[  c #22A0A5",
"{  c #20A4A9",
"}  c #27A7AC",
"|  c #2DA4A9",
" . c #29A8AD",
".. c #29A9AE",
"X. c #30AAAE",
"o. c #31ABAF",
"O. c #33ABAF",
"+. c #36AAAE",
"@. c #31ACB0",
"#. c #35ABB0",
"$. c #38ADB1",
"%. c #38ADB2",
"&. c #3AADB1",
"*. c #3AADB2",
"=. c #30B0B5",
"-. c #34B2B6",
";. c #3DB2B6",
":. c #3AB5B9",
">. c #3CB5B9",
",. c #3DB6BA",
"<. c #3CBABF",
"1. c #3EB9BE",
"2. c #46B3B8",
"3. c #44B7BB",
"4. c #45B8BC",
"5. c #44BABE",
"6. c #4EB7BB",
"7. c #4BB9BD",
"8. c #51B9BD",
"9. c #55BABE",
"0. c #58BBBE",
"q. c #40BBC0",
"w. c #41BDC2",
"e. c #46BBC0",
"r. c #45BEC3",
"t. c #47BCC0",
"y. c #49BFC3",
"u. c #4ABEC2",
"i. c #4BBFC3",
"p. c #50BDC1",
"a. c #51BFC3",
"s. c #52BCC0",
"d. c #52BFC4",
"f. c #5ABDC0",
"g. c #5BBCC0",
"h. c #50C1C5",
"j. c #50C2C6",
"k. c #57C0C4",
"l. c #57C3C8",
"z. c #54C5C9",
"x. c #5CC1C4",
"c. c #5BC7CB",
"v. c #5CC3C8",
"b. c #5CC5C9",
"n. c #5DCBD0",
"m. c #61C1C5",
"M. c #61C4C8",
"N. c #63C5C8",
"B. c #67C5C8",
"V. c #67CACD",
"C. c #6CC6C9",
"Z. c #63CDD1",
"A. c #61D1D5",
"S. c #6CD0D4",
"D. c #6FD4D7",
"F. c #71C8CB",
"G. c #72CACD",
"H. c #7ECBCE",
"J. c #7FCCCF",
"K. c #7BCCD0",
"L. c #7ACED1",
"P. c #7BCFD2",
"I. c #75DCDF",
"U. c #7CD3D6",
"Y. c #7CD8DB",
"T. c #86D3D7",
"R. c #84D5D8",
"E. c #89D2D4",
"W. c #88D3D6",
"Q. c #8AD2D5",
"!. c #89DBDE",
"~. c #90DADD",
"^. c #9BDBDD",
"/. c #9EDFE2",
"(. c #8CF3F7",
"). c #8FF0F4",
"_. c #8CF4F7",
"`. c #99E1E3",
"'. c #9AE1E4",
"]. c #9CE4E6",
"[. c #92F0F4",
"{. c #93F9FD",
"}. c #99F2F5",
"|. c #98F7FA",
" X c #9FF5F8",
".X c #9BF8FB",
"XX c #9BFCFF",
"oX c #9CFAFE",
"OX c #A1DFE1",
"+X c #A1E2E5",
"@X c #A0E4E7",
"#X c #A5E7E9",
"$X c #A8E3E5",
"%X c #AAE2E4",
"&X c #A9EEF1",
"*X c #A3F0F2",
"=X c #A2F2F5",
"-X c #A6F1F4",
";X c #A7F1F4",
":X c #A6F6F9",
">X c #A1FBFE",
",X c #AEFCFF",
"<X c #AFFDFF",
"1X c #B4EAEC",
"2X c #B4ECEE",
"3X c #BDEAEC",
"4X c #BFEAEC",
"5X c #B7F5F8",
"6X c #B0FCFF",
"7X c #B3FFFF",
"8X c #B4F8F9",
"9X c #B7FBFE",
"0X c #B6FFFF",
"qX c #B9F0F1",
"wX c #BFF1F3",
"eX c #B8FFFF",
"rX c #BEFFFF",
"tX c #BFFFFF",
"yX c #C0EBEC",
"uX c #C1EDEF",
"iX c #C2ECED",
"pX c #C3EFF1",
"aX c #C7F2F3",
"sX c #C3FDFF",
"dX c #C5FFFF",
"fX c #C8F1F2",
"gX c #CAF7F8",
"hX c #CFFEFF",
"jX c #CFFFFF",
"kX c #D0F3F4",
"lX c #D3F3F4",
"zX c #D1FCFD",
"xX c #D1FFFF",
"cX c #D5FFFF",
"vX c #DBFDFD",
"bX c #DCFFFF",
"nX c #DFFFFF",
"mX c #E1FFFF",
"MX c #E7FFFF",
"NX c #E9FFFF",
"BX c #EAFFFF",
"VX c #EFFFFF",
"CX c #F8FFFF",
"ZX c gray100",
"AX c None",
/* pixels */
"AXAXAXAXAXAXAXAXAXAXAXAXAXAXAXAXAXAXAXAXAXAXAXAXAXAXAXAXAXAXAXAX",
"AXAXAXAXAXAXAXAXAXAXAXAXAXAXAXAXAXAXAXAXAXAXAXAXAXAXAXAXAXAXAXAX",
"AXAXAXAXAXAXAXAXAXAXAXAXAXAXAXAXAXAXAXAXAXAXAXAXAXAXAXAXAXAXAXAX",
"AXAXAXAXAXAXAXAXAXAXAXAXAXAXAXAXAXAXAXAXAXAXAXAXAXAXAXAXAXAXAXAX",
"AXAXAXAXAXAXAXAXAXAXAXAXAXAXAXAXAXAXAXAXAXAXAXAXAXAXAXAXAXAXAXAX",
"AXAXAXp 8 8 , , AXAXf 8 3 8 t AX' f 3 p AXAXAXn 8 8 8 > 0 AXAXAX",
"AXH N ` <.w.=.R Z n ) <.r.-.P 3 M } i.}   AXn ) 5.e.i.5.) b S AX",
"T Z w.(.{.(.XXA.f >.[.oX|.>XI.[ 8 z.0Xh.  AXf @.,X7X:X7X=X5.j AX",
"f ...X[.,.R i.n.Q }. X>.W Z.eXD.p l.eXd.  AXj O.9XY.U ;.;X5X..& ",
"j h.7Xc.o AX9 v 5.sXS.% . Q ;X*XC v.dXk.  AXf O.sXU.# ; s.cXN.: ",
"j b.rXa.X AX9 > a.xXV.+ AXH &X5XD M.xXx.AXAXf +.jXR.* 9 2.nXG.; ",
"p 7.jX!.N 0 Q $.$.xX].C 9 $.xX#Xb N.nX8.* 9 9 $.nXT.3 b W.BXg.$ ",
"; Q '.nX`.G.qX@Xb !.MX+XP.gXvXm.3 C.VX%XP.E.0.+.BXaXJ.%XCX^.Y AX",
"AXf [ P.1XwX/.6.0 ! G.1XaXOX9.t 3 0.4XuXfXlXQ.| 3XiXkX4XH.( O AX",
"AXAX  p H H j @ AX@ 0 D H j $ AXR H I H H H H P D H H C , AXAXAX",
"AXAXAXAXAXAXAXAXAXAXAXAXAXAXAXAXAXAXAXAXAXAXAXAXAXAXAXAXAXAXAXAX",
"AXAXAXAXAXAXAXAXAXAXAXAXAXAXAXAXAXAXAXAXAXAXAXAXAXAXAXAXAXAXAXAX",
"AXAXAXAXAXAXAXAXAXAXAXAXAXAXAXAXAXAXAXAXAXAXAXAXAXAXAXAXAXAXAXAX",
"AXAXAXAXAXAXAXAXAXAXAXAXAXAXAXAXAXAXAXAXAXAXAXAXAXAXAXAXAXAXAXAX",
"AXAXAXAXAXAXAXAXAXAXAXAXAXAXAXAXAXAXAXAXAXAXAXAXAXAXAXAXAXAXAXAX"
};
