/* XPM */
static char *32-scaled[] = {
/* columns rows colors chars-per-pixel */
"18 11 83 1",
"  c #000300030003",
". c #048D04850488",
"X c #0A440A570A5E",
"o c #0BCC0BC50BB8",
"O c #0DA60D7F0D89",
"+ c #0E1E0E260E36",
"@ c #16B319131696",
"# c #190118F91959",
"$ c #1C9D1C3C1C9D",
"% c #233323332333",
"& c #272226CB26F7",
"* c #242C2AD724F9",
"= c #326632663266",
"- c gray20",
"; c #330F360E3222",
": c #383C380C3818",
"> c #0ECB6E2808D2",
", c #1F4F74EF113A",
"< c #261E775716F7",
"1 c #2C9C7B2B1787",
"2 c #330871CB1AA8",
"3 c #38FD773C2247",
"4 c #43D043D0442A",
"5 c #454544F844AB",
"6 c #4FB5567C5117",
"7 c #51FE507D4F9F",
"8 c #5710569D5710",
"9 c #600060006000",
"0 c #5F0A610B6024",
"q c #5D176EB95978",
"w c #614162226161",
"e c #6330670A643E",
"r c #61CF6EC46289",
"t c #651E6BF8658C",
"y c #64356A9D6EA0",
"u c #66946A316B7D",
"i c #74347C787430",
"p c #4F1592FE1453",
"a c #481D89C8255C",
"s c #507090782191",
"d c #6037989A38E4",
"f c #63F198922DA5",
"g c #640098E72EFE",
"h c #6B6AA2C534B9",
"j c #6C8FA3D130C1",
"k c #6F0FA3334000",
"l c #6FFFA5124025",
"z c #4F528B7940F5",
"x c #5A4591C844EE",
"c c #61859BF75731",
"v c #6A8D9D195DD9",
"b c #6F7AA07C59A0",
"n c #68B0905160EE",
"m c #72F98255719E",
"M c #7F5F8EFE7E70",
"N c #73F8A7CE44F2",
"B c #904766861EB7",
"V c #A28E80784C6C",
"C c #8D0093FE3D63",
"Z c #903CB8C974BC",
"A c #947FBD5967A1",
"S c #AE6496077668",
"D c #B01E941979D9",
"F c #9191AD929303",
"G c #AAF8A56B916E",
"H c #B43CA31B890C",
"J c #AFF6B2ADB142",
"K c #A39BCA729FEF",
"L c #AC84C3FBAAEA",
"P c #B1E4C32DB1C6",
"I c #B87ACAFCB34B",
"U c #BE9DC25BBF34",
"Y c #BCC0CFD1BBB1",
"T c #C4C1C3A4C4FF",
"R c #CA41CA31CA5D",
"E c #C90BD906C63B",
"W c #D399D2CCD2BF",
"Q c #D2D7D7E6D534",
"! c #D70FDB7CD7FC",
"~ c #D9F9D928DA19",
"^ c #DC9CDD1CDCDC",
"/ c #E19EE1A0E1D0",
"( c None",
/* pixels */
"((((((@6((((((((((",
"(((.4JUZq=((((((((",
"(((OWQYhdP#(((((((",
"(((.4eFjfbM%((((((",
"((( oREkganr.(((((",
"(((O^~KNs1<L9(((((",
"((( o/!Ap,>cm=((((",
"((((8TINx32zvt((((",
"(((($:;i*DBGC9((((",
"(((((((((HCS8(((((",
"(((((((((0yu&((((("
};
