/* XPM */
static char *32[] = {
/* columns rows colors chars-per-pixel */
"32 20 175 2",
"   c #026700",
".  c #0C6B01",
"X  c #0D6E07",
"o  c #116F05",
"O  c #116F09",
"+  c #15720F",
"@  c #19720E",
"#  c #157311",
"$  c #1A7314",
"%  c #23760A",
"&  c #21760F",
"*  c #257613",
"=  c #277711",
"-  c #247515",
";  c #27771C",
":  c #26781B",
">  c #2D7B16",
",  c #2C791A",
"<  c #307C18",
"1  c #327D1F",
"2  c #5C5503",
"3  c #645B0C",
"4  c #36801C",
"5  c #37801E",
"6  c #3F8317",
"7  c #39811F",
"8  c #388022",
"9  c #398023",
"0  c #3C8322",
"q  c #3D822B",
"w  c #438624",
"e  c #478B2C",
"r  c #4A8A27",
"t  c #4E8D26",
"y  c #4A892A",
"u  c #4B8D36",
"i  c #4F8C39",
"p  c #529023",
"a  c #54952F",
"s  c #58912D",
"d  c #5A922E",
"f  c #5F9C23",
"g  c #5B9330",
"h  c #659F1B",
"j  c #649927",
"k  c #629730",
"l  c #609D31",
"z  c #6B9B35",
"x  c #6A9A36",
"c  c #699C31",
"v  c #64A204",
"b  c #67A50B",
"n  c #6BA60E",
"m  c #6FA70C",
"M  c #70AB10",
"N  c #75B004",
"B  c #77B00C",
"V  c #6EA12A",
"C  c #73A32C",
"Z  c #7BB221",
"A  c #578C53",
"S  c #5A934E",
"D  c #5A944D",
"F  c #5B974C",
"G  c #5E9753",
"H  c #619B4A",
"J  c #6B9B60",
"K  c #739F6E",
"L  c #7E9674",
"P  c #67A042",
"I  c #6BA040",
"U  c #6DA25E",
"Y  c #78AA58",
"T  c #78A57D",
"R  c #7BAD73",
"E  c #8E5700",
"W  c #925600",
"Q  c #9A5A00",
"!  c #977134",
"~  c #94713F",
"^  c #A26E2F",
"/  c #9C7D59",
"(  c #A17B4F",
")  c #80B50D",
"_  c #9E8159",
"`  c #81AD7A",
"'  c #85AC7F",
"]  c #A1855A",
"[  c #A88C64",
"{  c yellow",
"}  c #909C89",
"|  c #8AAC8B",
" . c #8EB38D",
".. c #98A99E",
"X. c #90B095",
"o. c #92B690",
"O. c #97B697",
"+. c #97B991",
"@. c #96BF9F",
"#. c #9DB09A",
"$. c #92B7A1",
"%. c #ABA7AD",
"&. c gray66",
"*. c #A0BBA3",
"=. c #ACBEB0",
"-. c #BBB9BD",
";. c #BCBBBE",
":. c #BEBCBE",
">. c gray75",
",. c #9DC19C",
"<. c #A4C59F",
"1. c #A5C1A9",
"2. c #A9C5A8",
"3. c #A9C3B2",
"4. c #B3C5B8",
"5. c #B4C9B5",
"6. c #ABE1AA",
"7. c #BDD4C0",
"8. c #C0B19F",
"9. c #EAB8D0",
"0. c #C4C5C5",
"q. c #C7C4C7",
"w. c #C6C7C7",
"e. c #C0C5CC",
"r. c #C6C7C8",
"t. c #C7C6C8",
"y. c #C7C9C7",
"u. c #C5C9C8",
"i. c #CACACA",
"p. c #CACCCB",
"a. c #CBCCCD",
"s. c #C3D5C5",
"d. c #C5D8C9",
"f. c #C7D8CA",
"g. c #C9DEC8",
"h. c #CDD4DA",
"j. c #CAD9D0",
"k. c #D2CED3",
"l. c #D6D1CC",
"z. c #D2D0D3",
"x. c #D3D5D6",
"c. c #D7D5D5",
"v. c #D6DDD7",
"b. c #D9DCDB",
"n. c #DCD9DA",
"m. c #DDDEDC",
"M. c #CAE0C8",
"N. c #D8E0D9",
"B. c #DEE3DD",
"V. c #DCE5DD",
"C. c #DCE6E9",
"Z. c #DBE9FB",
"A. c #DBF0E0",
"S. c #DFF5E4",
"D. c #E3D9E5",
"F. c #E0DFE0",
"G. c #E6E2DF",
"H. c #E3E5E4",
"J. c #E4E1E4",
"K. c #E4E3E4",
"L. c #E7E5E6",
"P. c #E7E7E4",
"I. c #E5E9E4",
"U. c #E6E9E7",
"Y. c #EAE3EB",
"T. c #EEE7EB",
"R. c #EAEAEC",
"E. c #EEEEEE",
"W. c #EFEEEF",
"Q. c #ECEBF7",
"!. c #F0FBFF",
"~. c #F8F7F8",
"^. c #FFFEFF",
"/. c gray100",
"(. c None",
/* pixels */
"(.(.(.(.(.(.(.(.(.(.(.(.(.(.(.(.(.(.(.(.(.(.(.(.(.(.(.(.(.(.(.(.",
"(.(.(.(.(.(.(.(.(.(.(.(.g.j.(.(.(.(.(.(.(.(.(.(.(.(.(.(.(.(.(.(.",
"(.(.(.(.(.(.(.(.(.N.r.k.M.U 4.(.(.(.(.(.(.(.(.(.(.(.(.(.(.(.(.(.",
"(.(.(.(.(.(.(.y.-.;.p.D.,.B I 3./.(.(.(.(.(.(.(.(.(.(.(.(.(.(.(.",
"(.(.(.(.(.(.(.c.i.u.b.d.H h j e o./.(.(.(.(.(.(.(.(.(.(.(.(.(.(.",
"(.(.(.(.(.(.(.T.B.S./.V.T f C 6 K Q.(.(.(.(.(.(.(.(.(.(.(.(.(.(.",
"(.(.(.(.(.(.(.(.(.(.(.$.H ) c z d F 2./.(.(.(.(.(.(.(.(.(.(.(.(.",
"(.(.(.(.(.(.(.(.(.a.t.f.H i k z p q =.(.(.(.(.(.(.(.(.(.(.(.(.(.",
"(.(.(.(.(.(.(.(.(.m.L./.+.Z V d t w S <.A.(.(.(.(.(.(.(.(.(.(.(.",
"(.(.(.(.(.(.(.x.w.>.z.@.l m g r 1 < % ; O./.(.(.(.(.(.(.(.(.(.(.",
"(.(.(.(.(.(.(.W.P.K.~.6. .J b 0 > & . A Y./.(.(.(.(.(.(.(.(.(.(.",
"(.(.(.(.(.(.(.(.(./.w.w./.Y N 4 * +   $ ` /.(.(.(.(.(.(.(.(.(.(.",
"(.(.(.(.(.(.(.(.(./.W.R.5.M n 1 * @ X o = F 1./.(.(.(.(.(.(.(.(.",
"(.(.(.(.(.(.(.(.>.&.%.s.a b y 9 , + + ; 7 7 u 5.(.(.(.(.(.(.(.(.",
"(.(.(.(.(.(.(.(.J.m.J.P.R *...| L 2 3 } X...' v.(.(.(.(.(.(.(.(.",
"(.(.(.(.(.(.(.(.(.(.(.(.(./.(.(.9.^ Q ( /.(.{ /.(.(.(.(.(.(.(.(.",
"(.(.(.(.(.(.(.(.(.(.(.(.(.(.(.(.h.! W E / n.(.(.(.(.(.(.(.(.(.(.",
"(.(.(.(.(.(.(.(.(.(.(.(.(.(.(.(.8.~ ] [ / l.(.(.(.(.(.(.(.(.(.(.",
"(.(.(.(.(.(.(.(.(.(.(.(.(.(.(.(.D.7.Z.!.C.L.(.(.(.(.(.(.(.(.(.(.",
"(.(.(.(.(.(.(.(.(.(.(.(.(.(.(.(.(.(.(.(.(.(.(.(.(.(.(.(.(.(.(.(."
};
