/* XPM */
static char *33-scaled[] = {
/* columns rows colors chars-per-pixel */
"18 11 70 1",
"  c black",
". c #1299129912BF",
"X c #154215421585",
"o c #15F615F61623",
"O c #16AF16AF16AF",
"+ c #3CB83CB83D1E",
"@ c #4AA24AA24A8A",
"# c #4E224E224F73",
"$ c #4ED14ED15033",
"% c #505550555082",
"& c #52E752E7528D",
"* c #536553655448",
"= c #581858185878",
"- c #670367036769",
"; c #67276727689C",
": c #6A6A6A6A6727",
"> c #6F556F556DED",
", c #73A073A07359",
"< c #A3FEA3FEA4C9",
"1 c #ACC3ACC3AE35",
"2 c #B17CB17CABCD",
"3 c #B570B570B68F",
"4 c #BB1ABB1ABBF9",
"5 c #C0A8C0A8BE35",
"6 c #CC75CC75C072",
"7 c #D3F3D3F3AC4A",
"8 c #D693D693A9CC",
"9 c #D790D790AB91",
"0 c #D79AD79AACA6",
"q c #D629D629ACD5",
"w c #D76BD76BADB4",
"e c #D8A8D8A8AD9E",
"r c #D8C7D8C7AE38",
"t c #D87CD87CAEAF",
"y c #D1ADD1ADB1A9",
"u c #D153D153B1D3",
"i c #D2B8D2B8B265",
"p c #D1D0D1D0B2CB",
"a c #D454D454B159",
"s c #D6DED6DEB266",
"d c #D3B4D3B4B904",
"f c #D6A1D6A1BA38",
"g c #D95BD95BB153",
"h c #DB0BDB0BB2B4",
"j c #DDE5DDE5B81F",
"k c #DA62DA62BD8D",
"l c #C450C450C259",
"z c #C2F9C2F9C38D",
"x c #C650C650C6D7",
"c c #CDCECDCEC3C1",
"v c #CF13CF13CF14",
"b c #D36AD36ACAF4",
"n c #D614D614CF4F",
"m c #DE10DE10CE40",
"M c #D7B0D7B0D7CF",
"N c #DAE3DAE3D244",
"B c #E350E350C6AC",
"V c #E393E393C6FE",
"C c #E6C6E6C6CBA3",
"Z c #E1AEE1AED112",
"A c #E72AE72ADBA5",
"S c #E784E784DF0B",
"D c #E908E908D229",
"F c #EC83EC83E00A",
"G c #EF07EF07DE86",
"H c #F0B5F0B5E020",
"J c #F205F205E367",
"K c #F645F645EC5A",
"L c #F94AF94AF13A",
"P c None",
/* pixels */
"PPPPPPPPPPPPPPPPPP",
"PPPPPPo%%$+PPPPPPP",
"PPPPP@lSAmn$PPPPPP",
"PPPP.2FLJVhc*PPPPP",
"PPPP,ZGKHVtyMPPPPP",
"PPPP:kVDCjta5PPPPP",
"PPPP>fthh88yxPPPPP",
"PPPP=N78tqqc3PPPPP",
"PPPPP;bdyyc<oPPPPP",
"PPPPPP-v4z1oPPPPPP",
"PPPPPPPPPPPPPPPPPP"
};
