/* XPM */
static char *33[] = {
/* columns rows colors chars-per-pixel */
"32 20 165 2",
"   c #BFBFB2",
".  c #BFBFB8",
"X  c #CFCFA4",
"o  c #CFCFAB",
"O  c #CDCDAF",
"+  c #CFCFAF",
"@  c #C0C0BB",
"#  c #CECEB1",
"$  c #CFCFB2",
"%  c #CDCDB6",
"&  c #CFCFBF",
"*  c #D3D3A5",
"=  c #D2D2A6",
"-  c #D4D4A3",
";  c #D5D5A4",
":  c #D5D5A5",
">  c #D4D4A7",
",  c #D5D5A6",
"<  c #D6D6A7",
"1  c #D7D7A7",
"2  c #D3D3AA",
"3  c #D2D2AC",
"4  c #D4D4A9",
"5  c #D5D5A9",
"6  c #D4D4AA",
"7  c #D5D5AA",
"8  c #D6D6A9",
"9  c #D7D7A8",
"0  c #D6D6AA",
"q  c #D6D6AB",
"w  c #D7D7AB",
"e  c #D4D4AC",
"r  c #D4D4AD",
"t  c #D5D5AC",
"y  c #D6D6AC",
"u  c #D6D6AD",
"i  c #D7D7AD",
"p  c #D6D6AE",
"a  c #D7D7AE",
"s  c #D8D8A6",
"d  c #D9D9AD",
"f  c #D8D8AE",
"g  c #D8D8AF",
"h  c #D9D9AF",
"j  c #DADAAC",
"k  c #D0D0B2",
"l  c #D0D0B5",
"z  c #D4D4BA",
"x  c #D7D7BA",
"c  c #D9D9B0",
"v  c #D9D9B1",
"b  c #DADAB1",
"n  c #DBDBB2",
"m  c #DBDBB3",
"M  c #D9D9B6",
"N  c #DBDBB4",
"B  c #DBDBB5",
"V  c #DDDDB5",
"C  c #DCDCB6",
"Z  c #DDDDB6",
"A  c #D9D9BD",
"S  c #DEDEBD",
"D  c #DFDFBE",
"F  c #DFDFBF",
"G  c #C5C5C0",
"H  c #CACAC0",
"J  c #CBCBC2",
"K  c #C8C8C5",
"L  c #CACAC6",
"P  c #CACAC7",
"I  c #C8C8C9",
"U  c #C8C8CB",
"Y  c #C9C9CD",
"T  c #CACACC",
"R  c #CFCFCC",
"E  c #D0D0CB",
"W  c #D3D3CB",
"Q  c #D3D3CE",
"!  c #D5D5CD",
"~  c #DFDFC0",
"^  c #D8D8CB",
"/  c #DADAC9",
"(  c #DCDCC9",
")  c #DDDDCE",
"_  c #D1D1D6",
"`  c #D2D2D6",
"'  c #D2D2D7",
"]  c #D5D5D1",
"[  c #D4D4D2",
"{  c #D4D4D6",
"}  c #D4D4D7",
"|  c #D4D4D9",
" . c #D4D4DA",
".. c #D8D8D5",
"X. c #DFDFD0",
"o. c #DDDDD6",
"O. c #D8D8D8",
"+. c #D8D8DB",
"@. c #DADADB",
"#. c #DBDBDA",
"$. c #DCDCDA",
"%. c #DCDCDD",
"&. c #DDDDDD",
"*. c #DFDFDF",
"=. c #E1E1C3",
"-. c #E2E2C3",
";. c #E3E3C3",
":. c #E2E2C5",
">. c #E3E3C9",
",. c #E3E3CC",
"<. c #E4E4CA",
"1. c #E5E5CA",
"2. c #E5E5CB",
"3. c #E5E5CD",
"4. c #E7E7CC",
"5. c #E7E7CD",
"6. c #E6E6CE",
"7. c #E6E6CF",
"8. c #E1E1D4",
"9. c #E1E1D8",
"0. c #E2E2DE",
"q. c #EAEAD5",
"w. c #EBEBD6",
"e. c #ECECD8",
"r. c #EDEDDA",
"t. c #EFEFD8",
"y. c #EFEFDE",
"u. c #EFEFDF",
"i. c #F0F0DE",
"p. c #F0F0DF",
"a. c #E3E3E1",
"s. c #E4E4E3",
"d. c #E5E5E3",
"f. c #E5E5ED",
"g. c #E8E8E7",
"h. c #EFEFE3",
"j. c gray91",
"k. c #EAEAEC",
"l. c #EAEAED",
"z. c #EBEBEE",
"x. c #EFEFEE",
"c. c #EBEBF0",
"v. c #EBEBF4",
"b. c #EDEDF0",
"n. c #EEEEF0",
"m. c #EFEFF3",
"M. c #F0F0E2",
"N. c #F2F2E2",
"B. c #F3F3E4",
"V. c #F4F4E6",
"C. c #F4F4E9",
"Z. c #F6F6ED",
"A. c #F7F7EF",
"S. c #F1F1F1",
"D. c #F2F2F5",
"F. c #F2F2F7",
"G. c #F4F4F6",
"H. c #F7F7F9",
"J. c #F8F8F0",
"K. c #FAFAF2",
"L. c #FAFAFC",
"P. c #FDFDF9",
"I. c #FEFEFB",
"U. c gray100",
"Y. c None",
/* pixels */
"Y.Y.Y.Y.Y.Y.Y.Y.Y.Y.Y.Y.Y.Y.Y.Y.Y.Y.Y.Y.Y.Y.Y.Y.Y.Y.Y.Y.Y.Y.Y.Y.",
"Y.Y.Y.Y.Y.Y.Y.Y.Y.Y.Y.Y.Y.Y.Y.Y.Y.Y.Y.Y.Y.Y.Y.Y.Y.Y.Y.Y.Y.Y.Y.Y.",
"Y.Y.Y.Y.Y.Y.Y.Y.Y.Y.Y.Y.Y.Y.Y.Y.Y.Y.Y.Y.Y.Y.Y.Y.Y.Y.Y.Y.Y.Y.Y.Y.",
"Y.Y.Y.Y.Y.Y.Y.Y.Y.Y.Y.Y.L.O.g.x.O.v.U.Y.Y.Y.Y.Y.Y.Y.Y.Y.Y.Y.Y.Y.",
"Y.Y.Y.Y.Y.Y.Y.Y.Y.Y.U.&.d.8.8.8.( ^ d.c.Y.Y.Y.Y.Y.Y.Y.Y.Y.Y.Y.Y.",
"Y.Y.Y.Y.Y.Y.Y.Y.Y.Y.g.o.h.V.h.e.6.B + ! f.Y.Y.Y.Y.Y.Y.Y.Y.Y.Y.Y.",
"Y.Y.Y.Y.Y.Y.Y.Y.Y.d.) i.K.P.Z.i.6.S j o ! m.Y.Y.Y.Y.Y.Y.Y.Y.Y.Y.",
"Y.Y.Y.Y.Y.Y.Y.Y.H.0.1.h.J.P.J.u.6.=.B - % @.U.Y.Y.Y.Y.Y.Y.Y.Y.Y.",
"Y.Y.Y.Y.Y.Y.Y.Y.$./ 6.i.h.C.N.w.1.S 0 : X R k.Y.Y.Y.Y.Y.Y.Y.Y.Y.",
"Y.Y.Y.Y.Y.Y.Y.Y.Q A =.6.w.e.e.5.=.V f f 3 J _ Y.Y.Y.Y.Y.Y.Y.Y.Y.",
"Y.Y.Y.Y.Y.Y.Y.Y.! z V S >.6.:.;.V f 0 3 f & U Y.Y.Y.Y.Y.Y.Y.Y.Y.",
"Y.Y.Y.Y.Y.Y.Y.Y.! z 0 v V V n v v : 0 f 3 @ _ Y.Y.Y.Y.Y.Y.Y.Y.Y.",
"Y.Y.Y.Y.Y.Y.Y.Y.c.^ = 0 = f 3 f 3 3 f s k U x.Y.Y.Y.Y.Y.Y.Y.Y.Y.",
"Y.Y.Y.Y.Y.Y.Y.Y.U.*.l - : 0 : n f f j n . ' U.Y.Y.Y.Y.Y.Y.Y.Y.Y.",
"Y.Y.Y.Y.Y.Y.Y.Y.Y.F...# 0 0 f f 0 s 0   U S.Y.Y.Y.Y.Y.Y.Y.Y.Y.Y.",
"Y.Y.Y.Y.Y.Y.Y.Y.Y.Y.c.O.& k 3 3 o k . U k.Y.Y.Y.Y.Y.Y.Y.Y.Y.Y.Y.",
"Y.Y.Y.Y.Y.Y.Y.Y.Y.Y.Y.G.*.! L L L Q ' D.Y.Y.Y.Y.Y.Y.Y.Y.Y.Y.Y.Y.",
"Y.Y.Y.Y.Y.Y.Y.Y.Y.Y.Y.Y.U.c.} _ } c.U.Y.Y.Y.Y.Y.Y.Y.Y.Y.Y.Y.Y.Y.",
"Y.Y.Y.Y.Y.Y.Y.Y.Y.Y.Y.Y.Y.Y.Y.Y.Y.Y.Y.Y.Y.Y.Y.Y.Y.Y.Y.Y.Y.Y.Y.Y.",
"Y.Y.Y.Y.Y.Y.Y.Y.Y.Y.Y.Y.Y.Y.Y.Y.Y.Y.Y.Y.Y.Y.Y.Y.Y.Y.Y.Y.Y.Y.Y.Y."
};
