/* XPM */
static char *34-scaled[] = {
/* columns rows colors chars-per-pixel */
"18 11 80 1",
"  c black",
". c #0484048E0498",
"X c #058305780567",
"o c #0E660E490E1E",
"O c #0F320F460F56",
"+ c #166616661666",
"@ c #1CCD1CCD1CCD",
"# c #1CC01D481D8C",
"$ c #219921992199",
"% c #25DF25E525C8",
"& c #28EF291C28EF",
"* c #2DDA2F0A2FA2",
"= c #2F622FFD30CA",
"- c #303030302FFD",
"; c #3FD93FD73FC8",
": c #51A851AD4EB3",
"> c #529952B64F6A",
", c #563656965666",
"< c #57B758A35917",
"1 c #5C955C135B50",
"2 c #5EE25F0F5E93",
"3 c #6878691E69A8",
"4 c #6FB26D0469F0",
"5 c #6C936D146CBA",
"6 c #6E1E6DFA6DE4",
"7 c #6E166EEF6F9D",
"8 c #702371717157",
"9 c #724B73DA73C7",
"0 c #9017928994A4",
"q c #99999A4D9A94",
"w c #9A2D9D439FFF",
"e c #BFF4C00CBE88",
"r c #C282C467C45C",
"t c #C539C4CEC542",
"y c #CCB3D04DD431",
"u c #CDD3D1FFD3CF",
"i c #D092D48BD547",
"p c #D345D440CEE4",
"a c #D7EFDAFAD03F",
"s c #D971D9F6C5E5",
"d c #DA41DAEAD9C9",
"f c #DBA3DD9DDB8B",
"g c #DAF4DE55E140",
"h c #DF8FE403D69E",
"j c #DF70E130DF15",
"k c #E140E0DAC872",
"l c #E87AE888D913",
"z c #ED6DEEB3E003",
"x c #E251E716E7A7",
"c c #E2EDE5D6E7C4",
"v c #E7F7E8D0E265",
"b c #E3A5E77FE9C8",
"n c #E2F0E747EADC",
"m c #E494E9E1E920",
"M c #E478E9C7EE33",
"N c #EA44ECA1E25A",
"B c #E9D1ECACE3F3",
"V c #EA7FEEE0EF64",
"C c #EB52EFC4F32D",
"Z c #EB42F079F3AE",
"A c #EC6FF0BFF3CD",
"S c #F0C4F212EAC1",
"D c #EF3BF2D8F5A8",
"F c #F0A5F554F929",
"G c #F12AF605F999",
"H c #F5BEF9A6FC70",
"J c #F5D2FA02FC7D",
"K c #F9F9F9F9F8DE",
"L c #FAEFFB67FA27",
"P c #FB26FB26FA58",
"I c #FA76FBD4FD2F",
"U c #FB3DFC48FD3C",
"Y c #FB5FFD1BFE61",
"T c #FCBCFDF0FF04",
"R c #FECBFEEAFE9D",
"E c #FD7DFEB1FF78",
"W c #FDEFFF3CFFF8",
"Q c #FD08FF02FFFF",
"! c #FE6AFF02FF39",
"~ c None",
/* pixels */
"~~~~~~@7*~~~~~~~~~",
"~~~~~$tj7~~~~~~~~~",
"~~~~~<ve+~~~~~~~~~",
"~~~~~:lp2~~~~~~~~~",
"~~~~~:ksx0@%;~~~~~",
"~~~~~,ahBmxfd~~~~~",
"~~~~-gFSzzNVM=~~~~",
"~~~~9FWWPPPWHw.~~~",
"~~~~8CWWWWIIHDo~~~",
"~~~~&rnmCCiyuq.~~~",
"~~~~~~1437o~~~~~~~"
};
