/* XPM */
static char *34[] = {
/* columns rows colors chars-per-pixel */
"32 20 151 2",
"   c #CFD1B6",
".  c #D0D1B7",
"X  c #CBCBCC",
"o  c #CACECE",
"O  c #CACECF",
"+  c #CECDD0",
"@  c #CFD2D0",
"#  c #D0D0CE",
"$  c #D3D5CD",
"%  c #D4D4CA",
"&  c #D9DBC1",
"*  c #DEDDC1",
"=  c #D8D8CB",
"-  c #D0D0D0",
";  c #D6D5D5",
":  c #D5D8D9",
">  c #D5DBDE",
",  c #D7DADC",
"<  c #D5DCDC",
"1  c #DBDBD4",
"2  c #D8DFD4",
"3  c #DCDCD1",
"4  c #DBDFDC",
"5  c #DEDFDB",
"6  c #DCDDDC",
"7  c #DCDDDF",
"8  c #DEE4DD",
"9  c #DDE0E0",
"0  c #DEE0E2",
"q  c #DFE1E3",
"w  c #DDE2E6",
"e  c #E4E3C2",
"r  c #E5E5CA",
"t  c #E1E0D8",
"y  c #E0E1DE",
"u  c #E1E1DE",
"i  c #E6E6DD",
"p  c #E5E9DE",
"a  c #EAEAD5",
"s  c #EDEDD4",
"d  c #E9EBDC",
"f  c #E8ECDF",
"g  c #EBEDDF",
"h  c #EBEEDC",
"j  c #EEEEDB",
"k  c #ECEEDC",
"l  c #ECEEDE",
"z  c #ECEEDF",
"x  c #EFEFDC",
"c  c #F0EFDC",
"v  c #F7ECDF",
"b  c #E0E1E0",
"n  c #E1E2E2",
"m  c #E0E5E2",
"M  c #E1E6E2",
"N  c #E2E4E3",
"B  c #E1E7E5",
"V  c #E6E5E0",
"C  c #E0E4E8",
"Z  c #E1E6E9",
"A  c #E3E6EA",
"S  c #E5E6E8",
"D  c #E5E7EB",
"F  c #E7E7E8",
"G  c #E7EDE7",
"H  c #E1EAEF",
"J  c #E3E9ED",
"K  c #E3E8EF",
"L  c #E3E9EF",
"P  c #E4E8E8",
"I  c #E7E8EA",
"U  c #E7E9EA",
"Y  c #E7E9EB",
"T  c #E6E8ED",
"R  c #E6EAEE",
"E  c #E9EAE1",
"W  c #E8E9E7",
"Q  c #E9ECE0",
"!  c #EBECE0",
"~  c #EDEDE2",
"^  c #EDEDE3",
"/  c #EEEEE2",
"(  c #EFEFE3",
")  c #ECEEE7",
"_  c #E9EAE9",
"`  c #EBECEE",
"'  c #ECEDEE",
"]  c #E2E9F0",
"[  c #E2E9F1",
"{  c #E3EAF0",
"}  c #E4EAF0",
"|  c #E6ECF0",
" . c #E6ECF2",
".. c #E7EDF3",
"X. c #E7EEF4",
"o. c #E8EBF0",
"O. c #E8EEF1",
"+. c #EAEEF0",
"@. c #ECEFF3",
"#. c #E9F0F6",
"$. c #E9F0F7",
"%. c #EBF0F5",
"&. c #EBF1F5",
"*. c #EBF0F6",
"=. c #EBF1F6",
"-. c #EFF0F0",
";. c #EBF1F8",
":. c #EDF3F9",
">. c #EDF4F8",
",. c #EEF4F9",
"<. c #EFF5F9",
"1. c #EFF6FD",
"2. c #F0F0EF",
"3. c #F1F1EE",
"4. c #F2F1F1",
"5. c #F0F2F4",
"6. c #F1F3F4",
"7. c #F2F2F4",
"8. c #F3F3F4",
"9. c #F4F5F6",
"0. c #F4F5F7",
"q. c #F5F6F4",
"w. c #F7F7F5",
"e. c #F1F7FC",
"r. c #F2F8FE",
"t. c #F5F9FC",
"y. c #F6FBFD",
"u. c #F6FCFF",
"i. c #FBF9F6",
"p. c #F8F8F8",
"a. c #F9F9F8",
"s. c #F9F9FA",
"d. c #F9F9FB",
"f. c #FAFAFB",
"g. c #F8FBFD",
"h. c #F8FEFF",
"j. c #F9FEFF",
"k. c #FAFDFF",
"l. c #FAFEFF",
"z. c #FAFFFF",
"x. c #FBFFFF",
"c. c #FDFAFF",
"v. c #FFFDFA",
"b. c #FCFDFF",
"n. c #FDFDFE",
"m. c #FCFFFF",
"M. c #FDFFFF",
"N. c #FFFFFC",
"B. c #FEFFFF",
"V. c gray100",
"C. c None",
/* pixels */
"C.C.C.C.C.C.C.C.C.C.C.C.C.C.C.C.C.C.C.C.C.C.C.C.C.C.C.C.C.C.C.C.",
"C.C.C.C.C.C.C.C.C.C.C.C.V.5.O.C.C.C.C.C.C.C.C.C.C.C.C.C.C.C.C.C.",
"C.C.C.C.C.C.C.C.C.C.C.c.n 5 q.C.C.C.C.C.C.C.C.C.C.C.C.C.C.C.C.C.",
"C.C.C.C.C.C.C.C.C.C.V.W $ o V.C.C.C.C.C.C.C.C.C.C.C.C.C.C.C.C.C.",
"C.C.C.C.C.C.C.C.C.C.R E t + C.C.C.C.C.C.C.C.C.C.C.C.C.C.C.C.C.C.",
"C.C.C.C.C.C.C.C.C.C.5 ~ i X C.C.C.C.C.C.C.C.C.C.C.C.C.C.C.C.C.C.",
"C.C.C.C.C.C.C.C.C.C.3 a ~ @ q.C.C.C.C.C.C.C.C.C.C.C.C.C.C.C.C.C.",
"C.C.C.C.C.C.C.C.C.C.% r s % ; V.C.C.C.C.C.C.C.C.C.C.C.C.C.C.C.C.",
"C.C.C.C.C.C.C.C.C.C.1 * e . @ [ @.y.C.C.C.V.C.C.C.C.C.C.C.C.C.C.",
"C.C.C.C.C.C.C.C.C.C._ . . 2 ) Z [ K O.4.y y 4.C.C.C.C.C.C.C.C.C.",
"C.C.C.C.C.C.C.C.C.C.n > 8 f l l f M < 4 @ o w.C.C.C.C.C.C.C.C.C.",
"C.C.C.C.C.C.C.C.C.' J 1.2.d l x x l f p Z *.=.C.C.C.C.C.C.C.C.C.",
"C.C.C.C.C.C.C.C.2.R r.u.V.q.) f ~ ~ ~ 2.y.u.=.@.C.C.C.C.C.C.C.C.",
"C.C.C.C.C.C.C.C.P *.u.V.V.V.V.s.s.s.s.V.V.V.,.=.C.C.C.C.C.C.C.C.",
"C.C.C.C.C.C.C.C.9 <.V.V.V.V.V.V.V.V.V.V.V.V.y.=.5.C.C.C.C.C.C.C.",
"C.C.C.C.C.C.C.C.9 { V.V.V.V.u.V.V.V.V.V.V.V.u.=.5.C.C.C.C.C.C.C.",
"C.C.C.C.C.C.C.C._ > | r.,.X.u.V.u.,.R X.[ J X.O.i.C.C.C.C.C.C.C.",
"C.C.C.C.C.C.C.C.C.V 7 w Z : w { { P M q D 9 P s.C.C.C.C.C.C.C.C.",
"C.C.C.C.C.C.C.C.C.C.C.i.V.v D _ ` v.C.C.C.C.C.C.C.C.C.C.C.C.C.C.",
"C.C.C.C.C.C.C.C.C.C.C.C.C.C.C.C.C.C.C.C.C.C.C.C.C.C.C.C.C.C.C.C."
};
