/* XPM */
static char *35-scaled[] = {
/* columns rows colors chars-per-pixel */
"18 11 87 1",
"  c black",
". c #026401F801B2",
"X c #049304930498",
"o c #058305780567",
"O c #0D7C0E0D0E93",
"+ c #0E660E490E1E",
"@ c #0F590F520F56",
"# c #0FD010CA118B",
"$ c #166616661666",
"% c #1CCD1CCD1CCD",
"& c #1CAE1D241D7A",
"* c #219921992199",
"= c #25DF25E525C8",
"- c #294928EF28C2",
"; c #2DDA2F0A2FA2",
": c #2F2F30633131",
"> c #3FD93FD73FC8",
", c #526E51165110",
"< c #578258565895",
"1 c #5C135BD95BC3",
"2 c #5EA45ED15ED1",
"3 c #68FA68AB68CF",
"4 c #6C556CD66D73",
"5 c #6FB26CAD6910",
"6 c #6E1E6DFA6DE4",
"7 c #6CD16EAE6FDE",
"8 c #70567157713E",
"9 c #7B137F478343",
"0 c #850B830F80CD",
"q c #8FD9920D945F",
"w c #9838993299C0",
"e c #9A8D9D909FDF",
"r c #A6B3ABC6AFA9",
"t c #B272BA39BFEC",
"y c #C0A1C046BE88",
"u c #C2AFC3EBC331",
"i c #C5D1C4AAC4E7",
"p c #CCE9D0AED31F",
"a c #CFB2D2E7D5C4",
"s c #D04ED547D524",
"d c #D383D390CEF6",
"f c #DBDCDCF2C8D5",
"g c #DAAADDBDD2B2",
"h c #DA41DAEAD9C9",
"j c #DBEBDD0CDB8B",
"k c #DFA7E0AADEF7",
"l c #DF16E3B3D625",
"z c #E2E2DD43DAFA",
"x c #E2A1E27AC936",
"c c #E8FEE961D9A4",
"v c #EC95EE1CDFD4",
"b c #ED29EE61DF91",
"n c #E19BE4C1E6E4",
"m c #E251E716E7A7",
"M c #E2CBE75FEB53",
"N c #E3C5E791EA51",
"B c #E87CE8F2E265",
"V c #E8B0EB8BE31A",
"C c #E44BEA1CEE2A",
"Z c #E5FDEA29E9B1",
"A c #E72BEBFBF00E",
"S c #EA1DEC9DE259",
"D c #EA8DEEB8EF60",
"F c #EB63F00EF37A",
"G c #EB80F0B7F42E",
"H c #F0B2F200EACB",
"J c #EEB8F0FFF12E",
"K c #F070F33FF5A8",
"L c #F06BF5BCF8C1",
"P c #F206F699F9D5",
"I c #F4E3F95CFC07",
"U c #F534F979FBFB",
"Y c #F639FA3CFC76",
"T c #F9E3FA0FF898",
"R c #FAAEFB26FA11",
"E c #FB82FB82FAA0",
"W c #FC6BFC9CFC9C",
"Q c #FA6DFBD4FD2F",
"! c #FADAFC2BFD19",
"~ c #FB62FD21FE34",
"^ c #FC8FFDDDFEEE",
"/ c #FCB9FF61FFFF",
"( c #FEB5FED4FEB3",
") c #FD50FEB1FF62",
"_ c #FE6DFEEFFF1A",
"` c #FE50FF9CFFF8",
"' c None",
/* pixels */
"''''''&7;'''''''''",
"'''''*ik4'''''''''",
"'''''<By$'''''''''",
"''''#rcd2'''''''''",
"'''@tJxfnq&=>'''''",
"'''9UWgcSZmjh'''''",
"''',zALHSbSDC:''''",
"''' 0LWWTTWWUeX'''",
"''''8FW!WWY!UK@'''",
"''''-uCmKKsaawX'''",
"''''''2534O'''''''"
};
