/* XPM */
static char *35[] = {
/* columns rows colors chars-per-pixel */
"32 20 164 2",
"   c #BFC6CD",
".  c #CED0B5",
"X  c #D0D0B6",
"o  c #DCDCBE",
"O  c #FED1B4",
"+  c #C1C7CD",
"@  c #CAC8C9",
"#  c #CBCBCC",
"$  c #CACECE",
"%  c #CACECF",
"&  c #CECDD0",
"*  c #CFD2D0",
"=  c #CFD5DB",
"-  c #D0D0CE",
";  c #D3D5CD",
":  c #D4D4CA",
">  c #D9DBC1",
",  c #D0D0D0",
"<  c #D6D5D5",
"1  c #D5D8D9",
"2  c #D7DADC",
"3  c #D5DCDC",
"4  c #D5DCDE",
"5  c #D8DFD4",
"6  c #DBDCD4",
"7  c #DBDFDC",
"8  c #DEDEDA",
"9  c #DCDDDC",
"0  c #DCDDDF",
"q  c #CAD3E7",
"w  c #D7DEE5",
"e  c #D2DFE9",
"r  c #D5DFE8",
"t  c #DDE3DC",
"y  c #DDE0E0",
"u  c #DEE0E2",
"i  c #DFE1E3",
"p  c #DDE2E6",
"a  c #E4E4C2",
"s  c #E4E4C7",
"d  c #E1E0D8",
"f  c #E0E2DB",
"g  c #E0E1DE",
"h  c #E1E1DE",
"j  c #E6E6DD",
"k  c #E5E9DE",
"l  c #EBEAD5",
"z  c #EDEDD4",
"x  c #E9EBDC",
"c  c #E8ECDF",
"v  c #EBEDDF",
"b  c #EBEEDC",
"n  c #EEEEDB",
"m  c #ECEEDC",
"M  c #ECEEDE",
"N  c #ECEEDF",
"B  c #EFEFDC",
"V  c #F0EFDC",
"C  c #F7ECDF",
"Z  c #E0E1E0",
"A  c #E0E5E2",
"S  c #E1E6E2",
"D  c #E2E4E3",
"F  c #E1E7E5",
"G  c #E6E5E0",
"H  c #E0E4E8",
"J  c #E1E6E9",
"K  c #E1E6EA",
"L  c #E3E6EA",
"P  c #E5E6E8",
"I  c #E5E7EB",
"U  c #E7E7E8",
"Y  c #E7EDE7",
"T  c #E1EAEF",
"R  c #E3E9ED",
"E  c #E3E8EF",
"W  c #E3E9EF",
"Q  c #E4E8E8",
"!  c #E7E8EA",
"~  c #E7E9EA",
"^  c #E7E9EB",
"/  c #E5E9EC",
"(  c #E4EAEF",
")  c #E6E8ED",
"_  c #E9EAE1",
"`  c #E8E9E7",
"'  c #E9ECE0",
"]  c #EBECE0",
"[  c #EDEDE2",
"{  c #EDEDE3",
"}  c #EEEEE2",
"|  c #EFEFE3",
" . c #ECEEE7",
".. c #EBE9E8",
"X. c #EBECEE",
"o. c #E2E9F0",
"O. c #E2E9F1",
"+. c #E3EAF0",
"@. c #E4EAF0",
"#. c #E6ECF0",
"$. c #E6ECF2",
"%. c #E7EDF3",
"&. c #E7EEF4",
"*. c #E6EFF8",
"=. c #E8EBF0",
"-. c #E8EEF1",
";. c #EAEEF0",
":. c #ECEFF3",
">. c #E7F0F6",
",. c #E9F0F6",
"<. c #E9F0F7",
"1. c #EBF0F5",
"2. c #EBF1F5",
"3. c #EBF0F6",
"4. c #EBF1F6",
"5. c #EFF0F0",
"6. c #EBF1F8",
"7. c #EDF3F9",
"8. c #ECF4F8",
"9. c #EDF4F8",
"0. c #EDF4FA",
"q. c #EEF4F9",
"w. c #EFF5F9",
"e. c #EFF5FD",
"r. c #F1F1EE",
"t. c #F2F1F1",
"y. c #F0F2F4",
"u. c #F1F3F4",
"i. c #F2F2F4",
"p. c #F3F3F4",
"a. c #F4F5F5",
"s. c #F4F5F6",
"d. c #F4F5F7",
"f. c #F5F6F4",
"g. c #F7F7F5",
"h. c gray97",
"j. c #F1F7FC",
"k. c #F2F8FE",
"l. c #F5F9FC",
"z. c #F6FBFD",
"x. c #F6FCFF",
"c. c #FBF9F6",
"v. c #F8F8F8",
"b. c #F9F9F8",
"n. c #F9F9FA",
"m. c #F9F9FB",
"M. c #FAFAFB",
"N. c #F8FBFD",
"B. c #F8FEFF",
"V. c #F9FEFF",
"C. c #FAFDFF",
"Z. c #FAFEFF",
"A. c #FAFFFF",
"S. c #FBFFFF",
"D. c #FDFAFF",
"F. c #FFFDFA",
"G. c #FCFDFF",
"H. c #FDFDFE",
"J. c #FCFFFF",
"K. c #FDFFFF",
"L. c #FFFFFC",
"P. c #FEFFFF",
"I. c gray100",
"U. c None",
/* pixels */
"U.U.U.U.U.U.U.U.U.U.U.U.U.U.U.U.U.U.U.U.U.U.U.U.U.U.U.U.U.U.U.U.",
"U.U.U.U.U.U.U.U.U.U.U.U.I.2.-.U.U.U.U.U.U.U.U.U.U.U.U.U.U.U.U.U.",
"U.U.U.U.U.U.U.U.U.U.U.D.h 9 d.U.U.U.U.U.U.U.U.U.U.U.U.U.U.U.U.U.",
"U.U.U.U.U.U.U.U.U.U.I...; - I.U.U.U.U.U.U.U.U.U.U.U.U.U.U.U.U.U.",
"U.U.U.U.U.U.U.U.U.U./ _ d & U.U.U.U.U.U.U.U.U.U.U.U.U.U.U.U.U.U.",
"U.U.U.U.U.U.U.U.U.U.8 | j # U.U.U.U.U.U.U.U.U.U.U.U.U.U.U.U.U.U.",
"U.U.U.U.U.U.U.U.U.q 5 l [ , a.U.U.U.U.U.U.U.U.U.U.U.U.U.U.U.U.U.",
"U.U.U.U.U.U.U.U.e *.d s z : < I.U.U.U.U.U.U.U.U.U.U.U.U.U.U.U.U.",
"U.U.U.U.U.U.U.r 8.I.G o a > $ o.:.l.U.U.U.I.U.U.U.U.U.U.U.U.U.U.",
"U.U.U.U.U.U.  8.I.I.h.X . 5  .p o.E -.t.g g t.U.U.U.U.U.U.U.U.U.",
"U.U.U.U.U.U.+ >.I.I.a.4 t c M M [ S 3 7 , $ g.U.U.U.U.U.U.U.U.U.",
"U.U.U.U.U.U.@ = w K ( e.r.x M V V c c k K 4.2.U.U.U.U.U.U.U.U.U.",
"U.U.U.U.U.U.U.O ../ k.B.I.a. .k M { [ r.l.B.<.2.U.U.U.U.U.U.U.U.",
"U.U.U.U.U.U.U.U.Q 4.B.I.I.I.I.n.n.n.M.I.I.I.8.2.U.U.U.U.U.U.U.U.",
"U.U.U.U.U.U.U.U.y 8.I.I.I.I.I.I.I.I.I.I.I.I.l.4.p.U.U.U.U.U.U.U.",
"U.U.U.U.U.U.U.U.y o.I.I.I.I.B.I.I.I.I.I.I.I.B.4.p.U.U.U.U.U.U.U.",
"U.U.U.U.U.U.U.U...2 ( k.8.%.x.B.x.8.R &.o.o.%.-.c.U.U.U.U.U.U.U.",
"U.U.U.U.U.U.U.U.U.G 9 p E 1 p $.( / S S P y X.d.U.U.U.U.U.U.U.U.",
"U.U.U.U.U.U.U.U.U.U.U.n.F.C P ..X.F.U.U.U.U.U.U.U.U.U.U.U.U.U.U.",
"U.U.U.U.U.U.U.U.U.U.U.U.U.U.U.U.U.U.U.U.U.U.U.U.U.U.U.U.U.U.U.U."
};
