/* XPM */
static char *36-scaled[] = {
/* columns rows colors chars-per-pixel */
"18 11 82 1",
"  c black",
". c #066606660666",
"X c #08E208E208E2",
"o c #1AE11AE11AFE",
"O c #1E921EF71F7E",
"+ c #29FD297628EF",
"@ c #2B332B332B33",
"# c #2FA22FA22FA2",
"$ c #30A73095307B",
"% c #326632663266",
"& c gray20",
"* c #482F482F482F",
"= c #528F528F4DDA",
"- c #5510551554BE",
"; c #581357DE5570",
": c #621E616961EB",
"> c #66F367C168FC",
", c #69A869A869CC",
"< c #6BD46B936BD4",
"1 c #6EC86EFB7023",
"2 c #6F55703670EA",
"3 c #716B70676E5F",
"4 c #7139712A712A",
"5 c #72BF7319732C",
"6 c #73C077777A67",
"7 c #78A57B817DAA",
"8 c #7C7C7C7C7C7C",
"9 c #8D668D668D62",
"0 c #9C1E9BE09C6E",
"q c #9BAE9BEC9CD3",
"w c #A2BAA283A2CF",
"e c #BA7FB9EEB885",
"r c #BDFABDFABBE9",
"t c #C64EC7DFC29A",
"y c #CF4CCF40CE2D",
"u c #D0FBD07CCC2E",
"i c #D249D59DCC6C",
"p c #DC16DC5CC0F4",
"a c #DD8EDD73C1C3",
"s c #D8F0DEDECFD7",
"d c #D1B6D3FAD16B",
"f c #D335D302D28B",
"g c #D58FD873DBDD",
"h c #D697D8B4DBB8",
"j c #D772DA66DCEA",
"k c #DA41DB63D352",
"l c #DB02DB1ADB93",
"z c #DB40DD56DF12",
"x c #E083E04AE06F",
"c c #DEEDE3B9E779",
"v c #E89EE89ED4EA",
"b c #E161E645DFEF",
"n c #E8B1E896DFE3",
"m c #E8C0ECB4DECE",
"M c #E396E54EE6FE",
"N c #E51CE4D4E63D",
"B c #E33EE857EB9E",
"V c #E5A8E9FDEDA5",
"C c #E7C4EAA4ED33",
"Z c #EF4FEFD9E6B3",
"A c #E8EAE9E3EB5B",
"S c #E9E3ECE2F0C5",
"D c #ED95EFB1EC8B",
"F c #E8A1EDF0F25E",
"G c #EBF5EFFCF29A",
"H c #EF96F05FF156",
"J c #EE36F1A8F4D5",
"K c #F06AF607F9FB",
"L c #F113F0DBE75B",
"P c #F0FEF353F447",
"I c #F393F3D6F4D6",
"U c #F1B6F437F54D",
"Y c #F21FF4AFF61C",
"T c #F4C9F4F6F4FF",
"R c #F542F582F5A1",
"E c #F669F6EAF536",
"W c #F5E7F70BF814",
"Q c #F69CF7E7F834",
"! c #F3CEF7D2F912",
"~ c #F460F952FBD0",
"^ c #F95AF95AF9A7",
"/ c None",
/* pixels */
"//////o,#/////////",
"/////Orf*/////////",
"/////-ne//////////",
"/////=viq0$X//////",
"////.;aafAxw9/////",
"////8Nksmbitl/////",
"////1MKTZZDJj$////",
"////>cPT^QTHG7////",
"////5VK!THPT~6////",
"////+yAAGGjjz1////",
"/////@44:,$&@/////"
};
