/* XPM */
static char *36[] = {
/* columns rows colors chars-per-pixel */
"32 20 178 2",
"   c #BEBEBC",
".  c #BFC4C2",
"X  c #CACCA6",
"o  c #C1C0B6",
"O  c #C7CABE",
"+  c #D8D8B8",
"@  c #E0E0B5",
"#  c #E0E0BE",
"$  c #C5C6C8",
"%  c #C7C9CE",
"&  c #CCCBC0",
"*  c #CDCDCC",
"=  c #CDCCCE",
"-  c #CDD2C0",
";  c #CFD7C6",
":  c #D0CFD0",
">  c #D1D7C5",
",  c #D4D3C1",
"<  c #D8D7C6",
"1  c #D8D7CE",
"2  c #D9D9CB",
"3  c #DBDBCD",
"4  c #D3D2D5",
"5  c #D4D4D3",
"6  c #D5D4D2",
"7  c #D7D5D7",
"8  c #D3D3D8",
"9  c #D1D5D9",
"0  c #D7D8DB",
"q  c #D7DADD",
"w  c #D8D8D7",
"e  c #DBDAD7",
"r  c #DDDDD4",
"t  c #D8D9D9",
"y  c #D9D9DA",
"u  c #DBD9DB",
"i  c #DADADB",
"p  c #DBDBDD",
"a  c #DCDBDB",
"s  c #DEDEDF",
"d  c #D3DAE0",
"f  c #D4DBE1",
"g  c #D5DBE0",
"h  c #D7DEE1",
"j  c #DBDFE1",
"k  c #DDDCE1",
"l  c #DEDFE0",
"z  c #DFDFE1",
"x  c #DEDFE3",
"c  c #DAE1E2",
"v  c #DBE1E7",
"b  c #DEE0E2",
"n  c #DFE1E2",
"m  c #DDE1E5",
"M  c #DDE1E6",
"N  c #DFE1E4",
"B  c #DDE3E8",
"V  c #DFE5EA",
"C  c #E0DDDD",
"Z  c #E2E2C4",
"A  c #EAEACE",
"S  c #E0E0D9",
"D  c #E1E6DC",
"F  c #E5E3DF",
"G  c #E2E8DE",
"H  c #E3E9DE",
"J  c #EAEAD1",
"K  c #E9EBDE",
"L  c #EBEEDF",
"P  c #EDEBDE",
"I  c #EDECDB",
"U  c #EDEDDC",
"Y  c #EDEDDF",
"T  c #EDEFDE",
"R  c #EEEFDD",
"E  c #F1F1DF",
"W  c gray88",
"Q  c #E0E0E2",
"!  c #E2E1E2",
"~  c #E2E2E2",
"^  c #E3E2E2",
"/  c #E3E3E2",
"(  c #E3E3E5",
")  c #E4E4E3",
"_  c #E4E4E5",
"`  c #E6E5E5",
"'  c #E6E6E6",
"]  c #E7E7E7",
"[  c #E1E5EA",
"{  c #E3E7E8",
"}  c #E5E6E8",
"|  c #E5E7EB",
" . c #E7E7E8",
".. c #E3E9E0",
"X. c #E5E9E1",
"o. c #E7E8E8",
"O. c #E4E8EC",
"+. c #E4E8ED",
"@. c #E4E9ED",
"#. c #E4E8EF",
"$. c #E4E9EE",
"%. c #E4EAEE",
"&. c #E5EAEF",
"*. c #E8E7E2",
"=. c #EFEFE4",
"-. c #E9E8E8",
";. c #E9E9E9",
":. c #EAE9EA",
">. c #EAEAEA",
",. c #EBEAEA",
"<. c gray92",
"1. c #E8EBEF",
"2. c #ECEBEB",
"3. c #EFECE9",
"4. c #EFEEEA",
"5. c #ECECEC",
"6. c #ECEDEE",
"7. c #EEEEEF",
"8. c #EFEEEE",
"9. c #EFEFEF",
"0. c #E5EBF0",
"q. c #E6EBF1",
"w. c #E6EEF4",
"e. c #E6EEF5",
"r. c #EAEAF0",
"t. c #E8EEF3",
"y. c #E9EEF2",
"u. c #E9F0F7",
"i. c #EEF0F5",
"p. c #EAF2F9",
"a. c #ECF3FA",
"s. c #ECF4F9",
"d. c #EEF4F9",
"f. c #EFF6FA",
"g. c #EFF6FD",
"h. c #F0E5E3",
"j. c #F8F4EC",
"k. c gray94",
"l. c #F1F1F1",
"z. c #F3F2F2",
"x. c #F3F3F3",
"c. c #F3F4F4",
"v. c #F4F3F2",
"b. c #F4F4F4",
"n. c #F5F5F4",
"m. c gray96",
"M. c #F7F6F4",
"N. c #F6F6F6",
"B. c #F1F6FB",
"V. c #F3F5F8",
"C. c #F4F7F8",
"Z. c #F7F7F8",
"A. c #F2F8FC",
"S. c #F5F8F9",
"D. c #F4FAFF",
"F. c #F4FBFE",
"G. c #F7FAFF",
"H. c #F6FCFF",
"J. c #F6FDFF",
"K. c #F8F8F8",
"L. c #F8F8F9",
"P. c #F9F9F9",
"I. c #FBFBFB",
"U. c #FBFBFC",
"Y. c #F9FDFE",
"T. c #F8FEFF",
"R. c #FAFFFF",
"E. c gray99",
"W. c #FDFDFD",
"Q. c #FCFEFF",
"!. c #FCFFFF",
"~. c #FDFFFF",
"^. c #FFFFFC",
"/. c #FFFFFD",
"(. c #FEFEFF",
"). c #FFFFFE",
"_. c gray100",
"`. c None",
/* pixels */
"`.`.`.`.`.`.`.`.`.`.`.`.`.`.`.`.`.`.`.`.`.`.`.`.`.`.`.`.`.`.`.`.",
"`.`.`.`.`.`.`.`.`.`.`.`.7.' l.`.`.`.`.`.`.`.`.`.`.`.`.`.`.`.`.`.",
"`.`.`.`.`.`.`.`.`.`.`.k.5 p _.`.`.`.`.`.`.`.`.`.`.`.`.`.`.`.`.`.",
"`.`.`.`.`.`.`.`.`.`.1.*.2 4 `.`.`.`.`.`.`.`.`.`.`.`.`.`.`.`.`.`.",
"`.`.`.`.`.`.`.`.`.`.! =.r = `.`.`.`.`.`.`.`.`.`.`.`.`.`.`.`.`.`.",
"`.`.`.`.`.`.`.`.`.`.r E ) : `.`.`.`.`.`.`.`.`.`.`.`.`.`.`.`.`.`.",
"`.`.`.`.`.`.`.`.`.`.3 A Y = 0  .z a `.`.`.`.`.`.`.`.`.`.`.`.`.`.",
"`.`.`.`.`.`.`.`.`.`.2 Z A <   ' ' w w 5.`.`.`.`.`.`.`.`.`.`.`.`.",
"`.`.`.`.`.`.`.`.`.`.6 + @ # O 9 i.l._ 7 7.N._.`.`.`.`.`.`.`.`.`.",
"`.`.`.`.`.`.`.`._.z z , X ; H H c h i -   w _.`.`.`.`.`.`.`.`.`.",
"`.`.`.`.`.`.`.`.l.! 7.x h H L R R D O >   % v.`.`.`.`.`.`.`.`.`.",
"`.`.`.`.`.`.`.`.z ! { p.G.4.Y I I K X.1.g.q z `.`.`.`.`.`.`.`.`.",
"`.`.`.`.`.`.`.`.0 s s.J._._.N.b.c.b.Z._._.B v _.`.`.`.`.`.`.`.`.",
"`.`.`.`.`.`.`.`.$ q f.c.c.N._._._.R.K.I.l.x w.A.`.`.`.`.`.`.`.`.",
"`.`.`.`.`.`.`.`.q f %.>.>.>.7.7.7._ >.-.( V.J.e.`.`.`.`.`.`.`.`.",
"`.`.`.`.`.`.`.`.o.B J.R._._.N.7.>.N.R.N.R._.J.w.`.`.`.`.`.`.`.`.",
"`.`.`.`.`.`.`.`.3.a { s.s.&.G._.R.p.+.t.+.0.0.y.`.`.`.`.`.`.`.`.",
"`.`.`.`.`.`.`.`.`.*.( z +.j v +.%. .0  .j ' >._.`.`.`.`.`.`.`.`.",
"`.`.`.`.`.`.`.`.`.`._.j._._.a 7 ! _.`._.`._.`.`.`.`.`.`.`.`.`.`.",
"`.`.`.`.`.`.`.`.`.`.`.`.`.`.`.`.`.`.`.`.`.`.`.`.`.`.`.`.`.`.`.`."
};
