/* XPM */
static char *37-scaled[] = {
/* columns rows colors chars-per-pixel */
"18 11 69 1",
"  c black",
". c #112B112B113E",
"X c #13AD13AD13F1",
"o c #14071407141E",
"O c #15151515155D",
"+ c #37E437E43805",
"@ c #479B479B4670",
"# c #4CF64CF64D66",
"$ c #4E964E964F09",
"% c #4F0F4F0F4F69",
"& c #507050705111",
"* c #61476147621E",
"= c #63C363C36404",
"- c #6EEF6EEF6DEE",
"; c #6FBC6FBC6F55",
": c #70E470E470C4",
"> c #A557A557A609",
", c #A6ACA6ACA6EB",
"< c #AECBAECBAE46",
"1 c #AF18AF18AF5E",
"2 c #C12CC12CBF3D",
"3 c #D88FD88FB1DE",
"4 c #D918D918B1A3",
"5 c #D981D981B9C1",
"6 c #DA3EDA3EBA64",
"7 c #D90DD90DBB8C",
"8 c #D935D935BC36",
"9 c #DB47DB47B8F5",
"0 c #DAF2DAF2BFE4",
"q c #DE2DDE2DB991",
"w c #C72EC72EC65D",
"e c #C7B5C7B5C732",
"r c #CA74CA74CC2F",
"t c #CCCCCCCCCD5D",
"y c #CF29CF29CF0C",
"u c #D1FED1FECDD1",
"i c #D2D4D2D4CEC2",
"p c #DB12DB12C0C7",
"a c #D979D979C676",
"s c #DA23DA23C584",
"d c #D9C1D9C1C931",
"f c #DA2ADA2AC9B7",
"g c #DA33DA33CB1F",
"h c #DB83DB83C979",
"j c #DB07DB07C9F4",
"k c #DC84DC84C9FD",
"l c #D9E8D9E8CE92",
"z c #DCDFDCDFD0C6",
"x c #D261D261D33A",
"c c #D611D611D27D",
"v c #D98DD98DD451",
"b c #DB16DB16D842",
"n c #DECEDECED272",
"m c #DF17DF17D9B8",
"M c #E0D2E0D2D9D2",
"N c #E1CAE1CACB24",
"B c #E1B5E1B5D02D",
"V c #E1E1E1E1CFCF",
"C c #E67EE67ECBCB",
"Z c #E7FFE7FFD2CA",
"A c #E267E267DE74",
"S c #E2F3E2F3DECA",
"D c #E9EEE9EEDF89",
"F c #EF04EF04DEA8",
"G c #E633E633E186",
"H c #ED10ED10E3B4",
"J c #EF77EF77EAC6",
"K c #F291F291E9CE",
"L c None",
/* pixels */
"LLLLLLLLLLLLLLLLLL",
"LLLLLLo$$$+LLLLLLL",
"LLLLL@2SSmi$LLLLLL",
"LLLL.<GJHBki$LLLLL",
"LLLL:MDKFV8hxLLLLL",
"LLLL-nVZCq6ktLLLLL",
"LLLL-n06448htLLLLL",
"LLLL&ba866av1LLLLL",
"LLLLL=clhhv>oLLLLL",
"LLLLLL*rww,oLLLLLL",
"LLLLLLLLLLLLLLLLLL"
};
