/* XPM */
static char *37[] = {
/* columns rows colors chars-per-pixel */
"32 20 158 2",
"   c #D5D5AD",
".  c #D6D6AF",
"X  c #D6D6B1",
"o  c #D6D6B3",
"O  c #D7D7B5",
"+  c #D6D6B6",
"@  c #D7D7BA",
"#  c #D8D8B0",
"$  c #D9D9B0",
"%  c #DBDBB3",
"&  c #D8D8B7",
"*  c #D9D9B6",
"=  c #DDDDB5",
"-  c #DCDCB7",
";  c #D8D8B8",
":  c #D8D8B9",
">  c #D9D9B8",
",  c #D9D9B9",
"<  c #DBDBB8",
"1  c #DBDBBB",
"2  c #D8D8BD",
"3  c #D9D9BD",
"4  c #D9D9BE",
"5  c #DADABD",
"6  c #DADABE",
"7  c #DADABF",
"8  c #DBDBBF",
"9  c #DCDCBF",
"0  c #D8D8C1",
"q  c #D9D9C0",
"w  c #D9D9C2",
"e  c #DADAC0",
"r  c #DADAC1",
"t  c #DBDBC0",
"y  c #DBDBC1",
"u  c #D9D9C6",
"i  c #D9D9C7",
"p  c #DADAC4",
"a  c #DADAC7",
"s  c #DBDBC6",
"d  c #DBDBC7",
"f  c #DCDCC1",
"g  c #DDDDC5",
"h  c #DCDCC6",
"j  c #DFDFC4",
"k  c #D9D9C8",
"l  c #D9D9CB",
"z  c #DADAC8",
"x  c #DBDBC8",
"c  c #D8D8CC",
"v  c #D9D9CC",
"b  c #D9D9CD",
"n  c #D9D9CE",
"m  c #D9D9CF",
"M  c #DADACD",
"N  c #DCDCCA",
"B  c #DEDEC8",
"V  c #DFDFC9",
"C  c #DEDECA",
"Z  c #DFDFCA",
"A  c #DCDCCC",
"S  c #D4D4D0",
"D  c #D5D5D2",
"F  c #D5D5D4",
"G  c #D6D6D5",
"H  c #D9D9D3",
"J  c #DBDBD1",
"K  c #D8D8D5",
"L  c #D8D8D7",
"P  c #D9D9D6",
"I  c #D9D9D7",
"U  c #DDDDD2",
"Y  c #DDDDD3",
"T  c #DDDDD7",
"R  c #D8D8D8",
"E  c #D8D8D9",
"W  c #D9D9D8",
"Q  c #D9D9DA",
"!  c #DADAD9",
"~  c #DBDBDA",
"^  c #DADADD",
"/  c #DCDCD8",
"(  c #DCDCD9",
")  c #DCDCDB",
"_  c #DDDDDB",
"`  c #DEDED8",
"'  c #DFDFD9",
"]  c #DEDEDA",
"[  c #DCDCDD",
"{  c #DDDDDC",
"}  c #DDDDDD",
"|  c #DCDCDE",
" . c #DDDDDE",
".. c #DDDDDF",
"X. c #DFDFDD",
"o. c gray87",
"O. c #DEDEDF",
"+. c #DFDFDE",
"@. c #DFDFDF",
"#. c #E1E1C3",
"$. c #E2E2C3",
"%. c #E2E2C5",
"&. c #E2E2CD",
"*. c #E4E4CB",
"=. c #E7E7CC",
"-. c #E1E1D1",
";. c #E3E3D2",
":. c #E1E1D5",
">. c #E1E1D7",
",. c #E3E3D7",
"<. c #E4E4D3",
"1. c #E5E5D2",
"2. c #E0E0DB",
"3. c #E0E0DD",
"4. c #E0E0DF",
"5. c #E7E7DB",
"6. c #E5E5DF",
"7. c #E9E9D7",
"8. c #EAEAD5",
"9. c #E9E9DE",
"0. c #EBEBDF",
"q. c #ECECD8",
"w. c #ECECDA",
"e. c #ECECDE",
"r. c #E1E1E0",
"t. c #E1E1E1",
"y. c #E0E0E3",
"u. c #E1E1E2",
"i. c #E2E2E2",
"p. c #E2E2E3",
"a. c gray89",
"s. c #E2E2E4",
"d. c #E3E3E4",
"f. c #E3E3E5",
"g. c #E3E3E6",
"h. c #E6E6E1",
"j. c #E4E4E5",
"k. c #E5E5E6",
"l. c #E6E6E6",
"z. c #E6E6E8",
"x. c #E9E9E0",
"c. c #E9E9E1",
"v. c #E9E9E2",
"b. c #E8E8E7",
"n. c #ECECE2",
"m. c #E9E9E9",
"M. c #E8E8EA",
"N. c gray92",
"B. c #EDEDE9",
"V. c #EFEFE9",
"C. c #EDEDF1",
"Z. c #F2F2E4",
"A. c #F2F2E8",
"S. c #F4F4ED",
"D. c #F2F2F0",
"F. c #F6F6F4",
"G. c gray100",
"H. c None",
/* pixels */
"H.H.H.H.H.H.H.H.H.H.H.H.H.H.H.H.H.H.H.H.H.H.H.H.H.H.H.H.H.H.H.H.",
"H.H.H.H.H.H.H.H.H.H.H.H.H.H.H.H.H.H.H.H.H.H.H.H.H.H.H.H.H.H.H.H.",
"H.H.H.H.H.H.H.H.H.H.H.H.H.H.H.H.H.H.H.H.H.H.H.H.H.H.H.H.H.H.H.H.",
"H.H.H.H.H.H.H.H.H.H.H.H.j.O.u.u.+.y.m.H.H.H.H.H.H.H.H.H.H.H.H.H.",
"H.H.H.H.H.H.H.H.H.H.S.O.2.2.2._ _ T 2.j.H.H.H.H.H.H.H.H.H.H.H.H.",
"H.H.H.H.H.H.H.H.H.H.y.2.h.v.v.9.,.A c _ y.H.H.H.H.H.H.H.H.H.H.H.",
"H.H.H.H.H.H.H.H.H.u._ h.B.D.A.v.;.V g x +.y.H.H.H.H.H.H.H.H.H.H.",
"H.H.H.H.H.H.H.H.j.+.,.v.A.F.S.w.1.N g 0 c +.z.H.H.H.H.H.H.H.H.H.",
"H.H.H.H.H.H.H.H.+.T ,.9.n.A.Z.8.*.g , 2 p E u.H.H.H.H.H.H.H.H.H.",
"H.H.H.H.H.H.H.H._ Y ;.;.7.w.w.=.%.- , 9 N P ^ H.H.H.H.H.H.H.H.H.",
"H.H.H.H.H.H.H.H._ Y N N &.*.%.$.= $ + 2 x P ^ H.H.H.H.H.H.H.H.H.",
"H.H.H.H.H.H.H.H._ Y p 9 9 - $ $ $ . , 0 p G +.H.H.H.H.H.H.H.H.H.",
"H.H.H.H.H.H.H.H.u._ p 0 + * X . X * 2 9 c E u.H.H.H.H.H.H.H.H.H.",
"H.H.H.H.H.H.H.H.z.+.H 0 2 @ * 1 , 2 0 N D +.m.H.H.H.H.H.H.H.H.H.",
"H.H.H.H.H.H.H.H.H.j.+.c p 0 9 0 2 0 N D E y.H.H.H.H.H.H.H.H.H.H.",
"H.H.H.H.H.H.H.H.H.H.u.+.P c x x N c D E u.H.H.H.H.H.H.H.H.H.H.H.",
"H.H.H.H.H.H.H.H.H.H.H.j.O.E P E P E +.y.H.H.H.H.H.H.H.H.H.H.H.H.",
"H.H.H.H.H.H.H.H.H.H.H.H.C.y.+.+.+.u.N.H.H.H.H.H.H.H.H.H.H.H.H.H.",
"H.H.H.H.H.H.H.H.H.H.H.H.H.H.H.H.H.H.H.H.H.H.H.H.H.H.H.H.H.H.H.H.",
"H.H.H.H.H.H.H.H.H.H.H.H.H.H.H.H.H.H.H.H.H.H.H.H.H.H.H.H.H.H.H.H."
};
