/* XPM */
static char *38-scaled[] = {
/* columns rows colors chars-per-pixel */
"18 11 87 1",
"  c black",
". c #035303770398",
"X c #08E208D908D9",
"o c #1AE11AE11AFE",
"O c #297629492949",
"+ c #2B332B332B33",
"@ c #2F3D2F3D2F3D",
"# c #30A23090309A",
"$ c #326632663266",
"% c gray20",
"& c #357334EA349A",
"* c #3CFD3CBC3CBC",
"= c #481948194819",
"- c #456048354C4A",
"; c #4D894DD44F53",
": c #451C4B0A526B",
"> c #62E861CE6250",
", c #67A167FB68D5",
"< c #69CC69CC69F0",
"1 c #6B936B936BD4",
"2 c #6EC26EEF6F35",
"3 c #6F55703670EA",
"4 c #716B70676E5F",
"5 c #717371477147",
"6 c #72F3731F7360",
"7 c #71A477177BC2",
"8 c #742077977A47",
"9 c #78D27B1B7D3D",
"0 c #8D668D6B8D6B",
"q c #9CC29C629CD3",
"w c #A1A0A12FA174",
"e c #BC2DBE3ABA74",
"r c #BFACC32AC5F4",
"t c #C74FC959C2CA",
"y c #CA5DCE14D197",
"u c #D0EDCE36CE23",
"i c #D464D6CECCBC",
"p c #D961DE66CEC6",
"a c #DBB1DE60CF01",
"s c #D1C1D1DED0DA",
"d c #D416D862DC5F",
"f c #D520D89BDB97",
"g c #D62DD9CBD8B3",
"h c #D7D8D9CCDC57",
"j c #D9E9DB63D32A",
"k c #DABADB93DC3B",
"l c #DA86DC98DE54",
"z c #DD14DD0CDE5E",
"x c #DFACDFA6E0C5",
"c c #DC14E0BDE3C0",
"v c #E027E304D552",
"b c #DE19E3ABE8AD",
"n c #E1F1E4D4DF9F",
"m c #E878EC23DE86",
"M c #E305E513E71A",
"N c #E2D1E81EEB6B",
"B c #E7F1E9A2EB68",
"V c #E855EA7EECA2",
"C c #E659EC5FF0E3",
"Z c #E705EBE8EF35",
"A c #F04FF0E7E7C8",
"S c #E908ECC8F04F",
"D c #ECC6EE9DEFB5",
"F c #ECF1F012EBC4",
"G c #EEB6EF8AF0A6",
"H c #EE2EF05CF09C",
"J c #E8AAED84F27B",
"K c #E855EE4DF322",
"L c #EC9BF056F29A",
"P c #EE5CF053F180",
"I c #F078F2D6F3E4",
"U c #EDD3F1B0F501",
"Y c #F063F608FA04",
"T c #F17FF140E70E",
"R c #F6FCF746F017",
"E c #F290F356F433",
"W c #F207F445F58C",
"Q c #F296F4BCF65D",
"! c #F4C1F524F566",
"~ c #F619F6DAF67E",
"^ c #F56CF787F86F",
"/ c #F6ABF764F8C5",
"( c #F8C5F8E6F8E6",
") c #F3B5F8F1FB84",
"_ c #F61CF7C0F902",
"` c #FA30FB21F95F",
"' c None",
/* pixels */
"''''''o,@'''''''''",
"'''''-ei-'''''''''",
"''' 7LDf:'''''''''",
"''';C`RGtq#X''''''",
"'''&ybvpgBcw0'''''",
"''''*zjpmnitl'''''",
"''''2M)~TTFLf%''''",
"'''',bIE//~PK9''''",
"''''5N__EPEE)7''''",
"''''OuSZLPfll3''''",
"'''''+45>,%$+'''''"
};
