/* XPM */
static char *38[] = {
/* columns rows colors chars-per-pixel */
"32 20 193 2",
"   c #200000",
".  c #9D9DA1",
"X  c #B6B3B1",
"o  c #BFC4C2",
"O  c #B6CAE4",
"+  c #CBCDA5",
"@  c #C1C0B6",
"#  c #D9DABA",
"$  c #C5C6C8",
"%  c #C7C9CE",
"&  c #C8CCC3",
"*  c #CCCBC0",
"=  c #CFCECD",
"-  c #CDD2C0",
";  c #CDD3DA",
":  c #CED3D8",
">  c #CFD6DD",
",  c #D0D7C5",
"<  c #D1D7C5",
"1  c #D4D3C0",
"2  c #D6D6CC",
"3  c #D7DAC8",
"4  c #D8D9C2",
"5  c #D1D0D2",
"6  c #D5D5D3",
"7  c #D7D5D7",
"8  c #D3D3D8",
"9  c #D2D6D9",
"0  c #D3D8DC",
"q  c #D5D9DC",
"w  c #D7DADD",
"e  c #D8D8D7",
"r  c #DBDAD7",
"t  c #D8D9D9",
"y  c #D9D9DA",
"u  c #DBD9DB",
"i  c #DADADB",
"p  c #DBDBDD",
"a  c #DCDBDB",
"s  c #DEDEDF",
"d  c #C9D2E0",
"f  c #D3DAE0",
"g  c #D0DCE7",
"h  c #D4DBE1",
"j  c #D5DBE0",
"k  c #D7DEE1",
"l  c #D4DDE5",
"z  c #DBDFE1",
"x  c #DDDDE0",
"c  c #DEDFE0",
"v  c #DEDFE3",
"b  c #D7E0E6",
"n  c #DAE1E2",
"m  c #DBE1E7",
"M  c #DEE0E2",
"N  c #DFE1E2",
"B  c #DFE2E3",
"V  c #DDE1E5",
"C  c #DDE1E6",
"Z  c #DFE1E4",
"A  c #DDE3E8",
"S  c #DFE5EA",
"D  c #E0DDDD",
"F  c #E1E6DC",
"G  c #E2E8DE",
"H  c #E3E8DF",
"J  c #E3E9DE",
"K  c #E9EBDE",
"L  c #EBEEDF",
"P  c #EDECDB",
"I  c #EDEDDC",
"U  c #EDEDDF",
"Y  c #EDEFDE",
"T  c #EEEFDD",
"R  c gray88",
"E  c #E0E0E1",
"W  c #E1E1E2",
"Q  c #E2E1E2",
"!  c #E2E2E2",
"~  c #E3E2E2",
"^  c #E3E3E5",
"/  c #E2E6E4",
"(  c #E4E4E3",
")  c #E4E4E5",
"_  c #E6E5E5",
"`  c #E7E7E7",
"'  c #E1E5EA",
"]  c #E3E7E8",
"[  c #E4E7E9",
"{  c #E5E6E8",
"}  c #E5E7EB",
"|  c #E5E9E1",
" . c #E5E8E7",
".. c #E7E8E8",
"X. c #E4E8EC",
"o. c #E4E8ED",
"O. c #E4E9ED",
"+. c #E4E8EF",
"@. c #E4E9EE",
"#. c #E4EAEE",
"$. c #E5EAEF",
"%. c #E9E8E8",
"&. c #E9E9E9",
"*. c #EAE9EA",
"=. c #EAEAEA",
"-. c #EBEAEA",
";. c gray92",
":. c #E8EBEF",
">. c #E9EDE8",
",. c #ECEBEB",
"<. c #EFECE9",
"1. c #EFEEEA",
"2. c #ECECEC",
"3. c #ECEDEE",
"4. c #EEEDED",
"5. c #EEEEEF",
"6. c #EFEEEE",
"7. c #EFEFEF",
"8. c #E1E9F3",
"9. c #E5EBF0",
"0. c #E6EBF1",
"q. c #E6EEF4",
"w. c #E6EEF5",
"e. c #E5EFF9",
"r. c #E8EEF3",
"t. c #E9EEF2",
"y. c #EBEDF0",
"u. c #E9EFF4",
"i. c #EEF1E7",
"p. c #EEF2EF",
"a. c #E9F1F5",
"s. c #E9F0F7",
"d. c #ECF2F6",
"f. c #EEF0F5",
"g. c #E9F2F8",
"h. c #EAF2F9",
"j. c #ECF3FA",
"k. c #ECF4F9",
"l. c #EEF4F9",
"z. c #EFF6FA",
"x. c #EFF6FD",
"c. c #F0E5E3",
"v. c #F0EFED",
"b. c #F7F7ED",
"n. c #F8F4EC",
"m. c gray94",
"M. c #F1F1F1",
"N. c #F3F2F2",
"B. c #F3F3F3",
"V. c #F1F5F3",
"C. c #F3F4F3",
"Z. c #F3F4F4",
"A. c #F2F5F7",
"S. c #F4F3F2",
"D. c #F5F5F0",
"F. c #F6F5F2",
"G. c #F4F4F4",
"H. c #F5F5F4",
"J. c gray96",
"K. c #F7F6F4",
"L. c #F6F6F6",
"P. c #F1F6FB",
"I. c #F3F5F8",
"U. c #F4F7F8",
"Y. c #F7F7F8",
"T. c #F2F8FC",
"R. c #F5F8F9",
"E. c #F4FAFF",
"W. c #F4FBFE",
"Q. c #F7FAFF",
"!. c #F6FCFF",
"~. c #F6FDFF",
"^. c #F9F9F2",
"/. c #FAF9F3",
"(. c #F8F8F8",
"). c #F8F8F9",
"_. c #F9F9F9",
"`. c #FBFBFB",
"'. c #FBFBFC",
"]. c #F9FDFE",
"[. c #F8FEFF",
"{. c #FAFFFF",
"}. c gray99",
"|. c #FDFDFD",
" X c #FCFEFF",
".X c #FCFFFF",
"XX c #FDFFFF",
"oX c #FFFFFC",
"OX c #FFFFFD",
"+X c #FEFEFF",
"@X c #FFFFFE",
"#X c gray100",
"$X c None",
/* pixels */
"$X$X$X$X$X$X$X$X$X$X$X$X$X$X$X$X$X$X$X$X$X$X$X$X$X$X$X$X$X$X$X$X",
"$X$X$X$X$X$X$X$X$X$X$X$X5.` 7.$X$X$X$X$X$X$X$X$X$X$X$X$X$X$X$X$X",
"$X$X$X$X$X$X$X$X$X$X$Xi.6 t #X$X$X$X$X$X$X$X$X$X$X$X$X$X$X$X$X$X",
"$X$X$X$X$X$X$X$X$Xd 8. .2 5 $X$X$X$X$X$X$X$X$X$X$X$X$X$X$X$X$X$X",
"$X$X$X$X$X$X$X$Xg h.Z.f.C 9 O $X$X$X$X$X$X$X$X$X$X$X$X$X$X$X$X$X",
"$X$X$X$X$X$X$Xl k.#XL./.C.t.e.$X$X$X$X$X$X$X$X$X$X$X$X$X$X$X$X$X",
"$X$X$X$X$X$X. b #X#Xb.b./.5.u...W a $X$X$X$X$X$X$X$X$X$X$X$X$X$X",
"$X$X$X$X$X$XX > u.d.p.i.>./ 0 ..` 7 t ,.$X$X$X$X$X$X$X$X$X$X$X$X",
"$X$X$X$X$X$X$X= : : 9 3 # 4 & 9 d.7.) 8 ,.L.#X$X$X$X$X$X$X$X$X$X",
"$X$X$X$X$X$X$X$X$XW x 1 + , J J V w a * @ t #X$X$X$X$X$X$X$X$X$X",
"$X$X$X$X$X$X$X$XN.W 5.C w J L I I F - < o % C.$X$X$X$X$X$X$X$X$X",
"$X$X$X$X$X$X$X$Xs W ] h.Q.5.I P I K J $.x.w c $X$X$X$X$X$X$X$X$X",
"$X$X$X$X$X$X$X$Xt x k.~.#X#XL.L.L.L.(.#X#XA m #X$X$X$X$X$X$X$X$X",
"$X$X$X$X$X$X$X$X$ f P.Z.Z.L.#X#X#XQ.(.`.7.C w.P.$X$X$X$X$X$X$X$X",
"$X$X$X$X$X$X$X$Xp h #.....5...7.5.` ....^ A.~.u.$X$X$X$X$X$X$X$X",
"$X$X$X$X$X$X$X$X..A ~.#X#X#X(.5...A. X(. X X~.q.$X$X$X$X$X$X$X$X",
"$X$X$X$X$X$X$X$X,.t ] A.k.q.P. X Xk.#.t.#.$.$.t.$X$X$X$X$X$X$X$X",
"$X$X$X$X$X$X$X$X$Xc.^ x #.B C #.#...0 ) x ` ..#X$X$X$X$X$X$X$X$X",
"$X$X$X$X$X$X$X$X$X$X#Xn.#X#XD 7 W #X$X#X$X#X$X$X$X$X$X$X$X$X$X$X",
"$X$X$X$X$X$X$X$X$X$X$X$X$X$X$X$X$X$X$X$X$X$X$X$X$X$X$X$X$X$X$X$X"
};
