/* XPM */
static char *39-scaled[] = {
/* columns rows colors chars-per-pixel */
"18 11 89 1",
"  c black",
". c #03EC03F003EC",
"X c #0666062D062D",
"o c #093C0B250B25",
"O c #0F870F760F71",
"+ c #224722382255",
"@ c #260125FA2608",
"# c #2ADE2ADE2ADE",
"$ c #2B332B332B33",
"% c #31A631E831AD",
"& c #3A7A3AFB3CBC",
"* c #400040004000",
"= c #48A0489448A0",
"- c #4FC14FC151CE",
"; c #51EB51EB4E06",
": c #531B531B50A4",
"> c #56DB56F756DB",
", c #59F759E259B4",
"< c #5F725FB35E91",
"1 c #5FF36F286F28",
"2 c #6B1A6BA16C4F",
"3 c #70D771EB729F",
"4 c #71AB728C71DE",
"5 c #75A976017576",
"6 c #867B87028767",
"7 c #885786048701",
"8 c #9036914A9292",
"9 c #972897F2991C",
"0 c #A4D3AD45AD5F",
"q c #ACBFAC8CAE81",
"w c #B4CAB693B616",
"e c #BF51C062C211",
"r c #CE0CCE3ECD1A",
"t c #C63CCF96D26A",
"y c #CFFFD090D1B1",
"u c #C8D2D2ECD482",
"i c #CBF3D335D630",
"p c #CF57D1A1D48C",
"a c #CC92D7FAD918",
"s c #CF5FDCFBDCC6",
"d c #D4B9D53EC7A1",
"f c #D41ED569CAD1",
"g c #DC7FDCDCCDD8",
"h c #D0EBD2E5D6E4",
"j c #D5CDD631D262",
"k c #D0F0DAF9DB90",
"l c #D1DADB44DC55",
"z c #D19ADEF9DF5A",
"x c #D24EDF56DF7B",
"c c #D400DD71DD5B",
"v c #D3F9E03CE039",
"b c #D8B4D907DA10",
"n c #D9C9DA09DA31",
"m c #DB8EDC62DBB2",
"M c #DAB8DBE0DE39",
"N c #DBF2DD1CDDF8",
"B c #DE0ADEE9DEC9",
"V c #DAE4DD08E332",
"C c #DF8FDF87E2DA",
"Z c #DFBBE013E5D7",
"A c #D700E268E259",
"S c #E290E290CBD5",
"D c #E2BEE2C3DE7A",
"F c #E9D3E9C6DAED",
"G c #E364E487E3E9",
"H c #E74AE79CE68C",
"J c #E85FE7FFE797",
"K c #E23FE322E91F",
"L c #E33EE492E9FF",
"P c #E460E474E952",
"I c #E2FAE7BFEC03",
"U c #E4A9E6DBED0A",
"Y c #E736E8C0EAA2",
"T c #E7A5E892ED43",
"R c #E999EA8AE9E9",
"E c #ECDDEE44F2B3",
"W c #EC3BF047F31C",
"Q c #EF08EF4EF251",
"! c #F03BF117F490",
"~ c #F0B7F29EF5F1",
"^ c #F2F3F3A5F7DF",
"/ c #F668F6A8F907",
"( c #F817F805FA0F",
") c #FCD7FCDEFCA7",
"_ c #FD32FCB1FD0E",
"` c #FDDCFE8EFF0C",
"' c #FFA5FFC9FFDB",
"] c gray100",
"[ c None",
/* pixels */
"[[[[[[5G2[[[[[[[[[",
"[[[[[-Gr=[[[[[[[[[",
"[[[[[;Fj>[[[[[[[[[",
"[[[[[;Sgw9%@+[[[[[",
"[[[[[,ddCmbHm[[[[[",
"[[[[*yYCHRbpI&[[[[",
"[[[[4NP/')/^UqX[[[",
"[[[[4p~'''''WQO[[[",
"[[[[<eVTE~PPZ8 [[[",
"[[[[o0sutiak7#[[[[",
"[[[[1sVsxAx7$[[[[["
};
