/* XPM */
static char *39[] = {
/* columns rows colors chars-per-pixel */
"32 20 201 2",
"   c #A5B4B6",
".  c #A9C7C6",
"X  c #AFCFCF",
"o  c #B3CDCC",
"O  c #B5CDCD",
"+  c #BBCDCD",
"@  c #BECCCC",
"#  c #BFCECE",
"$  c #BBD0D0",
"%  c #B8DEDE",
"&  c #BFDAD9",
"*  c #D9D9B7",
"=  c #D9D9BC",
"-  c #C3C7CB",
";  c #C6C7CD",
":  c #C6C9C9",
">  c #C4C9CD",
",  c #C8C7CC",
"<  c #C8C9C1",
"1  c #CACBC3",
"2  c #C8C8CC",
"3  c #CACACC",
"4  c #CACDCF",
"5  c #CBCCCE",
"6  c #CDCECA",
"7  c #CCCCCE",
"8  c #CCCDCE",
"9  c #CECECE",
"0  c #CACBD3",
"q  c #CBCCD3",
"w  c #CACFD4",
"e  c #CDCDD2",
"r  c #CDCED0",
"t  c #CFCFD0",
"y  c #C1D5D4",
"u  c #C6D0D0",
"i  c #C2DADA",
"p  c #C3DBDB",
"a  c #C5DDDD",
"s  c #CDD0D3",
"d  c #CFD0D2",
"f  c #CED0D7",
"g  c #CDD7D6",
"h  c #CED2DA",
"j  c #D4D6C6",
"k  c #D1D0CF",
"l  c #D1D3CF",
"z  c #D6D6CA",
"x  c #DBDBC7",
"c  c #D0D0D1",
"v  c #D1D0D0",
"b  c #D1D2D4",
"n  c #D2D4D2",
"m  c #D4D5D2",
"M  c #D5D5D7",
"N  c #D5D6D6",
"B  c #D7D4D5",
"V  c #D6D5D7",
"C  c #D7D7D7",
"Z  c #D1D2DB",
"A  c #D0D1DD",
"S  c #D5D5D9",
"D  c #D4D7D8",
"F  c #D6D7D8",
"G  c #D5D5DC",
"H  c #D6D8D3",
"J  c #D2DCDB",
"K  c #D7D9DD",
"L  c #D6DADE",
"P  c #D9D2D4",
"I  c #D9DAD1",
"U  c #DBDBD0",
"Y  c #DCDCD4",
"T  c #D8D8DB",
"R  c #DAD8D9",
"E  c #D8DADC",
"W  c #DADADD",
"Q  c #DADBDC",
"!  c #DBDCD9",
"~  c #DADDDB",
"^  c #D9DCDC",
"/  c #DCDDDB",
"(  c #DDDDDE",
")  c #DDDEDC",
"_  c #D8DAE3",
"`  c #D9DAE2",
"'  c #DADAE1",
"]  c #DBDBE1",
"[  c #D8DEE3",
"{  c #DDDDE2",
"}  c #DCDFE0",
"|  c #DDDFE1",
" . c #DCDDE4",
".. c #DCDDE6",
"X. c #DCDEE6",
"o. c #DDDEE6",
"O. c #DDDFE7",
"+. c #DEDEE7",
"@. c #DFDFE7",
"#. c #CEE1E1",
"$. c #CCE6E6",
"%. c #D3E0E0",
"&. c #D0E9E8",
"*. c #D8E3E3",
"=. c #DFE1E3",
"-. c #DFE9E9",
";. c #E0DFE5",
":. c #E1E1C6",
">. c #EAEACC",
",. c #E4E3DB",
"<. c #E8E8D0",
"1. c #EDEDDC",
"2. c #EEEEDE",
"3. c #E2E2E0",
"4. c #E2E3E3",
"5. c #E1E1E4",
"6. c #E2E3E4",
"7. c #E3E3E6",
"8. c #E0E5E5",
"9. c #E2E4E6",
"0. c #E4E4E1",
"q. c #E5E5E2",
"w. c #E6E7E2",
"e. c #E4E5E5",
"r. c gray90",
"t. c #E6E7E6",
"y. c #E6E7E7",
"u. c #E1E1EA",
"i. c #E0E2EA",
"p. c #E3E6E9",
"a. c #E3E7EB",
"s. c #E5E7E8",
"d. c #E0E8E7",
"f. c #E1ECEB",
"g. c #E5E9EE",
"h. c #E6E9EF",
"j. c #E7E8EE",
"k. c #E9E5E7",
"l. c #E9E9E0",
"z. c #EEEEE4",
"x. c #E9E8E8",
"c. c #E8E9EA",
"v. c #E8EAEF",
"b. c #EBEBEC",
"n. c #EAEBEF",
"m. c #E8ECEB",
"M. c #EBEEED",
"N. c #EDEEED",
"B. c #EEEEEF",
"V. c #EEEFEE",
"C. c #E9EBF2",
"Z. c #EBEDF4",
"A. c #EEEFF0",
"S. c #EEF1F3",
"D. c #EEF3F5",
"F. c #ECF3F8",
"G. c #EFF2FA",
"H. c #F3F3EE",
"J. c #F1F0F2",
"K. c #F2F1F0",
"L. c #F2F3F2",
"P. c #F0F0F5",
"I. c #F1F1F6",
"U. c #F3F3F4",
"Y. c #F3F3F7",
"T. c #F5F3F5",
"R. c #F4F4F4",
"E. c #F5F7F7",
"W. c #F2F2F8",
"Q. c #F2F2FA",
"!. c #F4F9FB",
"~. c #F4F9FC",
"^. c #F6F8FD",
"/. c #F7F9FD",
"(. c #FFF6F6",
"). c #F8F9F3",
"_. c #F9F9F3",
"`. c #FFF8F6",
"'. c #F8F8FB",
"]. c #F8FAF8",
"[. c #FAFAF9",
"{. c #FAFBFA",
"}. c #FBFAFB",
"|. c #FBFBFA",
" X c #F9F9FC",
".X c #FBFBFC",
"XX c #FAFCFD",
"oX c #FBFDFE",
"OX c #FAFFFF",
"+X c #FFF8F8",
"@X c gray99",
"#X c #FDFDFD",
"$X c #FCFDFF",
"%X c #FCFEFE",
"&X c #FCFEFF",
"*X c #FDFEFE",
"=X c #FFFDFD",
"-X c #FEFFFF",
";X c #FFFFFE",
":X c gray100",
">X c None",
/* pixels */
">X>X>X>X>X>X>X>X>X>X>X>XJ.s.S.>X>X>X>X>X>X>X>X>X>X>X>X>X>X>X>X>X",
">X>X>X>X>X>X>X>X>X>X>XN.H m }.>X>X>X>X>X>X>X>X>X>X>X>X>X>X>X>X>X",
">X>X>X>X>X>X>X>X>X>XQ.0.U e :X>X>X>X>X>X>X>X>X>X>X>X>X>X>X>X>X>X",
">X>X>X>X>X>X>X>X>X>X5.z.,.5 >X>X>X>X>X>X>X>X>X>X>X>X>X>X>X>X>X>X",
">X>X>X>X>X>X>X>X>X>XY 1.1.5 :X>X>X>X>X>X>X>X>X>X>X>X>X>X>X>X>X>X",
">X>X>X>X>X>X>X>X>X>XU <.1.t t.>X>X>X>X>X>X>X>X>X>X>X>X>X>X>X>X>X",
">X>X>X>X>X>X>X>X>X>Xz :.<.x l } 5 c.>X>X>X>X>X>X>X>X>X>X>X>X>X>X",
">X>X>X>X>X>X>X>X>X>X0.= * j 5 E E b l :X:XJ.R.>X>X>X>X>X>X>X>X>X",
">X>X>X>X>X>X>X>X>X>X( 1 1 l 0.t.5.E e R ! l V.>X>X>X>X>X>X>X>X>X",
">X>X>X>X>X>X>X>X>XB 3 9.N.( B 5.7.E ( 6 : [ !.>X>X>X>X>X>X>X>X>X",
">X>X>X>X>X>X>X>X:XD } XX' ' b.).).N.R D 0 j.F.C.>X>X>X>X>X>X>X>X",
">X>X>X>X>X>X>X>Xt.D A.;.+..X.X[.}.}.Y.Y.Q.[ j.^.>X>X>X>X>X>X>X>X",
">X>X>X>X>X>X>X>X~ B D ;.XX:X:X:X:X:X:X:X:XI...D.(.>X>X>X>X>X>X>X",
">X>X>X>X>X>X>X>X9.4 q XX:X:X:X:X:X:X:X:X:XXX-.j.R.>X>X>X>X>X>X>X",
">X>X>X>X>X>X>X>X9.L Z Q.:X:X:X:X:X:X:XXXXX:XZ...{.>X>X>X>X>X>X>X",
">X>X>X>X>X>X>X>XH.3.e h C.j.j.^.!.I.O.+.+...' } >X>X>X>X>X>X>X>X",
">X>X>X>X>X>X>X>X>X>X8.s ; ; ; h ' h - e s ; B R.>X>X>X>X>X>X>X>X",
">X>X>X>X>X>X>X>X>XXXo m.o g f.  P . J &.y (.>X>X>X>X>X>X>X>X>X>X",
">X>X>X>X>X>X>X>X% p 8.p s.#.$ M.& c.*.J k.:X>X>X>X>X>X>X>X>X>X>X",
">X>X>X>X>X>X>X>Xa u d.+ }.O B $.@ :X# ^ >X>X>X>X>X>X>X>X>X>X>X>X"
};
