/* XPM */
static char *40-scaled[] = {
/* columns rows colors chars-per-pixel */
"18 11 91 1",
"  c black",
". c #03EC03EC03E8",
"X c #0666062D062D",
"o c #093C0B250B25",
"O c #0F870F710F6C",
"+ c #17B018A918A1",
"@ c #224722382255",
"# c #2567257D25D8",
"$ c #2AB12AB12ADE",
"% c #2B332B332B33",
"& c #3ABA3AFB3BFC",
"* c #400040004000",
"= c #4889488948AB",
"- c #4F22500551F0",
"; c #51EB51DD4E01",
": c #531B534150B7",
"> c #59FC598B5846",
", c #5F9260135F12",
"< c #5FF36F286F28",
"1 c #6AB56B6E6C82",
"2 c #70FD721872AC",
"3 c #71AB728C71DE",
"4 c #74E6753E75F8",
"5 c #7F2C7DF27DEC",
"6 c #8728873C884E",
"7 c #889585FE86DF",
"8 c #901C91119272",
"9 c #961D9A679E14",
"0 c #A44CAE0AAEBF",
"q c #ACC6AC8CAE6E",
"w c #B248B913C037",
"e c #BFE6C0E4C17B",
"r c #CEA5CEA7CC51",
"t c #C676CF4ED1E3",
"y c #D02FD0C0D1B1",
"u c #C851D381D44B",
"i c #CBD7D340D506",
"p c #CF1ED0E8D4E4",
"a c #CCC9D829D913",
"s c #D07FDBBBDB9B",
"d c #CF91DD32DDD1",
"f c #D111D303D6BF",
"g c #D502D585D140",
"h c #D501D6FCD324",
"j c #D858D8D0DBCB",
"k c #D0EBDC5DDD0E",
"l c #D1CFDEA0DE62",
"z c #D3B8DD78DDF3",
"x c #D2F1DF0ADF5A",
"c c #D3B8DF79E0BB",
"v c #DC19DCCFDE6B",
"b c #DC8CDD7DE070",
"n c #DCFFDD99DBCF",
"m c #DAC3DCFBE2FF",
"M c #DFA4DF98E165",
"N c #DEF7E0BFE313",
"B c #DF46E058E47F",
"V c #E067E116E04F",
"C c #D765E29BE18F",
"Z c #E02EE6B3EB41",
"A c #E20CE2F8CF49",
"S c #E2E2E3A8DF24",
"D c #E9F7E9FDDAC1",
"F c #E3DDE2E3E442",
"G c #E397E478E3A8",
"H c #E1CBE2D2E85E",
"J c #E46EE7BDE5D1",
"K c #E645E6F4E535",
"L c #E384E4C5EA03",
"P c #E410E3DDE93F",
"I c #E120E746EC7C",
"U c #E5C5E6D6E9A9",
"Y c #E625E7CFE9D9",
"T c #E736E827EB5A",
"R c #E51BE6F0EDE7",
"E c #E75AE917ED4E",
"W c #E9E8EC74F043",
"Q c #EBF6EDDBF396",
"! c #ED0FEEDCF2DA",
"~ c #EEC1EF6FF272",
"^ c #EFF3F017F423",
"/ c #F139F24FF5FF",
"( c #F333F35EF7B5",
") c #F628F65FF817",
"_ c #F78CF7DDF8B9",
"` c #FD28FD2EFC8C",
"' c #FE04FE0BFDA3",
"] c #FE9AFEC1FF48",
"[ c #FF9FFFB7FFD5",
"{ c gray100",
"} c None",
/* pixels */
"}}}}}}4G1}}}}}}}}}",
"}}}}}-Sr=}}}}}}}}}",
"}}}}}:Dhw5+}}}}}}}",
"}}}}};AJWZ9#@}}}}}",
"}}}}}>hVFBbJn}}}}}",
"}}}}*yYbPTjyI&}}}}",
"}}}}3bP){{)(RqX}}}",
"}}}}3p^{{{{{~~O}}}",
"}}}},emEW^ZHB8.}}}",
"}}}}o0kuuiak7$}}}}",
"}}}}1dczcCz6$}}}}}"
};
