/* XPM */
static char *40[] = {
/* columns rows colors chars-per-pixel */
"32 20 208 2",
"   c #7A807E",
".  c #A5B4B6",
"X  c #A9C7C6",
"o  c #AFCFCF",
"O  c #B3CDCC",
"+  c #B5CDCD",
"@  c #BBCDCD",
"#  c #BECCCC",
"$  c #BFCECE",
"%  c #BBD0D0",
"&  c #B8DEDE",
"*  c #BFDAD9",
"=  c #C3C7CB",
"-  c #C6C7CD",
";  c #C6C9C9",
":  c #C7C9C9",
">  c #C4C9CD",
",  c #C8C7CC",
"<  c #C8C8CC",
"1  c #CBCBCC",
"2  c #CACDCF",
"3  c #CDCCCB",
"4  c #CCCCCE",
"5  c #CECECC",
"6  c #CACBD3",
"7  c #CBCCD3",
"8  c #CACFD4",
"9  c #CDCDD2",
"0  c #CDCED0",
"q  c #CFCFD0",
"w  c #C1D5D4",
"e  c #C6D0D0",
"r  c #C2DADA",
"t  c #C3DBDB",
"y  c #C5DDDD",
"u  c #CDD0D3",
"i  c #CED0D7",
"p  c #CDD7D6",
"a  c #CED2DA",
"s  c #D2D4C6",
"d  c #D1D3CF",
"f  c #D6D6CB",
"g  c #D2D5D6",
"h  c #D3D6D6",
"j  c #D4D5D2",
"k  c #D5D4D4",
"l  c #D5D5D7",
"z  c #D4D6D6",
"x  c #D5D6D6",
"c  c #D7D4D5",
"v  c #D7D7D7",
"b  c #D1D2D9",
"n  c #D1D2DB",
"m  c #D0D1DD",
"M  c #D5D5D9",
"N  c #D5D5DB",
"B  c #D4D7D8",
"V  c #D6D7D8",
"C  c #D4D6DE",
"Z  c #D6D8D3",
"A  c #D2DCDB",
"S  c #D6DADE",
"D  c #D9D2D4",
"F  c #D9DAD1",
"G  c #DBDBD0",
"H  c #DCDCD4",
"J  c #D8D8DB",
"K  c #DADADA",
"L  c #DBDADA",
"P  c #D9DADC",
"I  c #DBDCD8",
"U  c #DADDDB",
"Y  c #D9DCDC",
"T  c #DDDCDA",
"R  c gainsboro",
"E  c #DCDDDE",
"W  c #DFDFDF",
"Q  c #C9D5E0",
"!  c #CEDBEA",
"~  c #D8DAE3",
"^  c #D9DAE2",
"/  c #DAD9E0",
"(  c #DADAE0",
")  c #D8DEE3",
"_  c #DDDDE2",
"`  c #DCDFE0",
"'  c #DCDDE4",
"]  c #DCDDE6",
"[  c #DCDEE6",
"{  c #DDDEE6",
"}  c #DDDFE7",
"|  c #DEDEE7",
" . c #DFDFE7",
".. c #CEE1E1",
"X. c #CCE6E6",
"o. c #D3E0E0",
"O. c #D0E9E8",
"+. c #D8E3E3",
"@. c #DFE0E1",
"#. c #DFE0E8",
"$. c #DFE9E9",
"%. c #E0DFE5",
"&. c #E2E2C5",
"*. c #E1E5D7",
"=. c #E4E3DB",
"-. c #E4E3DD",
";. c #E9E0D9",
":. c #E9E9D0",
">. c #EDEDDB",
",. c #EDEDDC",
"<. c #E2E2E0",
"1. c #E2E3E3",
"2. c #E1E3E5",
"3. c #E2E3E4",
"4. c #E0E5E5",
"5. c #E6E7E2",
"6. c #E6E7E6",
"7. c #E6E7E7",
"8. c #E1E1EA",
"9. c #E0E2E9",
"0. c #E0E2EA",
"q. c #E1E5E9",
"w. c #E0E4EB",
"e. c #E3E6E9",
"r. c #E3E7EA",
"t. c #E3E7EB",
"y. c #E5E7E8",
"u. c #E4E6EA",
"i. c #E0E8E7",
"p. c #E1ECEB",
"a. c #E5E9EE",
"s. c #E6E9EF",
"d. c #E7E8EE",
"f. c #E9E5E7",
"g. c #E9E9E0",
"h. c #E9E8E7",
"j. c #EAEAE6",
"k. c #EEEEE4",
"l. c #E9E8E8",
"z. c #E9E9EA",
"x. c #E9E9EB",
"c. c #E9EAEC",
"v. c #E8EAEF",
"b. c #EAEBEF",
"n. c #E8ECEB",
"m. c #E8EEEB",
"M. c #EBEEED",
"N. c #ECECEC",
"B. c #EDEDEE",
"V. c #EEEEED",
"C. c #EEEEEF",
"Z. c #E4ECF5",
"A. c #E9EBF2",
"S. c #E8EDF3",
"D. c #E9EFF6",
"F. c #EBEDF4",
"G. c #EEEFF0",
"H. c #E6F0F8",
"J. c #EBF2F2",
"K. c #EEF1F3",
"L. c #EEF3F5",
"P. c #ECF3F8",
"I. c #EFF2FA",
"U. c #F3F3EE",
"Y. c #F1F0F2",
"T. c #F2F1F0",
"R. c #F2F3F2",
"E. c #F0F0F5",
"W. c #F1F1F6",
"Q. c #F3F3F4",
"!. c #F3F3F7",
"~. c #F5F3F5",
"^. c #F6F7F2",
"/. c #F4F4F4",
"(. c #F5F7F7",
"). c #F2F2F8",
"_. c #F2F2FA",
"`. c #F0F5FA",
"'. c AliceBlue",
"]. c #F4F9FB",
"[. c #F4F9FC",
"{. c #F6F8FD",
"}. c #F7F9FD",
"|. c #FFF6F6",
" X c #F9F9F3",
".X c #FFF8F6",
"XX c #F8F8FB",
"oX c #F8FAF8",
"OX c #FAFAF9",
"+X c #FBFAFB",
"@X c #FBFBFA",
"#X c #F9F9FC",
"$X c #FBFBFC",
"%X c #FAFCFD",
"&X c #FBFDFE",
"*X c #FAFFFF",
"=X c #FFF8F8",
"-X c #FCFDFC",
";X c #FDFDFD",
":X c #FCFDFF",
">X c #FCFEFE",
",X c #FCFEFF",
"<X c #FDFEFE",
"1X c #FFFDFD",
"2X c #FEFFFF",
"3X c #FFFFFE",
"4X c gray100",
"5X c None",
/* pixels */
"5X5X5X5X5X5X5X5X5X5X5X5XY.7.K.5X5X5X5X5X5X5X5X5X5X5X5X5X5X5X5X5X",
"5X5X5X5X5X5X5X5X5X5X5Xb.Z j #X5X5X5X5X5X5X5X5X5X5X5X5X5X5X5X5X5X",
"5X5X5X5X5X5X5X5X5X5XI.5.G q 4X5X5X5X5X5X5X5X5X5X5X5X5X5X5X5X5X5X",
"5X5X5X5X5X5X5X5X5X5X2.k.-.1 5X5X5X5X5X5X5X5X5X5X5X5X5X5X5X5X5X5X",
"5X5X5X5X5X5X5X5X5X5XH >.,.3 r.! ;.5X5X5X5X5X5X5X5X5X5X5X5X5X5X5X",
"5X5X5X5X5X5X5X5X5X5XG :.,.g D.'.Z.a   5X5X5X5X5X5X5X5X5X5X5X5X5X",
"5X5X5X5X5X5X5X5X5X5Xf &.*.S.b.b.$.D.Z.5X5X5X5X5X5X5X5X5X5X5X5X5X",
"5X5X5X5X5X5X5X5X5X5X-.s m.j.k -.E J 7.I.4XY./.5X5X5X5X5X5X5X5X5X",
"5X5X5X5X5X5X5X5X5X5XT : B L f.d.r.@.c E H d U.5X5X5X5X5X5X5X5X5X",
"5X5X5X5X5X5X5X5X5Xc 1 2.d.P b 0.#.C E 1 : ) '.5X5X5X5X5X5X5X5X5X",
"5X5X5X5X5X5X5X5X4XB ` %XP P x.^. Xb.J N 6 t.P.b.5X5X5X5X5X5X5X5X",
"5X5X5X5X5X5X5X5X6.B G.%.] @X4X@X@X@XR.).).] s.{.5X5X5X5X5X5X5X5X",
"5X5X5X5X5X5X5X5XU c N %.#X4X4X4X4X4X4X4X4XW.] L.|.5X5X5X5X5X5X5X",
"5X5X5X5X5X5X5X5X3.2 9 #X4X4X4X4X4X4X4X4X4X#X0.s./.5X5X5X5X5X5X5X",
"5X5X5X5X5X5X5X5Xr.S a _.4X4X4X4X4X4X4X%X4X4XD.] OX5X5X5X5X5X5X5X",
"5X5X5X5X5X5X5X5XU.-.9 a A.d.s.{.{.W.#.] ] ] P ` 5X5X5X5X5X5X5X5X",
"5X5X5X5X5X5X5X5X5X5Xr.0 > > 1 a P a = 0 2 , c Q.5X5X5X5X5X5X5X5X",
"5X5X5X5X5X5X5X5X5X%Xo m.O p $.. D X A O.* |.5X5X5X5X5X5X5X5X5X5X",
"5X5X5X5X5X5X5X5X& r $.r 7...% b.* j.+.) f.4X5X5X5X5X5X5X5X5X5X5X",
"5X5X5X5X5X5X5X5Xy e r.@ =XO c X.# 4X@ Y 5X5X5X5X5X5X5X5X5X5X5X5X"
};
