/* XPM */
static char *41-scaled[] = {
/* columns rows colors chars-per-pixel */
"18 11 72 1",
"  c black",
". c #04CD04CD04CD",
"X c #0C7E0C870C8F",
"o c #33D730CA0F80",
"O c #254C25CE2651",
"+ c #2B0B2B0B2ADE",
"@ c #2C0C2C0C2C0C",
"# c #2E402E402E40",
"$ c #45BD45BD4606",
"% c #486C49704A75",
"& c #4FC84FA74F63",
"* c #4DD14DD151D8",
"= c #4EB54FDF50D1",
"- c #4FB250AF5184",
"; c #506A509F55A0",
": c #5DBA5DA45F5A",
"> c #6D9C66544385",
", c #6419642F6440",
"< c #6F4F71D173ED",
"1 c #94CF931F7A0E",
"2 c #B9D799166E79",
"3 c #E616DE971B59",
"4 c #F85AF16A29EB",
"5 c #8741877D86FE",
"6 c #953C9480939D",
"7 c #9F78A03BA0B4",
"8 c #B1E3B1E3B1F4",
"9 c #BA7FBB5ABBB8",
"0 c #BEFBBF3CBFEE",
"q c #EB90E477909F",
"w c #E981E4859AFB",
"e c #F238EE76B304",
"r c #C910CC9CCBC3",
"t c #DCF7DDE4C35F",
"y c #DBD9DB69CD8E",
"u c #D5EDD660D5E7",
"i c #D4B8D75AD926",
"p c #D514D878DAEA",
"a c #D84BDA66DC22",
"s c #DA4ADB8ED41F",
"d c #DD24DD7BD8A8",
"f c #E059E067D519",
"g c #D908DCD4DB1A",
"h c #D910DD88DA63",
"j c #D928DD70E0A1",
"k c #DF42DF6FDB17",
"l c #DBE1DEB7E167",
"z c #DFA7E565E02F",
"x c #E29FE337D746",
"c c #E26AE696DCFC",
"v c #EC0BEDEDE017",
"b c #FB76F751D060",
"n c #FC21F9D0D8AB",
"m c #E960EC43E2EA",
"M c #EFE1F0A9E73F",
"N c #EC59F0E1F3E7",
"B c #ED14F0C6F3BF",
"V c #F09BF241EB3E",
"C c #EE75F28AF5DC",
"Z c #EDF1F3B2F89E",
"A c #F0D5F520F867",
"S c #F17CF247EA56",
"D c #F0FDF50FF801",
"F c #F5ADF711F68C",
"G c #F56BF960FBF9",
"H c #F9CCFA82F965",
"J c #FA61FCD8FE65",
"K c #FDB6FEC3FF78",
"L c #FE0CFEBAFF26",
"P c #FFD8FFABFEC4",
"I c gray100",
"U c None",
/* pixels */
"UUUUUUU%@UUUUUUUUU",
"UUUUUU8u,UUUUUUUUU",
"UUUUU$kk:UUUUUUUUU",
"UUUUU&xx0O.UUUUUUU",
"UUUUU;ytgZ765UUUUU",
"UUUUU@rcmmcgaUUUUU",
"UUUUUiGHSMSFD<UUUU",
"UUUUUjKKKnbKJlXUUU",
"UUUUUiCDe4wCCaXUUU",
"UUUUU&9sq31-&+UUUU",
"UUUUUUU>2oUUUUUUUU"
};
