/* XPM */
static char *41[] = {
/* columns rows colors chars-per-pixel */
"32 20 157 2",
"   c #3100FF",
".  c #CCC03D",
"X  c #EEDE32",
"o  c #ECE213",
"O  c #F3E90A",
"+  c #F4E017",
"@  c #FFE11A",
"#  c #FCF605",
"$  c #FFFC00",
"%  c #FBF808",
"&  c #F4E93D",
"*  c #E5D840",
"=  c #E0D551",
"-  c #F1D654",
";  c #EFE779",
":  c #AAAFFF",
">  c #D6D8BC",
",  c #D8D7B3",
"<  c #E0D78C",
"1  c #E3DCAB",
"2  c #F0EA8F",
"3  c #FCF2A7",
"4  c #CBCBC2",
"5  c #CECFCA",
"6  c #CCCFCC",
"7  c #CBCBDB",
"8  c #CCCCDA",
"9  c #CED2C5",
"0  c #DBDAC8",
"q  c #DDDCCF",
"w  c #DFDFCE",
"e  c #D1D1D6",
"r  c #D4D4D3",
"t  c gray83",
"y  c #D6D6D4",
"u  c #D4D4D9",
"i  c #D5D5D8",
"p  c #D6D9D5",
"a  c #D7DDD3",
"s  c #D7DCDB",
"d  c #D8D8D4",
"f  c #D8D9D7",
"g  c #D9DFD4",
"h  c #DFDFD7",
"j  c #DDDFDD",
"k  c #DFDEDC",
"l  c #D8DFE3",
"z  c #DADDE1",
"x  c #DBDEE2",
"c  c #DBDFE3",
"v  c #D9DFE6",
"b  c #DDDFE0",
"n  c #DDE4D8",
"m  c #D9E0E3",
"M  c #DEE1E3",
"N  c #DFE2E4",
"B  c #DCE2EF",
"V  c #E6E6C8",
"C  c #E8E7CC",
"Z  c #E0E0D6",
"A  c #E3E3DD",
"S  c #E2E8DB",
"D  c #EBECDB",
"F  c #EAEDDE",
"G  c #EBEEDC",
"H  c #ECEDDB",
"J  c #EDEDDE",
"K  c #EFEFDE",
"L  c #F0EEDD",
"P  c #F0EFDC",
"I  c #F4F1C5",
"U  c #FDF1C2",
"Y  c #FBF5C9",
"T  c #F0F0D9",
"R  c #E2E1E3",
"E  c #E2E3E2",
"W  c #E0E3E7",
"Q  c #E0E4E7",
"!  c #E4E5E4",
"~  c #E1E7E8",
"^  c #E2E6EB",
"/  c #E1E7EC",
"(  c #E2E7ED",
")  c #E4E7EA",
"_  c #E5E9E3",
"`  c #E6EAE2",
"'  c #E3E8EA",
"]  c #E5EBEF",
"[  c #E7E9EC",
"{  c #E9EBE0",
"}  c #EBEEE2",
"|  c #E9EEE4",
" . c #ECEDE4",
".. c #ECEEE5",
"X. c #E9E8E9",
"o. c #EAEAEA",
"O. c #EBEBEE",
"+. c #EAECEF",
"@. c #ECEBEA",
"#. c #EEEDEC",
"$. c #EEEFED",
"%. c #E0E6FF",
"&. c #E3EBF3",
"*. c #E5EDF2",
"=. c #E9EDF1",
"-. c #EFF2EB",
";. c #EAF0F4",
":. c #EAF0F6",
">. c #EAF0F7",
",. c #EAF1F6",
"<. c #EBF1F6",
"1. c #EFF1F4",
"2. c #E8F0F9",
"3. c #EDF3F8",
"4. c #EDF4F8",
"5. c #EDF4FA",
"6. c #EEF5FC",
"7. c #F0EFF2",
"8. c #F1F0E3",
"9. c #F5F5E5",
"0. c #FFFEE6",
"q. c gray94",
"w. c #F3F1F0",
"e. c #F3F3F3",
"r. c #F0F2F5",
"t. c #F3F4F3",
"y. c #F3F5F5",
"u. c #F4F3F4",
"i. c #F4F5F5",
"p. c #F5F5F4",
"a. c gray96",
"s. c #F4F6F7",
"d. c #F6F4F6",
"f. c #F0F1FF",
"g. c #F1F5FA",
"h. c #F0F6FB",
"j. c #F0F7FC",
"k. c #F4F5F8",
"l. c #F5F5FA",
"z. c #F2F8FE",
"x. c #F5FAFE",
"c. c #F6FAFC",
"v. c #F6FBFE",
"b. c #FFFFF2",
"n. c #FBFAF8",
"m. c #F9FDFF",
"M. c #F8FEFF",
"N. c #FBFEFF",
"B. c #FDFAF8",
"V. c #FFFEF8",
"C. c #FCFCFE",
"Z. c #FCFDFF",
"A. c #FCFFFF",
"S. c #FDFFFF",
"D. c #FEFFFF",
"F. c gray100",
"G. c None",
/* pixels */
"G.G.G.G.G.G.G.G.G.G.G.G.G.G.G.G.G.G.G.G.G.G.G.G.G.G.G.G.G.G.G.G.",
"G.G.G.G.G.G.G.G.G.G.G.G.G.=.o.G.G.G.G.G.G.G.G.G.G.G.G.G.G.G.G.G.",
"G.G.G.G.G.G.G.G.G.G.G.F.o.i ! G.G.G.G.G.G.G.G.G.G.G.G.G.G.G.G.G.",
"G.G.G.G.G.G.G.G.G.G.G.O.A 5 R G.G.G.G.G.G.G.G.G.G.G.G.G.G.G.G.G.",
"G.G.G.G.G.G.G.G.G.G.q.E 8.r e G.G.G.G.G.G.G.G.G.G.G.G.G.G.G.G.G.",
"G.G.G.G.G.G.G.G.G.G.i Z 9.p i G.G.G.G.G.G.G.G.G.G.G.G.G.G.G.G.G.",
"G.G.G.G.G.G.G.G.G.G.8 w H Z i F.G.G.G.G.G.G.G.G.G.G.G.G.G.G.G.G.",
"G.G.G.G.G.G.G.G.G.G.8 0 V C 4 N z.F.G.G.G.G.G.G.G.G.G.G.G.G.G.G.",
"G.G.G.G.G.G.G.G.G.G.f.q , > a m &.,.e.F.B.$.e.G.G.G.G.G.G.G.G.G.",
"G.G.G.G.G.G.G.G.G.G.G.p 9 n | { _ ' m N f 6 @.G.G.G.G.G.G.G.G.G.",
"G.G.G.G.G.G.G.G.G.G.o./ =.{ D K K F S n s v 6.G.G.G.G.G.G.G.G.G.",
"G.G.G.G.G.G.G.G.G.#.] j.N.p. .F D J K ..1.N.=.=.G.G.G.G.G.G.G.G.",
"G.G.G.G.G.G.G.G.G.' 4.F.F.F.F.r.t.k.k.n.F.F.4.,.G.G.G.G.G.G.G.G.",
"G.G.G.G.G.G.G.G.G.Q v.F.F.F.F.F.F.b.3 V.F.F.v.=.q.G.G.G.G.G.G.G.",
"G.G.G.G.G.G.G.G.G.z h.F.F.F.F.N.Y & I F.F.F.F.3.1.G.G.G.G.G.G.G.",
"G.G.G.G.G.G.G.G.G.b z j.z.6.-.; # o < _ 2.*.=.=.p.G.G.G.G.G.G.G.",
"G.G.G.G.G.G.G.G.G.F.k b / B 1 X $ % * j ^ M ) p.G.G.G.G.G.G.G.G.",
"G.G.G.G.G.G.G.G.G.G.G.q.p.0.%.2 O = : G.G.G.G.G.G.G.G.G.G.G.G.G.",
"G.G.G.G.G.G.G.G.G.G.G.G.G.G.@ + . G.G.G.G.G.G.G.G.G.G.G.G.G.G.G.",
"G.G.G.G.G.G.G.G.G.G.G.G.G.U -   G.G.G.G.G.G.G.G.G.G.G.G.G.G.G.G."
};
