/* XPM */
static char *42-scaled[] = {
/* columns rows colors chars-per-pixel */
"18 11 78 1",
"  c black",
". c #0390039003A0",
"X c #066606660666",
"o c #0DAA0DAD0E0C",
"O c #0E520E560E5C",
"+ c #14BB14BB156F",
"@ c #1FE31FE31FE3",
"# c #227222962272",
"$ c #288C288C2ACE",
"% c #326632663266",
"& c #44E4447F444C",
"* c #4E234E23541A",
"= c #515651565376",
"- c #5B1D5B1D5B1D",
"; c #60E460D861BF",
": c #64DD65C96612",
"> c #678268047333",
", c #773777F87838",
"< c #76B677D17A6D",
"1 c #7A847A1273B1",
"2 c #E290DC1A7B9E",
"3 c #F684F2D5413F",
"4 c #811181608279",
"5 c #8A998AC48A9D",
"6 c #8EEC8F488F04",
"7 c #949C94AD94BA",
"8 c #970B9CE39D51",
"9 c #9BF39CCC9D2D",
"0 c #AE37ACECA199",
"q c #B0A1B1A3AF0A",
"w c #BA2DBADFBCEB",
"e c #BE2EBEF4C038",
"r c #DD27D6E495D8",
"t c #C315C355BD03",
"y c #E3D5DE5D9F30",
"u c #F51BEC6E88AD",
"i c #E731E169B2EA",
"p c #E816E210BE19",
"a c #FA36F652BD4F",
"s c #CDC0CE63D0A8",
"d c #CE6FCF15CD89",
"f c #D7CCD8C1CFFE",
"g c #DD78DD6ECF84",
"h c #D39AD49CD310",
"j c #D56DD6C4DAD7",
"k c #D52FD906DC1C",
"l c #D756D93CDD91",
"z c #D884DD12DF1A",
"x c #DA06DACED6D2",
"c c #D90ADADAD94D",
"v c #DA1BDB05DAAB",
"b c #DB95DC48DABA",
"n c #DD6DDF2EE098",
"m c #DA7ADBCBE191",
"M c #DC68DEBAE14C",
"N c #DDB0DE31E517",
"B c #DF16E029E532",
"V c #E1D9E1F3CD13",
"C c #E15FE192D9F8",
"Z c #E42BE498DB90",
"A c #E0F9E271E35B",
"S c #E1C1E2E2E807",
"D c #E3EBE4B4E7DF",
"F c #E62DE62DE76F",
"G c #E48BE51FEB5A",
"H c #E687E8E2EC61",
"J c #EB4EEB32F08D",
"K c #EEC7EF06F0F9",
"L c #EEF2EFCFF2BB",
"P c #FE23FBB4EE8D",
"I c #F1D9F2AAF1E1",
"U c #F57EF60FF85B",
"Y c #F630F77FFA2C",
"T c #F900F938F59D",
"R c #FE50FD9EFA8C",
"E c #FE24FE24FE71",
"W c #FF36FF3DFF30",
"Q c None",
/* pixels */
"QQQQQQ-e:QQQQQQQQQ",
"QQQQQ@dx;QQQQQQQQQ",
"QQQQQ=ZC4QQQQQQQQQ",
"QQQQQ*gVb765#QQQQQ",
"QQQQQ$tfbBlhvXQQQQ",
"QQQQQ9nDFTIDm,QQQQ",
"QQQQQzjJWWPRYNOQQQ",
"QQQQQkHGUaiJLNOQQQ",
"QQQQQqnDy3rws< QQQ",
"QQQQQQ&1u28+%QQQQQ",
"QQQQQQQ0p>OQQQQQQQ"
};
