/* XPM */
static char *42[] = {
/* columns rows colors chars-per-pixel */
"32 20 172 2",
"   c #E9E239",
".  c #FAEB29",
"X  c #FAF423",
"o  c #F5F23D",
"O  c #FBFC33",
"+  c #DCD25E",
"@  c #E1D459",
"#  c #E8DB70",
"$  c #EBE24B",
"%  c #EBE24C",
"&  c #F3E17D",
"*  c #F7F07B",
"=  c #B4CEFF",
"-  c #D8CC83",
";  c #D2CA9A",
":  c #CECFBE",
">  c #D8D1B0",
",  c #DAD9BF",
"<  c #EAE198",
"1  c #FEF9AD",
"2  c #C5C6C6",
"3  c #C4C5CD",
"4  c #C7C8C5",
"5  c #C8C8C7",
"6  c #CACDC6",
"7  c #CFCEC6",
"8  c #CBCBCA",
"9  c #CBC9CF",
"0  c #CBCCC9",
"q  c #CDCDCB",
"w  c #CDCECA",
"e  c #CDCDCD",
"r  c #CFCFCE",
"t  c #CCCED6",
"y  c #CACADA",
"u  c #CFCADC",
"i  c #CCCCDA",
"p  c #CECFD8",
"a  c #CFD0D0",
"s  c #D0CFD0",
"d  c #D7D3C4",
"f  c #DADAC8",
"g  c #DFDFCE",
"h  c #D2D2D1",
"j  c #D1D1D6",
"k  c #D2D3D6",
"l  c #D3D5D6",
"z  c #D4D4D3",
"x  c #D5D6D3",
"c  c gray83",
"v  c #D6D7D5",
"b  c #D1D2DA",
"n  c #D1D3DA",
"m  c #D2D1DA",
"M  c #D1D4DB",
"N  c #D3D5DD",
"B  c #D4D5D9",
"V  c #D5D5D8",
"C  c #D4D6D8",
"Z  c #D4D6D9",
"A  c #D4D4DD",
"S  c #D5D5DD",
"D  c #D6D6DF",
"F  c #D6D8DE",
"G  c #D7D8DE",
"H  c #D8D8D4",
"J  c #DFDFD1",
"K  c #DFDFD7",
"L  c #D8D8D8",
"P  c #D8DADA",
"I  c #D9DADA",
"U  c #D8D9DE",
"Y  c #D9DADC",
"T  c #DDDEDC",
"R  c #DEDCDE",
"E  c #D5D7E2",
"W  c #D6D8E0",
"Q  c #D7DBEB",
"!  c #D8D8E0",
"~  c #D8DBE3",
"^  c #D8DBE4",
"/  c #DADDE1",
"(  c #DBDFE4",
")  c #DCDDE1",
"_  c #DCDFE0",
"`  c #DEDFE0",
"'  c #DEDFE3",
"]  c #DCDFE4",
"[  c #DCDEE9",
"{  c #D1D3FF",
"}  c #DBDEF2",
"|  c #DEE1E3",
" . c #DFE0E2",
".. c #DEE0E5",
"X. c #DFE4E7",
"o. c #DFE1E8",
"O. c #E0DFE3",
"+. c #E6E6C7",
"@. c #E8E8CC",
"#. c #E0E1D6",
"$. c #E0E2DF",
"%. c #E2E3DD",
"&. c #EFEAD0",
"*. c #EFEBDB",
"=. c #F5EECE",
"-. c #FFFFCB",
";. c #F0F0D9",
":. c #FFF8D0",
">. c #E2E1E3",
",. c #E2E3E2",
"<. c #E3E3E7",
"1. c #E2E4E6",
"2. c #E4E5E4",
"3. c #E1E6E8",
"4. c #E4E4E8",
"5. c #E5E6EA",
"6. c #E6E7E8",
"7. c #E6E7EF",
"8. c #E7E8E5",
"9. c #E6EBED",
"0. c #E7EAEC",
"q. c #E6EAEE",
"w. c #E9E8E8",
"e. c #E9E9E9",
"r. c gray92",
"t. c #ECECEE",
"y. c #ECEDEF",
"u. c #EEEEEC",
"i. c #E6EBFF",
"p. c #EBECF6",
"a. c #ECECF4",
"s. c #EFEFFE",
"d. c #EFF1F6",
"f. c #F1EFEE",
"g. c #F0F0E3",
"h. c #F5F5E6",
"j. c #F1F1F1",
"k. c #F1F2F0",
"l. c #F0F2F2",
"z. c #F2F1F0",
"x. c gray95",
"c. c #F0F1F5",
"v. c #F1F1F4",
"b. c #F3F4F4",
"n. c #F4F4F3",
"m. c #F4F4F4",
"M. c #F4F4F5",
"N. c #F4F5F4",
"B. c #F2F3F9",
"V. c #F2F7FA",
"C. c #F5F4FB",
"Z. c #F4FAFE",
"A. c #F6FBFD",
"S. c #F9FAF5",
"D. c #FAFBF7",
"F. c #FBFBF6",
"G. c #FFFFF3",
"H. c #FCFCF7",
"J. c #FFFFF6",
"K. c #F9F9FF",
"L. c #FAF9FC",
"P. c #FAFCFD",
"I. c #FFFFF8",
"U. c gray99",
"Y. c #FCFCFD",
"T. c #FCFDFD",
"R. c #FDFDFD",
"E. c #FCFDFF",
"W. c #FFFFFD",
"Q. c #FEFFFF",
"!. c gray100",
"~. c None",
/* pixels */
"~.~.~.~.~.~.~.~.~.~.~.~.~.v.0.~.~.~.~.~.~.~.~.~.~.~.~.~.~.~.~.~.",
"~.~.~.~.~.~.~.~.~.~.~.!.e.l 2.~.~.~.~.~.~.~.~.~.~.~.~.~.~.~.~.~.",
"~.~.~.~.~.~.~.~.~.~.~.y.%.w >.~.~.~.~.~.~.~.~.~.~.~.~.~.~.~.~.~.",
"~.~.~.~.~.~.~.~.~.~.x.,.g.x k ~.~.~.~.~.~.~.~.~.~.~.~.~.~.~.~.~.",
"~.~.~.~.~.~.~.~.~.~.V #.h.H V ~.~.~.~.~.~.~.~.~.~.~.~.~.~.~.~.~.",
"~.~.~.~.~.~.~.~.~.~.y g ;.K l !.~.~.~.~.~.~.~.~.~.~.~.~.~.~.~.~.",
"~.~.~.~.~.~.~.~.~.~.y f +.@.7 Y r r 8 2 !.~.~.~.~.~.~.~.~.~.~.~.",
"~.~.~.~.~.~.~.~.~.~.s.g , : 6 l <.5.l 5 h N.N.~.~.~.~.~.~.~.~.~.",
"~.~.~.~.~.~.~.~.~.~.~.x 5 $.8.P S ] E _ w w y.~.~.~.~.~.~.~.~.~.",
"~.~.~.~.~.~.~.~.~.~.x.k 2.x.V O.x.S.x.~ n 3 V !.~.~.~.~.~.~.~.~.",
"~.~.~.~.~.~.~.~.~.b.| P q.S <.S.F.F.S.x.v.B.~ _ ~.~.~.~.~.~.~.~.",
"~.~.~.~.~.~.~.~.~.9.X.r m a.!.!.Y.Y.!.!.!.!.d.E !.~.~.~.~.~.~.~.",
"~.~.~.~.~.~.~.~.~.3.A.t S !.!.!.!.!.:.=.!.!.P.o.Y ~.~.~.~.~.~.~.",
"~.~.~.~.~.~.~.~.~./ Z.x.t C.!.!.L.1 # w.!.L.P.7.S ~.~.~.~.~.~.~.",
"~.~.~.~.~.~.~.~.~._ ( V.Y t } T * % 9 Q n N V S <.~.~.~.~.~.~.~.",
"~.~.~.~.~.~.~.~.~.J.T ] q./ > % O o @ d ' _ >.q.~.~.~.~.~.~.~.~.",
"~.~.~.~.~.~.~.~.~.~.~.f.x.!.&.< X   ; a.~.~.!.~.~.~.~.~.~.~.~.~.",
"~.~.~.~.~.~.~.~.~.~.~.~.~.~.-.. + u = ~.~.~.~.~.~.~.~.~.~.~.~.~.",
"~.~.~.~.~.~.~.~.~.~.~.~.~.I.& - { !.~.~.~.~.~.~.~.~.~.~.~.~.~.~.",
"~.~.~.~.~.~.~.~.~.~.~.~.~.J.*.i.~.~.~.~.~.~.~.~.~.~.~.~.~.~.~.~."
};
