/* XPM */
static char *43-scaled[] = {
/* columns rows colors chars-per-pixel */
"18 11 87 1",
"  c black",
". c #0656067A0697",
"X c #08D908CF08BC",
"o c #0943099A09ED",
"O c #0B310B0A0AE4",
"+ c #0F2D0F0D0EEC",
"@ c #1AE11AE11AFE",
"# c #1EF71F191F5C",
"$ c #2F6F2FA22F6F",
"% c #31AB31673139",
"& c #400040004000",
"* c #4824482F4824",
"= c #526852254DB4",
"- c #557F559254AB",
"; c #54CE55AF575D",
": c #5A275999578E",
"> c #59815A365B0F",
", c #5E9E63CA6922",
"< c #62EF65A567E8",
"1 c #64A16556659E",
"2 c #662F693B6BB7",
"3 c #689C692D6967",
"4 c #6999696769BD",
"5 c #6CC36D456D9C",
"6 c #6D5B6DAA6DA3",
"7 c #6C72700973C0",
"8 c #6EC8714A7360",
"9 c #70BE70CC7084",
"0 c #7DFE7DFE7DBD",
"q c #85C485A383CA",
"w c #8B718BD28BC1",
"e c #8F7C938E97A1",
"r c #9A359BE59DAC",
"t c #9B5B9D9E9F3B",
"y c #8D139D90ADF4",
"u c #BAA7BA52B899",
"i c #BE0DBDD5BC13",
"p c #BF25BED8BE9E",
"a c #B27BC1ABD095",
"s c #BE4EC5FCCDC7",
"d c #BD34C965D48C",
"f c #C3C1CA5CCFE1",
"g c #CEC4D012CDBE",
"h c #C3E6CBACD330",
"j c #C6E7CF2CD693",
"k c #C715D05FD950",
"l c #C9EECEE5D253",
"z c #C8FCCF87D585",
"x c #C64BD12BDAA8",
"c c #C7CFD166DA60",
"v c #CB8CD14CD6E0",
"b c #C995D145D910",
"n c #CC5CD561DE51",
"m c #D0A8D575DA8A",
"M c #CEF9D541DB1B",
"N c #CF97D84BDFAA",
"B c #D53AD826CC55",
"V c #D287D2F7D2C8",
"C c #D1D2D762D179",
"Z c #D2D2D7B7D910",
"A c #D6D5D8D1DBB9",
"S c #D2F9D9A9E0CA",
"D c #D5CDDB1ADCEC",
"F c #D84FDADADEC6",
"G c #CFA8D8F5E29E",
"H c #D34ADC18E509",
"J c #D674DCD8E30F",
"K c #D9C1DED8E1DD",
"L c #E047E393E259",
"P c #E89DE871D679",
"I c #E8EBE8ABDFB0",
"U c #E0FAE167E19A",
"Y c #ED85F01FEB6B",
"T c #EB0AEEC7F2DF",
"R c #EB34EF4EF3B1",
"E c #EE65F181EFF7",
"W c #EF09F325F736",
"Q c #F28FF598F8D6",
"! c #F766F83FF2AA",
"~ c #F5EDF864FA8E",
"^ c #F716F8EBFAB7",
"/ c #F6B3F94AFAF8",
"( c #F9AAF9B2F640",
") c #F8FAFABBF91F",
"_ c #FB62FC58FD9B",
"` c #FCBDFD0EFCB9",
"' c None",
/* pixels */
"''''''@3$'''''''''",
"'''''#pV*'''''''''",
"'''''-Iu''''''''''",
"'''''=Pger%O''''''",
"''''.:BCKJAtw'''''",
"''''0FDY!EUmm&''''",
"'''+UN/`(()/S8''''",
"'''OpkWQ`/RRH,''''",
"''''8fhskMvvl-''''",
"'''OyndkjaGbq'''''",
"'''.<66<932>''''''"
};
