/* XPM */
static char *43[] = {
/* columns rows colors chars-per-pixel */
"32 20 189 2",
"   c #6D92B7",
".  c #7C90A3",
"X  c #7A94AF",
"o  c #7F97AF",
"O  c #86A0BA",
"+  c #92A5B7",
"@  c #A1A9B1",
"#  c #A5AFB7",
"$  c #A7ADB4",
"%  c #8BA6C1",
"&  c #A9BAC9",
"*  c #A5BDD3",
"=  c #B1BCC7",
"-  c #B8BEC4",
";  c #BCC1C5",
":  c #BDC2C6",
">  c #B8C4CE",
",  c #B8C4CF",
"<  c #BEC5CC",
"1  c #BFC6CC",
"2  c #B8C3D0",
"3  c #B8C5D1",
"4  c #B8C6D3",
"5  c #BFC8D1",
"6  c #C1C7CA",
"7  c #C2C6CB",
"8  c #C4C7CA",
"9  c #C6CEC5",
"0  c #C2CACB",
"q  c #C5CBCF",
"w  c #C7CACC",
"e  c #C6CBCF",
"r  c #C5CCCB",
"t  c #C9CEC7",
"y  c #CDCCCE",
"u  c #CFCECF",
"i  c #C1C9D2",
"p  c #C2C9D2",
"a  c #C0CBD7",
"s  c #C2CBD6",
"d  c #C3CDD7",
"f  c #C5CCD3",
"g  c #C6CCD5",
"h  c #C6CED5",
"j  c #C0CDDA",
"k  c #C2CED9",
"l  c #C3CFD9",
"z  c #C3CFDB",
"x  c #C9CED1",
"c  c #CCCFD0",
"v  c #CDCFD4",
"b  c #C1D0DF",
"n  c #C2D0DD",
"m  c #C4D0DB",
"M  c #C7D2DC",
"N  c #CBD1D7",
"B  c #CDD0D6",
"V  c #CDD3D4",
"C  c #CFD2D5",
"Z  c #C8D1D9",
"A  c #CBD2D8",
"S  c #CAD4DE",
"D  c #CFD3D8",
"F  c #CDD4DB",
"G  c #CED5DC",
"H  c #CFD7DF",
"J  c #D8D7CE",
"K  c #DAD9CC",
"L  c #DBDBCD",
"P  c #D0D1D1",
"I  c #D0D3D6",
"U  c #D3D2D5",
"Y  c #D0D4D6",
"T  c #D4D4D3",
"R  c #D6D6D5",
"E  c #D7D6D6",
"W  c #D0D4D8",
"Q  c #D1D7DE",
"!  c #D7DCD5",
"~  c #D1D8DC",
"^  c #D4D8DC",
"/  c #D6DADE",
"(  c #D8D7D7",
")  c #DDDDD4",
"_  c #DADADB",
"`  c #D8DADC",
"'  c #DBDBDD",
"]  c #DFDDDC",
"[  c gray87",
"{  c #CDD8E2",
"}  c #D3DDE7",
"|  c #D4DEE7",
" . c #D5DFE7",
".. c #D2DEE9",
"X. c #D6DFE8",
"o. c #DADDE1",
"O. c #DCDFE2",
"+. c #DEE1D3",
"@. c #DDE0D5",
"#. c #DFE2DF",
"$. c #DDE2E3",
"%. c #DDE2E5",
"&. c #DBE5EE",
"*. c #DCE2E8",
"=. c #DDE3E9",
"-. c #DFE5EA",
";. c #DEE8F0",
":. c #E4E4CA",
">. c #E0E0D9",
",. c #E5E3DE",
"<. c #EAEAD0",
"1. c #EEECDF",
"2. c #F1F1DF",
"3. c #E3E3E2",
"4. c #E5E4E4",
"5. c #E6E5E6",
"6. c #E7E7E7",
"7. c #E3E9ED",
"8. c #E3E8EE",
"9. c #E6EAED",
"0. c #E8E7E2",
"q. c #E8E7E5",
"w. c #E9ECE5",
"e. c #E9EDE7",
"r. c #EAEDE7",
"t. c #EFEFE4",
"y. c #EBEAE8",
"u. c #EAEAEB",
"i. c #EBECEE",
"p. c #EEEDEC",
"a. c #EEEEEF",
"s. c #EFEFEF",
"d. c #E6EBF1",
"f. c #E7EDF3",
"g. c #E4ECF4",
"h. c #E7EDF4",
"j. c #EAEAF0",
"k. c #EDF1F2",
"l. c #EFF1F0",
"z. c #EFF1F3",
"x. c #EFF2F3",
"c. c #EDF3F7",
"v. c #EEF4F9",
"b. c #F0EFEF",
"n. c #F0F1F0",
"m. c #F3F3F3",
"M. c #F2F5F1",
"N. c #F4F7F3",
"B. c #F5F7F3",
"V. c #F6F7F3",
"C. c #F7F7F2",
"Z. c #F7F7F6",
"A. c #F4F6FA",
"S. c #F4F7FA",
"D. c #F7F8F2",
"F. c #F4F8FA",
"G. c #F5F9FB",
"H. c #F7F8FA",
"J. c #F8F8F0",
"K. c #F8F8F1",
"L. c #F8F9F1",
"P. c #F8F8F2",
"I. c #F9F9F2",
"U. c #F9F8F4",
"Y. c #F8F9F7",
"T. c #FAF8F5",
"R. c #FBF8F4",
"E. c #FEF9F4",
"W. c #FFFFF7",
"Q. c #FBFBFB",
"!. c #F8F9FD",
"~. c #F8FAFD",
"^. c #FAFBFD",
"/. c #FBFBFC",
"(. c #F9FCFE",
"). c #FBFCFE",
"_. c #FCFCFB",
"`. c #FFFCF9",
"'. c #FFFDFB",
"]. c #FDFCFC",
"[. c #FDFDFD",
"{. c #FCFDFE",
"}. c #FCFDFF",
"|. c #FDFDFE",
" X c #FEFDFC",
".X c #FFFFFC",
"XX c #FFFFFE",
"oX c gray100",
"OX c None",
/* pixels */
"OXOXOXOXOXOXOXOXOXOXOXOXOXOXOXOXOXOXOXOXOXOXOXOXOXOXOXOXOXOXOXOX",
"OXOXOXOXOXOXOXOXOXOXOXOXa.5.n.OXOXOXOXOXOXOXOXOXOXOXOXOXOXOXOXOX",
"OXOXOXOXOXOXOXOXOXOXOXs.R _ oXOXOXOXOXOXOXOXOXOXOXOXOXOXOXOXOXOX",
"OXOXOXOXOXOXOXOXOXOXi.0.J I OXOXOXOXOXOXOXOXOXOXOXOXOXOXOXOXOXOX",
"OXOXOXOXOXOXOXOXOXOX3.t.) u OXOXOXOXOXOXOXOXOXOXOXOXOXOXOXOXOXOX",
"OXOXOXOXOXOXOXOXOXOX) 2.,.u OXOXOXOXOXOXOXOXOXOXOXOXOXOXOXOXOXOX",
"OXOXOXOXOXOXOXOXOXOXK <.t.P f ^ O.4.OXOXOXOXOXOXOXOXOXOXOXOXOXOX",
"OXOXOXOXOXOXOXOXOXOXK :.+.r < H M P ] y.OXOXOXOXOXOXOXOXOXOXOXOX",
"OXOXOXOXOXOXOXOXOXOX] t 9 ! #.9.d.H D B %.n.oXOXOXOXOXOXOXOXOXOX",
"OXOXOXOXOXOXOXOXoX5.v 0 ) e.C.N.k.*.^ B 0 B k.OXOXOXOXOXOXOXOXOX",
"OXOXOXOXOXOXOXOXZ.D F -.k.N.C.J.J.M.e.t.$.g F oXOXOXOXOXOXOXOXOX",
"OXOXOXOXOXOXOXoXI > 7.F.).Q.J.C.C.C.N.F.).*.h k.OXOXOXOXOXOXOXOX",
"OXOXOXOXOXOXOXE.w z F.oXoXoXQ.Q.Q.Q.oXoXoXA.s p OXOXOXOXOXOXOXOX",
"OXOXOXOXOXOXOX`.8 2 c./.^.oXoXoXoXoX^.^.oXS.} 3 OXOXOXOXOXOXOXOX",
"OXOXOXOXOXOXOXOX( # n &.} } h.^.v.{ 5 n a z 3 p OXOXOXOXOXOXOXOX",
"OXOXOXOXOXOXOXOXoXR # 7 - @ M 3 1 E : D c ; w ' OXOXOXOXOXOXOXOX",
"OXOXOXOXOXOXOXOX  z s.& i.D . c M z oX5 S q.W.OXOXOXOXOXOXOXOXOX",
"OXOXOXOXOXOXOXg.O 5 } o V.* + oX% = h.X / oXOXOXOXOXOXOXOXOXOXOX",
"OXOXOXOXOXOXOX;.` `.7.s.oXw U.^.o.U.&.9.^.OXOXOXOXOXOXOXOXOXOXOX",
"OXOXOXOXOXOXOXOXOXOXOXOXOXOXOXOXOXOXOXOXOXOXOXOXOXOXOXOXOXOXOXOX"
};
