/* XPM */
static char *44-scaled[] = {
/* columns rows colors chars-per-pixel */
"18 11 95 2",
"   c #000200020002",
".  c #065106720693",
"X  c #0897088D0868",
"o  c #0941099609EB",
"O  c #0B310B0A0AE4",
"+  c #0DC60E460EDF",
"@  c #0F2D0F0D0EEC",
"#  c #0FE31090118B",
"$  c #1AFE1AFE1AFE",
"%  c #1EF71F191F5C",
"&  c #300730073007",
"*  c #31BE30E52EEB",
"=  c #36CF397D3C08",
"-  c #381C38883A5E",
";  c #484648464846",
":  c #529D528F4DE9",
">  c #557F559254AB",
",  c #54CE55AF575D",
"<  c #5A275999578E",
"1  c #58FF59D85B0F",
"2  c #5E9E6383684E",
"3  c #62B6653267AE",
"4  c #64A1656465C9",
"5  c #656B68216B20",
"6  c #68DD68DD68FA",
"7  c #69E969A869E9",
"8  c #6CC36D456D9C",
"9  c #6D5B6DAA6DA3",
"0  c #6C72700973C0",
"q  c #703C70BE711C",
"w  c #726C77AA7D36",
"e  c #7DFE7DFE7DBD",
"r  c #85C485A383CA",
"t  c #88518E5F92A4",
"y  c #8D7292239701",
"u  c #8D069D76ADE7",
"i  c #AEE8B131B30C",
"p  c #BAA7BA52B899",
"a  c #BDCDBD95BBCC",
"s  c #BF25BED8BE9E",
"d  c #BEC0C65ECD9E",
"f  c #B322C1FFD0E2",
"g  c #BDF8C9CBD4C6",
"h  c #C3C1CA5CCFE1",
"j  c #CECFCFD5CDA6",
"k  c #C44ECB9BD319",
"l  c #C59ACE5ED682",
"z  c #C715CFF5D8E6",
"x  c #C6D9D0CEDA43",
"c  c #C9EECEE5D253",
"v  c #C98CD03BD5CF",
"b  c #C773D1E1DA95",
"n  c #CBEDD1BFD6E0",
"m  c #C978D130D910",
"M  c #CC5CD561DE51",
"N  c #CF22D534DAD1",
"B  c #CF97D84BDFAA",
"V  c #D520D7A5CC6F",
"C  c #D240D2ADD27A",
"Z  c #D118D6C0D37B",
"A  c #D338DA1BE0B9",
"S  c #D5ADDB5ADCEC",
"D  c #D84FDADADEC6",
"F  c #CF7CD9A5E3BA",
"G  c #D339DB36E452",
"H  c #D934DD7CE0E7",
"J  c #E09DE6AAEC32",
"K  c #E03AE74AEC8C",
"L  c #E082E5DBECEF",
"P  c #E8ADE880D69D",
"I  c #E8EBE8ABDFB0",
"U  c #E0FAE167E19A",
"Y  c #E56DEA6AEF5E",
"T  c #E544EA7AF037",
"R  c #E908EC43EACA",
"E  c #E3A3EAEAF2B2",
"W  c #E9D6EDAEF210",
"Q  c #EA42EE91F350",
"!  c #EC92EF56F11C",
"~  c #EED5F230F56A",
"^  c #EFA7F2D2F726",
"/  c #F0A9F40EF7E8",
"(  c #EBF0F32EF908",
")  c #EFFBF58EFA16",
"_  c #F2BBF478F5A4",
"`  c #F1A9F4F2F8A9",
"'  c #F3FCF558F5BC",
"]  c #F327F5ABF808",
"[  c #F51AF75BF8F6",
"{  c #F446F73CF9FC",
"}  c #F73DF9B1FB1C",
"|  c #FC11FC36FB66",
" . c #FA80FBE1FD65",
".. c #FC0BFCECFDCD",
"X. c None",
/* pixels */
"X.X.X.X.X.X.$ 6 & X.X.X.X.X.X.X.X.X.",
"X.X.X.X.X.% s C ; X.X.X.X.X.X.X.X.X.",
"X.X.X.X.X.> I p X.- = & X.X.X.X.X.X.",
"X.X.X.X.X.: P j y J ( H t # X.X.X.X.",
"X.X.X.X.. < V Z Y Y Q ~ ` w   X.X.X.",
"X.X.X.X.e D S R } | ~ Y E E @ X.X.X.",
"X.X.X.@ U B } | _ ~ [ ] B i O X.X.X.",
"X.X.X.O s l ` ` | [ Q Q G 2 X.X.X.X.",
"X.X.X.X.0 k k d b N n v c > X.X.X.X.",
"X.X.X.O u M g b l f F m r X.X.X.X.X.",
"X.X.X.. 3 9 9 4 q 6 5 1 X.X.X.X.X.X."
};
