/* XPM */
static char *44[] = {
/* columns rows colors chars-per-pixel */
"32 20 210 2",
"   c #6D92B7",
".  c #7C90A3",
"X  c #7A94AF",
"o  c #7F97AF",
"O  c #86A0BA",
"+  c #92A5B7",
"@  c #A1A9B1",
"#  c #A5AFB7",
"$  c #A7ADB4",
"%  c #8BA6C1",
"&  c #A9BAC9",
"*  c #A5BDD3",
"=  c #B1BCC7",
"-  c #B8BEC4",
";  c #BCC1C5",
":  c #BDC2C6",
">  c #B8C3CE",
",  c #B8C4CE",
"<  c #BFC6CC",
"1  c #B8C3D0",
"2  c #B8C5D1",
"3  c #B8C6D3",
"4  c #BFC8D1",
"5  c #C2C6CB",
"6  c #C0C7CE",
"7  c #C4C7CA",
"8  c #C6CDC5",
"9  c #C2CACB",
"0  c #C1CACE",
"q  c #C5CBCF",
"w  c #C7CACC",
"e  c #C6CBCF",
"r  c #C5CCCB",
"t  c #C9CEC7",
"y  c #CDCCCE",
"u  c #CFCECF",
"i  c #C1C8D0",
"p  c #C2C9D2",
"a  c #C2CBD6",
"s  c #C0CCD7",
"d  c #C3CCD4",
"f  c #C6CBD1",
"g  c #C5CED7",
"h  c #C0CDDA",
"j  c #C2CED9",
"k  c #C3CFD9",
"l  c #C3CFDB",
"z  c #C9CED1",
"x  c #CCCFD0",
"c  c #CDCFD4",
"v  c #C1D0DF",
"b  c #C2D0DD",
"n  c #C4D0DB",
"m  c #C7D2DC",
"M  c #C8D1D9",
"N  c #CAD4DE",
"B  c #CBD5DE",
"V  c #CFD3D8",
"C  c #CDD4DB",
"Z  c #CFD4D9",
"A  c #D8D7CE",
"S  c #DAD9CC",
"D  c #DBDBCD",
"F  c #D0D1D1",
"G  c #D0D3D6",
"H  c #D3D2D5",
"J  c #D0D4D6",
"K  c #D4D4D3",
"L  c #D6D6D5",
"P  c #D7D6D6",
"I  c #D0D4D8",
"U  c #D4DAD7",
"Y  c #D6DADE",
"T  c #D8D7D7",
"R  c #DDDDD4",
"E  c #DADADB",
"W  c #D8DADC",
"Q  c #DBDBDD",
"!  c #DFDDDC",
"~  c #CDD7E1",
"^  c #CDD8E2",
"/  c #D0DAE2",
"(  c #D3DDE7",
")  c #D4DCE3",
"_  c #D4DEE7",
"`  c #D5DFE7",
"'  c #D6DDE6",
"]  c #D3DCE9",
"[  c #D2DEE9",
"{  c #D6DFE8",
"}  c #DADDE1",
"|  c #D9DFE7",
" . c #DEE1D3",
".. c #DDE0D4",
"X. c #D7E0E7",
"o. c #DAE0E5",
"O. c #DEE2E6",
"+. c #D8E1EB",
"@. c #DAE4EB",
"#. c #DBE4ED",
"$. c #DBE5EE",
"%. c #DCE2E8",
"&. c #DCE3ED",
"*. c #DDE4E9",
"=. c #DFE4EB",
"-. c #DFE5EA",
";. c #DDE6EF",
":. c #DBE7F2",
">. c #DCE7F0",
",. c #DEE8F0",
"<. c #E4E4CA",
"1. c #E0E0D9",
"2. c #E5E3DE",
"3. c #EAEAD0",
"4. c #EEECDF",
"5. c #F1F1DF",
"6. c #E3E3E2",
"7. c #E1E5E5",
"8. c #E5E2E1",
"9. c #E6E5E6",
"0. c #E7E7E7",
"q. c #E0E4E8",
"w. c #E1E6EC",
"e. c #E7E3E9",
"r. c #E3E9ED",
"t. c #E3E8EE",
"y. c #E6E9ED",
"u. c #E8E7E2",
"i. c #E8E7E5",
"p. c #EFEFE4",
"a. c #EAEAEB",
"s. c #EBECEE",
"d. c #EEEDEC",
"f. c #EEEEEF",
"g. c #EFEFEF",
"h. c #E0E9F2",
"j. c #E6EDF1",
"k. c #E7EDF3",
"l. c #E4ECF4",
"z. c #E7EDF4",
"x. c #EAEAF0",
"c. c #EBEEF1",
"v. c #EEF0EF",
"b. c #EFF1EF",
"n. c #E7F0F8",
"m. c #ECF0F2",
"M. c #EDF0F3",
"N. c #EDF1F3",
"B. c #EEF1F2",
"V. c #EDF1F5",
"C. c #EDF3F7",
"Z. c #EEF1F5",
"A. c #EFF2F4",
"S. c #EFF3F6",
"D. c #E8F1F9",
"F. c #ECF3F9",
"G. c #EDF3F8",
"H. c #ECF4FA",
"J. c #EEF4F9",
"K. c #EFF5FB",
"L. c #F0EFEF",
"P. c #FFF5E3",
"I. c #F3F3F3",
"U. c #F2F3F5",
"Y. c #F3F4F5",
"T. c gray96",
"R. c #F7F7F6",
"E. c #F2F5FA",
"W. c #F3F7F9",
"Q. c #F4F8FA",
"!. c #F5F9FA",
"~. c #F5F9FB",
"^. c #F5FBFE",
"/. c #F6FAFD",
"(. c #F6FAFF",
"). c #F8F7F7",
"_. c #F9F8F4",
"`. c #F9F9F7",
"'. c #FAF8F5",
"]. c #FBF8F4",
"[. c #FEF9F4",
"{. c #FFFFF7",
"}. c #FAF9F9",
"|. c #FAFAFB",
" X c #F8F9FD",
".X c #F8FAFD",
"XX c #F8FBFE",
"oX c #FAFBFC",
"OX c #FBFBFC",
"+X c #FBFCFD",
"@X c #FBFDFD",
"#X c #FBFCFE",
"$X c #FFFCF9",
"%X c #FFFDFB",
"&X c #FDFDFC",
"*X c #FDFDFD",
"=X c #FCFDFE",
"-X c #FCFDFF",
";X c #FDFDFE",
":X c #FDFEFD",
">X c #FCFEFF",
",X c #FCFFFF",
"<X c #FDFEFF",
"1X c #FEFDFC",
"2X c #FFFFFC",
"3X c #FEFFFF",
"4X c #FFFEFE",
"5X c #FFFFFE",
"6X c gray100",
"7X c None",
/* pixels */
"7X7X7X7X7X7X7X7X7X7X7X7X7X7X7X7X7X7X7X7X7X7X7X7X7X7X7X7X7X7X7X7X",
"7X7X7X7X7X7X7X7X7X7X7X7Xg.9.I.7X7X7X7X7X7X7X7X7X7X7X7X7X7X7X7X7X",
"7X7X7X7X7X7X7X7X7X7X7Xg.K E 6X7X7X7X7X7X7X7X7X7X7X7X7X7X7X7X7X7X",
"7X7X7X7X7X7X7X7X7X7Xs.u.A G 7X7X7X7X7X7X7X7X7X7X7X7X7X7X7X7X7X7X",
"7X7X7X7X7X7X7X7X7X7X6.p.R u 7X7X7X7X7X7X7X7X7X7X7X7X7X7X7X7X7X7X",
"7X7X7X7X7X7X7X7X7X7XR 5.2.u 7X7Xe.{ :.#.P.7X7X7X7X7X7X7X7X7X7X7X",
"7X7X7X7X7X7X7X7X7X7XD 3.p.F f C | H.^.n.&.B 0 7X7X7X7X7X7X7X7X7X",
"7X7X7X7X7X7X7X7X7X7XS <.R r < ~ / y.6X6XH.G.h.] 7X7X7X7X7X7X7X7X",
"7X7X7X7X7X7X7X7X7X7X! t 8 U j.^.V.) 7.y.s.6X^.>.7X7X7X7X7X7X7X7X",
"7X7X7X7X7X7X7X7X6X9.c 9 ..7.#X6X6XV.&.w.X.o.#Xn.&.7X7X7X7X7X7X7X",
"7X7X7X7X7X7X7X7XR.V C -.m.v.C.#X6X6X6X#XY.] -.V.#.7X7X7X7X7X7X7X",
"7X7X7X7X7X7X7X6XG , r.Q.6X`.v.V.m.c.Q.W.V.-.d O.2.7X7X7X7X7X7X7X",
"7X7X7X7X7X7X7X[.w l Q.6X6X6X$XR.}.R.U.}.6XU.g p 7X7X7X7X7X7X7X7X",
"7X7X7X7X7X7X7X$X7 1 V.6X#X#X6X6X6X#X#X#X#XY.] , 7X7X7X7X7X7X7X7X",
"7X7X7X7X7X7X7X7XT # b &._ ( z..XH.^ 4 b l l 2 p 7X7X7X7X7X7X7X7X",
"7X7X7X7X7X7X7X7X6XL # 5 - @ m 2 : E : J x ; w Q 7X7X7X7X7X7X7X7X",
"7X7X7X7X7X7X7X7X  l g.& g.J . e N l 6X4 N i.{.7X7X7X7X7X7X7X7X7X",
"7X7X7X7X7X7X7Xl.O 4 ( o _.* + 6X% = n.X Y 6X7X7X7X7X7X7X7X7X7X7X",
"7X7X7X7X7X7X7X;.W $Xr.g.6Xw `..XQ `.+.y..X7X7X7X7X7X7X7X7X7X7X7X",
"7X7X7X7X7X7X7X7X7X7X7X7X7X7X7X7X7X7X7X7X7X7X7X7X7X7X7X7X7X7X7X7X"
};
